<?xml version="1.0" encoding="utf-8" standalone="no"?>
<!DOCTYPE svg PUBLIC "-//W3C//DTD SVG 1.1//EN"
  "http://www.w3.org/Graphics/SVG/1.1/DTD/svg11.dtd">
<svg xmlns:xlink="http://www.w3.org/1999/xlink" width="357.385312pt" height="249.338125pt" viewBox="0 0 357.385312 249.338125" xmlns="http://www.w3.org/2000/svg" version="1.1">
 <metadata>
  <rdf:RDF xmlns:dc="http://purl.org/dc/elements/1.1/" xmlns:cc="http://creativecommons.org/ns#" xmlns:rdf="http://www.w3.org/1999/02/22-rdf-syntax-ns#">
   <cc:Work>
    <dc:type rdf:resource="http://purl.org/dc/dcmitype/StillImage"/>
    <dc:date>2024-06-09T22:02:26.649287</dc:date>
    <dc:format>image/svg+xml</dc:format>
    <dc:creator>
     <cc:Agent>
      <dc:title>Matplotlib v3.8.0, https://matplotlib.org/</dc:title>
     </cc:Agent>
    </dc:creator>
   </cc:Work>
  </rdf:RDF>
 </metadata>
 <defs>
  <style type="text/css">*{stroke-linejoin: round; stroke-linecap: butt}</style>
 </defs>
 <g id="figure_1">
  <g id="patch_1">
   <path d="M 0 249.338125 
L 357.385312 249.338125 
L 357.385312 0 
L 0 0 
z
" style="fill: #ffffff"/>
  </g>
  <g id="axes_1">
   <g id="patch_2">
    <path d="M 34.982813 228.96 
L 302.822813 228.96 
L 302.822813 7.2 
L 34.982813 7.2 
z
" style="fill: #ffffff"/>
   </g>
   <g id="matplotlib.axis_1">
    <g id="xtick_1">
     <g id="line2d_1">
      <path d="M 47.157358 228.96 
L 47.157358 7.2 
" clip-path="url(#p705e727889)" style="fill: none; stroke: #c7dedf; stroke-width: 0.3; stroke-linecap: square"/>
     </g>
     <g id="line2d_2">
      <defs>
       <path id="mbe8738fa09" d="M 0 0 
L 0 -3.5 
" style="stroke: #757575; stroke-width: 0.8"/>
      </defs>
      <g>
       <use xlink:href="#mbe8738fa09" x="47.157358" y="228.96" style="fill: #757575; stroke: #757575; stroke-width: 0.8"/>
      </g>
     </g>
     <g id="text_1">
      <!-- 0 -->
      <g style="fill: #757575" transform="translate(43.976108 240.058437) scale(0.1 -0.1)">
       <defs>
        <path id="DejaVuSans-30" d="M 2034 4250 
Q 1547 4250 1301 3770 
Q 1056 3291 1056 2328 
Q 1056 1369 1301 889 
Q 1547 409 2034 409 
Q 2525 409 2770 889 
Q 3016 1369 3016 2328 
Q 3016 3291 2770 3770 
Q 2525 4250 2034 4250 
z
M 2034 4750 
Q 2819 4750 3233 4129 
Q 3647 3509 3647 2328 
Q 3647 1150 3233 529 
Q 2819 -91 2034 -91 
Q 1250 -91 836 529 
Q 422 1150 422 2328 
Q 422 3509 836 4129 
Q 1250 4750 2034 4750 
z
" transform="scale(0.015625)"/>
       </defs>
       <use xlink:href="#DejaVuSans-30"/>
      </g>
     </g>
    </g>
    <g id="xtick_2">
     <g id="line2d_3">
      <path d="M 108.030085 228.96 
L 108.030085 7.2 
" clip-path="url(#p705e727889)" style="fill: none; stroke: #c7dedf; stroke-width: 0.3; stroke-linecap: square"/>
     </g>
     <g id="line2d_4">
      <g>
       <use xlink:href="#mbe8738fa09" x="108.030085" y="228.96" style="fill: #757575; stroke: #757575; stroke-width: 0.8"/>
      </g>
     </g>
     <g id="text_2">
      <!-- 1 -->
      <g style="fill: #757575" transform="translate(104.848835 240.058437) scale(0.1 -0.1)">
       <defs>
        <path id="DejaVuSans-31" d="M 794 531 
L 1825 531 
L 1825 4091 
L 703 3866 
L 703 4441 
L 1819 4666 
L 2450 4666 
L 2450 531 
L 3481 531 
L 3481 0 
L 794 0 
L 794 531 
z
" transform="scale(0.015625)"/>
       </defs>
       <use xlink:href="#DejaVuSans-31"/>
      </g>
     </g>
    </g>
    <g id="xtick_3">
     <g id="line2d_5">
      <path d="M 168.902813 228.96 
L 168.902813 7.2 
" clip-path="url(#p705e727889)" style="fill: none; stroke: #c7dedf; stroke-width: 0.3; stroke-linecap: square"/>
     </g>
     <g id="line2d_6">
      <g>
       <use xlink:href="#mbe8738fa09" x="168.902813" y="228.96" style="fill: #757575; stroke: #757575; stroke-width: 0.8"/>
      </g>
     </g>
     <g id="text_3">
      <!-- 2 -->
      <g style="fill: #757575" transform="translate(165.721563 240.058437) scale(0.1 -0.1)">
       <defs>
        <path id="DejaVuSans-32" d="M 1228 531 
L 3431 531 
L 3431 0 
L 469 0 
L 469 531 
Q 828 903 1448 1529 
Q 2069 2156 2228 2338 
Q 2531 2678 2651 2914 
Q 2772 3150 2772 3378 
Q 2772 3750 2511 3984 
Q 2250 4219 1831 4219 
Q 1534 4219 1204 4116 
Q 875 4013 500 3803 
L 500 4441 
Q 881 4594 1212 4672 
Q 1544 4750 1819 4750 
Q 2544 4750 2975 4387 
Q 3406 4025 3406 3419 
Q 3406 3131 3298 2873 
Q 3191 2616 2906 2266 
Q 2828 2175 2409 1742 
Q 1991 1309 1228 531 
z
" transform="scale(0.015625)"/>
       </defs>
       <use xlink:href="#DejaVuSans-32"/>
      </g>
     </g>
    </g>
    <g id="xtick_4">
     <g id="line2d_7">
      <path d="M 229.77554 228.96 
L 229.77554 7.2 
" clip-path="url(#p705e727889)" style="fill: none; stroke: #c7dedf; stroke-width: 0.3; stroke-linecap: square"/>
     </g>
     <g id="line2d_8">
      <g>
       <use xlink:href="#mbe8738fa09" x="229.77554" y="228.96" style="fill: #757575; stroke: #757575; stroke-width: 0.8"/>
      </g>
     </g>
     <g id="text_4">
      <!-- 3 -->
      <g style="fill: #757575" transform="translate(226.59429 240.058437) scale(0.1 -0.1)">
       <defs>
        <path id="DejaVuSans-33" d="M 2597 2516 
Q 3050 2419 3304 2112 
Q 3559 1806 3559 1356 
Q 3559 666 3084 287 
Q 2609 -91 1734 -91 
Q 1441 -91 1130 -33 
Q 819 25 488 141 
L 488 750 
Q 750 597 1062 519 
Q 1375 441 1716 441 
Q 2309 441 2620 675 
Q 2931 909 2931 1356 
Q 2931 1769 2642 2001 
Q 2353 2234 1838 2234 
L 1294 2234 
L 1294 2753 
L 1863 2753 
Q 2328 2753 2575 2939 
Q 2822 3125 2822 3475 
Q 2822 3834 2567 4026 
Q 2313 4219 1838 4219 
Q 1578 4219 1281 4162 
Q 984 4106 628 3988 
L 628 4550 
Q 988 4650 1302 4700 
Q 1616 4750 1894 4750 
Q 2613 4750 3031 4423 
Q 3450 4097 3450 3541 
Q 3450 3153 3228 2886 
Q 3006 2619 2597 2516 
z
" transform="scale(0.015625)"/>
       </defs>
       <use xlink:href="#DejaVuSans-33"/>
      </g>
     </g>
    </g>
    <g id="xtick_5">
     <g id="line2d_9">
      <path d="M 290.648267 228.96 
L 290.648267 7.2 
" clip-path="url(#p705e727889)" style="fill: none; stroke: #c7dedf; stroke-width: 0.3; stroke-linecap: square"/>
     </g>
     <g id="line2d_10">
      <g>
       <use xlink:href="#mbe8738fa09" x="290.648267" y="228.96" style="fill: #757575; stroke: #757575; stroke-width: 0.8"/>
      </g>
     </g>
     <g id="text_5">
      <!-- 4 -->
      <g style="fill: #757575" transform="translate(287.467017 240.058437) scale(0.1 -0.1)">
       <defs>
        <path id="DejaVuSans-34" d="M 2419 4116 
L 825 1625 
L 2419 1625 
L 2419 4116 
z
M 2253 4666 
L 3047 4666 
L 3047 1625 
L 3713 1625 
L 3713 1100 
L 3047 1100 
L 3047 0 
L 2419 0 
L 2419 1100 
L 313 1100 
L 313 1709 
L 2253 4666 
z
" transform="scale(0.015625)"/>
       </defs>
       <use xlink:href="#DejaVuSans-34"/>
      </g>
     </g>
    </g>
   </g>
   <g id="matplotlib.axis_2">
    <g id="ytick_1">
     <g id="line2d_11">
      <path d="M 34.982813 216.071771 
L 302.822813 216.071771 
" clip-path="url(#p705e727889)" style="fill: none; stroke: #c7dedf; stroke-width: 0.3; stroke-linecap: square"/>
     </g>
     <g id="line2d_12">
      <defs>
       <path id="md83d4271e5" d="M 0 0 
L 3.5 0 
" style="stroke: #757575; stroke-width: 0.8"/>
      </defs>
      <g>
       <use xlink:href="#md83d4271e5" x="34.982813" y="216.071771" style="fill: #757575; stroke: #757575; stroke-width: 0.8"/>
      </g>
     </g>
     <g id="text_6">
      <!-- −0.2 -->
      <g style="fill: #757575" transform="translate(7.2 219.870989) scale(0.1 -0.1)">
       <defs>
        <path id="DejaVuSans-2212" d="M 678 2272 
L 4684 2272 
L 4684 1741 
L 678 1741 
L 678 2272 
z
" transform="scale(0.015625)"/>
        <path id="DejaVuSans-2e" d="M 684 794 
L 1344 794 
L 1344 0 
L 684 0 
L 684 794 
z
" transform="scale(0.015625)"/>
       </defs>
       <use xlink:href="#DejaVuSans-2212"/>
       <use xlink:href="#DejaVuSans-30" x="83.789062"/>
       <use xlink:href="#DejaVuSans-2e" x="147.412109"/>
       <use xlink:href="#DejaVuSans-32" x="179.199219"/>
      </g>
     </g>
    </g>
    <g id="ytick_2">
     <g id="line2d_13">
      <path d="M 34.982813 182.939809 
L 302.822813 182.939809 
" clip-path="url(#p705e727889)" style="fill: none; stroke: #c7dedf; stroke-width: 0.3; stroke-linecap: square"/>
     </g>
     <g id="line2d_14">
      <g>
       <use xlink:href="#md83d4271e5" x="34.982813" y="182.939809" style="fill: #757575; stroke: #757575; stroke-width: 0.8"/>
      </g>
     </g>
     <g id="text_7">
      <!-- 0.0 -->
      <g style="fill: #757575" transform="translate(15.579688 186.739028) scale(0.1 -0.1)">
       <use xlink:href="#DejaVuSans-30"/>
       <use xlink:href="#DejaVuSans-2e" x="63.623047"/>
       <use xlink:href="#DejaVuSans-30" x="95.410156"/>
      </g>
     </g>
    </g>
    <g id="ytick_3">
     <g id="line2d_15">
      <path d="M 34.982813 149.807847 
L 302.822813 149.807847 
" clip-path="url(#p705e727889)" style="fill: none; stroke: #c7dedf; stroke-width: 0.3; stroke-linecap: square"/>
     </g>
     <g id="line2d_16">
      <g>
       <use xlink:href="#md83d4271e5" x="34.982813" y="149.807847" style="fill: #757575; stroke: #757575; stroke-width: 0.8"/>
      </g>
     </g>
     <g id="text_8">
      <!-- 0.2 -->
      <g style="fill: #757575" transform="translate(15.579688 153.607066) scale(0.1 -0.1)">
       <use xlink:href="#DejaVuSans-30"/>
       <use xlink:href="#DejaVuSans-2e" x="63.623047"/>
       <use xlink:href="#DejaVuSans-32" x="95.410156"/>
      </g>
     </g>
    </g>
    <g id="ytick_4">
     <g id="line2d_17">
      <path d="M 34.982813 116.675885 
L 302.822813 116.675885 
" clip-path="url(#p705e727889)" style="fill: none; stroke: #c7dedf; stroke-width: 0.3; stroke-linecap: square"/>
     </g>
     <g id="line2d_18">
      <g>
       <use xlink:href="#md83d4271e5" x="34.982813" y="116.675885" style="fill: #757575; stroke: #757575; stroke-width: 0.8"/>
      </g>
     </g>
     <g id="text_9">
      <!-- 0.4 -->
      <g style="fill: #757575" transform="translate(15.579688 120.475104) scale(0.1 -0.1)">
       <use xlink:href="#DejaVuSans-30"/>
       <use xlink:href="#DejaVuSans-2e" x="63.623047"/>
       <use xlink:href="#DejaVuSans-34" x="95.410156"/>
      </g>
     </g>
    </g>
    <g id="ytick_5">
     <g id="line2d_19">
      <path d="M 34.982813 83.543924 
L 302.822813 83.543924 
" clip-path="url(#p705e727889)" style="fill: none; stroke: #c7dedf; stroke-width: 0.3; stroke-linecap: square"/>
     </g>
     <g id="line2d_20">
      <g>
       <use xlink:href="#md83d4271e5" x="34.982813" y="83.543924" style="fill: #757575; stroke: #757575; stroke-width: 0.8"/>
      </g>
     </g>
     <g id="text_10">
      <!-- 0.6 -->
      <g style="fill: #757575" transform="translate(15.579688 87.343142) scale(0.1 -0.1)">
       <defs>
        <path id="DejaVuSans-36" d="M 2113 2584 
Q 1688 2584 1439 2293 
Q 1191 2003 1191 1497 
Q 1191 994 1439 701 
Q 1688 409 2113 409 
Q 2538 409 2786 701 
Q 3034 994 3034 1497 
Q 3034 2003 2786 2293 
Q 2538 2584 2113 2584 
z
M 3366 4563 
L 3366 3988 
Q 3128 4100 2886 4159 
Q 2644 4219 2406 4219 
Q 1781 4219 1451 3797 
Q 1122 3375 1075 2522 
Q 1259 2794 1537 2939 
Q 1816 3084 2150 3084 
Q 2853 3084 3261 2657 
Q 3669 2231 3669 1497 
Q 3669 778 3244 343 
Q 2819 -91 2113 -91 
Q 1303 -91 875 529 
Q 447 1150 447 2328 
Q 447 3434 972 4092 
Q 1497 4750 2381 4750 
Q 2619 4750 2861 4703 
Q 3103 4656 3366 4563 
z
" transform="scale(0.015625)"/>
       </defs>
       <use xlink:href="#DejaVuSans-30"/>
       <use xlink:href="#DejaVuSans-2e" x="63.623047"/>
       <use xlink:href="#DejaVuSans-36" x="95.410156"/>
      </g>
     </g>
    </g>
    <g id="ytick_6">
     <g id="line2d_21">
      <path d="M 34.982813 50.411962 
L 302.822813 50.411962 
" clip-path="url(#p705e727889)" style="fill: none; stroke: #c7dedf; stroke-width: 0.3; stroke-linecap: square"/>
     </g>
     <g id="line2d_22">
      <g>
       <use xlink:href="#md83d4271e5" x="34.982813" y="50.411962" style="fill: #757575; stroke: #757575; stroke-width: 0.8"/>
      </g>
     </g>
     <g id="text_11">
      <!-- 0.8 -->
      <g style="fill: #757575" transform="translate(15.579688 54.211181) scale(0.1 -0.1)">
       <defs>
        <path id="DejaVuSans-38" d="M 2034 2216 
Q 1584 2216 1326 1975 
Q 1069 1734 1069 1313 
Q 1069 891 1326 650 
Q 1584 409 2034 409 
Q 2484 409 2743 651 
Q 3003 894 3003 1313 
Q 3003 1734 2745 1975 
Q 2488 2216 2034 2216 
z
M 1403 2484 
Q 997 2584 770 2862 
Q 544 3141 544 3541 
Q 544 4100 942 4425 
Q 1341 4750 2034 4750 
Q 2731 4750 3128 4425 
Q 3525 4100 3525 3541 
Q 3525 3141 3298 2862 
Q 3072 2584 2669 2484 
Q 3125 2378 3379 2068 
Q 3634 1759 3634 1313 
Q 3634 634 3220 271 
Q 2806 -91 2034 -91 
Q 1263 -91 848 271 
Q 434 634 434 1313 
Q 434 1759 690 2068 
Q 947 2378 1403 2484 
z
M 1172 3481 
Q 1172 3119 1398 2916 
Q 1625 2713 2034 2713 
Q 2441 2713 2670 2916 
Q 2900 3119 2900 3481 
Q 2900 3844 2670 4047 
Q 2441 4250 2034 4250 
Q 1625 4250 1398 4047 
Q 1172 3844 1172 3481 
z
" transform="scale(0.015625)"/>
       </defs>
       <use xlink:href="#DejaVuSans-30"/>
       <use xlink:href="#DejaVuSans-2e" x="63.623047"/>
       <use xlink:href="#DejaVuSans-38" x="95.410156"/>
      </g>
     </g>
    </g>
    <g id="ytick_7">
     <g id="line2d_23">
      <path d="M 34.982813 17.28 
L 302.822813 17.28 
" clip-path="url(#p705e727889)" style="fill: none; stroke: #c7dedf; stroke-width: 0.3; stroke-linecap: square"/>
     </g>
     <g id="line2d_24">
      <g>
       <use xlink:href="#md83d4271e5" x="34.982813" y="17.28" style="fill: #757575; stroke: #757575; stroke-width: 0.8"/>
      </g>
     </g>
     <g id="text_12">
      <!-- 1.0 -->
      <g style="fill: #757575" transform="translate(15.579688 21.079219) scale(0.1 -0.1)">
       <use xlink:href="#DejaVuSans-31"/>
       <use xlink:href="#DejaVuSans-2e" x="63.623047"/>
       <use xlink:href="#DejaVuSans-30" x="95.410156"/>
      </g>
     </g>
    </g>
   </g>
   <g id="line2d_25">
    <path d="M 47.157358 17.28 
L 49.616862 17.7245 
L 52.076366 19.053696 
L 54.53587 21.254758 
L 56.995374 24.306472 
L 59.454879 28.179479 
L 61.914383 32.836613 
L 64.373887 38.233324 
L 66.833391 44.318193 
L 69.292895 51.033514 
L 71.752399 58.315951 
L 74.211903 66.097259 
L 76.671408 74.305054 
L 79.130912 82.863626 
L 81.590416 91.694791 
L 84.04992 100.718756 
L 86.509424 109.855008 
L 88.968928 119.023195 
L 91.428432 128.144002 
L 93.887936 137.140005 
L 96.347441 145.936497 
L 98.806945 154.462273 
L 101.266449 162.650365 
L 103.725953 170.43872 
L 106.185457 177.770812 
L 108.644961 184.596181 
L 111.104465 190.870895 
L 113.56397 196.557927 
L 116.023474 201.627449 
L 118.482978 206.057026 
L 120.942482 209.831732 
L 123.401986 212.944165 
L 125.86149 215.394377 
L 128.320994 217.18971 
L 130.780498 218.34455 
L 133.240003 218.88 
L 135.699507 218.823475 
L 138.159011 218.208229 
L 140.618515 217.072816 
L 143.078019 215.460499 
L 145.537523 213.418609 
L 147.997027 210.99787 
L 150.456532 208.251688 
L 152.916036 205.23543 
L 155.37554 202.005683 
L 157.835044 198.61952 
L 160.294548 195.133774 
L 162.754052 191.604326 
L 165.213556 188.085428 
L 167.67306 184.629054 
L 170.132565 181.284297 
L 172.592069 178.096823 
L 175.051573 175.10837 
L 177.511077 172.356323 
L 179.970581 169.873342 
L 182.430085 167.687073 
L 184.889589 165.819925 
L 187.349093 164.288923 
L 189.808598 163.10564 
L 192.268102 162.276198 
L 194.727606 161.801349 
L 197.18711 161.676618 
L 199.646614 161.892525 
L 202.106118 162.434861 
L 204.565622 163.285026 
L 207.025127 164.420419 
L 209.484631 165.814876 
L 211.944135 167.439141 
L 214.403639 169.261377 
L 216.863143 171.247696 
L 219.322647 173.362707 
L 221.782151 175.570068 
L 224.241655 177.833048 
L 226.70116 180.115073 
L 229.160664 182.380259 
L 231.620168 184.593923 
L 234.079672 186.723067 
L 236.539176 188.736826 
L 238.99868 190.60687 
L 241.458184 192.307766 
L 243.917689 193.81729 
L 246.377193 195.11668 
L 248.836697 196.190837 
L 251.296201 197.028465 
L 253.755705 197.622156 
L 256.215209 197.968413 
L 258.674713 198.067614 
L 261.134217 197.92392 
L 263.593722 197.545132 
L 266.053226 196.942491 
L 268.51273 196.130437 
L 270.972234 195.12632 
L 273.431738 193.950078 
L 275.891242 192.623878 
L 278.350746 191.171731 
L 280.810251 189.619096 
L 283.269755 187.992454 
L 285.729259 186.318891 
L 288.188763 184.625666 
L 290.648267 182.939796 
" clip-path="url(#p705e727889)" style="fill: none; stroke: #e41a1c; stroke-width: 1.5; stroke-linecap: square"/>
   </g>
   <g id="line2d_26">
    <path d="M 47.157358 100.109904 
L 49.616862 100.332155 
L 52.076366 100.996752 
L 54.53587 102.097283 
L 56.995374 103.62314 
L 59.454879 105.559644 
L 61.914383 107.888211 
L 64.373887 110.586566 
L 66.833391 113.629001 
L 69.292895 116.986661 
L 71.752399 120.62788 
L 74.211903 124.518534 
L 76.671408 128.622431 
L 79.130912 132.901718 
L 81.590416 137.3173 
L 84.04992 141.829282 
L 86.509424 146.397409 
L 88.968928 150.981502 
L 91.428432 155.541905 
L 93.887936 160.039907 
L 96.347441 164.438153 
L 98.806945 168.701041 
L 101.266449 172.795087 
L 103.725953 176.689264 
L 106.185457 180.35531 
L 108.644961 183.767995 
L 111.104465 186.905352 
L 113.56397 189.748868 
L 116.023474 192.283629 
L 118.482978 194.498417 
L 120.942482 196.38577 
L 123.401986 197.941987 
L 125.86149 199.167093 
L 128.320994 200.06476 
L 130.780498 200.642179 
L 133.240003 200.909904 
L 135.699507 200.881642 
L 138.159011 200.574019 
L 140.618515 200.006312 
L 143.078019 199.200154 
L 145.537523 198.179209 
L 147.997027 196.968839 
L 150.456532 195.595748 
L 152.916036 194.087619 
L 155.37554 192.472746 
L 157.835044 190.779664 
L 160.294548 189.036791 
L 162.754052 187.272068 
L 165.213556 185.512619 
L 167.67306 183.784431 
L 170.132565 182.112053 
L 172.592069 180.518316 
L 175.051573 179.02409 
L 177.511077 177.648066 
L 179.970581 176.406575 
L 182.430085 175.313441 
L 184.889589 174.379867 
L 187.349093 173.614366 
L 189.808598 173.022724 
L 192.268102 172.608004 
L 194.727606 172.370579 
L 197.18711 172.308213 
L 199.646614 172.416167 
L 202.106118 172.687335 
L 204.565622 173.112417 
L 207.025127 173.680114 
L 209.484631 174.377342 
L 211.944135 175.189475 
L 214.403639 176.100593 
L 216.863143 177.093753 
L 219.322647 178.151258 
L 221.782151 179.254938 
L 224.241655 180.386429 
L 226.70116 181.527441 
L 229.160664 182.660034 
L 231.620168 183.766866 
L 234.079672 184.831438 
L 236.539176 185.838317 
L 238.99868 186.773339 
L 241.458184 187.623787 
L 243.917689 188.378549 
L 246.377193 189.028244 
L 248.836697 189.565323 
L 251.296201 189.984137 
L 253.755705 190.280983 
L 256.215209 190.454111 
L 258.674713 190.503711 
L 261.134217 190.431864 
L 263.593722 190.24247 
L 266.053226 189.94115 
L 268.51273 189.535123 
L 270.972234 189.033065 
L 273.431738 188.444944 
L 275.891242 187.781843 
L 278.350746 187.05577 
L 280.810251 186.279452 
L 283.269755 185.466132 
L 285.729259 184.62935 
L 288.188763 183.782737 
L 290.648267 182.939802 
" clip-path="url(#p705e727889)" style="fill: none; stroke: #377eb8; stroke-width: 1.5; stroke-linecap: square"/>
   </g>
   <g id="line2d_27">
    <path d="M 47.157358 127.719873 
L 49.616862 127.868039 
L 52.076366 128.311104 
L 54.53587 129.044792 
L 56.995374 130.06203 
L 59.454879 131.353032 
L 61.914383 132.90541 
L 64.373887 134.704314 
L 66.833391 136.732604 
L 69.292895 138.971044 
L 71.752399 141.398523 
L 74.211903 143.992292 
L 76.671408 146.728224 
L 79.130912 149.581081 
L 81.590416 152.524803 
L 84.04992 155.532791 
L 86.509424 158.578209 
L 88.968928 161.634271 
L 91.428432 164.67454 
L 93.887936 167.673207 
L 96.347441 170.605371 
L 98.806945 173.447297 
L 101.266449 176.176661 
L 103.725953 178.772779 
L 106.185457 181.21681 
L 108.644961 183.491933 
L 111.104465 185.583504 
L 113.56397 187.479182 
L 116.023474 189.169022 
L 118.482978 190.645548 
L 120.942482 191.903783 
L 123.401986 192.941261 
L 125.86149 193.757998 
L 128.320994 194.356443 
L 130.780498 194.741389 
L 133.240003 194.919873 
L 135.699507 194.901031 
L 138.159011 194.695949 
L 140.618515 194.317478 
L 143.078019 193.780039 
L 145.537523 193.099409 
L 147.997027 192.292496 
L 150.456532 191.377102 
L 152.916036 190.371682 
L 155.37554 189.2951 
L 157.835044 188.166379 
L 160.294548 187.004464 
L 162.754052 185.827981 
L 165.213556 184.655015 
L 167.67306 183.50289 
L 170.132565 182.387972 
L 172.592069 181.32548 
L 175.051573 180.329329 
L 177.511077 179.41198 
L 179.970581 178.58432 
L 182.430085 177.855564 
L 184.889589 177.233181 
L 187.349093 176.722847 
L 189.808598 176.328419 
L 192.268102 176.051939 
L 194.727606 175.893655 
L 197.18711 175.852078 
L 199.646614 175.924047 
L 202.106118 176.104826 
L 204.565622 176.388214 
L 207.025127 176.766679 
L 209.484631 177.231498 
L 211.944135 177.77292 
L 214.403639 178.380332 
L 216.863143 179.042438 
L 219.322647 179.747441 
L 221.782151 180.483228 
L 224.241655 181.237555 
L 226.70116 181.99823 
L 229.160664 182.753292 
L 231.620168 183.49118 
L 234.079672 184.200895 
L 236.539176 184.872148 
L 238.99868 185.495496 
L 241.458184 186.062461 
L 243.917689 186.565636 
L 246.377193 186.998766 
L 248.836697 187.356818 
L 251.296201 187.636027 
L 253.755705 187.833925 
L 256.215209 187.949344 
L 258.674713 187.982411 
L 261.134217 187.934513 
L 263.593722 187.80825 
L 266.053226 187.607369 
L 268.51273 187.336685 
L 270.972234 187.001979 
L 273.431738 186.609899 
L 275.891242 186.167832 
L 278.350746 185.683783 
L 280.810251 185.166238 
L 283.269755 184.624024 
L 285.729259 184.06617 
L 288.188763 183.501761 
L 290.648267 182.939804 
" clip-path="url(#p705e727889)" style="fill: none; stroke: #4daf4a; stroke-width: 1.5; stroke-linecap: square"/>
   </g>
   <g id="line2d_28">
    <path d="M 47.157358 141.524857 
L 49.616862 141.635982 
L 52.076366 141.968281 
L 54.53587 142.518546 
L 56.995374 143.281475 
L 59.454879 144.249726 
L 61.914383 145.41401 
L 64.373887 146.763188 
L 66.833391 148.284405 
L 69.292895 149.963235 
L 71.752399 151.783844 
L 74.211903 153.729171 
L 76.671408 155.78112 
L 79.130912 157.920763 
L 81.590416 160.128554 
L 84.04992 162.384546 
L 86.509424 164.668609 
L 88.968928 166.960655 
L 91.428432 169.240857 
L 93.887936 171.489858 
L 96.347441 173.688981 
L 98.806945 175.820425 
L 101.266449 177.867448 
L 103.725953 179.814537 
L 106.185457 181.64756 
L 108.644961 183.353902 
L 111.104465 184.92258 
L 113.56397 186.344338 
L 116.023474 187.611719 
L 118.482978 188.719113 
L 120.942482 189.66279 
L 123.401986 190.440898 
L 125.86149 191.053451 
L 128.320994 191.502284 
L 130.780498 191.790994 
L 133.240003 191.924857 
L 135.699507 191.910725 
L 138.159011 191.756914 
L 140.618515 191.473061 
L 143.078019 191.069981 
L 145.537523 190.559509 
L 147.997027 189.954324 
L 150.456532 189.267779 
L 152.916036 188.513714 
L 155.37554 187.706277 
L 157.835044 186.859737 
L 160.294548 185.9883 
L 162.754052 185.105938 
L 165.213556 184.226214 
L 167.67306 183.36212 
L 170.132565 182.525931 
L 172.592069 181.729062 
L 175.051573 180.981949 
L 177.511077 180.293937 
L 179.970581 179.673192 
L 182.430085 179.126625 
L 184.889589 178.659838 
L 187.349093 178.277087 
L 189.808598 177.981267 
L 192.268102 177.773906 
L 194.727606 177.655194 
L 197.18711 177.624011 
L 199.646614 177.677988 
L 202.106118 177.813572 
L 204.565622 178.026113 
L 207.025127 178.309961 
L 209.484631 178.658576 
L 211.944135 179.064642 
L 214.403639 179.520201 
L 216.863143 180.016781 
L 219.322647 180.545533 
L 221.782151 181.097374 
L 224.241655 181.663119 
L 226.70116 182.233625 
L 229.160664 182.799921 
L 231.620168 183.353337 
L 234.079672 183.885623 
L 236.539176 184.389063 
L 238.99868 184.856574 
L 241.458184 185.281798 
L 243.917689 185.659179 
L 246.377193 185.984027 
L 248.836697 186.252566 
L 251.296201 186.461973 
L 253.755705 186.610396 
L 256.215209 186.69696 
L 258.674713 186.72176 
L 261.134217 186.685837 
L 263.593722 186.59114 
L 266.053226 186.440479 
L 268.51273 186.237466 
L 270.972234 185.986437 
L 273.431738 185.692376 
L 275.891242 185.360826 
L 278.350746 184.997789 
L 280.810251 184.609631 
L 283.269755 184.20297 
L 285.729259 183.784579 
L 288.188763 183.361273 
L 290.648267 182.939806 
" clip-path="url(#p705e727889)" style="fill: none; stroke: #984ea3; stroke-width: 1.5; stroke-linecap: square"/>
   </g>
   <g id="line2d_29">
    <path d="M 47.157358 149.807847 
L 49.616862 149.896747 
L 52.076366 150.162586 
L 54.53587 150.602799 
L 56.995374 151.213141 
L 59.454879 151.987743 
L 61.914383 152.91917 
L 64.373887 153.998512 
L 66.833391 155.215486 
L 69.292895 156.55855 
L 71.752399 158.015037 
L 74.211903 159.571299 
L 76.671408 161.212858 
L 79.130912 162.924572 
L 81.590416 164.690805 
L 84.04992 166.495598 
L 86.509424 168.322849 
L 88.968928 170.156486 
L 91.428432 171.980647 
L 93.887936 173.779848 
L 96.347441 175.539146 
L 98.806945 177.244302 
L 101.266449 178.88192 
L 103.725953 180.439591 
L 106.185457 181.906009 
L 108.644961 183.271083 
L 111.104465 184.526026 
L 113.56397 185.663433 
L 116.023474 186.677337 
L 118.482978 187.563252 
L 120.942482 188.318193 
L 123.401986 188.94068 
L 125.86149 189.430723 
L 128.320994 189.789789 
L 130.780498 190.020757 
L 133.240003 190.127847 
L 135.699507 190.116542 
L 138.159011 189.993493 
L 140.618515 189.76641 
L 143.078019 189.443947 
L 145.537523 189.035569 
L 147.997027 188.551421 
L 150.456532 188.002185 
L 152.916036 187.398933 
L 155.37554 186.752984 
L 157.835044 186.075751 
L 160.294548 185.378602 
L 162.754052 184.672712 
L 165.213556 183.968933 
L 167.67306 183.277658 
L 170.132565 182.608706 
L 172.592069 181.971212 
L 175.051573 181.373521 
L 177.511077 180.823112 
L 179.970581 180.326515 
L 182.430085 179.889262 
L 184.889589 179.515832 
L 187.349093 179.209632 
L 189.808598 178.972975 
L 192.268102 178.807087 
L 194.727606 178.712117 
L 197.18711 178.687171 
L 199.646614 178.730352 
L 202.106118 178.838819 
L 204.565622 179.008852 
L 207.025127 179.235931 
L 209.484631 179.514822 
L 211.944135 179.839675 
L 214.403639 180.204123 
L 216.863143 180.601386 
L 219.322647 181.024388 
L 221.782151 181.465861 
L 224.241655 181.918457 
L 226.70116 182.374862 
L 229.160664 182.827899 
L 231.620168 183.270632 
L 234.079672 183.696461 
L 236.539176 184.099212 
L 238.99868 184.473221 
L 241.458184 184.8134 
L 243.917689 185.115305 
L 246.377193 185.375183 
L 248.836697 185.590014 
L 251.296201 185.75754 
L 253.755705 185.876278 
L 256.215209 185.94553 
L 258.674713 185.96537 
L 261.134217 185.936631 
L 263.593722 185.860873 
L 266.053226 185.740345 
L 268.51273 185.577934 
L 270.972234 185.377111 
L 273.431738 185.141863 
L 275.891242 184.876623 
L 278.350746 184.586193 
L 280.810251 184.275666 
L 283.269755 183.950338 
L 285.729259 183.615625 
L 288.188763 183.27698 
L 290.648267 182.939806 
" clip-path="url(#p705e727889)" style="fill: none; stroke: #ff7f00; stroke-width: 1.5; stroke-linecap: square"/>
   </g>
   <g id="patch_3">
    <path d="M 34.982813 228.96 
L 34.982813 7.2 
" style="fill: none"/>
   </g>
   <g id="patch_4">
    <path d="M 34.982813 228.96 
L 302.822813 228.96 
" style="fill: none"/>
   </g>
   <g id="legend_1">
    <g id="line2d_30">
     <path d="M 311.822813 131.178437 
L 321.822813 131.178437 
L 331.822813 131.178437 
" style="fill: none; stroke: #e41a1c; stroke-width: 1.5; stroke-linecap: square"/>
    </g>
    <g id="text_13">
     <!-- 0 -->
     <g style="fill: #757575" transform="translate(339.822813 134.678437) scale(0.1 -0.1)">
      <use xlink:href="#DejaVuSans-30"/>
     </g>
    </g>
    <g id="line2d_31">
     <path d="M 311.822813 145.856562 
L 321.822813 145.856562 
L 331.822813 145.856562 
" style="fill: none; stroke: #377eb8; stroke-width: 1.5; stroke-linecap: square"/>
    </g>
    <g id="text_14">
     <!-- 1 -->
     <g style="fill: #757575" transform="translate(339.822813 149.356562) scale(0.1 -0.1)">
      <use xlink:href="#DejaVuSans-31"/>
     </g>
    </g>
    <g id="line2d_32">
     <path d="M 311.822813 160.534687 
L 321.822813 160.534687 
L 331.822813 160.534687 
" style="fill: none; stroke: #4daf4a; stroke-width: 1.5; stroke-linecap: square"/>
    </g>
    <g id="text_15">
     <!-- 2 -->
     <g style="fill: #757575" transform="translate(339.822813 164.034687) scale(0.1 -0.1)">
      <use xlink:href="#DejaVuSans-32"/>
     </g>
    </g>
    <g id="line2d_33">
     <path d="M 311.822813 175.212812 
L 321.822813 175.212812 
L 331.822813 175.212812 
" style="fill: none; stroke: #984ea3; stroke-width: 1.5; stroke-linecap: square"/>
    </g>
    <g id="text_16">
     <!-- 3 -->
     <g style="fill: #757575" transform="translate(339.822813 178.712812) scale(0.1 -0.1)">
      <use xlink:href="#DejaVuSans-33"/>
     </g>
    </g>
    <g id="line2d_34">
     <path d="M 311.822813 189.890937 
L 321.822813 189.890937 
L 331.822813 189.890937 
" style="fill: none; stroke: #ff7f00; stroke-width: 1.5; stroke-linecap: square"/>
    </g>
    <g id="text_17">
     <!-- 4 -->
     <g style="fill: #757575" transform="translate(339.822813 193.390937) scale(0.1 -0.1)">
      <use xlink:href="#DejaVuSans-34"/>
     </g>
    </g>
   </g>
  </g>
 </g>
 <defs>
  <clipPath id="p705e727889">
   <rect x="34.982813" y="7.2" width="267.84" height="221.76"/>
  </clipPath>
 </defs>
</svg>
