<?xml version="1.0" encoding="utf-8" standalone="no"?>
<!DOCTYPE svg PUBLIC "-//W3C//DTD SVG 1.1//EN"
  "http://www.w3.org/Graphics/SVG/1.1/DTD/svg11.dtd">
<!-- Created with matplotlib (https://matplotlib.org/) -->
<svg height="249.338125pt" version="1.1" viewBox="0 0 357.385312 249.338125" width="357.385312pt" xmlns="http://www.w3.org/2000/svg" xmlns:xlink="http://www.w3.org/1999/xlink">
 <defs>
  <style type="text/css">
*{stroke-linecap:butt;stroke-linejoin:round;}
  </style>
 </defs>
 <g id="figure_1">
  <g id="patch_1">
   <path d="M 0 249.338125 
L 357.385312 249.338125 
L 357.385312 0 
L 0 0 
z
" style="fill:#ffffff;"/>
  </g>
  <g id="axes_1">
   <g id="patch_2">
    <path d="M 34.982813 228.96 
L 302.822813 228.96 
L 302.822813 7.2 
L 34.982813 7.2 
z
" style="fill:#ffffff;"/>
   </g>
   <g id="matplotlib.axis_1">
    <g id="xtick_1">
     <g id="line2d_1">
      <path clip-path="url(#paec2682ab7)" d="M 47.157358 228.96 
L 47.157358 7.2 
" style="fill:none;stroke:#c7dedf;stroke-linecap:square;stroke-width:0.3;"/>
     </g>
     <g id="line2d_2">
      <defs>
       <path d="M 0 0 
L 0 -3.5 
" id="me8072b55f4" style="stroke:#000000;stroke-width:0.8;"/>
      </defs>
      <g>
       <use style="stroke:#000000;stroke-width:0.8;" x="47.157358" xlink:href="#me8072b55f4" y="228.96"/>
      </g>
     </g>
     <g id="text_1">
      <!-- 0 -->
      <defs>
       <path d="M 31.78125 66.40625 
Q 24.171875 66.40625 20.328125 58.90625 
Q 16.5 51.421875 16.5 36.375 
Q 16.5 21.390625 20.328125 13.890625 
Q 24.171875 6.390625 31.78125 6.390625 
Q 39.453125 6.390625 43.28125 13.890625 
Q 47.125 21.390625 47.125 36.375 
Q 47.125 51.421875 43.28125 58.90625 
Q 39.453125 66.40625 31.78125 66.40625 
z
M 31.78125 74.21875 
Q 44.046875 74.21875 50.515625 64.515625 
Q 56.984375 54.828125 56.984375 36.375 
Q 56.984375 17.96875 50.515625 8.265625 
Q 44.046875 -1.421875 31.78125 -1.421875 
Q 19.53125 -1.421875 13.0625 8.265625 
Q 6.59375 17.96875 6.59375 36.375 
Q 6.59375 54.828125 13.0625 64.515625 
Q 19.53125 74.21875 31.78125 74.21875 
z
" id="DejaVuSans-48"/>
      </defs>
      <g transform="translate(43.976108 240.058437)scale(0.1 -0.1)">
       <use xlink:href="#DejaVuSans-48"/>
      </g>
     </g>
    </g>
    <g id="xtick_2">
     <g id="line2d_3">
      <path clip-path="url(#paec2682ab7)" d="M 108.030085 228.96 
L 108.030085 7.2 
" style="fill:none;stroke:#c7dedf;stroke-linecap:square;stroke-width:0.3;"/>
     </g>
     <g id="line2d_4">
      <g>
       <use style="stroke:#000000;stroke-width:0.8;" x="108.030085" xlink:href="#me8072b55f4" y="228.96"/>
      </g>
     </g>
     <g id="text_2">
      <!-- 1 -->
      <defs>
       <path d="M 12.40625 8.296875 
L 28.515625 8.296875 
L 28.515625 63.921875 
L 10.984375 60.40625 
L 10.984375 69.390625 
L 28.421875 72.90625 
L 38.28125 72.90625 
L 38.28125 8.296875 
L 54.390625 8.296875 
L 54.390625 0 
L 12.40625 0 
z
" id="DejaVuSans-49"/>
      </defs>
      <g transform="translate(104.848835 240.058437)scale(0.1 -0.1)">
       <use xlink:href="#DejaVuSans-49"/>
      </g>
     </g>
    </g>
    <g id="xtick_3">
     <g id="line2d_5">
      <path clip-path="url(#paec2682ab7)" d="M 168.902813 228.96 
L 168.902813 7.2 
" style="fill:none;stroke:#c7dedf;stroke-linecap:square;stroke-width:0.3;"/>
     </g>
     <g id="line2d_6">
      <g>
       <use style="stroke:#000000;stroke-width:0.8;" x="168.902813" xlink:href="#me8072b55f4" y="228.96"/>
      </g>
     </g>
     <g id="text_3">
      <!-- 2 -->
      <defs>
       <path d="M 19.1875 8.296875 
L 53.609375 8.296875 
L 53.609375 0 
L 7.328125 0 
L 7.328125 8.296875 
Q 12.9375 14.109375 22.625 23.890625 
Q 32.328125 33.6875 34.8125 36.53125 
Q 39.546875 41.84375 41.421875 45.53125 
Q 43.3125 49.21875 43.3125 52.78125 
Q 43.3125 58.59375 39.234375 62.25 
Q 35.15625 65.921875 28.609375 65.921875 
Q 23.96875 65.921875 18.8125 64.3125 
Q 13.671875 62.703125 7.8125 59.421875 
L 7.8125 69.390625 
Q 13.765625 71.78125 18.9375 73 
Q 24.125 74.21875 28.421875 74.21875 
Q 39.75 74.21875 46.484375 68.546875 
Q 53.21875 62.890625 53.21875 53.421875 
Q 53.21875 48.921875 51.53125 44.890625 
Q 49.859375 40.875 45.40625 35.40625 
Q 44.1875 33.984375 37.640625 27.21875 
Q 31.109375 20.453125 19.1875 8.296875 
z
" id="DejaVuSans-50"/>
      </defs>
      <g transform="translate(165.721563 240.058437)scale(0.1 -0.1)">
       <use xlink:href="#DejaVuSans-50"/>
      </g>
     </g>
    </g>
    <g id="xtick_4">
     <g id="line2d_7">
      <path clip-path="url(#paec2682ab7)" d="M 229.77554 228.96 
L 229.77554 7.2 
" style="fill:none;stroke:#c7dedf;stroke-linecap:square;stroke-width:0.3;"/>
     </g>
     <g id="line2d_8">
      <g>
       <use style="stroke:#000000;stroke-width:0.8;" x="229.77554" xlink:href="#me8072b55f4" y="228.96"/>
      </g>
     </g>
     <g id="text_4">
      <!-- 3 -->
      <defs>
       <path d="M 40.578125 39.3125 
Q 47.65625 37.796875 51.625 33 
Q 55.609375 28.21875 55.609375 21.1875 
Q 55.609375 10.40625 48.1875 4.484375 
Q 40.765625 -1.421875 27.09375 -1.421875 
Q 22.515625 -1.421875 17.65625 -0.515625 
Q 12.796875 0.390625 7.625 2.203125 
L 7.625 11.71875 
Q 11.71875 9.328125 16.59375 8.109375 
Q 21.484375 6.890625 26.8125 6.890625 
Q 36.078125 6.890625 40.9375 10.546875 
Q 45.796875 14.203125 45.796875 21.1875 
Q 45.796875 27.640625 41.28125 31.265625 
Q 36.765625 34.90625 28.71875 34.90625 
L 20.21875 34.90625 
L 20.21875 43.015625 
L 29.109375 43.015625 
Q 36.375 43.015625 40.234375 45.921875 
Q 44.09375 48.828125 44.09375 54.296875 
Q 44.09375 59.90625 40.109375 62.90625 
Q 36.140625 65.921875 28.71875 65.921875 
Q 24.65625 65.921875 20.015625 65.03125 
Q 15.375 64.15625 9.8125 62.3125 
L 9.8125 71.09375 
Q 15.4375 72.65625 20.34375 73.4375 
Q 25.25 74.21875 29.59375 74.21875 
Q 40.828125 74.21875 47.359375 69.109375 
Q 53.90625 64.015625 53.90625 55.328125 
Q 53.90625 49.265625 50.4375 45.09375 
Q 46.96875 40.921875 40.578125 39.3125 
z
" id="DejaVuSans-51"/>
      </defs>
      <g transform="translate(226.59429 240.058437)scale(0.1 -0.1)">
       <use xlink:href="#DejaVuSans-51"/>
      </g>
     </g>
    </g>
    <g id="xtick_5">
     <g id="line2d_9">
      <path clip-path="url(#paec2682ab7)" d="M 290.648267 228.96 
L 290.648267 7.2 
" style="fill:none;stroke:#c7dedf;stroke-linecap:square;stroke-width:0.3;"/>
     </g>
     <g id="line2d_10">
      <g>
       <use style="stroke:#000000;stroke-width:0.8;" x="290.648267" xlink:href="#me8072b55f4" y="228.96"/>
      </g>
     </g>
     <g id="text_5">
      <!-- 4 -->
      <defs>
       <path d="M 37.796875 64.3125 
L 12.890625 25.390625 
L 37.796875 25.390625 
z
M 35.203125 72.90625 
L 47.609375 72.90625 
L 47.609375 25.390625 
L 58.015625 25.390625 
L 58.015625 17.1875 
L 47.609375 17.1875 
L 47.609375 0 
L 37.796875 0 
L 37.796875 17.1875 
L 4.890625 17.1875 
L 4.890625 26.703125 
z
" id="DejaVuSans-52"/>
      </defs>
      <g transform="translate(287.467017 240.058437)scale(0.1 -0.1)">
       <use xlink:href="#DejaVuSans-52"/>
      </g>
     </g>
    </g>
   </g>
   <g id="matplotlib.axis_2">
    <g id="ytick_1">
     <g id="line2d_11">
      <path clip-path="url(#paec2682ab7)" d="M 34.982813 216.071771 
L 302.822813 216.071771 
" style="fill:none;stroke:#c7dedf;stroke-linecap:square;stroke-width:0.3;"/>
     </g>
     <g id="line2d_12">
      <defs>
       <path d="M 0 0 
L 3.5 0 
" id="m77a4714fdf" style="stroke:#000000;stroke-width:0.8;"/>
      </defs>
      <g>
       <use style="stroke:#000000;stroke-width:0.8;" x="34.982813" xlink:href="#m77a4714fdf" y="216.071771"/>
      </g>
     </g>
     <g id="text_6">
      <!-- −0.2 -->
      <defs>
       <path d="M 10.59375 35.5 
L 73.1875 35.5 
L 73.1875 27.203125 
L 10.59375 27.203125 
z
" id="DejaVuSans-8722"/>
       <path d="M 10.6875 12.40625 
L 21 12.40625 
L 21 0 
L 10.6875 0 
z
" id="DejaVuSans-46"/>
      </defs>
      <g transform="translate(7.2 219.870989)scale(0.1 -0.1)">
       <use xlink:href="#DejaVuSans-8722"/>
       <use x="83.789062" xlink:href="#DejaVuSans-48"/>
       <use x="147.412109" xlink:href="#DejaVuSans-46"/>
       <use x="179.199219" xlink:href="#DejaVuSans-50"/>
      </g>
     </g>
    </g>
    <g id="ytick_2">
     <g id="line2d_13">
      <path clip-path="url(#paec2682ab7)" d="M 34.982813 182.939809 
L 302.822813 182.939809 
" style="fill:none;stroke:#c7dedf;stroke-linecap:square;stroke-width:0.3;"/>
     </g>
     <g id="line2d_14">
      <g>
       <use style="stroke:#000000;stroke-width:0.8;" x="34.982813" xlink:href="#m77a4714fdf" y="182.939809"/>
      </g>
     </g>
     <g id="text_7">
      <!-- 0.0 -->
      <g transform="translate(15.579688 186.739028)scale(0.1 -0.1)">
       <use xlink:href="#DejaVuSans-48"/>
       <use x="63.623047" xlink:href="#DejaVuSans-46"/>
       <use x="95.410156" xlink:href="#DejaVuSans-48"/>
      </g>
     </g>
    </g>
    <g id="ytick_3">
     <g id="line2d_15">
      <path clip-path="url(#paec2682ab7)" d="M 34.982813 149.807847 
L 302.822813 149.807847 
" style="fill:none;stroke:#c7dedf;stroke-linecap:square;stroke-width:0.3;"/>
     </g>
     <g id="line2d_16">
      <g>
       <use style="stroke:#000000;stroke-width:0.8;" x="34.982813" xlink:href="#m77a4714fdf" y="149.807847"/>
      </g>
     </g>
     <g id="text_8">
      <!-- 0.2 -->
      <g transform="translate(15.579688 153.607066)scale(0.1 -0.1)">
       <use xlink:href="#DejaVuSans-48"/>
       <use x="63.623047" xlink:href="#DejaVuSans-46"/>
       <use x="95.410156" xlink:href="#DejaVuSans-50"/>
      </g>
     </g>
    </g>
    <g id="ytick_4">
     <g id="line2d_17">
      <path clip-path="url(#paec2682ab7)" d="M 34.982813 116.675885 
L 302.822813 116.675885 
" style="fill:none;stroke:#c7dedf;stroke-linecap:square;stroke-width:0.3;"/>
     </g>
     <g id="line2d_18">
      <g>
       <use style="stroke:#000000;stroke-width:0.8;" x="34.982813" xlink:href="#m77a4714fdf" y="116.675885"/>
      </g>
     </g>
     <g id="text_9">
      <!-- 0.4 -->
      <g transform="translate(15.579688 120.475104)scale(0.1 -0.1)">
       <use xlink:href="#DejaVuSans-48"/>
       <use x="63.623047" xlink:href="#DejaVuSans-46"/>
       <use x="95.410156" xlink:href="#DejaVuSans-52"/>
      </g>
     </g>
    </g>
    <g id="ytick_5">
     <g id="line2d_19">
      <path clip-path="url(#paec2682ab7)" d="M 34.982813 83.543924 
L 302.822813 83.543924 
" style="fill:none;stroke:#c7dedf;stroke-linecap:square;stroke-width:0.3;"/>
     </g>
     <g id="line2d_20">
      <g>
       <use style="stroke:#000000;stroke-width:0.8;" x="34.982813" xlink:href="#m77a4714fdf" y="83.543924"/>
      </g>
     </g>
     <g id="text_10">
      <!-- 0.6 -->
      <defs>
       <path d="M 33.015625 40.375 
Q 26.375 40.375 22.484375 35.828125 
Q 18.609375 31.296875 18.609375 23.390625 
Q 18.609375 15.53125 22.484375 10.953125 
Q 26.375 6.390625 33.015625 6.390625 
Q 39.65625 6.390625 43.53125 10.953125 
Q 47.40625 15.53125 47.40625 23.390625 
Q 47.40625 31.296875 43.53125 35.828125 
Q 39.65625 40.375 33.015625 40.375 
z
M 52.59375 71.296875 
L 52.59375 62.3125 
Q 48.875 64.0625 45.09375 64.984375 
Q 41.3125 65.921875 37.59375 65.921875 
Q 27.828125 65.921875 22.671875 59.328125 
Q 17.53125 52.734375 16.796875 39.40625 
Q 19.671875 43.65625 24.015625 45.921875 
Q 28.375 48.1875 33.59375 48.1875 
Q 44.578125 48.1875 50.953125 41.515625 
Q 57.328125 34.859375 57.328125 23.390625 
Q 57.328125 12.15625 50.6875 5.359375 
Q 44.046875 -1.421875 33.015625 -1.421875 
Q 20.359375 -1.421875 13.671875 8.265625 
Q 6.984375 17.96875 6.984375 36.375 
Q 6.984375 53.65625 15.1875 63.9375 
Q 23.390625 74.21875 37.203125 74.21875 
Q 40.921875 74.21875 44.703125 73.484375 
Q 48.484375 72.75 52.59375 71.296875 
z
" id="DejaVuSans-54"/>
      </defs>
      <g transform="translate(15.579688 87.343142)scale(0.1 -0.1)">
       <use xlink:href="#DejaVuSans-48"/>
       <use x="63.623047" xlink:href="#DejaVuSans-46"/>
       <use x="95.410156" xlink:href="#DejaVuSans-54"/>
      </g>
     </g>
    </g>
    <g id="ytick_6">
     <g id="line2d_21">
      <path clip-path="url(#paec2682ab7)" d="M 34.982813 50.411962 
L 302.822813 50.411962 
" style="fill:none;stroke:#c7dedf;stroke-linecap:square;stroke-width:0.3;"/>
     </g>
     <g id="line2d_22">
      <g>
       <use style="stroke:#000000;stroke-width:0.8;" x="34.982813" xlink:href="#m77a4714fdf" y="50.411962"/>
      </g>
     </g>
     <g id="text_11">
      <!-- 0.8 -->
      <defs>
       <path d="M 31.78125 34.625 
Q 24.75 34.625 20.71875 30.859375 
Q 16.703125 27.09375 16.703125 20.515625 
Q 16.703125 13.921875 20.71875 10.15625 
Q 24.75 6.390625 31.78125 6.390625 
Q 38.8125 6.390625 42.859375 10.171875 
Q 46.921875 13.96875 46.921875 20.515625 
Q 46.921875 27.09375 42.890625 30.859375 
Q 38.875 34.625 31.78125 34.625 
z
M 21.921875 38.8125 
Q 15.578125 40.375 12.03125 44.71875 
Q 8.5 49.078125 8.5 55.328125 
Q 8.5 64.0625 14.71875 69.140625 
Q 20.953125 74.21875 31.78125 74.21875 
Q 42.671875 74.21875 48.875 69.140625 
Q 55.078125 64.0625 55.078125 55.328125 
Q 55.078125 49.078125 51.53125 44.71875 
Q 48 40.375 41.703125 38.8125 
Q 48.828125 37.15625 52.796875 32.3125 
Q 56.78125 27.484375 56.78125 20.515625 
Q 56.78125 9.90625 50.3125 4.234375 
Q 43.84375 -1.421875 31.78125 -1.421875 
Q 19.734375 -1.421875 13.25 4.234375 
Q 6.78125 9.90625 6.78125 20.515625 
Q 6.78125 27.484375 10.78125 32.3125 
Q 14.796875 37.15625 21.921875 38.8125 
z
M 18.3125 54.390625 
Q 18.3125 48.734375 21.84375 45.5625 
Q 25.390625 42.390625 31.78125 42.390625 
Q 38.140625 42.390625 41.71875 45.5625 
Q 45.3125 48.734375 45.3125 54.390625 
Q 45.3125 60.0625 41.71875 63.234375 
Q 38.140625 66.40625 31.78125 66.40625 
Q 25.390625 66.40625 21.84375 63.234375 
Q 18.3125 60.0625 18.3125 54.390625 
z
" id="DejaVuSans-56"/>
      </defs>
      <g transform="translate(15.579688 54.211181)scale(0.1 -0.1)">
       <use xlink:href="#DejaVuSans-48"/>
       <use x="63.623047" xlink:href="#DejaVuSans-46"/>
       <use x="95.410156" xlink:href="#DejaVuSans-56"/>
      </g>
     </g>
    </g>
    <g id="ytick_7">
     <g id="line2d_23">
      <path clip-path="url(#paec2682ab7)" d="M 34.982813 17.28 
L 302.822813 17.28 
" style="fill:none;stroke:#c7dedf;stroke-linecap:square;stroke-width:0.3;"/>
     </g>
     <g id="line2d_24">
      <g>
       <use style="stroke:#000000;stroke-width:0.8;" x="34.982813" xlink:href="#m77a4714fdf" y="17.28"/>
      </g>
     </g>
     <g id="text_12">
      <!-- 1.0 -->
      <g transform="translate(15.579688 21.079219)scale(0.1 -0.1)">
       <use xlink:href="#DejaVuSans-49"/>
       <use x="63.623047" xlink:href="#DejaVuSans-46"/>
       <use x="95.410156" xlink:href="#DejaVuSans-48"/>
      </g>
     </g>
    </g>
   </g>
   <g id="line2d_25">
    <path clip-path="url(#paec2682ab7)" d="M 47.157358 17.28 
L 49.616862 17.7245 
L 52.076366 19.053696 
L 54.53587 21.254758 
L 56.995374 24.306472 
L 59.454879 28.179479 
L 61.914383 32.836613 
L 64.373887 38.233324 
L 66.833391 44.318193 
L 69.292895 51.033514 
L 71.752399 58.315951 
L 74.211903 66.097259 
L 76.671408 74.305054 
L 79.130912 82.863626 
L 81.590416 91.694791 
L 84.04992 100.718756 
L 86.509424 109.855008 
L 88.968928 119.023195 
L 91.428432 128.144002 
L 93.887936 137.140005 
L 96.347441 145.936497 
L 98.806945 154.462273 
L 101.266449 162.650365 
L 103.725953 170.43872 
L 106.185457 177.770812 
L 108.644961 184.596181 
L 111.104465 190.870895 
L 113.56397 196.557927 
L 116.023474 201.627449 
L 118.482978 206.057026 
L 120.942482 209.831732 
L 123.401986 212.944165 
L 125.86149 215.394377 
L 128.320994 217.18971 
L 130.780498 218.34455 
L 133.240003 218.88 
L 135.699507 218.823475 
L 138.159011 218.208229 
L 140.618515 217.072816 
L 143.078019 215.460499 
L 145.537523 213.418609 
L 147.997027 210.99787 
L 150.456532 208.251688 
L 152.916036 205.23543 
L 155.37554 202.005683 
L 157.835044 198.61952 
L 160.294548 195.133774 
L 162.754052 191.604326 
L 165.213556 188.085428 
L 167.67306 184.629054 
L 170.132565 181.284297 
L 172.592069 178.096823 
L 175.051573 175.10837 
L 177.511077 172.356323 
L 179.970581 169.873342 
L 182.430085 167.687073 
L 184.889589 165.819925 
L 187.349093 164.288923 
L 189.808598 163.10564 
L 192.268102 162.276198 
L 194.727606 161.801349 
L 197.18711 161.676618 
L 199.646614 161.892525 
L 202.106118 162.434861 
L 204.565622 163.285026 
L 207.025127 164.420419 
L 209.484631 165.814876 
L 211.944135 167.439141 
L 214.403639 169.261377 
L 216.863143 171.247696 
L 219.322647 173.362707 
L 221.782151 175.570068 
L 224.241655 177.833048 
L 226.70116 180.115073 
L 229.160664 182.380259 
L 231.620168 184.593923 
L 234.079672 186.723067 
L 236.539176 188.736826 
L 238.99868 190.60687 
L 241.458184 192.307766 
L 243.917689 193.81729 
L 246.377193 195.11668 
L 248.836697 196.190837 
L 251.296201 197.028465 
L 253.755705 197.622156 
L 256.215209 197.968413 
L 258.674713 198.067614 
L 261.134217 197.92392 
L 263.593722 197.545132 
L 266.053226 196.942491 
L 268.51273 196.130437 
L 270.972234 195.12632 
L 273.431738 193.950078 
L 275.891242 192.623878 
L 278.350746 191.171731 
L 280.810251 189.619096 
L 283.269755 187.992454 
L 285.729259 186.318891 
L 288.188763 184.625666 
L 290.648267 182.939796 
" style="fill:none;stroke:#e41a1c;stroke-linecap:square;stroke-width:1.5;"/>
   </g>
   <g id="line2d_26">
    <path clip-path="url(#paec2682ab7)" d="M 47.157358 100.109904 
L 49.616862 100.332155 
L 52.076366 100.996752 
L 54.53587 102.097283 
L 56.995374 103.62314 
L 59.454879 105.559644 
L 61.914383 107.888211 
L 64.373887 110.586566 
L 66.833391 113.629001 
L 69.292895 116.986661 
L 71.752399 120.62788 
L 74.211903 124.518534 
L 76.671408 128.622431 
L 79.130912 132.901718 
L 81.590416 137.3173 
L 84.04992 141.829282 
L 86.509424 146.397409 
L 88.968928 150.981502 
L 91.428432 155.541905 
L 93.887936 160.039907 
L 96.347441 164.438153 
L 98.806945 168.701041 
L 101.266449 172.795087 
L 103.725953 176.689264 
L 106.185457 180.35531 
L 108.644961 183.767995 
L 111.104465 186.905352 
L 113.56397 189.748868 
L 116.023474 192.283629 
L 118.482978 194.498417 
L 120.942482 196.38577 
L 123.401986 197.941987 
L 125.86149 199.167093 
L 128.320994 200.06476 
L 130.780498 200.642179 
L 133.240003 200.909904 
L 135.699507 200.881642 
L 138.159011 200.574019 
L 140.618515 200.006312 
L 143.078019 199.200154 
L 145.537523 198.179209 
L 147.997027 196.968839 
L 150.456532 195.595748 
L 152.916036 194.087619 
L 155.37554 192.472746 
L 157.835044 190.779664 
L 160.294548 189.036791 
L 162.754052 187.272068 
L 165.213556 185.512619 
L 167.67306 183.784431 
L 170.132565 182.112053 
L 172.592069 180.518316 
L 175.051573 179.02409 
L 177.511077 177.648066 
L 179.970581 176.406575 
L 182.430085 175.313441 
L 184.889589 174.379867 
L 187.349093 173.614366 
L 189.808598 173.022724 
L 192.268102 172.608004 
L 194.727606 172.370579 
L 197.18711 172.308213 
L 199.646614 172.416167 
L 202.106118 172.687335 
L 204.565622 173.112417 
L 207.025127 173.680114 
L 209.484631 174.377342 
L 211.944135 175.189475 
L 214.403639 176.100593 
L 216.863143 177.093753 
L 219.322647 178.151258 
L 221.782151 179.254938 
L 224.241655 180.386429 
L 226.70116 181.527441 
L 229.160664 182.660034 
L 231.620168 183.766866 
L 234.079672 184.831438 
L 236.539176 185.838317 
L 238.99868 186.773339 
L 241.458184 187.623787 
L 243.917689 188.378549 
L 246.377193 189.028244 
L 248.836697 189.565323 
L 251.296201 189.984137 
L 253.755705 190.280983 
L 256.215209 190.454111 
L 258.674713 190.503711 
L 261.134217 190.431864 
L 263.593722 190.24247 
L 266.053226 189.94115 
L 268.51273 189.535123 
L 270.972234 189.033065 
L 273.431738 188.444944 
L 275.891242 187.781843 
L 278.350746 187.05577 
L 280.810251 186.279452 
L 283.269755 185.466132 
L 285.729259 184.62935 
L 288.188763 183.782737 
L 290.648267 182.939802 
" style="fill:none;stroke:#377eb8;stroke-linecap:square;stroke-width:1.5;"/>
   </g>
   <g id="line2d_27">
    <path clip-path="url(#paec2682ab7)" d="M 47.157358 127.719873 
L 49.616862 127.868039 
L 52.076366 128.311104 
L 54.53587 129.044792 
L 56.995374 130.06203 
L 59.454879 131.353032 
L 61.914383 132.90541 
L 64.373887 134.704314 
L 66.833391 136.732604 
L 69.292895 138.971044 
L 71.752399 141.398523 
L 74.211903 143.992292 
L 76.671408 146.728224 
L 79.130912 149.581081 
L 81.590416 152.524803 
L 84.04992 155.532791 
L 86.509424 158.578209 
L 88.968928 161.634271 
L 91.428432 164.67454 
L 93.887936 167.673207 
L 96.347441 170.605371 
L 98.806945 173.447297 
L 101.266449 176.176661 
L 103.725953 178.772779 
L 106.185457 181.21681 
L 108.644961 183.491933 
L 111.104465 185.583504 
L 113.56397 187.479182 
L 116.023474 189.169022 
L 118.482978 190.645548 
L 120.942482 191.903783 
L 123.401986 192.941261 
L 125.86149 193.757998 
L 128.320994 194.356443 
L 130.780498 194.741389 
L 133.240003 194.919873 
L 135.699507 194.901031 
L 138.159011 194.695949 
L 140.618515 194.317478 
L 143.078019 193.780039 
L 145.537523 193.099409 
L 147.997027 192.292496 
L 150.456532 191.377102 
L 152.916036 190.371682 
L 155.37554 189.2951 
L 157.835044 188.166379 
L 160.294548 187.004464 
L 162.754052 185.827981 
L 165.213556 184.655015 
L 167.67306 183.50289 
L 170.132565 182.387972 
L 172.592069 181.32548 
L 175.051573 180.329329 
L 177.511077 179.41198 
L 179.970581 178.58432 
L 182.430085 177.855564 
L 184.889589 177.233181 
L 187.349093 176.722847 
L 189.808598 176.328419 
L 192.268102 176.051939 
L 194.727606 175.893655 
L 197.18711 175.852078 
L 199.646614 175.924047 
L 202.106118 176.104826 
L 204.565622 176.388214 
L 207.025127 176.766679 
L 209.484631 177.231498 
L 211.944135 177.77292 
L 214.403639 178.380332 
L 216.863143 179.042438 
L 219.322647 179.747441 
L 221.782151 180.483228 
L 224.241655 181.237555 
L 226.70116 181.99823 
L 229.160664 182.753292 
L 231.620168 183.49118 
L 234.079672 184.200895 
L 236.539176 184.872148 
L 238.99868 185.495496 
L 241.458184 186.062461 
L 243.917689 186.565636 
L 246.377193 186.998766 
L 248.836697 187.356818 
L 251.296201 187.636027 
L 253.755705 187.833925 
L 256.215209 187.949344 
L 258.674713 187.982411 
L 261.134217 187.934513 
L 263.593722 187.80825 
L 266.053226 187.607369 
L 268.51273 187.336685 
L 270.972234 187.001979 
L 273.431738 186.609899 
L 275.891242 186.167832 
L 278.350746 185.683783 
L 280.810251 185.166238 
L 283.269755 184.624024 
L 285.729259 184.06617 
L 288.188763 183.501761 
L 290.648267 182.939804 
" style="fill:none;stroke:#4daf4a;stroke-linecap:square;stroke-width:1.5;"/>
   </g>
   <g id="line2d_28">
    <path clip-path="url(#paec2682ab7)" d="M 47.157358 141.524857 
L 49.616862 141.635982 
L 52.076366 141.968281 
L 54.53587 142.518546 
L 56.995374 143.281475 
L 59.454879 144.249726 
L 61.914383 145.41401 
L 64.373887 146.763188 
L 66.833391 148.284405 
L 69.292895 149.963235 
L 71.752399 151.783844 
L 74.211903 153.729171 
L 76.671408 155.78112 
L 79.130912 157.920763 
L 81.590416 160.128554 
L 84.04992 162.384546 
L 86.509424 164.668609 
L 88.968928 166.960655 
L 91.428432 169.240857 
L 93.887936 171.489858 
L 96.347441 173.688981 
L 98.806945 175.820425 
L 101.266449 177.867448 
L 103.725953 179.814537 
L 106.185457 181.64756 
L 108.644961 183.353902 
L 111.104465 184.92258 
L 113.56397 186.344338 
L 116.023474 187.611719 
L 118.482978 188.719113 
L 120.942482 189.66279 
L 123.401986 190.440898 
L 125.86149 191.053451 
L 128.320994 191.502284 
L 130.780498 191.790994 
L 133.240003 191.924857 
L 135.699507 191.910725 
L 138.159011 191.756914 
L 140.618515 191.473061 
L 143.078019 191.069981 
L 145.537523 190.559509 
L 147.997027 189.954324 
L 150.456532 189.267779 
L 152.916036 188.513714 
L 155.37554 187.706277 
L 157.835044 186.859737 
L 160.294548 185.9883 
L 162.754052 185.105938 
L 165.213556 184.226214 
L 167.67306 183.36212 
L 170.132565 182.525931 
L 172.592069 181.729062 
L 175.051573 180.981949 
L 177.511077 180.293937 
L 179.970581 179.673192 
L 182.430085 179.126625 
L 184.889589 178.659838 
L 187.349093 178.277087 
L 189.808598 177.981267 
L 192.268102 177.773906 
L 194.727606 177.655194 
L 197.18711 177.624011 
L 199.646614 177.677988 
L 202.106118 177.813572 
L 204.565622 178.026113 
L 207.025127 178.309961 
L 209.484631 178.658576 
L 211.944135 179.064642 
L 214.403639 179.520201 
L 216.863143 180.016781 
L 219.322647 180.545533 
L 221.782151 181.097374 
L 224.241655 181.663119 
L 226.70116 182.233625 
L 229.160664 182.799921 
L 231.620168 183.353337 
L 234.079672 183.885623 
L 236.539176 184.389063 
L 238.99868 184.856574 
L 241.458184 185.281798 
L 243.917689 185.659179 
L 246.377193 185.984027 
L 248.836697 186.252566 
L 251.296201 186.461973 
L 253.755705 186.610396 
L 256.215209 186.69696 
L 258.674713 186.72176 
L 261.134217 186.685837 
L 263.593722 186.59114 
L 266.053226 186.440479 
L 268.51273 186.237466 
L 270.972234 185.986437 
L 273.431738 185.692376 
L 275.891242 185.360826 
L 278.350746 184.997789 
L 280.810251 184.609631 
L 283.269755 184.20297 
L 285.729259 183.784579 
L 288.188763 183.361273 
L 290.648267 182.939806 
" style="fill:none;stroke:#984ea3;stroke-linecap:square;stroke-width:1.5;"/>
   </g>
   <g id="line2d_29">
    <path clip-path="url(#paec2682ab7)" d="M 47.157358 149.807847 
L 49.616862 149.896747 
L 52.076366 150.162586 
L 54.53587 150.602799 
L 56.995374 151.213141 
L 59.454879 151.987743 
L 61.914383 152.91917 
L 64.373887 153.998512 
L 66.833391 155.215486 
L 69.292895 156.55855 
L 71.752399 158.015037 
L 74.211903 159.571299 
L 76.671408 161.212858 
L 79.130912 162.924572 
L 81.590416 164.690805 
L 84.04992 166.495598 
L 86.509424 168.322849 
L 88.968928 170.156486 
L 91.428432 171.980647 
L 93.887936 173.779848 
L 96.347441 175.539146 
L 98.806945 177.244302 
L 101.266449 178.88192 
L 103.725953 180.439591 
L 106.185457 181.906009 
L 108.644961 183.271083 
L 111.104465 184.526026 
L 113.56397 185.663433 
L 116.023474 186.677337 
L 118.482978 187.563252 
L 120.942482 188.318193 
L 123.401986 188.94068 
L 125.86149 189.430723 
L 128.320994 189.789789 
L 130.780498 190.020757 
L 133.240003 190.127847 
L 135.699507 190.116542 
L 138.159011 189.993493 
L 140.618515 189.76641 
L 143.078019 189.443947 
L 145.537523 189.035569 
L 147.997027 188.551421 
L 150.456532 188.002185 
L 152.916036 187.398933 
L 155.37554 186.752984 
L 157.835044 186.075751 
L 160.294548 185.378602 
L 162.754052 184.672712 
L 165.213556 183.968933 
L 167.67306 183.277658 
L 170.132565 182.608706 
L 172.592069 181.971212 
L 175.051573 181.373521 
L 177.511077 180.823112 
L 179.970581 180.326515 
L 182.430085 179.889262 
L 184.889589 179.515832 
L 187.349093 179.209632 
L 189.808598 178.972975 
L 192.268102 178.807087 
L 194.727606 178.712117 
L 197.18711 178.687171 
L 199.646614 178.730352 
L 202.106118 178.838819 
L 204.565622 179.008852 
L 207.025127 179.235931 
L 209.484631 179.514822 
L 211.944135 179.839675 
L 214.403639 180.204123 
L 216.863143 180.601386 
L 219.322647 181.024388 
L 221.782151 181.465861 
L 224.241655 181.918457 
L 226.70116 182.374862 
L 229.160664 182.827899 
L 231.620168 183.270632 
L 234.079672 183.696461 
L 236.539176 184.099212 
L 238.99868 184.473221 
L 241.458184 184.8134 
L 243.917689 185.115305 
L 246.377193 185.375183 
L 248.836697 185.590014 
L 251.296201 185.75754 
L 253.755705 185.876278 
L 256.215209 185.94553 
L 258.674713 185.96537 
L 261.134217 185.936631 
L 263.593722 185.860873 
L 266.053226 185.740345 
L 268.51273 185.577934 
L 270.972234 185.377111 
L 273.431738 185.141863 
L 275.891242 184.876623 
L 278.350746 184.586193 
L 280.810251 184.275666 
L 283.269755 183.950338 
L 285.729259 183.615625 
L 288.188763 183.27698 
L 290.648267 182.939806 
" style="fill:none;stroke:#ff7f00;stroke-linecap:square;stroke-width:1.5;"/>
   </g>
   <g id="patch_3">
    <path d="M 34.982813 228.96 
L 34.982813 7.2 
" style="fill:none;"/>
   </g>
   <g id="patch_4">
    <path d="M 302.822813 228.96 
L 302.822813 7.2 
" style="fill:none;"/>
   </g>
   <g id="patch_5">
    <path d="M 34.982813 228.96 
L 302.822813 228.96 
" style="fill:none;"/>
   </g>
   <g id="patch_6">
    <path d="M 34.982813 7.2 
L 302.822813 7.2 
" style="fill:none;"/>
   </g>
   <g id="legend_1">
    <g id="line2d_30">
     <path d="M 311.822813 131.178437 
L 331.822813 131.178437 
" style="fill:none;stroke:#e41a1c;stroke-linecap:square;stroke-width:1.5;"/>
    </g>
    <g id="line2d_31"/>
    <g id="text_13">
     <!-- 0 -->
     <g transform="translate(339.822813 134.678437)scale(0.1 -0.1)">
      <use xlink:href="#DejaVuSans-48"/>
     </g>
    </g>
    <g id="line2d_32">
     <path d="M 311.822813 145.856562 
L 331.822813 145.856562 
" style="fill:none;stroke:#377eb8;stroke-linecap:square;stroke-width:1.5;"/>
    </g>
    <g id="line2d_33"/>
    <g id="text_14">
     <!-- 1 -->
     <g transform="translate(339.822813 149.356562)scale(0.1 -0.1)">
      <use xlink:href="#DejaVuSans-49"/>
     </g>
    </g>
    <g id="line2d_34">
     <path d="M 311.822813 160.534687 
L 331.822813 160.534687 
" style="fill:none;stroke:#4daf4a;stroke-linecap:square;stroke-width:1.5;"/>
    </g>
    <g id="line2d_35"/>
    <g id="text_15">
     <!-- 2 -->
     <g transform="translate(339.822813 164.034687)scale(0.1 -0.1)">
      <use xlink:href="#DejaVuSans-50"/>
     </g>
    </g>
    <g id="line2d_36">
     <path d="M 311.822813 175.212812 
L 331.822813 175.212812 
" style="fill:none;stroke:#984ea3;stroke-linecap:square;stroke-width:1.5;"/>
    </g>
    <g id="line2d_37"/>
    <g id="text_16">
     <!-- 3 -->
     <g transform="translate(339.822813 178.712812)scale(0.1 -0.1)">
      <use xlink:href="#DejaVuSans-51"/>
     </g>
    </g>
    <g id="line2d_38">
     <path d="M 311.822813 189.890937 
L 331.822813 189.890937 
" style="fill:none;stroke:#ff7f00;stroke-linecap:square;stroke-width:1.5;"/>
    </g>
    <g id="line2d_39"/>
    <g id="text_17">
     <!-- 4 -->
     <g transform="translate(339.822813 193.390937)scale(0.1 -0.1)">
      <use xlink:href="#DejaVuSans-52"/>
     </g>
    </g>
   </g>
  </g>
 </g>
 <defs>
  <clipPath id="paec2682ab7">
   <rect height="221.76" width="267.84" x="34.982813" y="7.2"/>
  </clipPath>
 </defs>
</svg>
