<?xml version="1.0" encoding="utf-8" standalone="no"?>
<!DOCTYPE svg PUBLIC "-//W3C//DTD SVG 1.1//EN"
  "http://www.w3.org/Graphics/SVG/1.1/DTD/svg11.dtd">
<!-- Created with matplotlib (https://matplotlib.org/) -->
<svg height="200.898125pt" version="1.1" viewBox="0 0 271.605313 200.898125" width="271.605313pt" xmlns="http://www.w3.org/2000/svg" xmlns:xlink="http://www.w3.org/1999/xlink">
 <defs>
  <style type="text/css">
*{stroke-linecap:butt;stroke-linejoin:round;}
  </style>
 </defs>
 <g id="figure_1">
  <g id="patch_1">
   <path d="M 0 200.898125 
L 271.605313 200.898125 
L 271.605313 0 
L 0 0 
z
" style="fill:#ffffff;"/>
  </g>
  <g id="axes_1">
   <g id="patch_2">
    <path d="M 38.482813 177.02 
L 217.042813 177.02 
L 217.042813 10.7 
L 38.482813 10.7 
z
" style="fill:#ffffff;"/>
   </g>
   <g id="matplotlib.axis_1">
    <g id="xtick_1">
     <g id="line2d_1">
      <defs>
       <path d="M 0 0 
L 0 3.5 
" id="m1dc511607f" style="stroke:#757575;stroke-width:0.8;"/>
      </defs>
      <g>
       <use style="fill:#757575;stroke:#757575;stroke-width:0.8;" x="46.599176" xlink:href="#m1dc511607f" y="177.02"/>
      </g>
     </g>
     <g id="text_1">
      <!-- 0 -->
      <defs>
       <path d="M 31.78125 66.40625 
Q 24.171875 66.40625 20.328125 58.90625 
Q 16.5 51.421875 16.5 36.375 
Q 16.5 21.390625 20.328125 13.890625 
Q 24.171875 6.390625 31.78125 6.390625 
Q 39.453125 6.390625 43.28125 13.890625 
Q 47.125 21.390625 47.125 36.375 
Q 47.125 51.421875 43.28125 58.90625 
Q 39.453125 66.40625 31.78125 66.40625 
z
M 31.78125 74.21875 
Q 44.046875 74.21875 50.515625 64.515625 
Q 56.984375 54.828125 56.984375 36.375 
Q 56.984375 17.96875 50.515625 8.265625 
Q 44.046875 -1.421875 31.78125 -1.421875 
Q 19.53125 -1.421875 13.0625 8.265625 
Q 6.59375 17.96875 6.59375 36.375 
Q 6.59375 54.828125 13.0625 64.515625 
Q 19.53125 74.21875 31.78125 74.21875 
z
" id="DejaVuSans-48"/>
      </defs>
      <g style="fill:#757575;" transform="translate(43.417926 191.618437)scale(0.1 -0.1)">
       <use xlink:href="#DejaVuSans-48"/>
      </g>
     </g>
    </g>
    <g id="xtick_2">
     <g id="line2d_2">
      <g>
       <use style="fill:#757575;stroke:#757575;stroke-width:0.8;" x="87.180994" xlink:href="#m1dc511607f" y="177.02"/>
      </g>
     </g>
     <g id="text_2">
      <!-- 1 -->
      <defs>
       <path d="M 12.40625 8.296875 
L 28.515625 8.296875 
L 28.515625 63.921875 
L 10.984375 60.40625 
L 10.984375 69.390625 
L 28.421875 72.90625 
L 38.28125 72.90625 
L 38.28125 8.296875 
L 54.390625 8.296875 
L 54.390625 0 
L 12.40625 0 
z
" id="DejaVuSans-49"/>
      </defs>
      <g style="fill:#757575;" transform="translate(83.999744 191.618437)scale(0.1 -0.1)">
       <use xlink:href="#DejaVuSans-49"/>
      </g>
     </g>
    </g>
    <g id="xtick_3">
     <g id="line2d_3">
      <g>
       <use style="fill:#757575;stroke:#757575;stroke-width:0.8;" x="127.762813" xlink:href="#m1dc511607f" y="177.02"/>
      </g>
     </g>
     <g id="text_3">
      <!-- 2 -->
      <defs>
       <path d="M 19.1875 8.296875 
L 53.609375 8.296875 
L 53.609375 0 
L 7.328125 0 
L 7.328125 8.296875 
Q 12.9375 14.109375 22.625 23.890625 
Q 32.328125 33.6875 34.8125 36.53125 
Q 39.546875 41.84375 41.421875 45.53125 
Q 43.3125 49.21875 43.3125 52.78125 
Q 43.3125 58.59375 39.234375 62.25 
Q 35.15625 65.921875 28.609375 65.921875 
Q 23.96875 65.921875 18.8125 64.3125 
Q 13.671875 62.703125 7.8125 59.421875 
L 7.8125 69.390625 
Q 13.765625 71.78125 18.9375 73 
Q 24.125 74.21875 28.421875 74.21875 
Q 39.75 74.21875 46.484375 68.546875 
Q 53.21875 62.890625 53.21875 53.421875 
Q 53.21875 48.921875 51.53125 44.890625 
Q 49.859375 40.875 45.40625 35.40625 
Q 44.1875 33.984375 37.640625 27.21875 
Q 31.109375 20.453125 19.1875 8.296875 
z
" id="DejaVuSans-50"/>
      </defs>
      <g style="fill:#757575;" transform="translate(124.581563 191.618437)scale(0.1 -0.1)">
       <use xlink:href="#DejaVuSans-50"/>
      </g>
     </g>
    </g>
    <g id="xtick_4">
     <g id="line2d_4">
      <g>
       <use style="fill:#757575;stroke:#757575;stroke-width:0.8;" x="168.344631" xlink:href="#m1dc511607f" y="177.02"/>
      </g>
     </g>
     <g id="text_4">
      <!-- 3 -->
      <defs>
       <path d="M 40.578125 39.3125 
Q 47.65625 37.796875 51.625 33 
Q 55.609375 28.21875 55.609375 21.1875 
Q 55.609375 10.40625 48.1875 4.484375 
Q 40.765625 -1.421875 27.09375 -1.421875 
Q 22.515625 -1.421875 17.65625 -0.515625 
Q 12.796875 0.390625 7.625 2.203125 
L 7.625 11.71875 
Q 11.71875 9.328125 16.59375 8.109375 
Q 21.484375 6.890625 26.8125 6.890625 
Q 36.078125 6.890625 40.9375 10.546875 
Q 45.796875 14.203125 45.796875 21.1875 
Q 45.796875 27.640625 41.28125 31.265625 
Q 36.765625 34.90625 28.71875 34.90625 
L 20.21875 34.90625 
L 20.21875 43.015625 
L 29.109375 43.015625 
Q 36.375 43.015625 40.234375 45.921875 
Q 44.09375 48.828125 44.09375 54.296875 
Q 44.09375 59.90625 40.109375 62.90625 
Q 36.140625 65.921875 28.71875 65.921875 
Q 24.65625 65.921875 20.015625 65.03125 
Q 15.375 64.15625 9.8125 62.3125 
L 9.8125 71.09375 
Q 15.4375 72.65625 20.34375 73.4375 
Q 25.25 74.21875 29.59375 74.21875 
Q 40.828125 74.21875 47.359375 69.109375 
Q 53.90625 64.015625 53.90625 55.328125 
Q 53.90625 49.265625 50.4375 45.09375 
Q 46.96875 40.921875 40.578125 39.3125 
z
" id="DejaVuSans-51"/>
      </defs>
      <g style="fill:#757575;" transform="translate(165.163381 191.618437)scale(0.1 -0.1)">
       <use xlink:href="#DejaVuSans-51"/>
      </g>
     </g>
    </g>
    <g id="xtick_5">
     <g id="line2d_5">
      <g>
       <use style="fill:#757575;stroke:#757575;stroke-width:0.8;" x="208.926449" xlink:href="#m1dc511607f" y="177.02"/>
      </g>
     </g>
     <g id="text_5">
      <!-- 4 -->
      <defs>
       <path d="M 37.796875 64.3125 
L 12.890625 25.390625 
L 37.796875 25.390625 
z
M 35.203125 72.90625 
L 47.609375 72.90625 
L 47.609375 25.390625 
L 58.015625 25.390625 
L 58.015625 17.1875 
L 47.609375 17.1875 
L 47.609375 0 
L 37.796875 0 
L 37.796875 17.1875 
L 4.890625 17.1875 
L 4.890625 26.703125 
z
" id="DejaVuSans-52"/>
      </defs>
      <g style="fill:#757575;" transform="translate(205.745199 191.618437)scale(0.1 -0.1)">
       <use xlink:href="#DejaVuSans-52"/>
      </g>
     </g>
    </g>
   </g>
   <g id="matplotlib.axis_2">
    <g id="ytick_1">
     <g id="line2d_6">
      <defs>
       <path d="M 0 0 
L -3.5 0 
" id="mf62bb2f08d" style="stroke:#757575;stroke-width:0.8;"/>
      </defs>
      <g>
       <use style="fill:#757575;stroke:#757575;stroke-width:0.8;" x="38.482813" xlink:href="#mf62bb2f08d" y="167.353828"/>
      </g>
     </g>
     <g id="text_6">
      <!-- −0.2 -->
      <defs>
       <path d="M 10.59375 35.5 
L 73.1875 35.5 
L 73.1875 27.203125 
L 10.59375 27.203125 
z
" id="DejaVuSans-8722"/>
       <path d="M 10.6875 12.40625 
L 21 12.40625 
L 21 0 
L 10.6875 0 
z
" id="DejaVuSans-46"/>
      </defs>
      <g style="fill:#757575;" transform="translate(7.2 171.153047)scale(0.1 -0.1)">
       <use xlink:href="#DejaVuSans-8722"/>
       <use x="83.789062" xlink:href="#DejaVuSans-48"/>
       <use x="147.412109" xlink:href="#DejaVuSans-46"/>
       <use x="179.199219" xlink:href="#DejaVuSans-50"/>
      </g>
     </g>
    </g>
    <g id="ytick_2">
     <g id="line2d_7">
      <g>
       <use style="fill:#757575;stroke:#757575;stroke-width:0.8;" x="38.482813" xlink:href="#mf62bb2f08d" y="142.504857"/>
      </g>
     </g>
     <g id="text_7">
      <!-- 0.0 -->
      <g style="fill:#757575;" transform="translate(15.579688 146.304075)scale(0.1 -0.1)">
       <use xlink:href="#DejaVuSans-48"/>
       <use x="63.623047" xlink:href="#DejaVuSans-46"/>
       <use x="95.410156" xlink:href="#DejaVuSans-48"/>
      </g>
     </g>
    </g>
    <g id="ytick_3">
     <g id="line2d_8">
      <g>
       <use style="fill:#757575;stroke:#757575;stroke-width:0.8;" x="38.482813" xlink:href="#mf62bb2f08d" y="117.655885"/>
      </g>
     </g>
     <g id="text_8">
      <!-- 0.2 -->
      <g style="fill:#757575;" transform="translate(15.579688 121.455104)scale(0.1 -0.1)">
       <use xlink:href="#DejaVuSans-48"/>
       <use x="63.623047" xlink:href="#DejaVuSans-46"/>
       <use x="95.410156" xlink:href="#DejaVuSans-50"/>
      </g>
     </g>
    </g>
    <g id="ytick_4">
     <g id="line2d_9">
      <g>
       <use style="fill:#757575;stroke:#757575;stroke-width:0.8;" x="38.482813" xlink:href="#mf62bb2f08d" y="92.806914"/>
      </g>
     </g>
     <g id="text_9">
      <!-- 0.4 -->
      <g style="fill:#757575;" transform="translate(15.579688 96.606133)scale(0.1 -0.1)">
       <use xlink:href="#DejaVuSans-48"/>
       <use x="63.623047" xlink:href="#DejaVuSans-46"/>
       <use x="95.410156" xlink:href="#DejaVuSans-52"/>
      </g>
     </g>
    </g>
    <g id="ytick_5">
     <g id="line2d_10">
      <g>
       <use style="fill:#757575;stroke:#757575;stroke-width:0.8;" x="38.482813" xlink:href="#mf62bb2f08d" y="67.957943"/>
      </g>
     </g>
     <g id="text_10">
      <!-- 0.6 -->
      <defs>
       <path d="M 33.015625 40.375 
Q 26.375 40.375 22.484375 35.828125 
Q 18.609375 31.296875 18.609375 23.390625 
Q 18.609375 15.53125 22.484375 10.953125 
Q 26.375 6.390625 33.015625 6.390625 
Q 39.65625 6.390625 43.53125 10.953125 
Q 47.40625 15.53125 47.40625 23.390625 
Q 47.40625 31.296875 43.53125 35.828125 
Q 39.65625 40.375 33.015625 40.375 
z
M 52.59375 71.296875 
L 52.59375 62.3125 
Q 48.875 64.0625 45.09375 64.984375 
Q 41.3125 65.921875 37.59375 65.921875 
Q 27.828125 65.921875 22.671875 59.328125 
Q 17.53125 52.734375 16.796875 39.40625 
Q 19.671875 43.65625 24.015625 45.921875 
Q 28.375 48.1875 33.59375 48.1875 
Q 44.578125 48.1875 50.953125 41.515625 
Q 57.328125 34.859375 57.328125 23.390625 
Q 57.328125 12.15625 50.6875 5.359375 
Q 44.046875 -1.421875 33.015625 -1.421875 
Q 20.359375 -1.421875 13.671875 8.265625 
Q 6.984375 17.96875 6.984375 36.375 
Q 6.984375 53.65625 15.1875 63.9375 
Q 23.390625 74.21875 37.203125 74.21875 
Q 40.921875 74.21875 44.703125 73.484375 
Q 48.484375 72.75 52.59375 71.296875 
z
" id="DejaVuSans-54"/>
      </defs>
      <g style="fill:#757575;" transform="translate(15.579688 71.757161)scale(0.1 -0.1)">
       <use xlink:href="#DejaVuSans-48"/>
       <use x="63.623047" xlink:href="#DejaVuSans-46"/>
       <use x="95.410156" xlink:href="#DejaVuSans-54"/>
      </g>
     </g>
    </g>
    <g id="ytick_6">
     <g id="line2d_11">
      <g>
       <use style="fill:#757575;stroke:#757575;stroke-width:0.8;" x="38.482813" xlink:href="#mf62bb2f08d" y="43.108971"/>
      </g>
     </g>
     <g id="text_11">
      <!-- 0.8 -->
      <defs>
       <path d="M 31.78125 34.625 
Q 24.75 34.625 20.71875 30.859375 
Q 16.703125 27.09375 16.703125 20.515625 
Q 16.703125 13.921875 20.71875 10.15625 
Q 24.75 6.390625 31.78125 6.390625 
Q 38.8125 6.390625 42.859375 10.171875 
Q 46.921875 13.96875 46.921875 20.515625 
Q 46.921875 27.09375 42.890625 30.859375 
Q 38.875 34.625 31.78125 34.625 
z
M 21.921875 38.8125 
Q 15.578125 40.375 12.03125 44.71875 
Q 8.5 49.078125 8.5 55.328125 
Q 8.5 64.0625 14.71875 69.140625 
Q 20.953125 74.21875 31.78125 74.21875 
Q 42.671875 74.21875 48.875 69.140625 
Q 55.078125 64.0625 55.078125 55.328125 
Q 55.078125 49.078125 51.53125 44.71875 
Q 48 40.375 41.703125 38.8125 
Q 48.828125 37.15625 52.796875 32.3125 
Q 56.78125 27.484375 56.78125 20.515625 
Q 56.78125 9.90625 50.3125 4.234375 
Q 43.84375 -1.421875 31.78125 -1.421875 
Q 19.734375 -1.421875 13.25 4.234375 
Q 6.78125 9.90625 6.78125 20.515625 
Q 6.78125 27.484375 10.78125 32.3125 
Q 14.796875 37.15625 21.921875 38.8125 
z
M 18.3125 54.390625 
Q 18.3125 48.734375 21.84375 45.5625 
Q 25.390625 42.390625 31.78125 42.390625 
Q 38.140625 42.390625 41.71875 45.5625 
Q 45.3125 48.734375 45.3125 54.390625 
Q 45.3125 60.0625 41.71875 63.234375 
Q 38.140625 66.40625 31.78125 66.40625 
Q 25.390625 66.40625 21.84375 63.234375 
Q 18.3125 60.0625 18.3125 54.390625 
z
" id="DejaVuSans-56"/>
      </defs>
      <g style="fill:#757575;" transform="translate(15.579688 46.90819)scale(0.1 -0.1)">
       <use xlink:href="#DejaVuSans-48"/>
       <use x="63.623047" xlink:href="#DejaVuSans-46"/>
       <use x="95.410156" xlink:href="#DejaVuSans-56"/>
      </g>
     </g>
    </g>
    <g id="ytick_7">
     <g id="line2d_12">
      <g>
       <use style="fill:#757575;stroke:#757575;stroke-width:0.8;" x="38.482813" xlink:href="#mf62bb2f08d" y="18.26"/>
      </g>
     </g>
     <g id="text_12">
      <!-- 1.0 -->
      <g style="fill:#757575;" transform="translate(15.579688 22.059219)scale(0.1 -0.1)">
       <use xlink:href="#DejaVuSans-49"/>
       <use x="63.623047" xlink:href="#DejaVuSans-46"/>
       <use x="95.410156" xlink:href="#DejaVuSans-48"/>
      </g>
     </g>
    </g>
   </g>
   <g id="line2d_13">
    <path clip-path="url(#p7a65d686b5)" d="M 46.599176 18.26 
L 48.238846 18.593375 
L 49.878515 19.590272 
L 51.518184 21.241068 
L 53.157854 23.529854 
L 54.797523 26.434609 
L 56.437193 29.927459 
L 58.076862 33.974993 
L 59.716532 38.538645 
L 61.356201 43.575135 
L 62.99587 49.036963 
L 64.63554 54.872944 
L 66.275209 61.02879 
L 67.914879 67.44772 
L 69.554548 74.071093 
L 71.194217 80.839067 
L 72.833887 87.691256 
L 74.473556 94.567396 
L 76.113226 101.408001 
L 77.752895 108.155004 
L 79.392565 114.752373 
L 81.032234 121.146705 
L 82.671903 127.287774 
L 84.311573 133.12904 
L 85.951242 138.628109 
L 87.590912 143.747135 
L 89.230581 148.453171 
L 90.870251 152.718446 
L 92.50992 156.520587 
L 94.149589 159.842769 
L 95.789259 162.673799 
L 97.428928 165.008124 
L 99.068598 166.845783 
L 100.708267 168.192283 
L 102.347936 169.058413 
L 103.987606 169.46 
L 105.627275 169.417606 
L 107.266945 168.956172 
L 108.906614 168.104612 
L 110.546284 166.895374 
L 112.185953 165.363957 
L 113.825622 163.548402 
L 115.465292 161.488766 
L 117.104961 159.226572 
L 118.744631 156.804262 
L 120.3843 154.26464 
L 122.02397 151.65033 
L 123.663639 149.003245 
L 125.303308 146.364071 
L 126.942978 143.77179 
L 128.582647 141.263223 
L 130.222317 138.872617 
L 131.861986 136.631278 
L 133.501655 134.567242 
L 135.141325 132.705007 
L 136.780994 131.065305 
L 138.420664 129.664944 
L 140.060333 128.516692 
L 141.700003 127.62923 
L 143.339672 127.007149 
L 144.979341 126.651011 
L 146.619011 126.557463 
L 148.25868 126.719393 
L 149.89835 127.126145 
L 151.538019 127.763769 
L 153.177689 128.615314 
L 154.817358 129.661157 
L 156.457027 130.879356 
L 158.096697 132.246033 
L 159.736366 133.735772 
L 161.376036 135.32203 
L 163.015705 136.977551 
L 164.655374 138.674786 
L 166.295044 140.386305 
L 167.934713 142.085194 
L 169.574383 143.745442 
L 171.214052 145.342301 
L 172.853722 146.85262 
L 174.493391 148.255152 
L 176.13306 149.530824 
L 177.77273 150.662968 
L 179.412399 151.63751 
L 181.052069 152.443127 
L 182.691738 153.071348 
L 184.331408 153.516617 
L 185.971077 153.77631 
L 187.610746 153.850711 
L 189.250416 153.74294 
L 190.890085 153.458849 
L 192.529755 153.006868 
L 194.169424 152.397828 
L 195.809093 151.64474 
L 197.448763 150.762559 
L 199.088432 149.767908 
L 200.728102 148.678798 
L 202.367771 147.514322 
L 204.007441 146.294341 
L 205.64711 145.039168 
L 207.286779 143.76925 
L 208.926449 142.504847 
" style="fill:none;stroke:#348abd;stroke-linecap:square;stroke-width:1.5;"/>
   </g>
   <g id="line2d_14">
    <path clip-path="url(#p7a65d686b5)" d="M 46.599176 80.382428 
L 48.238846 80.549116 
L 49.878515 81.047564 
L 51.518184 81.872962 
L 53.157854 83.017355 
L 54.797523 84.469733 
L 56.437193 86.216158 
L 58.076862 88.239925 
L 59.716532 90.521751 
L 61.356201 93.039996 
L 62.99587 95.77091 
L 64.63554 98.6889 
L 66.275209 101.766824 
L 67.914879 104.976288 
L 69.554548 108.287975 
L 71.194217 111.671962 
L 72.833887 115.098056 
L 74.473556 118.536127 
L 76.113226 121.956429 
L 77.752895 125.32993 
L 79.392565 128.628615 
L 81.032234 131.825781 
L 82.671903 134.896315 
L 84.311573 137.816948 
L 85.951242 140.566483 
L 87.590912 143.125996 
L 89.230581 145.479014 
L 90.870251 147.611651 
L 92.50992 149.512722 
L 94.149589 151.173813 
L 95.789259 152.589328 
L 97.428928 153.75649 
L 99.068598 154.67532 
L 100.708267 155.34857 
L 102.347936 155.781635 
L 103.987606 155.982428 
L 105.627275 155.961232 
L 107.266945 155.730514 
L 108.906614 155.304734 
L 110.546284 154.700115 
L 112.185953 153.934407 
L 113.825622 153.026629 
L 115.465292 151.996811 
L 117.104961 150.865714 
L 118.744631 149.654559 
L 120.3843 148.384748 
L 122.02397 147.077593 
L 123.663639 145.754051 
L 125.303308 144.434464 
L 126.942978 143.138323 
L 128.582647 141.88404 
L 130.222317 140.688737 
L 131.861986 139.568067 
L 133.501655 138.536049 
L 135.141325 137.604932 
L 136.780994 136.785081 
L 138.420664 136.0849 
L 140.060333 135.510774 
L 141.700003 135.067043 
L 143.339672 134.756003 
L 144.979341 134.577934 
L 146.619011 134.53116 
L 148.25868 134.612125 
L 149.89835 134.815501 
L 151.538019 135.134313 
L 153.177689 135.560086 
L 154.817358 136.083007 
L 156.457027 136.692106 
L 158.096697 137.375445 
L 159.736366 138.120314 
L 161.376036 138.913443 
L 163.015705 139.741204 
L 164.655374 140.589821 
L 166.295044 141.445581 
L 167.934713 142.295025 
L 169.574383 143.125149 
L 171.214052 143.923579 
L 172.853722 144.678738 
L 174.493391 145.380004 
L 176.13306 146.017841 
L 177.77273 146.583912 
L 179.412399 147.071183 
L 181.052069 147.473992 
L 182.691738 147.788103 
L 184.331408 148.010737 
L 185.971077 148.140583 
L 187.610746 148.177784 
L 189.250416 148.123898 
L 190.890085 147.981853 
L 192.529755 147.755862 
L 194.169424 147.451342 
L 195.809093 147.074798 
L 197.448763 146.633708 
L 199.088432 146.136382 
L 200.728102 145.591828 
L 202.367771 145.009589 
L 204.007441 144.399599 
L 205.64711 143.772012 
L 207.286779 143.137053 
L 208.926449 142.504852 
" style="fill:none;stroke:#7a68a6;stroke-linecap:square;stroke-width:1.5;"/>
   </g>
   <g id="line2d_15">
    <path clip-path="url(#p7a65d686b5)" d="M 46.599176 101.089904 
L 48.238846 101.20103 
L 49.878515 101.533328 
L 51.518184 102.083594 
L 53.157854 102.846522 
L 54.797523 103.814774 
L 56.437193 104.979058 
L 58.076862 106.328235 
L 59.716532 107.849453 
L 61.356201 109.528283 
L 62.99587 111.348892 
L 64.63554 113.294219 
L 66.275209 115.346168 
L 67.914879 117.485811 
L 69.554548 119.693602 
L 71.194217 121.949593 
L 72.833887 124.233656 
L 74.473556 126.525703 
L 76.113226 128.805905 
L 77.752895 131.054906 
L 79.392565 133.254029 
L 81.032234 135.385473 
L 82.671903 137.432496 
L 84.311573 139.379584 
L 85.951242 141.212607 
L 87.590912 142.91895 
L 89.230581 144.487628 
L 90.870251 145.909386 
L 92.50992 147.176767 
L 94.149589 148.284161 
L 95.789259 149.227837 
L 97.428928 150.005946 
L 99.068598 150.618499 
L 100.708267 151.067332 
L 102.347936 151.356042 
L 103.987606 151.489904 
L 105.627275 151.475773 
L 107.266945 151.321962 
L 108.906614 151.038108 
L 110.546284 150.635029 
L 112.185953 150.124557 
L 113.825622 149.519372 
L 115.465292 148.832826 
L 117.104961 148.078762 
L 118.744631 147.271325 
L 120.3843 146.424784 
L 122.02397 145.553348 
L 123.663639 144.670986 
L 125.303308 143.791261 
L 126.942978 142.927168 
L 128.582647 142.090979 
L 130.222317 141.29411 
L 131.861986 140.546997 
L 133.501655 139.858985 
L 135.141325 139.23824 
L 136.780994 138.691673 
L 138.420664 138.224886 
L 140.060333 137.842135 
L 141.700003 137.546314 
L 143.339672 137.338954 
L 144.979341 137.220242 
L 146.619011 137.189059 
L 148.25868 137.243036 
L 149.89835 137.37862 
L 151.538019 137.591161 
L 153.177689 137.875009 
L 154.817358 138.223623 
L 156.457027 138.62969 
L 158.096697 139.085249 
L 159.736366 139.581829 
L 161.376036 140.110581 
L 163.015705 140.662421 
L 164.655374 141.228166 
L 166.295044 141.798673 
L 167.934713 142.364969 
L 169.574383 142.918385 
L 171.214052 143.450671 
L 172.853722 143.954111 
L 174.493391 144.421622 
L 176.13306 144.846846 
L 177.77273 145.224227 
L 179.412399 145.549074 
L 181.052069 145.817614 
L 182.691738 146.027021 
L 184.331408 146.175443 
L 185.971077 146.262008 
L 187.610746 146.286808 
L 189.250416 146.250884 
L 190.890085 146.156187 
L 192.529755 146.005527 
L 194.169424 145.802514 
L 195.809093 145.551484 
L 197.448763 145.257424 
L 199.088432 144.925874 
L 200.728102 144.562837 
L 202.367771 144.174678 
L 204.007441 143.768018 
L 205.64711 143.349627 
L 207.286779 142.926321 
L 208.926449 142.504853 
" style="fill:none;stroke:#a60628;stroke-linecap:square;stroke-width:1.5;"/>
   </g>
   <g id="line2d_16">
    <path clip-path="url(#p7a65d686b5)" d="M 46.599176 111.443642 
L 48.238846 111.526986 
L 49.878515 111.77621 
L 51.518184 112.18891 
L 53.157854 112.761106 
L 54.797523 113.487295 
L 56.437193 114.360507 
L 58.076862 115.372391 
L 59.716532 116.513304 
L 61.356201 117.772426 
L 62.99587 119.137883 
L 64.63554 120.596879 
L 66.275209 122.13584 
L 67.914879 123.740572 
L 69.554548 125.396416 
L 71.194217 127.088409 
L 72.833887 128.801456 
L 74.473556 130.520492 
L 76.113226 132.230643 
L 77.752895 133.917393 
L 79.392565 135.566736 
L 81.032234 137.165319 
L 82.671903 138.700586 
L 84.311573 140.160902 
L 85.951242 141.53567 
L 87.590912 142.815426 
L 89.230581 143.991935 
L 90.870251 145.058254 
L 92.50992 146.008789 
L 94.149589 146.839335 
L 95.789259 147.547092 
L 97.428928 148.130673 
L 99.068598 148.590088 
L 100.708267 148.926713 
L 102.347936 149.143246 
L 103.987606 149.243642 
L 105.627275 149.233044 
L 107.266945 149.117685 
L 108.906614 148.904795 
L 110.546284 148.602486 
L 112.185953 148.219632 
L 113.825622 147.765743 
L 115.465292 147.250834 
L 117.104961 146.685286 
L 118.744631 146.079708 
L 120.3843 145.444802 
L 122.02397 144.791225 
L 123.663639 144.129454 
L 125.303308 143.46966 
L 126.942978 142.82159 
L 128.582647 142.194448 
L 130.222317 141.596797 
L 131.861986 141.036462 
L 133.501655 140.520453 
L 135.141325 140.054894 
L 136.780994 139.644969 
L 138.420664 139.294878 
L 140.060333 139.007816 
L 141.700003 138.78595 
L 143.339672 138.63043 
L 144.979341 138.541395 
L 146.619011 138.518008 
L 148.25868 138.558491 
L 149.89835 138.660179 
L 151.538019 138.819585 
L 153.177689 139.032471 
L 154.817358 139.293932 
L 156.457027 139.598481 
L 158.096697 139.940151 
L 159.736366 140.312586 
L 161.376036 140.70915 
L 163.015705 141.12303 
L 164.655374 141.547339 
L 166.295044 141.975219 
L 167.934713 142.399941 
L 169.574383 142.815003 
L 171.214052 143.214218 
L 172.853722 143.591797 
L 174.493391 143.942431 
L 176.13306 144.261349 
L 177.77273 144.544384 
L 179.412399 144.78802 
L 181.052069 144.989424 
L 182.691738 145.14648 
L 184.331408 145.257797 
L 185.971077 145.32272 
L 187.610746 145.34132 
L 189.250416 145.314377 
L 190.890085 145.243355 
L 192.529755 145.130359 
L 194.169424 144.978099 
L 195.809093 144.789828 
L 197.448763 144.569282 
L 199.088432 144.32062 
L 200.728102 144.048342 
L 202.367771 143.757223 
L 204.007441 143.452228 
L 205.64711 143.138435 
L 207.286779 142.820955 
L 208.926449 142.504854 
" style="fill:none;stroke:#467821;stroke-linecap:square;stroke-width:1.5;"/>
   </g>
   <g id="line2d_17">
    <path clip-path="url(#p7a65d686b5)" d="M 46.599176 117.655885 
L 48.238846 117.72256 
L 49.878515 117.92194 
L 51.518184 118.252099 
L 53.157854 118.709856 
L 54.797523 119.290807 
L 56.437193 119.989377 
L 58.076862 120.798884 
L 59.716532 121.711614 
L 61.356201 122.718912 
L 62.99587 123.811278 
L 64.63554 124.978474 
L 66.275209 126.209643 
L 67.914879 127.493429 
L 69.554548 128.818104 
L 71.194217 130.171699 
L 72.833887 131.542137 
L 74.473556 132.917365 
L 76.113226 134.285486 
L 77.752895 135.634886 
L 79.392565 136.95436 
L 81.032234 138.233226 
L 82.671903 139.46144 
L 84.311573 140.629693 
L 85.951242 141.729507 
L 87.590912 142.753312 
L 89.230581 143.694519 
L 90.870251 144.547574 
L 92.50992 145.308003 
L 94.149589 145.972439 
L 95.789259 146.538645 
L 97.428928 147.00551 
L 99.068598 147.373042 
L 100.708267 147.642342 
L 102.347936 147.815568 
L 103.987606 147.895885 
L 105.627275 147.887407 
L 107.266945 147.79512 
L 108.906614 147.624808 
L 110.546284 147.38296 
L 112.185953 147.076677 
L 113.825622 146.713566 
L 115.465292 146.301639 
L 117.104961 145.8492 
L 118.744631 145.364738 
L 120.3843 144.856813 
L 122.02397 144.333951 
L 123.663639 143.804534 
L 125.303308 143.2767 
L 126.942978 142.758243 
L 128.582647 142.25653 
L 130.222317 141.778409 
L 131.861986 141.330141 
L 133.501655 140.917334 
L 135.141325 140.544887 
L 136.780994 140.216946 
L 138.420664 139.936874 
L 140.060333 139.707224 
L 141.700003 139.529731 
L 143.339672 139.405315 
L 144.979341 139.334088 
L 146.619011 139.315378 
L 148.25868 139.347764 
L 149.89835 139.429114 
L 151.538019 139.556639 
L 153.177689 139.726948 
L 154.817358 139.936117 
L 156.457027 140.179756 
L 158.096697 140.453092 
L 159.736366 140.75104 
L 161.376036 141.068291 
L 163.015705 141.399395 
L 164.655374 141.738843 
L 166.295044 142.081146 
L 167.934713 142.420924 
L 169.574383 142.752974 
L 171.214052 143.072345 
L 172.853722 143.374409 
L 174.493391 143.654916 
L 176.13306 143.91005 
L 177.77273 144.136479 
L 179.412399 144.331387 
L 181.052069 144.492511 
L 182.691738 144.618155 
L 184.331408 144.707209 
L 185.971077 144.759147 
L 187.610746 144.774027 
L 189.250416 144.752473 
L 190.890085 144.695655 
L 192.529755 144.605259 
L 194.169424 144.483451 
L 195.809093 144.332833 
L 197.448763 144.156397 
L 199.088432 143.957467 
L 200.728102 143.739645 
L 202.367771 143.50675 
L 204.007441 143.262753 
L 205.64711 143.011719 
L 207.286779 142.757735 
L 208.926449 142.504855 
" style="fill:none;stroke:#cf4457;stroke-linecap:square;stroke-width:1.5;"/>
   </g>
   <g id="patch_3">
    <path d="M 38.482813 177.02 
L 38.482813 10.7 
" style="fill:none;stroke:#757575;stroke-linecap:square;stroke-linejoin:miter;stroke-width:0.8;"/>
   </g>
   <g id="patch_4">
    <path d="M 38.482813 177.02 
L 217.042813 177.02 
" style="fill:none;stroke:#757575;stroke-linecap:square;stroke-linejoin:miter;stroke-width:0.8;"/>
   </g>
   <g id="legend_1">
    <g id="line2d_18">
     <path d="M 226.042813 106.958437 
L 246.042813 106.958437 
" style="fill:none;stroke:#348abd;stroke-linecap:square;stroke-width:1.5;"/>
    </g>
    <g id="line2d_19"/>
    <g id="text_13">
     <!-- 0 -->
     <g style="fill:#757575;" transform="translate(254.042813 110.458437)scale(0.1 -0.1)">
      <use xlink:href="#DejaVuSans-48"/>
     </g>
    </g>
    <g id="line2d_20">
     <path d="M 226.042813 121.636562 
L 246.042813 121.636562 
" style="fill:none;stroke:#7a68a6;stroke-linecap:square;stroke-width:1.5;"/>
    </g>
    <g id="line2d_21"/>
    <g id="text_14">
     <!-- 1 -->
     <g style="fill:#757575;" transform="translate(254.042813 125.136562)scale(0.1 -0.1)">
      <use xlink:href="#DejaVuSans-49"/>
     </g>
    </g>
    <g id="line2d_22">
     <path d="M 226.042813 136.314687 
L 246.042813 136.314687 
" style="fill:none;stroke:#a60628;stroke-linecap:square;stroke-width:1.5;"/>
    </g>
    <g id="line2d_23"/>
    <g id="text_15">
     <!-- 2 -->
     <g style="fill:#757575;" transform="translate(254.042813 139.814687)scale(0.1 -0.1)">
      <use xlink:href="#DejaVuSans-50"/>
     </g>
    </g>
    <g id="line2d_24">
     <path d="M 226.042813 150.992812 
L 246.042813 150.992812 
" style="fill:none;stroke:#467821;stroke-linecap:square;stroke-width:1.5;"/>
    </g>
    <g id="line2d_25"/>
    <g id="text_16">
     <!-- 3 -->
     <g style="fill:#757575;" transform="translate(254.042813 154.492812)scale(0.1 -0.1)">
      <use xlink:href="#DejaVuSans-51"/>
     </g>
    </g>
    <g id="line2d_26">
     <path d="M 226.042813 165.670937 
L 246.042813 165.670937 
" style="fill:none;stroke:#cf4457;stroke-linecap:square;stroke-width:1.5;"/>
    </g>
    <g id="line2d_27"/>
    <g id="text_17">
     <!-- 4 -->
     <g style="fill:#757575;" transform="translate(254.042813 169.170937)scale(0.1 -0.1)">
      <use xlink:href="#DejaVuSans-52"/>
     </g>
    </g>
   </g>
  </g>
 </g>
 <defs>
  <clipPath id="p7a65d686b5">
   <rect height="166.32" width="178.56" x="38.482813" y="10.7"/>
  </clipPath>
 </defs>
</svg>
