<?xml version="1.0" encoding="utf-8" standalone="no"?>
<!DOCTYPE svg PUBLIC "-//W3C//DTD SVG 1.1//EN"
  "http://www.w3.org/Graphics/SVG/1.1/DTD/svg11.dtd">
<svg xmlns:xlink="http://www.w3.org/1999/xlink" width="316.245313pt" height="197.398125pt" viewBox="0 0 316.245313 197.398125" xmlns="http://www.w3.org/2000/svg" version="1.1">
 <metadata>
  <rdf:RDF xmlns:dc="http://purl.org/dc/elements/1.1/" xmlns:cc="http://creativecommons.org/ns#" xmlns:rdf="http://www.w3.org/1999/02/22-rdf-syntax-ns#">
   <cc:Work>
    <dc:type rdf:resource="http://purl.org/dc/dcmitype/StillImage"/>
    <dc:date>2024-06-09T21:44:31.696154</dc:date>
    <dc:format>image/svg+xml</dc:format>
    <dc:creator>
     <cc:Agent>
      <dc:title>Matplotlib v3.8.0, https://matplotlib.org/</dc:title>
     </cc:Agent>
    </dc:creator>
   </cc:Work>
  </rdf:RDF>
 </metadata>
 <defs>
  <style type="text/css">*{stroke-linejoin: round; stroke-linecap: butt}</style>
 </defs>
 <g id="figure_1">
  <g id="patch_1">
   <path d="M 0 197.398125 
L 316.245313 197.398125 
L 316.245313 0 
L 0 0 
z
" style="fill: #ffffff"/>
  </g>
  <g id="axes_1">
   <g id="patch_2">
    <path d="M 38.482813 173.52 
L 261.682813 173.52 
L 261.682813 7.2 
L 38.482813 7.2 
z
" style="fill: #ffffff"/>
   </g>
   <g id="matplotlib.axis_1">
    <g id="xtick_1">
     <g id="line2d_1">
      <path d="M 48.628267 173.52 
L 48.628267 7.2 
" clip-path="url(#pa54bd4a401)" style="fill: none; stroke: #4d4d4d; stroke-width: 0.5; stroke-linecap: square"/>
     </g>
     <g id="line2d_2">
      <defs>
       <path id="mb4f991327d" d="M 0 0 
L 0 3.5 
" style="stroke: #000000; stroke-width: 0.8"/>
      </defs>
      <g>
       <use xlink:href="#mb4f991327d" x="48.628267" y="173.52" style="stroke: #000000; stroke-width: 0.8"/>
      </g>
     </g>
     <g id="text_1">
      <!-- 0 -->
      <g transform="translate(45.447017 188.118438) scale(0.1 -0.1)">
       <defs>
        <path id="DejaVuSans-30" d="M 2034 4250 
Q 1547 4250 1301 3770 
Q 1056 3291 1056 2328 
Q 1056 1369 1301 889 
Q 1547 409 2034 409 
Q 2525 409 2770 889 
Q 3016 1369 3016 2328 
Q 3016 3291 2770 3770 
Q 2525 4250 2034 4250 
z
M 2034 4750 
Q 2819 4750 3233 4129 
Q 3647 3509 3647 2328 
Q 3647 1150 3233 529 
Q 2819 -91 2034 -91 
Q 1250 -91 836 529 
Q 422 1150 422 2328 
Q 422 3509 836 4129 
Q 1250 4750 2034 4750 
z
" transform="scale(0.015625)"/>
       </defs>
       <use xlink:href="#DejaVuSans-30"/>
      </g>
     </g>
    </g>
    <g id="xtick_2">
     <g id="line2d_3">
      <path d="M 99.35554 173.52 
L 99.35554 7.2 
" clip-path="url(#pa54bd4a401)" style="fill: none; stroke: #4d4d4d; stroke-width: 0.5; stroke-linecap: square"/>
     </g>
     <g id="line2d_4">
      <g>
       <use xlink:href="#mb4f991327d" x="99.35554" y="173.52" style="stroke: #000000; stroke-width: 0.8"/>
      </g>
     </g>
     <g id="text_2">
      <!-- 1 -->
      <g transform="translate(96.17429 188.118438) scale(0.1 -0.1)">
       <defs>
        <path id="DejaVuSans-31" d="M 794 531 
L 1825 531 
L 1825 4091 
L 703 3866 
L 703 4441 
L 1819 4666 
L 2450 4666 
L 2450 531 
L 3481 531 
L 3481 0 
L 794 0 
L 794 531 
z
" transform="scale(0.015625)"/>
       </defs>
       <use xlink:href="#DejaVuSans-31"/>
      </g>
     </g>
    </g>
    <g id="xtick_3">
     <g id="line2d_5">
      <path d="M 150.082813 173.52 
L 150.082813 7.2 
" clip-path="url(#pa54bd4a401)" style="fill: none; stroke: #4d4d4d; stroke-width: 0.5; stroke-linecap: square"/>
     </g>
     <g id="line2d_6">
      <g>
       <use xlink:href="#mb4f991327d" x="150.082813" y="173.52" style="stroke: #000000; stroke-width: 0.8"/>
      </g>
     </g>
     <g id="text_3">
      <!-- 2 -->
      <g transform="translate(146.901563 188.118438) scale(0.1 -0.1)">
       <defs>
        <path id="DejaVuSans-32" d="M 1228 531 
L 3431 531 
L 3431 0 
L 469 0 
L 469 531 
Q 828 903 1448 1529 
Q 2069 2156 2228 2338 
Q 2531 2678 2651 2914 
Q 2772 3150 2772 3378 
Q 2772 3750 2511 3984 
Q 2250 4219 1831 4219 
Q 1534 4219 1204 4116 
Q 875 4013 500 3803 
L 500 4441 
Q 881 4594 1212 4672 
Q 1544 4750 1819 4750 
Q 2544 4750 2975 4387 
Q 3406 4025 3406 3419 
Q 3406 3131 3298 2873 
Q 3191 2616 2906 2266 
Q 2828 2175 2409 1742 
Q 1991 1309 1228 531 
z
" transform="scale(0.015625)"/>
       </defs>
       <use xlink:href="#DejaVuSans-32"/>
      </g>
     </g>
    </g>
    <g id="xtick_4">
     <g id="line2d_7">
      <path d="M 200.810085 173.52 
L 200.810085 7.2 
" clip-path="url(#pa54bd4a401)" style="fill: none; stroke: #4d4d4d; stroke-width: 0.5; stroke-linecap: square"/>
     </g>
     <g id="line2d_8">
      <g>
       <use xlink:href="#mb4f991327d" x="200.810085" y="173.52" style="stroke: #000000; stroke-width: 0.8"/>
      </g>
     </g>
     <g id="text_4">
      <!-- 3 -->
      <g transform="translate(197.628835 188.118438) scale(0.1 -0.1)">
       <defs>
        <path id="DejaVuSans-33" d="M 2597 2516 
Q 3050 2419 3304 2112 
Q 3559 1806 3559 1356 
Q 3559 666 3084 287 
Q 2609 -91 1734 -91 
Q 1441 -91 1130 -33 
Q 819 25 488 141 
L 488 750 
Q 750 597 1062 519 
Q 1375 441 1716 441 
Q 2309 441 2620 675 
Q 2931 909 2931 1356 
Q 2931 1769 2642 2001 
Q 2353 2234 1838 2234 
L 1294 2234 
L 1294 2753 
L 1863 2753 
Q 2328 2753 2575 2939 
Q 2822 3125 2822 3475 
Q 2822 3834 2567 4026 
Q 2313 4219 1838 4219 
Q 1578 4219 1281 4162 
Q 984 4106 628 3988 
L 628 4550 
Q 988 4650 1302 4700 
Q 1616 4750 1894 4750 
Q 2613 4750 3031 4423 
Q 3450 4097 3450 3541 
Q 3450 3153 3228 2886 
Q 3006 2619 2597 2516 
z
" transform="scale(0.015625)"/>
       </defs>
       <use xlink:href="#DejaVuSans-33"/>
      </g>
     </g>
    </g>
    <g id="xtick_5">
     <g id="line2d_9">
      <path d="M 251.537358 173.52 
L 251.537358 7.2 
" clip-path="url(#pa54bd4a401)" style="fill: none; stroke: #4d4d4d; stroke-width: 0.5; stroke-linecap: square"/>
     </g>
     <g id="line2d_10">
      <g>
       <use xlink:href="#mb4f991327d" x="251.537358" y="173.52" style="stroke: #000000; stroke-width: 0.8"/>
      </g>
     </g>
     <g id="text_5">
      <!-- 4 -->
      <g transform="translate(248.356108 188.118438) scale(0.1 -0.1)">
       <defs>
        <path id="DejaVuSans-34" d="M 2419 4116 
L 825 1625 
L 2419 1625 
L 2419 4116 
z
M 2253 4666 
L 3047 4666 
L 3047 1625 
L 3713 1625 
L 3713 1100 
L 3047 1100 
L 3047 0 
L 2419 0 
L 2419 1100 
L 313 1100 
L 313 1709 
L 2253 4666 
z
" transform="scale(0.015625)"/>
       </defs>
       <use xlink:href="#DejaVuSans-34"/>
      </g>
     </g>
    </g>
   </g>
   <g id="matplotlib.axis_2">
    <g id="ytick_1">
     <g id="line2d_11">
      <path d="M 38.482813 163.853828 
L 261.682813 163.853828 
" clip-path="url(#pa54bd4a401)" style="fill: none; stroke: #4d4d4d; stroke-width: 0.5; stroke-linecap: square"/>
     </g>
     <g id="line2d_12">
      <defs>
       <path id="mc594284c98" d="M 0 0 
L -3.5 0 
" style="stroke: #000000; stroke-width: 0.8"/>
      </defs>
      <g>
       <use xlink:href="#mc594284c98" x="38.482813" y="163.853828" style="stroke: #000000; stroke-width: 0.8"/>
      </g>
     </g>
     <g id="text_6">
      <!-- −0.2 -->
      <g transform="translate(7.2 167.653047) scale(0.1 -0.1)">
       <defs>
        <path id="DejaVuSans-2212" d="M 678 2272 
L 4684 2272 
L 4684 1741 
L 678 1741 
L 678 2272 
z
" transform="scale(0.015625)"/>
        <path id="DejaVuSans-2e" d="M 684 794 
L 1344 794 
L 1344 0 
L 684 0 
L 684 794 
z
" transform="scale(0.015625)"/>
       </defs>
       <use xlink:href="#DejaVuSans-2212"/>
       <use xlink:href="#DejaVuSans-30" x="83.789062"/>
       <use xlink:href="#DejaVuSans-2e" x="147.412109"/>
       <use xlink:href="#DejaVuSans-32" x="179.199219"/>
      </g>
     </g>
    </g>
    <g id="ytick_2">
     <g id="line2d_13">
      <path d="M 38.482813 139.004857 
L 261.682813 139.004857 
" clip-path="url(#pa54bd4a401)" style="fill: none; stroke: #4d4d4d; stroke-width: 0.5; stroke-linecap: square"/>
     </g>
     <g id="line2d_14">
      <g>
       <use xlink:href="#mc594284c98" x="38.482813" y="139.004857" style="stroke: #000000; stroke-width: 0.8"/>
      </g>
     </g>
     <g id="text_7">
      <!-- 0.0 -->
      <g transform="translate(15.579688 142.804075) scale(0.1 -0.1)">
       <use xlink:href="#DejaVuSans-30"/>
       <use xlink:href="#DejaVuSans-2e" x="63.623047"/>
       <use xlink:href="#DejaVuSans-30" x="95.410156"/>
      </g>
     </g>
    </g>
    <g id="ytick_3">
     <g id="line2d_15">
      <path d="M 38.482813 114.155885 
L 261.682813 114.155885 
" clip-path="url(#pa54bd4a401)" style="fill: none; stroke: #4d4d4d; stroke-width: 0.5; stroke-linecap: square"/>
     </g>
     <g id="line2d_16">
      <g>
       <use xlink:href="#mc594284c98" x="38.482813" y="114.155885" style="stroke: #000000; stroke-width: 0.8"/>
      </g>
     </g>
     <g id="text_8">
      <!-- 0.2 -->
      <g transform="translate(15.579688 117.955104) scale(0.1 -0.1)">
       <use xlink:href="#DejaVuSans-30"/>
       <use xlink:href="#DejaVuSans-2e" x="63.623047"/>
       <use xlink:href="#DejaVuSans-32" x="95.410156"/>
      </g>
     </g>
    </g>
    <g id="ytick_4">
     <g id="line2d_17">
      <path d="M 38.482813 89.306914 
L 261.682813 89.306914 
" clip-path="url(#pa54bd4a401)" style="fill: none; stroke: #4d4d4d; stroke-width: 0.5; stroke-linecap: square"/>
     </g>
     <g id="line2d_18">
      <g>
       <use xlink:href="#mc594284c98" x="38.482813" y="89.306914" style="stroke: #000000; stroke-width: 0.8"/>
      </g>
     </g>
     <g id="text_9">
      <!-- 0.4 -->
      <g transform="translate(15.579688 93.106133) scale(0.1 -0.1)">
       <use xlink:href="#DejaVuSans-30"/>
       <use xlink:href="#DejaVuSans-2e" x="63.623047"/>
       <use xlink:href="#DejaVuSans-34" x="95.410156"/>
      </g>
     </g>
    </g>
    <g id="ytick_5">
     <g id="line2d_19">
      <path d="M 38.482813 64.457943 
L 261.682813 64.457943 
" clip-path="url(#pa54bd4a401)" style="fill: none; stroke: #4d4d4d; stroke-width: 0.5; stroke-linecap: square"/>
     </g>
     <g id="line2d_20">
      <g>
       <use xlink:href="#mc594284c98" x="38.482813" y="64.457943" style="stroke: #000000; stroke-width: 0.8"/>
      </g>
     </g>
     <g id="text_10">
      <!-- 0.6 -->
      <g transform="translate(15.579688 68.257161) scale(0.1 -0.1)">
       <defs>
        <path id="DejaVuSans-36" d="M 2113 2584 
Q 1688 2584 1439 2293 
Q 1191 2003 1191 1497 
Q 1191 994 1439 701 
Q 1688 409 2113 409 
Q 2538 409 2786 701 
Q 3034 994 3034 1497 
Q 3034 2003 2786 2293 
Q 2538 2584 2113 2584 
z
M 3366 4563 
L 3366 3988 
Q 3128 4100 2886 4159 
Q 2644 4219 2406 4219 
Q 1781 4219 1451 3797 
Q 1122 3375 1075 2522 
Q 1259 2794 1537 2939 
Q 1816 3084 2150 3084 
Q 2853 3084 3261 2657 
Q 3669 2231 3669 1497 
Q 3669 778 3244 343 
Q 2819 -91 2113 -91 
Q 1303 -91 875 529 
Q 447 1150 447 2328 
Q 447 3434 972 4092 
Q 1497 4750 2381 4750 
Q 2619 4750 2861 4703 
Q 3103 4656 3366 4563 
z
" transform="scale(0.015625)"/>
       </defs>
       <use xlink:href="#DejaVuSans-30"/>
       <use xlink:href="#DejaVuSans-2e" x="63.623047"/>
       <use xlink:href="#DejaVuSans-36" x="95.410156"/>
      </g>
     </g>
    </g>
    <g id="ytick_6">
     <g id="line2d_21">
      <path d="M 38.482813 39.608971 
L 261.682813 39.608971 
" clip-path="url(#pa54bd4a401)" style="fill: none; stroke: #4d4d4d; stroke-width: 0.5; stroke-linecap: square"/>
     </g>
     <g id="line2d_22">
      <g>
       <use xlink:href="#mc594284c98" x="38.482813" y="39.608971" style="stroke: #000000; stroke-width: 0.8"/>
      </g>
     </g>
     <g id="text_11">
      <!-- 0.8 -->
      <g transform="translate(15.579688 43.40819) scale(0.1 -0.1)">
       <defs>
        <path id="DejaVuSans-38" d="M 2034 2216 
Q 1584 2216 1326 1975 
Q 1069 1734 1069 1313 
Q 1069 891 1326 650 
Q 1584 409 2034 409 
Q 2484 409 2743 651 
Q 3003 894 3003 1313 
Q 3003 1734 2745 1975 
Q 2488 2216 2034 2216 
z
M 1403 2484 
Q 997 2584 770 2862 
Q 544 3141 544 3541 
Q 544 4100 942 4425 
Q 1341 4750 2034 4750 
Q 2731 4750 3128 4425 
Q 3525 4100 3525 3541 
Q 3525 3141 3298 2862 
Q 3072 2584 2669 2484 
Q 3125 2378 3379 2068 
Q 3634 1759 3634 1313 
Q 3634 634 3220 271 
Q 2806 -91 2034 -91 
Q 1263 -91 848 271 
Q 434 634 434 1313 
Q 434 1759 690 2068 
Q 947 2378 1403 2484 
z
M 1172 3481 
Q 1172 3119 1398 2916 
Q 1625 2713 2034 2713 
Q 2441 2713 2670 2916 
Q 2900 3119 2900 3481 
Q 2900 3844 2670 4047 
Q 2441 4250 2034 4250 
Q 1625 4250 1398 4047 
Q 1172 3844 1172 3481 
z
" transform="scale(0.015625)"/>
       </defs>
       <use xlink:href="#DejaVuSans-30"/>
       <use xlink:href="#DejaVuSans-2e" x="63.623047"/>
       <use xlink:href="#DejaVuSans-38" x="95.410156"/>
      </g>
     </g>
    </g>
    <g id="ytick_7">
     <g id="line2d_23">
      <path d="M 38.482813 14.76 
L 261.682813 14.76 
" clip-path="url(#pa54bd4a401)" style="fill: none; stroke: #4d4d4d; stroke-width: 0.5; stroke-linecap: square"/>
     </g>
     <g id="line2d_24">
      <g>
       <use xlink:href="#mc594284c98" x="38.482813" y="14.76" style="stroke: #000000; stroke-width: 0.8"/>
      </g>
     </g>
     <g id="text_12">
      <!-- 1.0 -->
      <g transform="translate(15.579688 18.559219) scale(0.1 -0.1)">
       <use xlink:href="#DejaVuSans-31"/>
       <use xlink:href="#DejaVuSans-2e" x="63.623047"/>
       <use xlink:href="#DejaVuSans-30" x="95.410156"/>
      </g>
     </g>
    </g>
   </g>
   <g id="line2d_25">
    <path d="M 48.628267 14.76 
L 50.677854 15.093375 
L 52.727441 16.090272 
L 54.777027 17.741068 
L 56.826614 20.029854 
L 58.876201 22.934609 
L 60.925788 26.427459 
L 62.975374 30.474993 
L 65.024961 35.038645 
L 67.074548 40.075135 
L 69.124135 45.536963 
L 71.173722 51.372944 
L 73.223308 57.52879 
L 75.272895 63.94772 
L 77.322482 70.571093 
L 79.372069 77.339067 
L 81.421655 84.191256 
L 83.471242 91.067396 
L 85.520829 97.908001 
L 87.570416 104.655004 
L 89.620003 111.252373 
L 91.669589 117.646705 
L 93.719176 123.787774 
L 95.768763 129.62904 
L 97.81835 135.128109 
L 99.867936 140.247135 
L 101.917523 144.953171 
L 103.96711 149.218446 
L 106.016697 153.020587 
L 108.066284 156.342769 
L 110.11587 159.173799 
L 112.165457 161.508124 
L 114.215044 163.345783 
L 116.264631 164.692283 
L 118.314217 165.558413 
L 120.363804 165.96 
L 122.413391 165.917606 
L 124.462978 165.456172 
L 126.512565 164.604612 
L 128.562151 163.395374 
L 130.611738 161.863957 
L 132.661325 160.048402 
L 134.710912 157.988766 
L 136.760498 155.726572 
L 138.810085 153.304262 
L 140.859672 150.76464 
L 142.909259 148.15033 
L 144.958846 145.503245 
L 147.008432 142.864071 
L 149.058019 140.27179 
L 151.107606 137.763223 
L 153.157193 135.372617 
L 155.206779 133.131278 
L 157.256366 131.067242 
L 159.305953 129.205007 
L 161.35554 127.565305 
L 163.405127 126.164944 
L 165.454713 125.016692 
L 167.5043 124.12923 
L 169.553887 123.507149 
L 171.603474 123.151011 
L 173.65306 123.057463 
L 175.702647 123.219393 
L 177.752234 123.626145 
L 179.801821 124.263769 
L 181.851408 125.115314 
L 183.900994 126.161157 
L 185.950581 127.379356 
L 188.000168 128.746033 
L 190.049755 130.235772 
L 192.099341 131.82203 
L 194.148928 133.477551 
L 196.198515 135.174786 
L 198.248102 136.886305 
L 200.297689 138.585194 
L 202.347275 140.245442 
L 204.396862 141.842301 
L 206.446449 143.35262 
L 208.496036 144.755152 
L 210.545622 146.030824 
L 212.595209 147.162968 
L 214.644796 148.13751 
L 216.694383 148.943127 
L 218.74397 149.571348 
L 220.793556 150.016617 
L 222.843143 150.27631 
L 224.89273 150.350711 
L 226.942317 150.24294 
L 228.991903 149.958849 
L 231.04149 149.506868 
L 233.091077 148.897828 
L 235.140664 148.14474 
L 237.190251 147.262559 
L 239.239837 146.267908 
L 241.289424 145.178798 
L 243.339011 144.014322 
L 245.388598 142.794341 
L 247.438184 141.539168 
L 249.487771 140.26925 
L 251.537358 139.004847 
" clip-path="url(#pa54bd4a401)" style="fill: none; stroke: #4573a7; stroke-width: 2; stroke-linecap: square"/>
   </g>
   <g id="line2d_26">
    <path d="M 48.628267 76.882428 
L 50.677854 77.049116 
L 52.727441 77.547564 
L 54.777027 78.372962 
L 56.826614 79.517355 
L 58.876201 80.969733 
L 60.925788 82.716158 
L 62.975374 84.739925 
L 65.024961 87.021751 
L 67.074548 89.539996 
L 69.124135 92.27091 
L 71.173722 95.1889 
L 73.223308 98.266824 
L 75.272895 101.476288 
L 77.322482 104.787975 
L 79.372069 108.171962 
L 81.421655 111.598056 
L 83.471242 115.036127 
L 85.520829 118.456429 
L 87.570416 121.82993 
L 89.620003 125.128615 
L 91.669589 128.325781 
L 93.719176 131.396315 
L 95.768763 134.316948 
L 97.81835 137.066483 
L 99.867936 139.625996 
L 101.917523 141.979014 
L 103.96711 144.111651 
L 106.016697 146.012722 
L 108.066284 147.673813 
L 110.11587 149.089328 
L 112.165457 150.25649 
L 114.215044 151.17532 
L 116.264631 151.84857 
L 118.314217 152.281635 
L 120.363804 152.482428 
L 122.413391 152.461232 
L 124.462978 152.230514 
L 126.512565 151.804734 
L 128.562151 151.200115 
L 130.611738 150.434407 
L 132.661325 149.526629 
L 134.710912 148.496811 
L 136.760498 147.365714 
L 138.810085 146.154559 
L 140.859672 144.884748 
L 142.909259 143.577593 
L 144.958846 142.254051 
L 147.008432 140.934464 
L 149.058019 139.638323 
L 151.107606 138.38404 
L 153.157193 137.188737 
L 155.206779 136.068067 
L 157.256366 135.036049 
L 159.305953 134.104932 
L 161.35554 133.285081 
L 163.405127 132.5849 
L 165.454713 132.010774 
L 167.5043 131.567043 
L 169.553887 131.256003 
L 171.603474 131.077934 
L 173.65306 131.03116 
L 175.702647 131.112125 
L 177.752234 131.315501 
L 179.801821 131.634313 
L 181.851408 132.060086 
L 183.900994 132.583007 
L 185.950581 133.192106 
L 188.000168 133.875445 
L 190.049755 134.620314 
L 192.099341 135.413443 
L 194.148928 136.241204 
L 196.198515 137.089821 
L 198.248102 137.945581 
L 200.297689 138.795025 
L 202.347275 139.625149 
L 204.396862 140.423579 
L 206.446449 141.178738 
L 208.496036 141.880004 
L 210.545622 142.517841 
L 212.595209 143.083912 
L 214.644796 143.571183 
L 216.694383 143.973992 
L 218.74397 144.288103 
L 220.793556 144.510737 
L 222.843143 144.640583 
L 224.89273 144.677784 
L 226.942317 144.623898 
L 228.991903 144.481853 
L 231.04149 144.255862 
L 233.091077 143.951342 
L 235.140664 143.574798 
L 237.190251 143.133708 
L 239.239837 142.636382 
L 241.289424 142.091828 
L 243.339011 141.509589 
L 245.388598 140.899599 
L 247.438184 140.272012 
L 249.487771 139.637053 
L 251.537358 139.004852 
" clip-path="url(#pa54bd4a401)" style="fill: none; stroke: #aa4644; stroke-width: 2; stroke-linecap: square"/>
   </g>
   <g id="line2d_27">
    <path d="M 48.628267 97.589904 
L 50.677854 97.70103 
L 52.727441 98.033328 
L 54.777027 98.583594 
L 56.826614 99.346522 
L 58.876201 100.314774 
L 60.925788 101.479058 
L 62.975374 102.828235 
L 65.024961 104.349453 
L 67.074548 106.028283 
L 69.124135 107.848892 
L 71.173722 109.794219 
L 73.223308 111.846168 
L 75.272895 113.985811 
L 77.322482 116.193602 
L 79.372069 118.449593 
L 81.421655 120.733656 
L 83.471242 123.025703 
L 85.520829 125.305905 
L 87.570416 127.554906 
L 89.620003 129.754029 
L 91.669589 131.885473 
L 93.719176 133.932496 
L 95.768763 135.879584 
L 97.81835 137.712607 
L 99.867936 139.41895 
L 101.917523 140.987628 
L 103.96711 142.409386 
L 106.016697 143.676767 
L 108.066284 144.784161 
L 110.11587 145.727837 
L 112.165457 146.505946 
L 114.215044 147.118499 
L 116.264631 147.567332 
L 118.314217 147.856042 
L 120.363804 147.989904 
L 122.413391 147.975773 
L 124.462978 147.821962 
L 126.512565 147.538108 
L 128.562151 147.135029 
L 130.611738 146.624557 
L 132.661325 146.019372 
L 134.710912 145.332826 
L 136.760498 144.578762 
L 138.810085 143.771325 
L 140.859672 142.924784 
L 142.909259 142.053348 
L 144.958846 141.170986 
L 147.008432 140.291261 
L 149.058019 139.427168 
L 151.107606 138.590979 
L 153.157193 137.79411 
L 155.206779 137.046997 
L 157.256366 136.358985 
L 159.305953 135.73824 
L 161.35554 135.191673 
L 163.405127 134.724886 
L 165.454713 134.342135 
L 167.5043 134.046314 
L 169.553887 133.838954 
L 171.603474 133.720242 
L 173.65306 133.689059 
L 175.702647 133.743036 
L 177.752234 133.87862 
L 179.801821 134.091161 
L 181.851408 134.375009 
L 183.900994 134.723623 
L 185.950581 135.12969 
L 188.000168 135.585249 
L 190.049755 136.081829 
L 192.099341 136.610581 
L 194.148928 137.162421 
L 196.198515 137.728166 
L 198.248102 138.298673 
L 200.297689 138.864969 
L 202.347275 139.418385 
L 204.396862 139.950671 
L 206.446449 140.454111 
L 208.496036 140.921622 
L 210.545622 141.346846 
L 212.595209 141.724227 
L 214.644796 142.049074 
L 216.694383 142.317614 
L 218.74397 142.527021 
L 220.793556 142.675443 
L 222.843143 142.762008 
L 224.89273 142.786808 
L 226.942317 142.750884 
L 228.991903 142.656187 
L 231.04149 142.505527 
L 233.091077 142.302514 
L 235.140664 142.051484 
L 237.190251 141.757424 
L 239.239837 141.425874 
L 241.289424 141.062837 
L 243.339011 140.674678 
L 245.388598 140.268018 
L 247.438184 139.849627 
L 249.487771 139.426321 
L 251.537358 139.004853 
" clip-path="url(#pa54bd4a401)" style="fill: none; stroke: #89a54e; stroke-width: 2; stroke-linecap: square"/>
   </g>
   <g id="line2d_28">
    <path d="M 48.628267 107.943642 
L 50.677854 108.026986 
L 52.727441 108.27621 
L 54.777027 108.68891 
L 56.826614 109.261106 
L 58.876201 109.987295 
L 60.925788 110.860507 
L 62.975374 111.872391 
L 65.024961 113.013304 
L 67.074548 114.272426 
L 69.124135 115.637883 
L 71.173722 117.096879 
L 73.223308 118.63584 
L 75.272895 120.240572 
L 77.322482 121.896416 
L 79.372069 123.588409 
L 81.421655 125.301456 
L 83.471242 127.020492 
L 85.520829 128.730643 
L 87.570416 130.417393 
L 89.620003 132.066736 
L 91.669589 133.665319 
L 93.719176 135.200586 
L 95.768763 136.660902 
L 97.81835 138.03567 
L 99.867936 139.315426 
L 101.917523 140.491935 
L 103.96711 141.558254 
L 106.016697 142.508789 
L 108.066284 143.339335 
L 110.11587 144.047092 
L 112.165457 144.630673 
L 114.215044 145.090088 
L 116.264631 145.426713 
L 118.314217 145.643246 
L 120.363804 145.743642 
L 122.413391 145.733044 
L 124.462978 145.617685 
L 126.512565 145.404795 
L 128.562151 145.102486 
L 130.611738 144.719632 
L 132.661325 144.265743 
L 134.710912 143.750834 
L 136.760498 143.185286 
L 138.810085 142.579708 
L 140.859672 141.944802 
L 142.909259 141.291225 
L 144.958846 140.629454 
L 147.008432 139.96966 
L 149.058019 139.32159 
L 151.107606 138.694448 
L 153.157193 138.096797 
L 155.206779 137.536462 
L 157.256366 137.020453 
L 159.305953 136.554894 
L 161.35554 136.144969 
L 163.405127 135.794878 
L 165.454713 135.507816 
L 167.5043 135.28595 
L 169.553887 135.13043 
L 171.603474 135.041395 
L 173.65306 135.018008 
L 175.702647 135.058491 
L 177.752234 135.160179 
L 179.801821 135.319585 
L 181.851408 135.532471 
L 183.900994 135.793932 
L 185.950581 136.098481 
L 188.000168 136.440151 
L 190.049755 136.812586 
L 192.099341 137.20915 
L 194.148928 137.62303 
L 196.198515 138.047339 
L 198.248102 138.475219 
L 200.297689 138.899941 
L 202.347275 139.315003 
L 204.396862 139.714218 
L 206.446449 140.091797 
L 208.496036 140.442431 
L 210.545622 140.761349 
L 212.595209 141.044384 
L 214.644796 141.28802 
L 216.694383 141.489424 
L 218.74397 141.64648 
L 220.793556 141.757797 
L 222.843143 141.82272 
L 224.89273 141.84132 
L 226.942317 141.814377 
L 228.991903 141.743355 
L 231.04149 141.630359 
L 233.091077 141.478099 
L 235.140664 141.289828 
L 237.190251 141.069282 
L 239.239837 140.82062 
L 241.289424 140.548342 
L 243.339011 140.257223 
L 245.388598 139.952228 
L 247.438184 139.638435 
L 249.487771 139.320955 
L 251.537358 139.004854 
" clip-path="url(#pa54bd4a401)" style="fill: none; stroke: #71588f; stroke-width: 2; stroke-linecap: square"/>
   </g>
   <g id="line2d_29">
    <path d="M 48.628267 114.155885 
L 50.677854 114.22256 
L 52.727441 114.42194 
L 54.777027 114.752099 
L 56.826614 115.209856 
L 58.876201 115.790807 
L 60.925788 116.489377 
L 62.975374 117.298884 
L 65.024961 118.211614 
L 67.074548 119.218912 
L 69.124135 120.311278 
L 71.173722 121.478474 
L 73.223308 122.709643 
L 75.272895 123.993429 
L 77.322482 125.318104 
L 79.372069 126.671699 
L 81.421655 128.042137 
L 83.471242 129.417365 
L 85.520829 130.785486 
L 87.570416 132.134886 
L 89.620003 133.45436 
L 91.669589 134.733226 
L 93.719176 135.96144 
L 95.768763 137.129693 
L 97.81835 138.229507 
L 99.867936 139.253312 
L 101.917523 140.194519 
L 103.96711 141.047574 
L 106.016697 141.808003 
L 108.066284 142.472439 
L 110.11587 143.038645 
L 112.165457 143.50551 
L 114.215044 143.873042 
L 116.264631 144.142342 
L 118.314217 144.315568 
L 120.363804 144.395885 
L 122.413391 144.387407 
L 124.462978 144.29512 
L 126.512565 144.124808 
L 128.562151 143.88296 
L 130.611738 143.576677 
L 132.661325 143.213566 
L 134.710912 142.801639 
L 136.760498 142.3492 
L 138.810085 141.864738 
L 140.859672 141.356813 
L 142.909259 140.833951 
L 144.958846 140.304534 
L 147.008432 139.7767 
L 149.058019 139.258243 
L 151.107606 138.75653 
L 153.157193 138.278409 
L 155.206779 137.830141 
L 157.256366 137.417334 
L 159.305953 137.044887 
L 161.35554 136.716946 
L 163.405127 136.436874 
L 165.454713 136.207224 
L 167.5043 136.029731 
L 169.553887 135.905315 
L 171.603474 135.834088 
L 173.65306 135.815378 
L 175.702647 135.847764 
L 177.752234 135.929114 
L 179.801821 136.056639 
L 181.851408 136.226948 
L 183.900994 136.436117 
L 185.950581 136.679756 
L 188.000168 136.953092 
L 190.049755 137.25104 
L 192.099341 137.568291 
L 194.148928 137.899395 
L 196.198515 138.238843 
L 198.248102 138.581146 
L 200.297689 138.920924 
L 202.347275 139.252974 
L 204.396862 139.572345 
L 206.446449 139.874409 
L 208.496036 140.154916 
L 210.545622 140.41005 
L 212.595209 140.636479 
L 214.644796 140.831387 
L 216.694383 140.992511 
L 218.74397 141.118155 
L 220.793556 141.207209 
L 222.843143 141.259147 
L 224.89273 141.274027 
L 226.942317 141.252473 
L 228.991903 141.195655 
L 231.04149 141.105259 
L 233.091077 140.983451 
L 235.140664 140.832833 
L 237.190251 140.656397 
L 239.239837 140.457467 
L 241.289424 140.239645 
L 243.339011 140.00675 
L 245.388598 139.762753 
L 247.438184 139.511719 
L 249.487771 139.257735 
L 251.537358 139.004855 
" clip-path="url(#pa54bd4a401)" style="fill: none; stroke: #4298af; stroke-width: 2; stroke-linecap: square"/>
   </g>
   <g id="patch_3">
    <path d="M 38.482813 173.52 
L 38.482813 7.2 
" style="fill: none; stroke: #4d4d4d; stroke-width: 0.5; stroke-linejoin: miter; stroke-linecap: square"/>
   </g>
   <g id="patch_4">
    <path d="M 38.482813 173.52 
L 261.682813 173.52 
" style="fill: none; stroke: #4d4d4d; stroke-width: 0.5; stroke-linejoin: miter; stroke-linecap: square"/>
   </g>
   <g id="legend_1">
    <g id="line2d_30">
     <path d="M 270.682813 60.263125 
L 280.682813 60.263125 
L 290.682813 60.263125 
" style="fill: none; stroke: #4573a7; stroke-width: 2; stroke-linecap: square"/>
    </g>
    <g id="text_13">
     <!-- 0 -->
     <g transform="translate(298.682813 63.763125) scale(0.1 -0.1)">
      <use xlink:href="#DejaVuSans-30"/>
     </g>
    </g>
    <g id="line2d_31">
     <path d="M 270.682813 74.94125 
L 280.682813 74.94125 
L 290.682813 74.94125 
" style="fill: none; stroke: #aa4644; stroke-width: 2; stroke-linecap: square"/>
    </g>
    <g id="text_14">
     <!-- 1 -->
     <g transform="translate(298.682813 78.44125) scale(0.1 -0.1)">
      <use xlink:href="#DejaVuSans-31"/>
     </g>
    </g>
    <g id="line2d_32">
     <path d="M 270.682813 89.619375 
L 280.682813 89.619375 
L 290.682813 89.619375 
" style="fill: none; stroke: #89a54e; stroke-width: 2; stroke-linecap: square"/>
    </g>
    <g id="text_15">
     <!-- 2 -->
     <g transform="translate(298.682813 93.119375) scale(0.1 -0.1)">
      <use xlink:href="#DejaVuSans-32"/>
     </g>
    </g>
    <g id="line2d_33">
     <path d="M 270.682813 104.2975 
L 280.682813 104.2975 
L 290.682813 104.2975 
" style="fill: none; stroke: #71588f; stroke-width: 2; stroke-linecap: square"/>
    </g>
    <g id="text_16">
     <!-- 3 -->
     <g transform="translate(298.682813 107.7975) scale(0.1 -0.1)">
      <use xlink:href="#DejaVuSans-33"/>
     </g>
    </g>
    <g id="line2d_34">
     <path d="M 270.682813 118.975625 
L 280.682813 118.975625 
L 290.682813 118.975625 
" style="fill: none; stroke: #4298af; stroke-width: 2; stroke-linecap: square"/>
    </g>
    <g id="text_17">
     <!-- 4 -->
     <g transform="translate(298.682813 122.475625) scale(0.1 -0.1)">
      <use xlink:href="#DejaVuSans-34"/>
     </g>
    </g>
   </g>
  </g>
 </g>
 <defs>
  <clipPath id="pa54bd4a401">
   <rect x="38.482813" y="7.2" width="223.2" height="166.32"/>
  </clipPath>
 </defs>
</svg>
