<?xml version="1.0" encoding="utf-8" standalone="no"?>
<!DOCTYPE svg PUBLIC "-//W3C//DTD SVG 1.1//EN"
  "http://www.w3.org/Graphics/SVG/1.1/DTD/svg11.dtd">
<!-- Created with matplotlib (https://matplotlib.org/) -->
<svg height="200.898125pt" version="1.1" viewBox="0 0 316.245313 200.898125" width="316.245313pt" xmlns="http://www.w3.org/2000/svg" xmlns:xlink="http://www.w3.org/1999/xlink">
 <defs>
  <style type="text/css">
*{stroke-linecap:butt;stroke-linejoin:round;}
  </style>
 </defs>
 <g id="figure_1">
  <g id="patch_1">
   <path d="M 0 200.898125 
L 316.245313 200.898125 
L 316.245313 0 
L 0 0 
z
" style="fill:#ffffff;"/>
  </g>
  <g id="axes_1">
   <g id="patch_2">
    <path d="M 38.482813 177.02 
L 261.682813 177.02 
L 261.682813 10.7 
L 38.482813 10.7 
z
" style="fill:#ffffff;"/>
   </g>
   <g id="matplotlib.axis_1">
    <g id="xtick_1">
     <g id="line2d_1">
      <path clip-path="url(#p12d1feb304)" d="M 48.628267 177.02 
L 48.628267 10.7 
" style="fill:none;stroke:#4d4d4d;stroke-linecap:square;stroke-width:0.5;"/>
     </g>
     <g id="line2d_2">
      <defs>
       <path d="M 0 0 
L 0 3.5 
" id="md4346f2fd5" style="stroke:#000000;stroke-width:0.8;"/>
      </defs>
      <g>
       <use style="stroke:#000000;stroke-width:0.8;" x="48.628267" xlink:href="#md4346f2fd5" y="177.02"/>
      </g>
     </g>
     <g id="text_1">
      <!-- 0 -->
      <defs>
       <path d="M 31.78125 66.40625 
Q 24.171875 66.40625 20.328125 58.90625 
Q 16.5 51.421875 16.5 36.375 
Q 16.5 21.390625 20.328125 13.890625 
Q 24.171875 6.390625 31.78125 6.390625 
Q 39.453125 6.390625 43.28125 13.890625 
Q 47.125 21.390625 47.125 36.375 
Q 47.125 51.421875 43.28125 58.90625 
Q 39.453125 66.40625 31.78125 66.40625 
z
M 31.78125 74.21875 
Q 44.046875 74.21875 50.515625 64.515625 
Q 56.984375 54.828125 56.984375 36.375 
Q 56.984375 17.96875 50.515625 8.265625 
Q 44.046875 -1.421875 31.78125 -1.421875 
Q 19.53125 -1.421875 13.0625 8.265625 
Q 6.59375 17.96875 6.59375 36.375 
Q 6.59375 54.828125 13.0625 64.515625 
Q 19.53125 74.21875 31.78125 74.21875 
z
" id="DejaVuSans-48"/>
      </defs>
      <g transform="translate(45.447017 191.618437)scale(0.1 -0.1)">
       <use xlink:href="#DejaVuSans-48"/>
      </g>
     </g>
    </g>
    <g id="xtick_2">
     <g id="line2d_3">
      <path clip-path="url(#p12d1feb304)" d="M 99.35554 177.02 
L 99.35554 10.7 
" style="fill:none;stroke:#4d4d4d;stroke-linecap:square;stroke-width:0.5;"/>
     </g>
     <g id="line2d_4">
      <g>
       <use style="stroke:#000000;stroke-width:0.8;" x="99.35554" xlink:href="#md4346f2fd5" y="177.02"/>
      </g>
     </g>
     <g id="text_2">
      <!-- 1 -->
      <defs>
       <path d="M 12.40625 8.296875 
L 28.515625 8.296875 
L 28.515625 63.921875 
L 10.984375 60.40625 
L 10.984375 69.390625 
L 28.421875 72.90625 
L 38.28125 72.90625 
L 38.28125 8.296875 
L 54.390625 8.296875 
L 54.390625 0 
L 12.40625 0 
z
" id="DejaVuSans-49"/>
      </defs>
      <g transform="translate(96.17429 191.618437)scale(0.1 -0.1)">
       <use xlink:href="#DejaVuSans-49"/>
      </g>
     </g>
    </g>
    <g id="xtick_3">
     <g id="line2d_5">
      <path clip-path="url(#p12d1feb304)" d="M 150.082813 177.02 
L 150.082813 10.7 
" style="fill:none;stroke:#4d4d4d;stroke-linecap:square;stroke-width:0.5;"/>
     </g>
     <g id="line2d_6">
      <g>
       <use style="stroke:#000000;stroke-width:0.8;" x="150.082813" xlink:href="#md4346f2fd5" y="177.02"/>
      </g>
     </g>
     <g id="text_3">
      <!-- 2 -->
      <defs>
       <path d="M 19.1875 8.296875 
L 53.609375 8.296875 
L 53.609375 0 
L 7.328125 0 
L 7.328125 8.296875 
Q 12.9375 14.109375 22.625 23.890625 
Q 32.328125 33.6875 34.8125 36.53125 
Q 39.546875 41.84375 41.421875 45.53125 
Q 43.3125 49.21875 43.3125 52.78125 
Q 43.3125 58.59375 39.234375 62.25 
Q 35.15625 65.921875 28.609375 65.921875 
Q 23.96875 65.921875 18.8125 64.3125 
Q 13.671875 62.703125 7.8125 59.421875 
L 7.8125 69.390625 
Q 13.765625 71.78125 18.9375 73 
Q 24.125 74.21875 28.421875 74.21875 
Q 39.75 74.21875 46.484375 68.546875 
Q 53.21875 62.890625 53.21875 53.421875 
Q 53.21875 48.921875 51.53125 44.890625 
Q 49.859375 40.875 45.40625 35.40625 
Q 44.1875 33.984375 37.640625 27.21875 
Q 31.109375 20.453125 19.1875 8.296875 
z
" id="DejaVuSans-50"/>
      </defs>
      <g transform="translate(146.901563 191.618437)scale(0.1 -0.1)">
       <use xlink:href="#DejaVuSans-50"/>
      </g>
     </g>
    </g>
    <g id="xtick_4">
     <g id="line2d_7">
      <path clip-path="url(#p12d1feb304)" d="M 200.810085 177.02 
L 200.810085 10.7 
" style="fill:none;stroke:#4d4d4d;stroke-linecap:square;stroke-width:0.5;"/>
     </g>
     <g id="line2d_8">
      <g>
       <use style="stroke:#000000;stroke-width:0.8;" x="200.810085" xlink:href="#md4346f2fd5" y="177.02"/>
      </g>
     </g>
     <g id="text_4">
      <!-- 3 -->
      <defs>
       <path d="M 40.578125 39.3125 
Q 47.65625 37.796875 51.625 33 
Q 55.609375 28.21875 55.609375 21.1875 
Q 55.609375 10.40625 48.1875 4.484375 
Q 40.765625 -1.421875 27.09375 -1.421875 
Q 22.515625 -1.421875 17.65625 -0.515625 
Q 12.796875 0.390625 7.625 2.203125 
L 7.625 11.71875 
Q 11.71875 9.328125 16.59375 8.109375 
Q 21.484375 6.890625 26.8125 6.890625 
Q 36.078125 6.890625 40.9375 10.546875 
Q 45.796875 14.203125 45.796875 21.1875 
Q 45.796875 27.640625 41.28125 31.265625 
Q 36.765625 34.90625 28.71875 34.90625 
L 20.21875 34.90625 
L 20.21875 43.015625 
L 29.109375 43.015625 
Q 36.375 43.015625 40.234375 45.921875 
Q 44.09375 48.828125 44.09375 54.296875 
Q 44.09375 59.90625 40.109375 62.90625 
Q 36.140625 65.921875 28.71875 65.921875 
Q 24.65625 65.921875 20.015625 65.03125 
Q 15.375 64.15625 9.8125 62.3125 
L 9.8125 71.09375 
Q 15.4375 72.65625 20.34375 73.4375 
Q 25.25 74.21875 29.59375 74.21875 
Q 40.828125 74.21875 47.359375 69.109375 
Q 53.90625 64.015625 53.90625 55.328125 
Q 53.90625 49.265625 50.4375 45.09375 
Q 46.96875 40.921875 40.578125 39.3125 
z
" id="DejaVuSans-51"/>
      </defs>
      <g transform="translate(197.628835 191.618437)scale(0.1 -0.1)">
       <use xlink:href="#DejaVuSans-51"/>
      </g>
     </g>
    </g>
    <g id="xtick_5">
     <g id="line2d_9">
      <path clip-path="url(#p12d1feb304)" d="M 251.537358 177.02 
L 251.537358 10.7 
" style="fill:none;stroke:#4d4d4d;stroke-linecap:square;stroke-width:0.5;"/>
     </g>
     <g id="line2d_10">
      <g>
       <use style="stroke:#000000;stroke-width:0.8;" x="251.537358" xlink:href="#md4346f2fd5" y="177.02"/>
      </g>
     </g>
     <g id="text_5">
      <!-- 4 -->
      <defs>
       <path d="M 37.796875 64.3125 
L 12.890625 25.390625 
L 37.796875 25.390625 
z
M 35.203125 72.90625 
L 47.609375 72.90625 
L 47.609375 25.390625 
L 58.015625 25.390625 
L 58.015625 17.1875 
L 47.609375 17.1875 
L 47.609375 0 
L 37.796875 0 
L 37.796875 17.1875 
L 4.890625 17.1875 
L 4.890625 26.703125 
z
" id="DejaVuSans-52"/>
      </defs>
      <g transform="translate(248.356108 191.618437)scale(0.1 -0.1)">
       <use xlink:href="#DejaVuSans-52"/>
      </g>
     </g>
    </g>
   </g>
   <g id="matplotlib.axis_2">
    <g id="ytick_1">
     <g id="line2d_11">
      <path clip-path="url(#p12d1feb304)" d="M 38.482813 167.353828 
L 261.682813 167.353828 
" style="fill:none;stroke:#4d4d4d;stroke-linecap:square;stroke-width:0.5;"/>
     </g>
     <g id="line2d_12">
      <defs>
       <path d="M 0 0 
L -3.5 0 
" id="mf61fd279b6" style="stroke:#000000;stroke-width:0.8;"/>
      </defs>
      <g>
       <use style="stroke:#000000;stroke-width:0.8;" x="38.482813" xlink:href="#mf61fd279b6" y="167.353828"/>
      </g>
     </g>
     <g id="text_6">
      <!-- −0.2 -->
      <defs>
       <path d="M 10.59375 35.5 
L 73.1875 35.5 
L 73.1875 27.203125 
L 10.59375 27.203125 
z
" id="DejaVuSans-8722"/>
       <path d="M 10.6875 12.40625 
L 21 12.40625 
L 21 0 
L 10.6875 0 
z
" id="DejaVuSans-46"/>
      </defs>
      <g transform="translate(7.2 171.153047)scale(0.1 -0.1)">
       <use xlink:href="#DejaVuSans-8722"/>
       <use x="83.789062" xlink:href="#DejaVuSans-48"/>
       <use x="147.412109" xlink:href="#DejaVuSans-46"/>
       <use x="179.199219" xlink:href="#DejaVuSans-50"/>
      </g>
     </g>
    </g>
    <g id="ytick_2">
     <g id="line2d_13">
      <path clip-path="url(#p12d1feb304)" d="M 38.482813 142.504857 
L 261.682813 142.504857 
" style="fill:none;stroke:#4d4d4d;stroke-linecap:square;stroke-width:0.5;"/>
     </g>
     <g id="line2d_14">
      <g>
       <use style="stroke:#000000;stroke-width:0.8;" x="38.482813" xlink:href="#mf61fd279b6" y="142.504857"/>
      </g>
     </g>
     <g id="text_7">
      <!-- 0.0 -->
      <g transform="translate(15.579688 146.304075)scale(0.1 -0.1)">
       <use xlink:href="#DejaVuSans-48"/>
       <use x="63.623047" xlink:href="#DejaVuSans-46"/>
       <use x="95.410156" xlink:href="#DejaVuSans-48"/>
      </g>
     </g>
    </g>
    <g id="ytick_3">
     <g id="line2d_15">
      <path clip-path="url(#p12d1feb304)" d="M 38.482813 117.655885 
L 261.682813 117.655885 
" style="fill:none;stroke:#4d4d4d;stroke-linecap:square;stroke-width:0.5;"/>
     </g>
     <g id="line2d_16">
      <g>
       <use style="stroke:#000000;stroke-width:0.8;" x="38.482813" xlink:href="#mf61fd279b6" y="117.655885"/>
      </g>
     </g>
     <g id="text_8">
      <!-- 0.2 -->
      <g transform="translate(15.579688 121.455104)scale(0.1 -0.1)">
       <use xlink:href="#DejaVuSans-48"/>
       <use x="63.623047" xlink:href="#DejaVuSans-46"/>
       <use x="95.410156" xlink:href="#DejaVuSans-50"/>
      </g>
     </g>
    </g>
    <g id="ytick_4">
     <g id="line2d_17">
      <path clip-path="url(#p12d1feb304)" d="M 38.482813 92.806914 
L 261.682813 92.806914 
" style="fill:none;stroke:#4d4d4d;stroke-linecap:square;stroke-width:0.5;"/>
     </g>
     <g id="line2d_18">
      <g>
       <use style="stroke:#000000;stroke-width:0.8;" x="38.482813" xlink:href="#mf61fd279b6" y="92.806914"/>
      </g>
     </g>
     <g id="text_9">
      <!-- 0.4 -->
      <g transform="translate(15.579688 96.606133)scale(0.1 -0.1)">
       <use xlink:href="#DejaVuSans-48"/>
       <use x="63.623047" xlink:href="#DejaVuSans-46"/>
       <use x="95.410156" xlink:href="#DejaVuSans-52"/>
      </g>
     </g>
    </g>
    <g id="ytick_5">
     <g id="line2d_19">
      <path clip-path="url(#p12d1feb304)" d="M 38.482813 67.957943 
L 261.682813 67.957943 
" style="fill:none;stroke:#4d4d4d;stroke-linecap:square;stroke-width:0.5;"/>
     </g>
     <g id="line2d_20">
      <g>
       <use style="stroke:#000000;stroke-width:0.8;" x="38.482813" xlink:href="#mf61fd279b6" y="67.957943"/>
      </g>
     </g>
     <g id="text_10">
      <!-- 0.6 -->
      <defs>
       <path d="M 33.015625 40.375 
Q 26.375 40.375 22.484375 35.828125 
Q 18.609375 31.296875 18.609375 23.390625 
Q 18.609375 15.53125 22.484375 10.953125 
Q 26.375 6.390625 33.015625 6.390625 
Q 39.65625 6.390625 43.53125 10.953125 
Q 47.40625 15.53125 47.40625 23.390625 
Q 47.40625 31.296875 43.53125 35.828125 
Q 39.65625 40.375 33.015625 40.375 
z
M 52.59375 71.296875 
L 52.59375 62.3125 
Q 48.875 64.0625 45.09375 64.984375 
Q 41.3125 65.921875 37.59375 65.921875 
Q 27.828125 65.921875 22.671875 59.328125 
Q 17.53125 52.734375 16.796875 39.40625 
Q 19.671875 43.65625 24.015625 45.921875 
Q 28.375 48.1875 33.59375 48.1875 
Q 44.578125 48.1875 50.953125 41.515625 
Q 57.328125 34.859375 57.328125 23.390625 
Q 57.328125 12.15625 50.6875 5.359375 
Q 44.046875 -1.421875 33.015625 -1.421875 
Q 20.359375 -1.421875 13.671875 8.265625 
Q 6.984375 17.96875 6.984375 36.375 
Q 6.984375 53.65625 15.1875 63.9375 
Q 23.390625 74.21875 37.203125 74.21875 
Q 40.921875 74.21875 44.703125 73.484375 
Q 48.484375 72.75 52.59375 71.296875 
z
" id="DejaVuSans-54"/>
      </defs>
      <g transform="translate(15.579688 71.757161)scale(0.1 -0.1)">
       <use xlink:href="#DejaVuSans-48"/>
       <use x="63.623047" xlink:href="#DejaVuSans-46"/>
       <use x="95.410156" xlink:href="#DejaVuSans-54"/>
      </g>
     </g>
    </g>
    <g id="ytick_6">
     <g id="line2d_21">
      <path clip-path="url(#p12d1feb304)" d="M 38.482813 43.108971 
L 261.682813 43.108971 
" style="fill:none;stroke:#4d4d4d;stroke-linecap:square;stroke-width:0.5;"/>
     </g>
     <g id="line2d_22">
      <g>
       <use style="stroke:#000000;stroke-width:0.8;" x="38.482813" xlink:href="#mf61fd279b6" y="43.108971"/>
      </g>
     </g>
     <g id="text_11">
      <!-- 0.8 -->
      <defs>
       <path d="M 31.78125 34.625 
Q 24.75 34.625 20.71875 30.859375 
Q 16.703125 27.09375 16.703125 20.515625 
Q 16.703125 13.921875 20.71875 10.15625 
Q 24.75 6.390625 31.78125 6.390625 
Q 38.8125 6.390625 42.859375 10.171875 
Q 46.921875 13.96875 46.921875 20.515625 
Q 46.921875 27.09375 42.890625 30.859375 
Q 38.875 34.625 31.78125 34.625 
z
M 21.921875 38.8125 
Q 15.578125 40.375 12.03125 44.71875 
Q 8.5 49.078125 8.5 55.328125 
Q 8.5 64.0625 14.71875 69.140625 
Q 20.953125 74.21875 31.78125 74.21875 
Q 42.671875 74.21875 48.875 69.140625 
Q 55.078125 64.0625 55.078125 55.328125 
Q 55.078125 49.078125 51.53125 44.71875 
Q 48 40.375 41.703125 38.8125 
Q 48.828125 37.15625 52.796875 32.3125 
Q 56.78125 27.484375 56.78125 20.515625 
Q 56.78125 9.90625 50.3125 4.234375 
Q 43.84375 -1.421875 31.78125 -1.421875 
Q 19.734375 -1.421875 13.25 4.234375 
Q 6.78125 9.90625 6.78125 20.515625 
Q 6.78125 27.484375 10.78125 32.3125 
Q 14.796875 37.15625 21.921875 38.8125 
z
M 18.3125 54.390625 
Q 18.3125 48.734375 21.84375 45.5625 
Q 25.390625 42.390625 31.78125 42.390625 
Q 38.140625 42.390625 41.71875 45.5625 
Q 45.3125 48.734375 45.3125 54.390625 
Q 45.3125 60.0625 41.71875 63.234375 
Q 38.140625 66.40625 31.78125 66.40625 
Q 25.390625 66.40625 21.84375 63.234375 
Q 18.3125 60.0625 18.3125 54.390625 
z
" id="DejaVuSans-56"/>
      </defs>
      <g transform="translate(15.579688 46.90819)scale(0.1 -0.1)">
       <use xlink:href="#DejaVuSans-48"/>
       <use x="63.623047" xlink:href="#DejaVuSans-46"/>
       <use x="95.410156" xlink:href="#DejaVuSans-56"/>
      </g>
     </g>
    </g>
    <g id="ytick_7">
     <g id="line2d_23">
      <path clip-path="url(#p12d1feb304)" d="M 38.482813 18.26 
L 261.682813 18.26 
" style="fill:none;stroke:#4d4d4d;stroke-linecap:square;stroke-width:0.5;"/>
     </g>
     <g id="line2d_24">
      <g>
       <use style="stroke:#000000;stroke-width:0.8;" x="38.482813" xlink:href="#mf61fd279b6" y="18.26"/>
      </g>
     </g>
     <g id="text_12">
      <!-- 1.0 -->
      <g transform="translate(15.579688 22.059219)scale(0.1 -0.1)">
       <use xlink:href="#DejaVuSans-49"/>
       <use x="63.623047" xlink:href="#DejaVuSans-46"/>
       <use x="95.410156" xlink:href="#DejaVuSans-48"/>
      </g>
     </g>
    </g>
   </g>
   <g id="line2d_25">
    <path clip-path="url(#p12d1feb304)" d="M 48.628267 18.26 
L 50.677854 18.593375 
L 52.727441 19.590272 
L 54.777027 21.241068 
L 56.826614 23.529854 
L 58.876201 26.434609 
L 60.925788 29.927459 
L 62.975374 33.974993 
L 65.024961 38.538645 
L 67.074548 43.575135 
L 69.124135 49.036963 
L 71.173722 54.872944 
L 73.223308 61.02879 
L 75.272895 67.44772 
L 77.322482 74.071093 
L 79.372069 80.839067 
L 81.421655 87.691256 
L 83.471242 94.567396 
L 85.520829 101.408001 
L 87.570416 108.155004 
L 89.620003 114.752373 
L 91.669589 121.146705 
L 93.719176 127.287774 
L 95.768763 133.12904 
L 97.81835 138.628109 
L 99.867936 143.747135 
L 101.917523 148.453171 
L 103.96711 152.718446 
L 106.016697 156.520587 
L 108.066284 159.842769 
L 110.11587 162.673799 
L 112.165457 165.008124 
L 114.215044 166.845783 
L 116.264631 168.192283 
L 118.314217 169.058413 
L 120.363804 169.46 
L 122.413391 169.417606 
L 124.462978 168.956172 
L 126.512565 168.104612 
L 128.562151 166.895374 
L 130.611738 165.363957 
L 132.661325 163.548402 
L 134.710912 161.488766 
L 136.760498 159.226572 
L 138.810085 156.804262 
L 140.859672 154.26464 
L 142.909259 151.65033 
L 144.958846 149.003245 
L 147.008432 146.364071 
L 149.058019 143.77179 
L 151.107606 141.263223 
L 153.157193 138.872617 
L 155.206779 136.631278 
L 157.256366 134.567242 
L 159.305953 132.705007 
L 161.35554 131.065305 
L 163.405127 129.664944 
L 165.454713 128.516692 
L 167.5043 127.62923 
L 169.553887 127.007149 
L 171.603474 126.651011 
L 173.65306 126.557463 
L 175.702647 126.719393 
L 177.752234 127.126145 
L 179.801821 127.763769 
L 181.851408 128.615314 
L 183.900994 129.661157 
L 185.950581 130.879356 
L 188.000168 132.246033 
L 190.049755 133.735772 
L 192.099341 135.32203 
L 194.148928 136.977551 
L 196.198515 138.674786 
L 198.248102 140.386305 
L 200.297689 142.085194 
L 202.347275 143.745442 
L 204.396862 145.342301 
L 206.446449 146.85262 
L 208.496036 148.255152 
L 210.545622 149.530824 
L 212.595209 150.662968 
L 214.644796 151.63751 
L 216.694383 152.443127 
L 218.74397 153.071348 
L 220.793556 153.516617 
L 222.843143 153.77631 
L 224.89273 153.850711 
L 226.942317 153.74294 
L 228.991903 153.458849 
L 231.04149 153.006868 
L 233.091077 152.397828 
L 235.140664 151.64474 
L 237.190251 150.762559 
L 239.239837 149.767908 
L 241.289424 148.678798 
L 243.339011 147.514322 
L 245.388598 146.294341 
L 247.438184 145.039168 
L 249.487771 143.76925 
L 251.537358 142.504847 
" style="fill:none;stroke:#4573a7;stroke-linecap:square;stroke-width:2;"/>
   </g>
   <g id="line2d_26">
    <path clip-path="url(#p12d1feb304)" d="M 48.628267 80.382428 
L 50.677854 80.549116 
L 52.727441 81.047564 
L 54.777027 81.872962 
L 56.826614 83.017355 
L 58.876201 84.469733 
L 60.925788 86.216158 
L 62.975374 88.239925 
L 65.024961 90.521751 
L 67.074548 93.039996 
L 69.124135 95.77091 
L 71.173722 98.6889 
L 73.223308 101.766824 
L 75.272895 104.976288 
L 77.322482 108.287975 
L 79.372069 111.671962 
L 81.421655 115.098056 
L 83.471242 118.536127 
L 85.520829 121.956429 
L 87.570416 125.32993 
L 89.620003 128.628615 
L 91.669589 131.825781 
L 93.719176 134.896315 
L 95.768763 137.816948 
L 97.81835 140.566483 
L 99.867936 143.125996 
L 101.917523 145.479014 
L 103.96711 147.611651 
L 106.016697 149.512722 
L 108.066284 151.173813 
L 110.11587 152.589328 
L 112.165457 153.75649 
L 114.215044 154.67532 
L 116.264631 155.34857 
L 118.314217 155.781635 
L 120.363804 155.982428 
L 122.413391 155.961232 
L 124.462978 155.730514 
L 126.512565 155.304734 
L 128.562151 154.700115 
L 130.611738 153.934407 
L 132.661325 153.026629 
L 134.710912 151.996811 
L 136.760498 150.865714 
L 138.810085 149.654559 
L 140.859672 148.384748 
L 142.909259 147.077593 
L 144.958846 145.754051 
L 147.008432 144.434464 
L 149.058019 143.138323 
L 151.107606 141.88404 
L 153.157193 140.688737 
L 155.206779 139.568067 
L 157.256366 138.536049 
L 159.305953 137.604932 
L 161.35554 136.785081 
L 163.405127 136.0849 
L 165.454713 135.510774 
L 167.5043 135.067043 
L 169.553887 134.756003 
L 171.603474 134.577934 
L 173.65306 134.53116 
L 175.702647 134.612125 
L 177.752234 134.815501 
L 179.801821 135.134313 
L 181.851408 135.560086 
L 183.900994 136.083007 
L 185.950581 136.692106 
L 188.000168 137.375445 
L 190.049755 138.120314 
L 192.099341 138.913443 
L 194.148928 139.741204 
L 196.198515 140.589821 
L 198.248102 141.445581 
L 200.297689 142.295025 
L 202.347275 143.125149 
L 204.396862 143.923579 
L 206.446449 144.678738 
L 208.496036 145.380004 
L 210.545622 146.017841 
L 212.595209 146.583912 
L 214.644796 147.071183 
L 216.694383 147.473992 
L 218.74397 147.788103 
L 220.793556 148.010737 
L 222.843143 148.140583 
L 224.89273 148.177784 
L 226.942317 148.123898 
L 228.991903 147.981853 
L 231.04149 147.755862 
L 233.091077 147.451342 
L 235.140664 147.074798 
L 237.190251 146.633708 
L 239.239837 146.136382 
L 241.289424 145.591828 
L 243.339011 145.009589 
L 245.388598 144.399599 
L 247.438184 143.772012 
L 249.487771 143.137053 
L 251.537358 142.504852 
" style="fill:none;stroke:#aa4644;stroke-linecap:square;stroke-width:2;"/>
   </g>
   <g id="line2d_27">
    <path clip-path="url(#p12d1feb304)" d="M 48.628267 101.089904 
L 50.677854 101.20103 
L 52.727441 101.533328 
L 54.777027 102.083594 
L 56.826614 102.846522 
L 58.876201 103.814774 
L 60.925788 104.979058 
L 62.975374 106.328235 
L 65.024961 107.849453 
L 67.074548 109.528283 
L 69.124135 111.348892 
L 71.173722 113.294219 
L 73.223308 115.346168 
L 75.272895 117.485811 
L 77.322482 119.693602 
L 79.372069 121.949593 
L 81.421655 124.233656 
L 83.471242 126.525703 
L 85.520829 128.805905 
L 87.570416 131.054906 
L 89.620003 133.254029 
L 91.669589 135.385473 
L 93.719176 137.432496 
L 95.768763 139.379584 
L 97.81835 141.212607 
L 99.867936 142.91895 
L 101.917523 144.487628 
L 103.96711 145.909386 
L 106.016697 147.176767 
L 108.066284 148.284161 
L 110.11587 149.227837 
L 112.165457 150.005946 
L 114.215044 150.618499 
L 116.264631 151.067332 
L 118.314217 151.356042 
L 120.363804 151.489904 
L 122.413391 151.475773 
L 124.462978 151.321962 
L 126.512565 151.038108 
L 128.562151 150.635029 
L 130.611738 150.124557 
L 132.661325 149.519372 
L 134.710912 148.832826 
L 136.760498 148.078762 
L 138.810085 147.271325 
L 140.859672 146.424784 
L 142.909259 145.553348 
L 144.958846 144.670986 
L 147.008432 143.791261 
L 149.058019 142.927168 
L 151.107606 142.090979 
L 153.157193 141.29411 
L 155.206779 140.546997 
L 157.256366 139.858985 
L 159.305953 139.23824 
L 161.35554 138.691673 
L 163.405127 138.224886 
L 165.454713 137.842135 
L 167.5043 137.546314 
L 169.553887 137.338954 
L 171.603474 137.220242 
L 173.65306 137.189059 
L 175.702647 137.243036 
L 177.752234 137.37862 
L 179.801821 137.591161 
L 181.851408 137.875009 
L 183.900994 138.223623 
L 185.950581 138.62969 
L 188.000168 139.085249 
L 190.049755 139.581829 
L 192.099341 140.110581 
L 194.148928 140.662421 
L 196.198515 141.228166 
L 198.248102 141.798673 
L 200.297689 142.364969 
L 202.347275 142.918385 
L 204.396862 143.450671 
L 206.446449 143.954111 
L 208.496036 144.421622 
L 210.545622 144.846846 
L 212.595209 145.224227 
L 214.644796 145.549074 
L 216.694383 145.817614 
L 218.74397 146.027021 
L 220.793556 146.175443 
L 222.843143 146.262008 
L 224.89273 146.286808 
L 226.942317 146.250884 
L 228.991903 146.156187 
L 231.04149 146.005527 
L 233.091077 145.802514 
L 235.140664 145.551484 
L 237.190251 145.257424 
L 239.239837 144.925874 
L 241.289424 144.562837 
L 243.339011 144.174678 
L 245.388598 143.768018 
L 247.438184 143.349627 
L 249.487771 142.926321 
L 251.537358 142.504853 
" style="fill:none;stroke:#89a54e;stroke-linecap:square;stroke-width:2;"/>
   </g>
   <g id="line2d_28">
    <path clip-path="url(#p12d1feb304)" d="M 48.628267 111.443642 
L 50.677854 111.526986 
L 52.727441 111.77621 
L 54.777027 112.18891 
L 56.826614 112.761106 
L 58.876201 113.487295 
L 60.925788 114.360507 
L 62.975374 115.372391 
L 65.024961 116.513304 
L 67.074548 117.772426 
L 69.124135 119.137883 
L 71.173722 120.596879 
L 73.223308 122.13584 
L 75.272895 123.740572 
L 77.322482 125.396416 
L 79.372069 127.088409 
L 81.421655 128.801456 
L 83.471242 130.520492 
L 85.520829 132.230643 
L 87.570416 133.917393 
L 89.620003 135.566736 
L 91.669589 137.165319 
L 93.719176 138.700586 
L 95.768763 140.160902 
L 97.81835 141.53567 
L 99.867936 142.815426 
L 101.917523 143.991935 
L 103.96711 145.058254 
L 106.016697 146.008789 
L 108.066284 146.839335 
L 110.11587 147.547092 
L 112.165457 148.130673 
L 114.215044 148.590088 
L 116.264631 148.926713 
L 118.314217 149.143246 
L 120.363804 149.243642 
L 122.413391 149.233044 
L 124.462978 149.117685 
L 126.512565 148.904795 
L 128.562151 148.602486 
L 130.611738 148.219632 
L 132.661325 147.765743 
L 134.710912 147.250834 
L 136.760498 146.685286 
L 138.810085 146.079708 
L 140.859672 145.444802 
L 142.909259 144.791225 
L 144.958846 144.129454 
L 147.008432 143.46966 
L 149.058019 142.82159 
L 151.107606 142.194448 
L 153.157193 141.596797 
L 155.206779 141.036462 
L 157.256366 140.520453 
L 159.305953 140.054894 
L 161.35554 139.644969 
L 163.405127 139.294878 
L 165.454713 139.007816 
L 167.5043 138.78595 
L 169.553887 138.63043 
L 171.603474 138.541395 
L 173.65306 138.518008 
L 175.702647 138.558491 
L 177.752234 138.660179 
L 179.801821 138.819585 
L 181.851408 139.032471 
L 183.900994 139.293932 
L 185.950581 139.598481 
L 188.000168 139.940151 
L 190.049755 140.312586 
L 192.099341 140.70915 
L 194.148928 141.12303 
L 196.198515 141.547339 
L 198.248102 141.975219 
L 200.297689 142.399941 
L 202.347275 142.815003 
L 204.396862 143.214218 
L 206.446449 143.591797 
L 208.496036 143.942431 
L 210.545622 144.261349 
L 212.595209 144.544384 
L 214.644796 144.78802 
L 216.694383 144.989424 
L 218.74397 145.14648 
L 220.793556 145.257797 
L 222.843143 145.32272 
L 224.89273 145.34132 
L 226.942317 145.314377 
L 228.991903 145.243355 
L 231.04149 145.130359 
L 233.091077 144.978099 
L 235.140664 144.789828 
L 237.190251 144.569282 
L 239.239837 144.32062 
L 241.289424 144.048342 
L 243.339011 143.757223 
L 245.388598 143.452228 
L 247.438184 143.138435 
L 249.487771 142.820955 
L 251.537358 142.504854 
" style="fill:none;stroke:#71588f;stroke-linecap:square;stroke-width:2;"/>
   </g>
   <g id="line2d_29">
    <path clip-path="url(#p12d1feb304)" d="M 48.628267 117.655885 
L 50.677854 117.72256 
L 52.727441 117.92194 
L 54.777027 118.252099 
L 56.826614 118.709856 
L 58.876201 119.290807 
L 60.925788 119.989377 
L 62.975374 120.798884 
L 65.024961 121.711614 
L 67.074548 122.718912 
L 69.124135 123.811278 
L 71.173722 124.978474 
L 73.223308 126.209643 
L 75.272895 127.493429 
L 77.322482 128.818104 
L 79.372069 130.171699 
L 81.421655 131.542137 
L 83.471242 132.917365 
L 85.520829 134.285486 
L 87.570416 135.634886 
L 89.620003 136.95436 
L 91.669589 138.233226 
L 93.719176 139.46144 
L 95.768763 140.629693 
L 97.81835 141.729507 
L 99.867936 142.753312 
L 101.917523 143.694519 
L 103.96711 144.547574 
L 106.016697 145.308003 
L 108.066284 145.972439 
L 110.11587 146.538645 
L 112.165457 147.00551 
L 114.215044 147.373042 
L 116.264631 147.642342 
L 118.314217 147.815568 
L 120.363804 147.895885 
L 122.413391 147.887407 
L 124.462978 147.79512 
L 126.512565 147.624808 
L 128.562151 147.38296 
L 130.611738 147.076677 
L 132.661325 146.713566 
L 134.710912 146.301639 
L 136.760498 145.8492 
L 138.810085 145.364738 
L 140.859672 144.856813 
L 142.909259 144.333951 
L 144.958846 143.804534 
L 147.008432 143.2767 
L 149.058019 142.758243 
L 151.107606 142.25653 
L 153.157193 141.778409 
L 155.206779 141.330141 
L 157.256366 140.917334 
L 159.305953 140.544887 
L 161.35554 140.216946 
L 163.405127 139.936874 
L 165.454713 139.707224 
L 167.5043 139.529731 
L 169.553887 139.405315 
L 171.603474 139.334088 
L 173.65306 139.315378 
L 175.702647 139.347764 
L 177.752234 139.429114 
L 179.801821 139.556639 
L 181.851408 139.726948 
L 183.900994 139.936117 
L 185.950581 140.179756 
L 188.000168 140.453092 
L 190.049755 140.75104 
L 192.099341 141.068291 
L 194.148928 141.399395 
L 196.198515 141.738843 
L 198.248102 142.081146 
L 200.297689 142.420924 
L 202.347275 142.752974 
L 204.396862 143.072345 
L 206.446449 143.374409 
L 208.496036 143.654916 
L 210.545622 143.91005 
L 212.595209 144.136479 
L 214.644796 144.331387 
L 216.694383 144.492511 
L 218.74397 144.618155 
L 220.793556 144.707209 
L 222.843143 144.759147 
L 224.89273 144.774027 
L 226.942317 144.752473 
L 228.991903 144.695655 
L 231.04149 144.605259 
L 233.091077 144.483451 
L 235.140664 144.332833 
L 237.190251 144.156397 
L 239.239837 143.957467 
L 241.289424 143.739645 
L 243.339011 143.50675 
L 245.388598 143.262753 
L 247.438184 143.011719 
L 249.487771 142.757735 
L 251.537358 142.504855 
" style="fill:none;stroke:#4298af;stroke-linecap:square;stroke-width:2;"/>
   </g>
   <g id="patch_3">
    <path d="M 38.482813 177.02 
L 38.482813 10.7 
" style="fill:none;stroke:#4d4d4d;stroke-linecap:square;stroke-linejoin:miter;stroke-width:0.5;"/>
   </g>
   <g id="patch_4">
    <path d="M 38.482813 177.02 
L 261.682813 177.02 
" style="fill:none;stroke:#4d4d4d;stroke-linecap:square;stroke-linejoin:miter;stroke-width:0.5;"/>
   </g>
   <g id="legend_1">
    <g id="line2d_30">
     <path d="M 270.682813 63.763125 
L 290.682813 63.763125 
" style="fill:none;stroke:#4573a7;stroke-linecap:square;stroke-width:2;"/>
    </g>
    <g id="line2d_31"/>
    <g id="text_13">
     <!-- 0 -->
     <g transform="translate(298.682813 67.263125)scale(0.1 -0.1)">
      <use xlink:href="#DejaVuSans-48"/>
     </g>
    </g>
    <g id="line2d_32">
     <path d="M 270.682813 78.44125 
L 290.682813 78.44125 
" style="fill:none;stroke:#aa4644;stroke-linecap:square;stroke-width:2;"/>
    </g>
    <g id="line2d_33"/>
    <g id="text_14">
     <!-- 1 -->
     <g transform="translate(298.682813 81.94125)scale(0.1 -0.1)">
      <use xlink:href="#DejaVuSans-49"/>
     </g>
    </g>
    <g id="line2d_34">
     <path d="M 270.682813 93.119375 
L 290.682813 93.119375 
" style="fill:none;stroke:#89a54e;stroke-linecap:square;stroke-width:2;"/>
    </g>
    <g id="line2d_35"/>
    <g id="text_15">
     <!-- 2 -->
     <g transform="translate(298.682813 96.619375)scale(0.1 -0.1)">
      <use xlink:href="#DejaVuSans-50"/>
     </g>
    </g>
    <g id="line2d_36">
     <path d="M 270.682813 107.7975 
L 290.682813 107.7975 
" style="fill:none;stroke:#71588f;stroke-linecap:square;stroke-width:2;"/>
    </g>
    <g id="line2d_37"/>
    <g id="text_16">
     <!-- 3 -->
     <g transform="translate(298.682813 111.2975)scale(0.1 -0.1)">
      <use xlink:href="#DejaVuSans-51"/>
     </g>
    </g>
    <g id="line2d_38">
     <path d="M 270.682813 122.475625 
L 290.682813 122.475625 
" style="fill:none;stroke:#4298af;stroke-linecap:square;stroke-width:2;"/>
    </g>
    <g id="line2d_39"/>
    <g id="text_17">
     <!-- 4 -->
     <g transform="translate(298.682813 125.975625)scale(0.1 -0.1)">
      <use xlink:href="#DejaVuSans-52"/>
     </g>
    </g>
   </g>
  </g>
 </g>
 <defs>
  <clipPath id="p12d1feb304">
   <rect height="166.32" width="223.2" x="38.482813" y="10.7"/>
  </clipPath>
 </defs>
</svg>
