<?xml version="1.0" encoding="utf-8" standalone="no"?>
<!DOCTYPE svg PUBLIC "-//W3C//DTD SVG 1.1//EN"
  "http://www.w3.org/Graphics/SVG/1.1/DTD/svg11.dtd">
<!-- Created with matplotlib (https://matplotlib.org/) -->
<svg height="197.398125pt" version="1.1" viewBox="0 0 316.245313 197.398125" width="316.245313pt" xmlns="http://www.w3.org/2000/svg" xmlns:xlink="http://www.w3.org/1999/xlink">
 <defs>
  <style type="text/css">
*{stroke-linecap:butt;stroke-linejoin:round;}
  </style>
 </defs>
 <g id="figure_1">
  <g id="patch_1">
   <path d="M 0 197.398125 
L 316.245313 197.398125 
L 316.245313 0 
L 0 0 
z
" style="fill:#ffffff;"/>
  </g>
  <g id="axes_1">
   <g id="patch_2">
    <path d="M 38.482813 173.52 
L 261.682813 173.52 
L 261.682813 7.2 
L 38.482813 7.2 
z
" style="fill:#c0c0c0;"/>
   </g>
   <g id="matplotlib.axis_1">
    <g id="xtick_1">
     <g id="line2d_1">
      <path clip-path="url(#p020a795bec)" d="M 48.628267 173.52 
L 48.628267 7.2 
" style="fill:none;stroke:#000000;stroke-linecap:square;stroke-width:0.8;"/>
     </g>
     <g id="line2d_2">
      <defs>
       <path d="M 0 0 
L 0 3.5 
" id="m5c28039f1b" style="stroke:#000000;stroke-width:0.8;"/>
      </defs>
      <g>
       <use style="stroke:#000000;stroke-width:0.8;" x="48.628267" xlink:href="#m5c28039f1b" y="173.52"/>
      </g>
     </g>
     <g id="text_1">
      <!-- 0 -->
      <defs>
       <path d="M 31.78125 66.40625 
Q 24.171875 66.40625 20.328125 58.90625 
Q 16.5 51.421875 16.5 36.375 
Q 16.5 21.390625 20.328125 13.890625 
Q 24.171875 6.390625 31.78125 6.390625 
Q 39.453125 6.390625 43.28125 13.890625 
Q 47.125 21.390625 47.125 36.375 
Q 47.125 51.421875 43.28125 58.90625 
Q 39.453125 66.40625 31.78125 66.40625 
z
M 31.78125 74.21875 
Q 44.046875 74.21875 50.515625 64.515625 
Q 56.984375 54.828125 56.984375 36.375 
Q 56.984375 17.96875 50.515625 8.265625 
Q 44.046875 -1.421875 31.78125 -1.421875 
Q 19.53125 -1.421875 13.0625 8.265625 
Q 6.59375 17.96875 6.59375 36.375 
Q 6.59375 54.828125 13.0625 64.515625 
Q 19.53125 74.21875 31.78125 74.21875 
z
" id="DejaVuSans-48"/>
      </defs>
      <g transform="translate(45.447017 188.118438)scale(0.1 -0.1)">
       <use xlink:href="#DejaVuSans-48"/>
      </g>
     </g>
    </g>
    <g id="xtick_2">
     <g id="line2d_3">
      <path clip-path="url(#p020a795bec)" d="M 99.35554 173.52 
L 99.35554 7.2 
" style="fill:none;stroke:#000000;stroke-linecap:square;stroke-width:0.8;"/>
     </g>
     <g id="line2d_4">
      <g>
       <use style="stroke:#000000;stroke-width:0.8;" x="99.35554" xlink:href="#m5c28039f1b" y="173.52"/>
      </g>
     </g>
     <g id="text_2">
      <!-- 1 -->
      <defs>
       <path d="M 12.40625 8.296875 
L 28.515625 8.296875 
L 28.515625 63.921875 
L 10.984375 60.40625 
L 10.984375 69.390625 
L 28.421875 72.90625 
L 38.28125 72.90625 
L 38.28125 8.296875 
L 54.390625 8.296875 
L 54.390625 0 
L 12.40625 0 
z
" id="DejaVuSans-49"/>
      </defs>
      <g transform="translate(96.17429 188.118438)scale(0.1 -0.1)">
       <use xlink:href="#DejaVuSans-49"/>
      </g>
     </g>
    </g>
    <g id="xtick_3">
     <g id="line2d_5">
      <path clip-path="url(#p020a795bec)" d="M 150.082813 173.52 
L 150.082813 7.2 
" style="fill:none;stroke:#000000;stroke-linecap:square;stroke-width:0.8;"/>
     </g>
     <g id="line2d_6">
      <g>
       <use style="stroke:#000000;stroke-width:0.8;" x="150.082813" xlink:href="#m5c28039f1b" y="173.52"/>
      </g>
     </g>
     <g id="text_3">
      <!-- 2 -->
      <defs>
       <path d="M 19.1875 8.296875 
L 53.609375 8.296875 
L 53.609375 0 
L 7.328125 0 
L 7.328125 8.296875 
Q 12.9375 14.109375 22.625 23.890625 
Q 32.328125 33.6875 34.8125 36.53125 
Q 39.546875 41.84375 41.421875 45.53125 
Q 43.3125 49.21875 43.3125 52.78125 
Q 43.3125 58.59375 39.234375 62.25 
Q 35.15625 65.921875 28.609375 65.921875 
Q 23.96875 65.921875 18.8125 64.3125 
Q 13.671875 62.703125 7.8125 59.421875 
L 7.8125 69.390625 
Q 13.765625 71.78125 18.9375 73 
Q 24.125 74.21875 28.421875 74.21875 
Q 39.75 74.21875 46.484375 68.546875 
Q 53.21875 62.890625 53.21875 53.421875 
Q 53.21875 48.921875 51.53125 44.890625 
Q 49.859375 40.875 45.40625 35.40625 
Q 44.1875 33.984375 37.640625 27.21875 
Q 31.109375 20.453125 19.1875 8.296875 
z
" id="DejaVuSans-50"/>
      </defs>
      <g transform="translate(146.901563 188.118438)scale(0.1 -0.1)">
       <use xlink:href="#DejaVuSans-50"/>
      </g>
     </g>
    </g>
    <g id="xtick_4">
     <g id="line2d_7">
      <path clip-path="url(#p020a795bec)" d="M 200.810085 173.52 
L 200.810085 7.2 
" style="fill:none;stroke:#000000;stroke-linecap:square;stroke-width:0.8;"/>
     </g>
     <g id="line2d_8">
      <g>
       <use style="stroke:#000000;stroke-width:0.8;" x="200.810085" xlink:href="#m5c28039f1b" y="173.52"/>
      </g>
     </g>
     <g id="text_4">
      <!-- 3 -->
      <defs>
       <path d="M 40.578125 39.3125 
Q 47.65625 37.796875 51.625 33 
Q 55.609375 28.21875 55.609375 21.1875 
Q 55.609375 10.40625 48.1875 4.484375 
Q 40.765625 -1.421875 27.09375 -1.421875 
Q 22.515625 -1.421875 17.65625 -0.515625 
Q 12.796875 0.390625 7.625 2.203125 
L 7.625 11.71875 
Q 11.71875 9.328125 16.59375 8.109375 
Q 21.484375 6.890625 26.8125 6.890625 
Q 36.078125 6.890625 40.9375 10.546875 
Q 45.796875 14.203125 45.796875 21.1875 
Q 45.796875 27.640625 41.28125 31.265625 
Q 36.765625 34.90625 28.71875 34.90625 
L 20.21875 34.90625 
L 20.21875 43.015625 
L 29.109375 43.015625 
Q 36.375 43.015625 40.234375 45.921875 
Q 44.09375 48.828125 44.09375 54.296875 
Q 44.09375 59.90625 40.109375 62.90625 
Q 36.140625 65.921875 28.71875 65.921875 
Q 24.65625 65.921875 20.015625 65.03125 
Q 15.375 64.15625 9.8125 62.3125 
L 9.8125 71.09375 
Q 15.4375 72.65625 20.34375 73.4375 
Q 25.25 74.21875 29.59375 74.21875 
Q 40.828125 74.21875 47.359375 69.109375 
Q 53.90625 64.015625 53.90625 55.328125 
Q 53.90625 49.265625 50.4375 45.09375 
Q 46.96875 40.921875 40.578125 39.3125 
z
" id="DejaVuSans-51"/>
      </defs>
      <g transform="translate(197.628835 188.118438)scale(0.1 -0.1)">
       <use xlink:href="#DejaVuSans-51"/>
      </g>
     </g>
    </g>
    <g id="xtick_5">
     <g id="line2d_9">
      <path clip-path="url(#p020a795bec)" d="M 251.537358 173.52 
L 251.537358 7.2 
" style="fill:none;stroke:#000000;stroke-linecap:square;stroke-width:0.8;"/>
     </g>
     <g id="line2d_10">
      <g>
       <use style="stroke:#000000;stroke-width:0.8;" x="251.537358" xlink:href="#m5c28039f1b" y="173.52"/>
      </g>
     </g>
     <g id="text_5">
      <!-- 4 -->
      <defs>
       <path d="M 37.796875 64.3125 
L 12.890625 25.390625 
L 37.796875 25.390625 
z
M 35.203125 72.90625 
L 47.609375 72.90625 
L 47.609375 25.390625 
L 58.015625 25.390625 
L 58.015625 17.1875 
L 47.609375 17.1875 
L 47.609375 0 
L 37.796875 0 
L 37.796875 17.1875 
L 4.890625 17.1875 
L 4.890625 26.703125 
z
" id="DejaVuSans-52"/>
      </defs>
      <g transform="translate(248.356108 188.118438)scale(0.1 -0.1)">
       <use xlink:href="#DejaVuSans-52"/>
      </g>
     </g>
    </g>
   </g>
   <g id="matplotlib.axis_2">
    <g id="ytick_1">
     <g id="line2d_11">
      <path clip-path="url(#p020a795bec)" d="M 38.482813 163.853828 
L 261.682813 163.853828 
" style="fill:none;stroke:#000000;stroke-linecap:square;stroke-width:0.8;"/>
     </g>
     <g id="line2d_12">
      <defs>
       <path d="M 0 0 
L -3.5 0 
" id="m084e35b5a4" style="stroke:#000000;stroke-width:0.8;"/>
      </defs>
      <g>
       <use style="stroke:#000000;stroke-width:0.8;" x="38.482813" xlink:href="#m084e35b5a4" y="163.853828"/>
      </g>
     </g>
     <g id="text_6">
      <!-- −0.2 -->
      <defs>
       <path d="M 10.59375 35.5 
L 73.1875 35.5 
L 73.1875 27.203125 
L 10.59375 27.203125 
z
" id="DejaVuSans-8722"/>
       <path d="M 10.6875 12.40625 
L 21 12.40625 
L 21 0 
L 10.6875 0 
z
" id="DejaVuSans-46"/>
      </defs>
      <g transform="translate(7.2 167.653047)scale(0.1 -0.1)">
       <use xlink:href="#DejaVuSans-8722"/>
       <use x="83.789062" xlink:href="#DejaVuSans-48"/>
       <use x="147.412109" xlink:href="#DejaVuSans-46"/>
       <use x="179.199219" xlink:href="#DejaVuSans-50"/>
      </g>
     </g>
    </g>
    <g id="ytick_2">
     <g id="line2d_13">
      <path clip-path="url(#p020a795bec)" d="M 38.482813 139.004857 
L 261.682813 139.004857 
" style="fill:none;stroke:#000000;stroke-linecap:square;stroke-width:0.8;"/>
     </g>
     <g id="line2d_14">
      <g>
       <use style="stroke:#000000;stroke-width:0.8;" x="38.482813" xlink:href="#m084e35b5a4" y="139.004857"/>
      </g>
     </g>
     <g id="text_7">
      <!-- 0.0 -->
      <g transform="translate(15.579688 142.804075)scale(0.1 -0.1)">
       <use xlink:href="#DejaVuSans-48"/>
       <use x="63.623047" xlink:href="#DejaVuSans-46"/>
       <use x="95.410156" xlink:href="#DejaVuSans-48"/>
      </g>
     </g>
    </g>
    <g id="ytick_3">
     <g id="line2d_15">
      <path clip-path="url(#p020a795bec)" d="M 38.482813 114.155885 
L 261.682813 114.155885 
" style="fill:none;stroke:#000000;stroke-linecap:square;stroke-width:0.8;"/>
     </g>
     <g id="line2d_16">
      <g>
       <use style="stroke:#000000;stroke-width:0.8;" x="38.482813" xlink:href="#m084e35b5a4" y="114.155885"/>
      </g>
     </g>
     <g id="text_8">
      <!-- 0.2 -->
      <g transform="translate(15.579688 117.955104)scale(0.1 -0.1)">
       <use xlink:href="#DejaVuSans-48"/>
       <use x="63.623047" xlink:href="#DejaVuSans-46"/>
       <use x="95.410156" xlink:href="#DejaVuSans-50"/>
      </g>
     </g>
    </g>
    <g id="ytick_4">
     <g id="line2d_17">
      <path clip-path="url(#p020a795bec)" d="M 38.482813 89.306914 
L 261.682813 89.306914 
" style="fill:none;stroke:#000000;stroke-linecap:square;stroke-width:0.8;"/>
     </g>
     <g id="line2d_18">
      <g>
       <use style="stroke:#000000;stroke-width:0.8;" x="38.482813" xlink:href="#m084e35b5a4" y="89.306914"/>
      </g>
     </g>
     <g id="text_9">
      <!-- 0.4 -->
      <g transform="translate(15.579688 93.106133)scale(0.1 -0.1)">
       <use xlink:href="#DejaVuSans-48"/>
       <use x="63.623047" xlink:href="#DejaVuSans-46"/>
       <use x="95.410156" xlink:href="#DejaVuSans-52"/>
      </g>
     </g>
    </g>
    <g id="ytick_5">
     <g id="line2d_19">
      <path clip-path="url(#p020a795bec)" d="M 38.482813 64.457943 
L 261.682813 64.457943 
" style="fill:none;stroke:#000000;stroke-linecap:square;stroke-width:0.8;"/>
     </g>
     <g id="line2d_20">
      <g>
       <use style="stroke:#000000;stroke-width:0.8;" x="38.482813" xlink:href="#m084e35b5a4" y="64.457943"/>
      </g>
     </g>
     <g id="text_10">
      <!-- 0.6 -->
      <defs>
       <path d="M 33.015625 40.375 
Q 26.375 40.375 22.484375 35.828125 
Q 18.609375 31.296875 18.609375 23.390625 
Q 18.609375 15.53125 22.484375 10.953125 
Q 26.375 6.390625 33.015625 6.390625 
Q 39.65625 6.390625 43.53125 10.953125 
Q 47.40625 15.53125 47.40625 23.390625 
Q 47.40625 31.296875 43.53125 35.828125 
Q 39.65625 40.375 33.015625 40.375 
z
M 52.59375 71.296875 
L 52.59375 62.3125 
Q 48.875 64.0625 45.09375 64.984375 
Q 41.3125 65.921875 37.59375 65.921875 
Q 27.828125 65.921875 22.671875 59.328125 
Q 17.53125 52.734375 16.796875 39.40625 
Q 19.671875 43.65625 24.015625 45.921875 
Q 28.375 48.1875 33.59375 48.1875 
Q 44.578125 48.1875 50.953125 41.515625 
Q 57.328125 34.859375 57.328125 23.390625 
Q 57.328125 12.15625 50.6875 5.359375 
Q 44.046875 -1.421875 33.015625 -1.421875 
Q 20.359375 -1.421875 13.671875 8.265625 
Q 6.984375 17.96875 6.984375 36.375 
Q 6.984375 53.65625 15.1875 63.9375 
Q 23.390625 74.21875 37.203125 74.21875 
Q 40.921875 74.21875 44.703125 73.484375 
Q 48.484375 72.75 52.59375 71.296875 
z
" id="DejaVuSans-54"/>
      </defs>
      <g transform="translate(15.579688 68.257161)scale(0.1 -0.1)">
       <use xlink:href="#DejaVuSans-48"/>
       <use x="63.623047" xlink:href="#DejaVuSans-46"/>
       <use x="95.410156" xlink:href="#DejaVuSans-54"/>
      </g>
     </g>
    </g>
    <g id="ytick_6">
     <g id="line2d_21">
      <path clip-path="url(#p020a795bec)" d="M 38.482813 39.608971 
L 261.682813 39.608971 
" style="fill:none;stroke:#000000;stroke-linecap:square;stroke-width:0.8;"/>
     </g>
     <g id="line2d_22">
      <g>
       <use style="stroke:#000000;stroke-width:0.8;" x="38.482813" xlink:href="#m084e35b5a4" y="39.608971"/>
      </g>
     </g>
     <g id="text_11">
      <!-- 0.8 -->
      <defs>
       <path d="M 31.78125 34.625 
Q 24.75 34.625 20.71875 30.859375 
Q 16.703125 27.09375 16.703125 20.515625 
Q 16.703125 13.921875 20.71875 10.15625 
Q 24.75 6.390625 31.78125 6.390625 
Q 38.8125 6.390625 42.859375 10.171875 
Q 46.921875 13.96875 46.921875 20.515625 
Q 46.921875 27.09375 42.890625 30.859375 
Q 38.875 34.625 31.78125 34.625 
z
M 21.921875 38.8125 
Q 15.578125 40.375 12.03125 44.71875 
Q 8.5 49.078125 8.5 55.328125 
Q 8.5 64.0625 14.71875 69.140625 
Q 20.953125 74.21875 31.78125 74.21875 
Q 42.671875 74.21875 48.875 69.140625 
Q 55.078125 64.0625 55.078125 55.328125 
Q 55.078125 49.078125 51.53125 44.71875 
Q 48 40.375 41.703125 38.8125 
Q 48.828125 37.15625 52.796875 32.3125 
Q 56.78125 27.484375 56.78125 20.515625 
Q 56.78125 9.90625 50.3125 4.234375 
Q 43.84375 -1.421875 31.78125 -1.421875 
Q 19.734375 -1.421875 13.25 4.234375 
Q 6.78125 9.90625 6.78125 20.515625 
Q 6.78125 27.484375 10.78125 32.3125 
Q 14.796875 37.15625 21.921875 38.8125 
z
M 18.3125 54.390625 
Q 18.3125 48.734375 21.84375 45.5625 
Q 25.390625 42.390625 31.78125 42.390625 
Q 38.140625 42.390625 41.71875 45.5625 
Q 45.3125 48.734375 45.3125 54.390625 
Q 45.3125 60.0625 41.71875 63.234375 
Q 38.140625 66.40625 31.78125 66.40625 
Q 25.390625 66.40625 21.84375 63.234375 
Q 18.3125 60.0625 18.3125 54.390625 
z
" id="DejaVuSans-56"/>
      </defs>
      <g transform="translate(15.579688 43.40819)scale(0.1 -0.1)">
       <use xlink:href="#DejaVuSans-48"/>
       <use x="63.623047" xlink:href="#DejaVuSans-46"/>
       <use x="95.410156" xlink:href="#DejaVuSans-56"/>
      </g>
     </g>
    </g>
    <g id="ytick_7">
     <g id="line2d_23">
      <path clip-path="url(#p020a795bec)" d="M 38.482813 14.76 
L 261.682813 14.76 
" style="fill:none;stroke:#000000;stroke-linecap:square;stroke-width:0.8;"/>
     </g>
     <g id="line2d_24">
      <g>
       <use style="stroke:#000000;stroke-width:0.8;" x="38.482813" xlink:href="#m084e35b5a4" y="14.76"/>
      </g>
     </g>
     <g id="text_12">
      <!-- 1.0 -->
      <g transform="translate(15.579688 18.559219)scale(0.1 -0.1)">
       <use xlink:href="#DejaVuSans-49"/>
       <use x="63.623047" xlink:href="#DejaVuSans-46"/>
       <use x="95.410156" xlink:href="#DejaVuSans-48"/>
      </g>
     </g>
    </g>
   </g>
   <g id="line2d_25">
    <path clip-path="url(#p020a795bec)" d="M 48.628267 14.76 
L 50.677854 15.093375 
L 52.727441 16.090272 
L 54.777027 17.741068 
L 56.826614 20.029854 
L 58.876201 22.934609 
L 60.925788 26.427459 
L 62.975374 30.474993 
L 65.024961 35.038645 
L 67.074548 40.075135 
L 69.124135 45.536963 
L 71.173722 51.372944 
L 73.223308 57.52879 
L 75.272895 63.94772 
L 77.322482 70.571093 
L 79.372069 77.339067 
L 81.421655 84.191256 
L 83.471242 91.067396 
L 85.520829 97.908001 
L 87.570416 104.655004 
L 89.620003 111.252373 
L 91.669589 117.646705 
L 93.719176 123.787774 
L 95.768763 129.62904 
L 97.81835 135.128109 
L 99.867936 140.247135 
L 101.917523 144.953171 
L 103.96711 149.218446 
L 106.016697 153.020587 
L 108.066284 156.342769 
L 110.11587 159.173799 
L 112.165457 161.508124 
L 114.215044 163.345783 
L 116.264631 164.692283 
L 118.314217 165.558413 
L 120.363804 165.96 
L 122.413391 165.917606 
L 124.462978 165.456172 
L 126.512565 164.604612 
L 128.562151 163.395374 
L 130.611738 161.863957 
L 132.661325 160.048402 
L 134.710912 157.988766 
L 136.760498 155.726572 
L 138.810085 153.304262 
L 140.859672 150.76464 
L 142.909259 148.15033 
L 144.958846 145.503245 
L 147.008432 142.864071 
L 149.058019 140.27179 
L 151.107606 137.763223 
L 153.157193 135.372617 
L 155.206779 133.131278 
L 157.256366 131.067242 
L 159.305953 129.205007 
L 161.35554 127.565305 
L 163.405127 126.164944 
L 165.454713 125.016692 
L 167.5043 124.12923 
L 169.553887 123.507149 
L 171.603474 123.151011 
L 173.65306 123.057463 
L 175.702647 123.219393 
L 177.752234 123.626145 
L 179.801821 124.263769 
L 181.851408 125.115314 
L 183.900994 126.161157 
L 185.950581 127.379356 
L 188.000168 128.746033 
L 190.049755 130.235772 
L 192.099341 131.82203 
L 194.148928 133.477551 
L 196.198515 135.174786 
L 198.248102 136.886305 
L 200.297689 138.585194 
L 202.347275 140.245442 
L 204.396862 141.842301 
L 206.446449 143.35262 
L 208.496036 144.755152 
L 210.545622 146.030824 
L 212.595209 147.162968 
L 214.644796 148.13751 
L 216.694383 148.943127 
L 218.74397 149.571348 
L 220.793556 150.016617 
L 222.843143 150.27631 
L 224.89273 150.350711 
L 226.942317 150.24294 
L 228.991903 149.958849 
L 231.04149 149.506868 
L 233.091077 148.897828 
L 235.140664 148.14474 
L 237.190251 147.262559 
L 239.239837 146.267908 
L 241.289424 145.178798 
L 243.339011 144.014322 
L 245.388598 142.794341 
L 247.438184 141.539168 
L 249.487771 140.26925 
L 251.537358 139.004847 
" style="fill:none;stroke:#000080;stroke-linecap:square;"/>
   </g>
   <g id="line2d_26">
    <path clip-path="url(#p020a795bec)" d="M 48.628267 76.882428 
L 50.677854 77.049116 
L 52.727441 77.547564 
L 54.777027 78.372962 
L 56.826614 79.517355 
L 58.876201 80.969733 
L 60.925788 82.716158 
L 62.975374 84.739925 
L 65.024961 87.021751 
L 67.074548 89.539996 
L 69.124135 92.27091 
L 71.173722 95.1889 
L 73.223308 98.266824 
L 75.272895 101.476288 
L 77.322482 104.787975 
L 79.372069 108.171962 
L 81.421655 111.598056 
L 83.471242 115.036127 
L 85.520829 118.456429 
L 87.570416 121.82993 
L 89.620003 125.128615 
L 91.669589 128.325781 
L 93.719176 131.396315 
L 95.768763 134.316948 
L 97.81835 137.066483 
L 99.867936 139.625996 
L 101.917523 141.979014 
L 103.96711 144.111651 
L 106.016697 146.012722 
L 108.066284 147.673813 
L 110.11587 149.089328 
L 112.165457 150.25649 
L 114.215044 151.17532 
L 116.264631 151.84857 
L 118.314217 152.281635 
L 120.363804 152.482428 
L 122.413391 152.461232 
L 124.462978 152.230514 
L 126.512565 151.804734 
L 128.562151 151.200115 
L 130.611738 150.434407 
L 132.661325 149.526629 
L 134.710912 148.496811 
L 136.760498 147.365714 
L 138.810085 146.154559 
L 140.859672 144.884748 
L 142.909259 143.577593 
L 144.958846 142.254051 
L 147.008432 140.934464 
L 149.058019 139.638323 
L 151.107606 138.38404 
L 153.157193 137.188737 
L 155.206779 136.068067 
L 157.256366 135.036049 
L 159.305953 134.104932 
L 161.35554 133.285081 
L 163.405127 132.5849 
L 165.454713 132.010774 
L 167.5043 131.567043 
L 169.553887 131.256003 
L 171.603474 131.077934 
L 173.65306 131.03116 
L 175.702647 131.112125 
L 177.752234 131.315501 
L 179.801821 131.634313 
L 181.851408 132.060086 
L 183.900994 132.583007 
L 185.950581 133.192106 
L 188.000168 133.875445 
L 190.049755 134.620314 
L 192.099341 135.413443 
L 194.148928 136.241204 
L 196.198515 137.089821 
L 198.248102 137.945581 
L 200.297689 138.795025 
L 202.347275 139.625149 
L 204.396862 140.423579 
L 206.446449 141.178738 
L 208.496036 141.880004 
L 210.545622 142.517841 
L 212.595209 143.083912 
L 214.644796 143.571183 
L 216.694383 143.973992 
L 218.74397 144.288103 
L 220.793556 144.510737 
L 222.843143 144.640583 
L 224.89273 144.677784 
L 226.942317 144.623898 
L 228.991903 144.481853 
L 231.04149 144.255862 
L 233.091077 143.951342 
L 235.140664 143.574798 
L 237.190251 143.133708 
L 239.239837 142.636382 
L 241.289424 142.091828 
L 243.339011 141.509589 
L 245.388598 140.899599 
L 247.438184 140.272012 
L 249.487771 139.637053 
L 251.537358 139.004852 
" style="fill:none;stroke:#ff00ff;stroke-linecap:square;"/>
   </g>
   <g id="line2d_27">
    <path clip-path="url(#p020a795bec)" d="M 48.628267 97.589904 
L 50.677854 97.70103 
L 52.727441 98.033328 
L 54.777027 98.583594 
L 56.826614 99.346522 
L 58.876201 100.314774 
L 60.925788 101.479058 
L 62.975374 102.828235 
L 65.024961 104.349453 
L 67.074548 106.028283 
L 69.124135 107.848892 
L 71.173722 109.794219 
L 73.223308 111.846168 
L 75.272895 113.985811 
L 77.322482 116.193602 
L 79.372069 118.449593 
L 81.421655 120.733656 
L 83.471242 123.025703 
L 85.520829 125.305905 
L 87.570416 127.554906 
L 89.620003 129.754029 
L 91.669589 131.885473 
L 93.719176 133.932496 
L 95.768763 135.879584 
L 97.81835 137.712607 
L 99.867936 139.41895 
L 101.917523 140.987628 
L 103.96711 142.409386 
L 106.016697 143.676767 
L 108.066284 144.784161 
L 110.11587 145.727837 
L 112.165457 146.505946 
L 114.215044 147.118499 
L 116.264631 147.567332 
L 118.314217 147.856042 
L 120.363804 147.989904 
L 122.413391 147.975773 
L 124.462978 147.821962 
L 126.512565 147.538108 
L 128.562151 147.135029 
L 130.611738 146.624557 
L 132.661325 146.019372 
L 134.710912 145.332826 
L 136.760498 144.578762 
L 138.810085 143.771325 
L 140.859672 142.924784 
L 142.909259 142.053348 
L 144.958846 141.170986 
L 147.008432 140.291261 
L 149.058019 139.427168 
L 151.107606 138.590979 
L 153.157193 137.79411 
L 155.206779 137.046997 
L 157.256366 136.358985 
L 159.305953 135.73824 
L 161.35554 135.191673 
L 163.405127 134.724886 
L 165.454713 134.342135 
L 167.5043 134.046314 
L 169.553887 133.838954 
L 171.603474 133.720242 
L 173.65306 133.689059 
L 175.702647 133.743036 
L 177.752234 133.87862 
L 179.801821 134.091161 
L 181.851408 134.375009 
L 183.900994 134.723623 
L 185.950581 135.12969 
L 188.000168 135.585249 
L 190.049755 136.081829 
L 192.099341 136.610581 
L 194.148928 137.162421 
L 196.198515 137.728166 
L 198.248102 138.298673 
L 200.297689 138.864969 
L 202.347275 139.418385 
L 204.396862 139.950671 
L 206.446449 140.454111 
L 208.496036 140.921622 
L 210.545622 141.346846 
L 212.595209 141.724227 
L 214.644796 142.049074 
L 216.694383 142.317614 
L 218.74397 142.527021 
L 220.793556 142.675443 
L 222.843143 142.762008 
L 224.89273 142.786808 
L 226.942317 142.750884 
L 228.991903 142.656187 
L 231.04149 142.505527 
L 233.091077 142.302514 
L 235.140664 142.051484 
L 237.190251 141.757424 
L 239.239837 141.425874 
L 241.289424 141.062837 
L 243.339011 140.674678 
L 245.388598 140.268018 
L 247.438184 139.849627 
L 249.487771 139.426321 
L 251.537358 139.004853 
" style="fill:none;stroke:#ffff00;stroke-linecap:square;"/>
   </g>
   <g id="line2d_28">
    <path clip-path="url(#p020a795bec)" d="M 48.628267 107.943642 
L 50.677854 108.026986 
L 52.727441 108.27621 
L 54.777027 108.68891 
L 56.826614 109.261106 
L 58.876201 109.987295 
L 60.925788 110.860507 
L 62.975374 111.872391 
L 65.024961 113.013304 
L 67.074548 114.272426 
L 69.124135 115.637883 
L 71.173722 117.096879 
L 73.223308 118.63584 
L 75.272895 120.240572 
L 77.322482 121.896416 
L 79.372069 123.588409 
L 81.421655 125.301456 
L 83.471242 127.020492 
L 85.520829 128.730643 
L 87.570416 130.417393 
L 89.620003 132.066736 
L 91.669589 133.665319 
L 93.719176 135.200586 
L 95.768763 136.660902 
L 97.81835 138.03567 
L 99.867936 139.315426 
L 101.917523 140.491935 
L 103.96711 141.558254 
L 106.016697 142.508789 
L 108.066284 143.339335 
L 110.11587 144.047092 
L 112.165457 144.630673 
L 114.215044 145.090088 
L 116.264631 145.426713 
L 118.314217 145.643246 
L 120.363804 145.743642 
L 122.413391 145.733044 
L 124.462978 145.617685 
L 126.512565 145.404795 
L 128.562151 145.102486 
L 130.611738 144.719632 
L 132.661325 144.265743 
L 134.710912 143.750834 
L 136.760498 143.185286 
L 138.810085 142.579708 
L 140.859672 141.944802 
L 142.909259 141.291225 
L 144.958846 140.629454 
L 147.008432 139.96966 
L 149.058019 139.32159 
L 151.107606 138.694448 
L 153.157193 138.096797 
L 155.206779 137.536462 
L 157.256366 137.020453 
L 159.305953 136.554894 
L 161.35554 136.144969 
L 163.405127 135.794878 
L 165.454713 135.507816 
L 167.5043 135.28595 
L 169.553887 135.13043 
L 171.603474 135.041395 
L 173.65306 135.018008 
L 175.702647 135.058491 
L 177.752234 135.160179 
L 179.801821 135.319585 
L 181.851408 135.532471 
L 183.900994 135.793932 
L 185.950581 136.098481 
L 188.000168 136.440151 
L 190.049755 136.812586 
L 192.099341 137.20915 
L 194.148928 137.62303 
L 196.198515 138.047339 
L 198.248102 138.475219 
L 200.297689 138.899941 
L 202.347275 139.315003 
L 204.396862 139.714218 
L 206.446449 140.091797 
L 208.496036 140.442431 
L 210.545622 140.761349 
L 212.595209 141.044384 
L 214.644796 141.28802 
L 216.694383 141.489424 
L 218.74397 141.64648 
L 220.793556 141.757797 
L 222.843143 141.82272 
L 224.89273 141.84132 
L 226.942317 141.814377 
L 228.991903 141.743355 
L 231.04149 141.630359 
L 233.091077 141.478099 
L 235.140664 141.289828 
L 237.190251 141.069282 
L 239.239837 140.82062 
L 241.289424 140.548342 
L 243.339011 140.257223 
L 245.388598 139.952228 
L 247.438184 139.638435 
L 249.487771 139.320955 
L 251.537358 139.004854 
" style="fill:none;stroke:#00ffff;stroke-linecap:square;"/>
   </g>
   <g id="line2d_29">
    <path clip-path="url(#p020a795bec)" d="M 48.628267 114.155885 
L 50.677854 114.22256 
L 52.727441 114.42194 
L 54.777027 114.752099 
L 56.826614 115.209856 
L 58.876201 115.790807 
L 60.925788 116.489377 
L 62.975374 117.298884 
L 65.024961 118.211614 
L 67.074548 119.218912 
L 69.124135 120.311278 
L 71.173722 121.478474 
L 73.223308 122.709643 
L 75.272895 123.993429 
L 77.322482 125.318104 
L 79.372069 126.671699 
L 81.421655 128.042137 
L 83.471242 129.417365 
L 85.520829 130.785486 
L 87.570416 132.134886 
L 89.620003 133.45436 
L 91.669589 134.733226 
L 93.719176 135.96144 
L 95.768763 137.129693 
L 97.81835 138.229507 
L 99.867936 139.253312 
L 101.917523 140.194519 
L 103.96711 141.047574 
L 106.016697 141.808003 
L 108.066284 142.472439 
L 110.11587 143.038645 
L 112.165457 143.50551 
L 114.215044 143.873042 
L 116.264631 144.142342 
L 118.314217 144.315568 
L 120.363804 144.395885 
L 122.413391 144.387407 
L 124.462978 144.29512 
L 126.512565 144.124808 
L 128.562151 143.88296 
L 130.611738 143.576677 
L 132.661325 143.213566 
L 134.710912 142.801639 
L 136.760498 142.3492 
L 138.810085 141.864738 
L 140.859672 141.356813 
L 142.909259 140.833951 
L 144.958846 140.304534 
L 147.008432 139.7767 
L 149.058019 139.258243 
L 151.107606 138.75653 
L 153.157193 138.278409 
L 155.206779 137.830141 
L 157.256366 137.417334 
L 159.305953 137.044887 
L 161.35554 136.716946 
L 163.405127 136.436874 
L 165.454713 136.207224 
L 167.5043 136.029731 
L 169.553887 135.905315 
L 171.603474 135.834088 
L 173.65306 135.815378 
L 175.702647 135.847764 
L 177.752234 135.929114 
L 179.801821 136.056639 
L 181.851408 136.226948 
L 183.900994 136.436117 
L 185.950581 136.679756 
L 188.000168 136.953092 
L 190.049755 137.25104 
L 192.099341 137.568291 
L 194.148928 137.899395 
L 196.198515 138.238843 
L 198.248102 138.581146 
L 200.297689 138.920924 
L 202.347275 139.252974 
L 204.396862 139.572345 
L 206.446449 139.874409 
L 208.496036 140.154916 
L 210.545622 140.41005 
L 212.595209 140.636479 
L 214.644796 140.831387 
L 216.694383 140.992511 
L 218.74397 141.118155 
L 220.793556 141.207209 
L 222.843143 141.259147 
L 224.89273 141.274027 
L 226.942317 141.252473 
L 228.991903 141.195655 
L 231.04149 141.105259 
L 233.091077 140.983451 
L 235.140664 140.832833 
L 237.190251 140.656397 
L 239.239837 140.457467 
L 241.289424 140.239645 
L 243.339011 140.00675 
L 245.388598 139.762753 
L 247.438184 139.511719 
L 249.487771 139.257735 
L 251.537358 139.004855 
" style="fill:none;stroke:#800080;stroke-linecap:square;"/>
   </g>
   <g id="patch_3">
    <path d="M 38.482813 173.52 
L 38.482813 7.2 
" style="fill:none;stroke:#000000;stroke-linecap:square;stroke-linejoin:miter;stroke-width:0.8;"/>
   </g>
   <g id="patch_4">
    <path d="M 261.682813 173.52 
L 261.682813 7.2 
" style="fill:none;stroke:#000000;stroke-linecap:square;stroke-linejoin:miter;stroke-width:0.8;"/>
   </g>
   <g id="patch_5">
    <path d="M 38.482813 173.52 
L 261.682813 173.52 
" style="fill:none;stroke:#000000;stroke-linecap:square;stroke-linejoin:miter;stroke-width:0.8;"/>
   </g>
   <g id="patch_6">
    <path d="M 38.482813 7.2 
L 261.682813 7.2 
" style="fill:none;stroke:#000000;stroke-linecap:square;stroke-linejoin:miter;stroke-width:0.8;"/>
   </g>
   <g id="legend_1">
    <g id="patch_7">
     <path d="M 266.682813 128.555313 
L 309.045313 128.555313 
L 309.045313 52.164688 
L 266.682813 52.164688 
z
" style="fill:#ffffff;opacity:0.8;stroke:#000000;stroke-linejoin:miter;"/>
    </g>
    <g id="line2d_30">
     <path d="M 270.682813 60.263125 
L 290.682813 60.263125 
" style="fill:none;stroke:#000080;stroke-linecap:square;"/>
    </g>
    <g id="line2d_31"/>
    <g id="text_13">
     <!-- 0 -->
     <g transform="translate(298.682813 63.763125)scale(0.1 -0.1)">
      <use xlink:href="#DejaVuSans-48"/>
     </g>
    </g>
    <g id="line2d_32">
     <path d="M 270.682813 74.94125 
L 290.682813 74.94125 
" style="fill:none;stroke:#ff00ff;stroke-linecap:square;"/>
    </g>
    <g id="line2d_33"/>
    <g id="text_14">
     <!-- 1 -->
     <g transform="translate(298.682813 78.44125)scale(0.1 -0.1)">
      <use xlink:href="#DejaVuSans-49"/>
     </g>
    </g>
    <g id="line2d_34">
     <path d="M 270.682813 89.619375 
L 290.682813 89.619375 
" style="fill:none;stroke:#ffff00;stroke-linecap:square;"/>
    </g>
    <g id="line2d_35"/>
    <g id="text_15">
     <!-- 2 -->
     <g transform="translate(298.682813 93.119375)scale(0.1 -0.1)">
      <use xlink:href="#DejaVuSans-50"/>
     </g>
    </g>
    <g id="line2d_36">
     <path d="M 270.682813 104.2975 
L 290.682813 104.2975 
" style="fill:none;stroke:#00ffff;stroke-linecap:square;"/>
    </g>
    <g id="line2d_37"/>
    <g id="text_16">
     <!-- 3 -->
     <g transform="translate(298.682813 107.7975)scale(0.1 -0.1)">
      <use xlink:href="#DejaVuSans-51"/>
     </g>
    </g>
    <g id="line2d_38">
     <path d="M 270.682813 118.975625 
L 290.682813 118.975625 
" style="fill:none;stroke:#800080;stroke-linecap:square;"/>
    </g>
    <g id="line2d_39"/>
    <g id="text_17">
     <!-- 4 -->
     <g transform="translate(298.682813 122.475625)scale(0.1 -0.1)">
      <use xlink:href="#DejaVuSans-52"/>
     </g>
    </g>
   </g>
  </g>
 </g>
 <defs>
  <clipPath id="p020a795bec">
   <rect height="166.32" width="223.2" x="38.482813" y="7.2"/>
  </clipPath>
 </defs>
</svg>
