<?xml version="1.0" encoding="utf-8" standalone="no"?>
<!DOCTYPE svg PUBLIC "-//W3C//DTD SVG 1.1//EN"
  "http://www.w3.org/Graphics/SVG/1.1/DTD/svg11.dtd">
<!-- Created with matplotlib (https://matplotlib.org/) -->
<svg height="197.398125pt" version="1.1" viewBox="0 0 271.605313 197.398125" width="271.605313pt" xmlns="http://www.w3.org/2000/svg" xmlns:xlink="http://www.w3.org/1999/xlink">
 <defs>
  <style type="text/css">
*{stroke-linecap:butt;stroke-linejoin:round;white-space:pre;}
  </style>
 </defs>
 <g id="figure_1">
  <g id="patch_1">
   <path d="M 0 197.398125 
L 271.605313 197.398125 
L 271.605313 0 
L 0 0 
z
" style="fill:#333333;"/>
  </g>
  <g id="axes_1">
   <g id="patch_2">
    <path d="M 38.482813 173.52 
L 217.042813 173.52 
L 217.042813 7.2 
L 38.482813 7.2 
z
" style="fill:#333333;"/>
   </g>
   <g id="matplotlib.axis_1">
    <g id="xtick_1">
     <g id="line2d_1">
      <defs>
       <path d="M 0 0 
L 0 3.5 
" id="m53c35fc77b" style="stroke:#d9d9d9;stroke-width:0.8;"/>
      </defs>
      <g>
       <use style="fill:#d9d9d9;stroke:#d9d9d9;stroke-width:0.8;" x="46.599176" xlink:href="#m53c35fc77b" y="173.52"/>
      </g>
     </g>
     <g id="text_1">
      <!-- 0 -->
      <defs>
       <path d="M 31.78125 66.40625 
Q 24.171875 66.40625 20.328125 58.90625 
Q 16.5 51.421875 16.5 36.375 
Q 16.5 21.390625 20.328125 13.890625 
Q 24.171875 6.390625 31.78125 6.390625 
Q 39.453125 6.390625 43.28125 13.890625 
Q 47.125 21.390625 47.125 36.375 
Q 47.125 51.421875 43.28125 58.90625 
Q 39.453125 66.40625 31.78125 66.40625 
z
M 31.78125 74.21875 
Q 44.046875 74.21875 50.515625 64.515625 
Q 56.984375 54.828125 56.984375 36.375 
Q 56.984375 17.96875 50.515625 8.265625 
Q 44.046875 -1.421875 31.78125 -1.421875 
Q 19.53125 -1.421875 13.0625 8.265625 
Q 6.59375 17.96875 6.59375 36.375 
Q 6.59375 54.828125 13.0625 64.515625 
Q 19.53125 74.21875 31.78125 74.21875 
z
" id="DejaVuSans-48"/>
      </defs>
      <g style="fill:#d9d9d9;" transform="translate(43.417926 188.118438)scale(0.1 -0.1)">
       <use xlink:href="#DejaVuSans-48"/>
      </g>
     </g>
    </g>
    <g id="xtick_2">
     <g id="line2d_2">
      <g>
       <use style="fill:#d9d9d9;stroke:#d9d9d9;stroke-width:0.8;" x="87.180994" xlink:href="#m53c35fc77b" y="173.52"/>
      </g>
     </g>
     <g id="text_2">
      <!-- 1 -->
      <defs>
       <path d="M 12.40625 8.296875 
L 28.515625 8.296875 
L 28.515625 63.921875 
L 10.984375 60.40625 
L 10.984375 69.390625 
L 28.421875 72.90625 
L 38.28125 72.90625 
L 38.28125 8.296875 
L 54.390625 8.296875 
L 54.390625 0 
L 12.40625 0 
z
" id="DejaVuSans-49"/>
      </defs>
      <g style="fill:#d9d9d9;" transform="translate(83.999744 188.118438)scale(0.1 -0.1)">
       <use xlink:href="#DejaVuSans-49"/>
      </g>
     </g>
    </g>
    <g id="xtick_3">
     <g id="line2d_3">
      <g>
       <use style="fill:#d9d9d9;stroke:#d9d9d9;stroke-width:0.8;" x="127.762813" xlink:href="#m53c35fc77b" y="173.52"/>
      </g>
     </g>
     <g id="text_3">
      <!-- 2 -->
      <defs>
       <path d="M 19.1875 8.296875 
L 53.609375 8.296875 
L 53.609375 0 
L 7.328125 0 
L 7.328125 8.296875 
Q 12.9375 14.109375 22.625 23.890625 
Q 32.328125 33.6875 34.8125 36.53125 
Q 39.546875 41.84375 41.421875 45.53125 
Q 43.3125 49.21875 43.3125 52.78125 
Q 43.3125 58.59375 39.234375 62.25 
Q 35.15625 65.921875 28.609375 65.921875 
Q 23.96875 65.921875 18.8125 64.3125 
Q 13.671875 62.703125 7.8125 59.421875 
L 7.8125 69.390625 
Q 13.765625 71.78125 18.9375 73 
Q 24.125 74.21875 28.421875 74.21875 
Q 39.75 74.21875 46.484375 68.546875 
Q 53.21875 62.890625 53.21875 53.421875 
Q 53.21875 48.921875 51.53125 44.890625 
Q 49.859375 40.875 45.40625 35.40625 
Q 44.1875 33.984375 37.640625 27.21875 
Q 31.109375 20.453125 19.1875 8.296875 
z
" id="DejaVuSans-50"/>
      </defs>
      <g style="fill:#d9d9d9;" transform="translate(124.581563 188.118438)scale(0.1 -0.1)">
       <use xlink:href="#DejaVuSans-50"/>
      </g>
     </g>
    </g>
    <g id="xtick_4">
     <g id="line2d_4">
      <g>
       <use style="fill:#d9d9d9;stroke:#d9d9d9;stroke-width:0.8;" x="168.344631" xlink:href="#m53c35fc77b" y="173.52"/>
      </g>
     </g>
     <g id="text_4">
      <!-- 3 -->
      <defs>
       <path d="M 40.578125 39.3125 
Q 47.65625 37.796875 51.625 33 
Q 55.609375 28.21875 55.609375 21.1875 
Q 55.609375 10.40625 48.1875 4.484375 
Q 40.765625 -1.421875 27.09375 -1.421875 
Q 22.515625 -1.421875 17.65625 -0.515625 
Q 12.796875 0.390625 7.625 2.203125 
L 7.625 11.71875 
Q 11.71875 9.328125 16.59375 8.109375 
Q 21.484375 6.890625 26.8125 6.890625 
Q 36.078125 6.890625 40.9375 10.546875 
Q 45.796875 14.203125 45.796875 21.1875 
Q 45.796875 27.640625 41.28125 31.265625 
Q 36.765625 34.90625 28.71875 34.90625 
L 20.21875 34.90625 
L 20.21875 43.015625 
L 29.109375 43.015625 
Q 36.375 43.015625 40.234375 45.921875 
Q 44.09375 48.828125 44.09375 54.296875 
Q 44.09375 59.90625 40.109375 62.90625 
Q 36.140625 65.921875 28.71875 65.921875 
Q 24.65625 65.921875 20.015625 65.03125 
Q 15.375 64.15625 9.8125 62.3125 
L 9.8125 71.09375 
Q 15.4375 72.65625 20.34375 73.4375 
Q 25.25 74.21875 29.59375 74.21875 
Q 40.828125 74.21875 47.359375 69.109375 
Q 53.90625 64.015625 53.90625 55.328125 
Q 53.90625 49.265625 50.4375 45.09375 
Q 46.96875 40.921875 40.578125 39.3125 
z
" id="DejaVuSans-51"/>
      </defs>
      <g style="fill:#d9d9d9;" transform="translate(165.163381 188.118438)scale(0.1 -0.1)">
       <use xlink:href="#DejaVuSans-51"/>
      </g>
     </g>
    </g>
    <g id="xtick_5">
     <g id="line2d_5">
      <g>
       <use style="fill:#d9d9d9;stroke:#d9d9d9;stroke-width:0.8;" x="208.926449" xlink:href="#m53c35fc77b" y="173.52"/>
      </g>
     </g>
     <g id="text_5">
      <!-- 4 -->
      <defs>
       <path d="M 37.796875 64.3125 
L 12.890625 25.390625 
L 37.796875 25.390625 
z
M 35.203125 72.90625 
L 47.609375 72.90625 
L 47.609375 25.390625 
L 58.015625 25.390625 
L 58.015625 17.1875 
L 47.609375 17.1875 
L 47.609375 0 
L 37.796875 0 
L 37.796875 17.1875 
L 4.890625 17.1875 
L 4.890625 26.703125 
z
" id="DejaVuSans-52"/>
      </defs>
      <g style="fill:#d9d9d9;" transform="translate(205.745199 188.118438)scale(0.1 -0.1)">
       <use xlink:href="#DejaVuSans-52"/>
      </g>
     </g>
    </g>
   </g>
   <g id="matplotlib.axis_2">
    <g id="ytick_1">
     <g id="line2d_6">
      <defs>
       <path d="M 0 0 
L -3.5 0 
" id="mcb53f0e334" style="stroke:#d9d9d9;stroke-width:0.8;"/>
      </defs>
      <g>
       <use style="fill:#d9d9d9;stroke:#d9d9d9;stroke-width:0.8;" x="38.482813" xlink:href="#mcb53f0e334" y="163.853828"/>
      </g>
     </g>
     <g id="text_6">
      <!-- −0.2 -->
      <defs>
       <path d="M 10.59375 35.5 
L 73.1875 35.5 
L 73.1875 27.203125 
L 10.59375 27.203125 
z
" id="DejaVuSans-8722"/>
       <path d="M 10.6875 12.40625 
L 21 12.40625 
L 21 0 
L 10.6875 0 
z
" id="DejaVuSans-46"/>
      </defs>
      <g style="fill:#d9d9d9;" transform="translate(7.2 167.653047)scale(0.1 -0.1)">
       <use xlink:href="#DejaVuSans-8722"/>
       <use x="83.789062" xlink:href="#DejaVuSans-48"/>
       <use x="147.412109" xlink:href="#DejaVuSans-46"/>
       <use x="179.199219" xlink:href="#DejaVuSans-50"/>
      </g>
     </g>
    </g>
    <g id="ytick_2">
     <g id="line2d_7">
      <g>
       <use style="fill:#d9d9d9;stroke:#d9d9d9;stroke-width:0.8;" x="38.482813" xlink:href="#mcb53f0e334" y="139.004857"/>
      </g>
     </g>
     <g id="text_7">
      <!-- 0.0 -->
      <g style="fill:#d9d9d9;" transform="translate(15.579688 142.804075)scale(0.1 -0.1)">
       <use xlink:href="#DejaVuSans-48"/>
       <use x="63.623047" xlink:href="#DejaVuSans-46"/>
       <use x="95.410156" xlink:href="#DejaVuSans-48"/>
      </g>
     </g>
    </g>
    <g id="ytick_3">
     <g id="line2d_8">
      <g>
       <use style="fill:#d9d9d9;stroke:#d9d9d9;stroke-width:0.8;" x="38.482813" xlink:href="#mcb53f0e334" y="114.155885"/>
      </g>
     </g>
     <g id="text_8">
      <!-- 0.2 -->
      <g style="fill:#d9d9d9;" transform="translate(15.579688 117.955104)scale(0.1 -0.1)">
       <use xlink:href="#DejaVuSans-48"/>
       <use x="63.623047" xlink:href="#DejaVuSans-46"/>
       <use x="95.410156" xlink:href="#DejaVuSans-50"/>
      </g>
     </g>
    </g>
    <g id="ytick_4">
     <g id="line2d_9">
      <g>
       <use style="fill:#d9d9d9;stroke:#d9d9d9;stroke-width:0.8;" x="38.482813" xlink:href="#mcb53f0e334" y="89.306914"/>
      </g>
     </g>
     <g id="text_9">
      <!-- 0.4 -->
      <g style="fill:#d9d9d9;" transform="translate(15.579688 93.106133)scale(0.1 -0.1)">
       <use xlink:href="#DejaVuSans-48"/>
       <use x="63.623047" xlink:href="#DejaVuSans-46"/>
       <use x="95.410156" xlink:href="#DejaVuSans-52"/>
      </g>
     </g>
    </g>
    <g id="ytick_5">
     <g id="line2d_10">
      <g>
       <use style="fill:#d9d9d9;stroke:#d9d9d9;stroke-width:0.8;" x="38.482813" xlink:href="#mcb53f0e334" y="64.457943"/>
      </g>
     </g>
     <g id="text_10">
      <!-- 0.6 -->
      <defs>
       <path d="M 33.015625 40.375 
Q 26.375 40.375 22.484375 35.828125 
Q 18.609375 31.296875 18.609375 23.390625 
Q 18.609375 15.53125 22.484375 10.953125 
Q 26.375 6.390625 33.015625 6.390625 
Q 39.65625 6.390625 43.53125 10.953125 
Q 47.40625 15.53125 47.40625 23.390625 
Q 47.40625 31.296875 43.53125 35.828125 
Q 39.65625 40.375 33.015625 40.375 
z
M 52.59375 71.296875 
L 52.59375 62.3125 
Q 48.875 64.0625 45.09375 64.984375 
Q 41.3125 65.921875 37.59375 65.921875 
Q 27.828125 65.921875 22.671875 59.328125 
Q 17.53125 52.734375 16.796875 39.40625 
Q 19.671875 43.65625 24.015625 45.921875 
Q 28.375 48.1875 33.59375 48.1875 
Q 44.578125 48.1875 50.953125 41.515625 
Q 57.328125 34.859375 57.328125 23.390625 
Q 57.328125 12.15625 50.6875 5.359375 
Q 44.046875 -1.421875 33.015625 -1.421875 
Q 20.359375 -1.421875 13.671875 8.265625 
Q 6.984375 17.96875 6.984375 36.375 
Q 6.984375 53.65625 15.1875 63.9375 
Q 23.390625 74.21875 37.203125 74.21875 
Q 40.921875 74.21875 44.703125 73.484375 
Q 48.484375 72.75 52.59375 71.296875 
z
" id="DejaVuSans-54"/>
      </defs>
      <g style="fill:#d9d9d9;" transform="translate(15.579688 68.257161)scale(0.1 -0.1)">
       <use xlink:href="#DejaVuSans-48"/>
       <use x="63.623047" xlink:href="#DejaVuSans-46"/>
       <use x="95.410156" xlink:href="#DejaVuSans-54"/>
      </g>
     </g>
    </g>
    <g id="ytick_6">
     <g id="line2d_11">
      <g>
       <use style="fill:#d9d9d9;stroke:#d9d9d9;stroke-width:0.8;" x="38.482813" xlink:href="#mcb53f0e334" y="39.608971"/>
      </g>
     </g>
     <g id="text_11">
      <!-- 0.8 -->
      <defs>
       <path d="M 31.78125 34.625 
Q 24.75 34.625 20.71875 30.859375 
Q 16.703125 27.09375 16.703125 20.515625 
Q 16.703125 13.921875 20.71875 10.15625 
Q 24.75 6.390625 31.78125 6.390625 
Q 38.8125 6.390625 42.859375 10.171875 
Q 46.921875 13.96875 46.921875 20.515625 
Q 46.921875 27.09375 42.890625 30.859375 
Q 38.875 34.625 31.78125 34.625 
z
M 21.921875 38.8125 
Q 15.578125 40.375 12.03125 44.71875 
Q 8.5 49.078125 8.5 55.328125 
Q 8.5 64.0625 14.71875 69.140625 
Q 20.953125 74.21875 31.78125 74.21875 
Q 42.671875 74.21875 48.875 69.140625 
Q 55.078125 64.0625 55.078125 55.328125 
Q 55.078125 49.078125 51.53125 44.71875 
Q 48 40.375 41.703125 38.8125 
Q 48.828125 37.15625 52.796875 32.3125 
Q 56.78125 27.484375 56.78125 20.515625 
Q 56.78125 9.90625 50.3125 4.234375 
Q 43.84375 -1.421875 31.78125 -1.421875 
Q 19.734375 -1.421875 13.25 4.234375 
Q 6.78125 9.90625 6.78125 20.515625 
Q 6.78125 27.484375 10.78125 32.3125 
Q 14.796875 37.15625 21.921875 38.8125 
z
M 18.3125 54.390625 
Q 18.3125 48.734375 21.84375 45.5625 
Q 25.390625 42.390625 31.78125 42.390625 
Q 38.140625 42.390625 41.71875 45.5625 
Q 45.3125 48.734375 45.3125 54.390625 
Q 45.3125 60.0625 41.71875 63.234375 
Q 38.140625 66.40625 31.78125 66.40625 
Q 25.390625 66.40625 21.84375 63.234375 
Q 18.3125 60.0625 18.3125 54.390625 
z
" id="DejaVuSans-56"/>
      </defs>
      <g style="fill:#d9d9d9;" transform="translate(15.579688 43.40819)scale(0.1 -0.1)">
       <use xlink:href="#DejaVuSans-48"/>
       <use x="63.623047" xlink:href="#DejaVuSans-46"/>
       <use x="95.410156" xlink:href="#DejaVuSans-56"/>
      </g>
     </g>
    </g>
    <g id="ytick_7">
     <g id="line2d_12">
      <g>
       <use style="fill:#d9d9d9;stroke:#d9d9d9;stroke-width:0.8;" x="38.482813" xlink:href="#mcb53f0e334" y="14.76"/>
      </g>
     </g>
     <g id="text_12">
      <!-- 1.0 -->
      <g style="fill:#d9d9d9;" transform="translate(15.579688 18.559219)scale(0.1 -0.1)">
       <use xlink:href="#DejaVuSans-49"/>
       <use x="63.623047" xlink:href="#DejaVuSans-46"/>
       <use x="95.410156" xlink:href="#DejaVuSans-48"/>
      </g>
     </g>
    </g>
   </g>
   <g id="line2d_13">
    <path clip-path="url(#p1517375d68)" d="M 46.599176 14.76 
L 48.238846 15.093375 
L 49.878515 16.090272 
L 51.518184 17.741068 
L 53.157854 20.029854 
L 54.797523 22.934609 
L 56.437193 26.427459 
L 58.076862 30.474993 
L 59.716532 35.038645 
L 61.356201 40.075135 
L 62.99587 45.536963 
L 64.63554 51.372944 
L 66.275209 57.52879 
L 67.914879 63.94772 
L 69.554548 70.571093 
L 71.194217 77.339067 
L 72.833887 84.191256 
L 74.473556 91.067396 
L 76.113226 97.908001 
L 77.752895 104.655004 
L 79.392565 111.252373 
L 81.032234 117.646705 
L 82.671903 123.787774 
L 84.311573 129.62904 
L 85.951242 135.128109 
L 87.590912 140.247135 
L 89.230581 144.953171 
L 90.870251 149.218446 
L 92.50992 153.020587 
L 94.149589 156.342769 
L 95.789259 159.173799 
L 97.428928 161.508124 
L 99.068598 163.345783 
L 100.708267 164.692283 
L 102.347936 165.558413 
L 103.987606 165.96 
L 105.627275 165.917606 
L 107.266945 165.456172 
L 108.906614 164.604612 
L 110.546284 163.395374 
L 112.185953 161.863957 
L 113.825622 160.048402 
L 115.465292 157.988766 
L 117.104961 155.726572 
L 118.744631 153.304262 
L 120.3843 150.76464 
L 122.02397 148.15033 
L 123.663639 145.503245 
L 125.303308 142.864071 
L 126.942978 140.27179 
L 128.582647 137.763223 
L 130.222317 135.372617 
L 131.861986 133.131278 
L 133.501655 131.067242 
L 135.141325 129.205007 
L 136.780994 127.565305 
L 138.420664 126.164944 
L 140.060333 125.016692 
L 141.700003 124.12923 
L 143.339672 123.507149 
L 144.979341 123.151011 
L 146.619011 123.057463 
L 148.25868 123.219393 
L 149.89835 123.626145 
L 151.538019 124.263769 
L 153.177689 125.115314 
L 154.817358 126.161157 
L 156.457027 127.379356 
L 158.096697 128.746033 
L 159.736366 130.235772 
L 161.376036 131.82203 
L 163.015705 133.477551 
L 164.655374 135.174786 
L 166.295044 136.886305 
L 167.934713 138.585194 
L 169.574383 140.245442 
L 171.214052 141.842301 
L 172.853722 143.35262 
L 174.493391 144.755152 
L 176.13306 146.030824 
L 177.77273 147.162968 
L 179.412399 148.13751 
L 181.052069 148.943127 
L 182.691738 149.571348 
L 184.331408 150.016617 
L 185.971077 150.27631 
L 187.610746 150.350711 
L 189.250416 150.24294 
L 190.890085 149.958849 
L 192.529755 149.506868 
L 194.169424 148.897828 
L 195.809093 148.14474 
L 197.448763 147.262559 
L 199.088432 146.267908 
L 200.728102 145.178798 
L 202.367771 144.014322 
L 204.007441 142.794341 
L 205.64711 141.539168 
L 207.286779 140.26925 
L 208.926449 139.004847 
" style="fill:none;stroke:#04d9d9;stroke-linecap:square;stroke-width:2;"/>
   </g>
   <g id="line2d_14">
    <path clip-path="url(#p1517375d68)" d="M 46.599176 76.882428 
L 48.238846 77.049116 
L 49.878515 77.547564 
L 51.518184 78.372962 
L 53.157854 79.517355 
L 54.797523 80.969733 
L 56.437193 82.716158 
L 58.076862 84.739925 
L 59.716532 87.021751 
L 61.356201 89.539996 
L 62.99587 92.27091 
L 64.63554 95.1889 
L 66.275209 98.266824 
L 67.914879 101.476288 
L 69.554548 104.787975 
L 71.194217 108.171962 
L 72.833887 111.598056 
L 74.473556 115.036127 
L 76.113226 118.456429 
L 77.752895 121.82993 
L 79.392565 125.128615 
L 81.032234 128.325781 
L 82.671903 131.396315 
L 84.311573 134.316948 
L 85.951242 137.066483 
L 87.590912 139.625996 
L 89.230581 141.979014 
L 90.870251 144.111651 
L 92.50992 146.012722 
L 94.149589 147.673813 
L 95.789259 149.089328 
L 97.428928 150.25649 
L 99.068598 151.17532 
L 100.708267 151.84857 
L 102.347936 152.281635 
L 103.987606 152.482428 
L 105.627275 152.461232 
L 107.266945 152.230514 
L 108.906614 151.804734 
L 110.546284 151.200115 
L 112.185953 150.434407 
L 113.825622 149.526629 
L 115.465292 148.496811 
L 117.104961 147.365714 
L 118.744631 146.154559 
L 120.3843 144.884748 
L 122.02397 143.577593 
L 123.663639 142.254051 
L 125.303308 140.934464 
L 126.942978 139.638323 
L 128.582647 138.38404 
L 130.222317 137.188737 
L 131.861986 136.068067 
L 133.501655 135.036049 
L 135.141325 134.104932 
L 136.780994 133.285081 
L 138.420664 132.5849 
L 140.060333 132.010774 
L 141.700003 131.567043 
L 143.339672 131.256003 
L 144.979341 131.077934 
L 146.619011 131.03116 
L 148.25868 131.112125 
L 149.89835 131.315501 
L 151.538019 131.634313 
L 153.177689 132.060086 
L 154.817358 132.583007 
L 156.457027 133.192106 
L 158.096697 133.875445 
L 159.736366 134.620314 
L 161.376036 135.413443 
L 163.015705 136.241204 
L 164.655374 137.089821 
L 166.295044 137.945581 
L 167.934713 138.795025 
L 169.574383 139.625149 
L 171.214052 140.423579 
L 172.853722 141.178738 
L 174.493391 141.880004 
L 176.13306 142.517841 
L 177.77273 143.083912 
L 179.412399 143.571183 
L 181.052069 143.973992 
L 182.691738 144.288103 
L 184.331408 144.510737 
L 185.971077 144.640583 
L 187.610746 144.677784 
L 189.250416 144.623898 
L 190.890085 144.481853 
L 192.529755 144.255862 
L 194.169424 143.951342 
L 195.809093 143.574798 
L 197.448763 143.133708 
L 199.088432 142.636382 
L 200.728102 142.091828 
L 202.367771 141.509589 
L 204.007441 140.899599 
L 205.64711 140.272012 
L 207.286779 139.637053 
L 208.926449 139.004852 
" style="fill:none;stroke:#f241a3;stroke-linecap:square;stroke-width:2;"/>
   </g>
   <g id="line2d_15">
    <path clip-path="url(#p1517375d68)" d="M 46.599176 97.589904 
L 48.238846 97.70103 
L 49.878515 98.033328 
L 51.518184 98.583594 
L 53.157854 99.346522 
L 54.797523 100.314774 
L 56.437193 101.479058 
L 58.076862 102.828235 
L 59.716532 104.349453 
L 61.356201 106.028283 
L 62.99587 107.848892 
L 64.63554 109.794219 
L 66.275209 111.846168 
L 67.914879 113.985811 
L 69.554548 116.193602 
L 71.194217 118.449593 
L 72.833887 120.733656 
L 74.473556 123.025703 
L 76.113226 125.305905 
L 77.752895 127.554906 
L 79.392565 129.754029 
L 81.032234 131.885473 
L 82.671903 133.932496 
L 84.311573 135.879584 
L 85.951242 137.712607 
L 87.590912 139.41895 
L 89.230581 140.987628 
L 90.870251 142.409386 
L 92.50992 143.676767 
L 94.149589 144.784161 
L 95.789259 145.727837 
L 97.428928 146.505946 
L 99.068598 147.118499 
L 100.708267 147.567332 
L 102.347936 147.856042 
L 103.987606 147.989904 
L 105.627275 147.975773 
L 107.266945 147.821962 
L 108.906614 147.538108 
L 110.546284 147.135029 
L 112.185953 146.624557 
L 113.825622 146.019372 
L 115.465292 145.332826 
L 117.104961 144.578762 
L 118.744631 143.771325 
L 120.3843 142.924784 
L 122.02397 142.053348 
L 123.663639 141.170986 
L 125.303308 140.291261 
L 126.942978 139.427168 
L 128.582647 138.590979 
L 130.222317 137.79411 
L 131.861986 137.046997 
L 133.501655 136.358985 
L 135.141325 135.73824 
L 136.780994 135.191673 
L 138.420664 134.724886 
L 140.060333 134.342135 
L 141.700003 134.046314 
L 143.339672 133.838954 
L 144.979341 133.720242 
L 146.619011 133.689059 
L 148.25868 133.743036 
L 149.89835 133.87862 
L 151.538019 134.091161 
L 153.177689 134.375009 
L 154.817358 134.723623 
L 156.457027 135.12969 
L 158.096697 135.585249 
L 159.736366 136.081829 
L 161.376036 136.610581 
L 163.015705 137.162421 
L 164.655374 137.728166 
L 166.295044 138.298673 
L 167.934713 138.864969 
L 169.574383 139.418385 
L 171.214052 139.950671 
L 172.853722 140.454111 
L 174.493391 140.921622 
L 176.13306 141.346846 
L 177.77273 141.724227 
L 179.412399 142.049074 
L 181.052069 142.317614 
L 182.691738 142.527021 
L 184.331408 142.675443 
L 185.971077 142.762008 
L 187.610746 142.786808 
L 189.250416 142.750884 
L 190.890085 142.656187 
L 192.529755 142.505527 
L 194.169424 142.302514 
L 195.809093 142.051484 
L 197.448763 141.757424 
L 199.088432 141.425874 
L 200.728102 141.062837 
L 202.367771 140.674678 
L 204.007441 140.268018 
L 205.64711 139.849627 
L 207.286779 139.426321 
L 208.926449 139.004853 
" style="fill:none;stroke:#fa851e;stroke-linecap:square;stroke-width:2;"/>
   </g>
   <g id="line2d_16">
    <path clip-path="url(#p1517375d68)" d="M 46.599176 107.943642 
L 48.238846 108.026986 
L 49.878515 108.27621 
L 51.518184 108.68891 
L 53.157854 109.261106 
L 54.797523 109.987295 
L 56.437193 110.860507 
L 58.076862 111.872391 
L 59.716532 113.013304 
L 61.356201 114.272426 
L 62.99587 115.637883 
L 64.63554 117.096879 
L 66.275209 118.63584 
L 67.914879 120.240572 
L 69.554548 121.896416 
L 71.194217 123.588409 
L 72.833887 125.301456 
L 74.473556 127.020492 
L 76.113226 128.730643 
L 77.752895 130.417393 
L 79.392565 132.066736 
L 81.032234 133.665319 
L 82.671903 135.200586 
L 84.311573 136.660902 
L 85.951242 138.03567 
L 87.590912 139.315426 
L 89.230581 140.491935 
L 90.870251 141.558254 
L 92.50992 142.508789 
L 94.149589 143.339335 
L 95.789259 144.047092 
L 97.428928 144.630673 
L 99.068598 145.090088 
L 100.708267 145.426713 
L 102.347936 145.643246 
L 103.987606 145.743642 
L 105.627275 145.733044 
L 107.266945 145.617685 
L 108.906614 145.404795 
L 110.546284 145.102486 
L 112.185953 144.719632 
L 113.825622 144.265743 
L 115.465292 143.750834 
L 117.104961 143.185286 
L 118.744631 142.579708 
L 120.3843 141.944802 
L 122.02397 141.291225 
L 123.663639 140.629454 
L 125.303308 139.96966 
L 126.942978 139.32159 
L 128.582647 138.694448 
L 130.222317 138.096797 
L 131.861986 137.536462 
L 133.501655 137.020453 
L 135.141325 136.554894 
L 136.780994 136.144969 
L 138.420664 135.794878 
L 140.060333 135.507816 
L 141.700003 135.28595 
L 143.339672 135.13043 
L 144.979341 135.041395 
L 146.619011 135.018008 
L 148.25868 135.058491 
L 149.89835 135.160179 
L 151.538019 135.319585 
L 153.177689 135.532471 
L 154.817358 135.793932 
L 156.457027 136.098481 
L 158.096697 136.440151 
L 159.736366 136.812586 
L 161.376036 137.20915 
L 163.015705 137.62303 
L 164.655374 138.047339 
L 166.295044 138.475219 
L 167.934713 138.899941 
L 169.574383 139.315003 
L 171.214052 139.714218 
L 172.853722 140.091797 
L 174.493391 140.442431 
L 176.13306 140.761349 
L 177.77273 141.044384 
L 179.412399 141.28802 
L 181.052069 141.489424 
L 182.691738 141.64648 
L 184.331408 141.757797 
L 185.971077 141.82272 
L 187.610746 141.84132 
L 189.250416 141.814377 
L 190.890085 141.743355 
L 192.529755 141.630359 
L 194.169424 141.478099 
L 195.809093 141.289828 
L 197.448763 141.069282 
L 199.088432 140.82062 
L 200.728102 140.548342 
L 202.367771 140.257223 
L 204.007441 139.952228 
L 205.64711 139.638435 
L 207.286779 139.320955 
L 208.926449 139.004854 
" style="fill:none;stroke:#bfd91a;stroke-linecap:square;stroke-width:2;"/>
   </g>
   <g id="line2d_17">
    <path clip-path="url(#p1517375d68)" d="M 46.599176 114.155885 
L 48.238846 114.22256 
L 49.878515 114.42194 
L 51.518184 114.752099 
L 53.157854 115.209856 
L 54.797523 115.790807 
L 56.437193 116.489377 
L 58.076862 117.298884 
L 59.716532 118.211614 
L 61.356201 119.218912 
L 62.99587 120.311278 
L 64.63554 121.478474 
L 66.275209 122.709643 
L 67.914879 123.993429 
L 69.554548 125.318104 
L 71.194217 126.671699 
L 72.833887 128.042137 
L 74.473556 129.417365 
L 76.113226 130.785486 
L 77.752895 132.134886 
L 79.392565 133.45436 
L 81.032234 134.733226 
L 82.671903 135.96144 
L 84.311573 137.129693 
L 85.951242 138.229507 
L 87.590912 139.253312 
L 89.230581 140.194519 
L 90.870251 141.047574 
L 92.50992 141.808003 
L 94.149589 142.472439 
L 95.789259 143.038645 
L 97.428928 143.50551 
L 99.068598 143.873042 
L 100.708267 144.142342 
L 102.347936 144.315568 
L 103.987606 144.395885 
L 105.627275 144.387407 
L 107.266945 144.29512 
L 108.906614 144.124808 
L 110.546284 143.88296 
L 112.185953 143.576677 
L 113.825622 143.213566 
L 115.465292 142.801639 
L 117.104961 142.3492 
L 118.744631 141.864738 
L 120.3843 141.356813 
L 122.02397 140.833951 
L 123.663639 140.304534 
L 125.303308 139.7767 
L 126.942978 139.258243 
L 128.582647 138.75653 
L 130.222317 138.278409 
L 131.861986 137.830141 
L 133.501655 137.417334 
L 135.141325 137.044887 
L 136.780994 136.716946 
L 138.420664 136.436874 
L 140.060333 136.207224 
L 141.700003 136.029731 
L 143.339672 135.905315 
L 144.979341 135.834088 
L 146.619011 135.815378 
L 148.25868 135.847764 
L 149.89835 135.929114 
L 151.538019 136.056639 
L 153.177689 136.226948 
L 154.817358 136.436117 
L 156.457027 136.679756 
L 158.096697 136.953092 
L 159.736366 137.25104 
L 161.376036 137.568291 
L 163.015705 137.899395 
L 164.655374 138.238843 
L 166.295044 138.581146 
L 167.934713 138.920924 
L 169.574383 139.252974 
L 171.214052 139.572345 
L 172.853722 139.874409 
L 174.493391 140.154916 
L 176.13306 140.41005 
L 177.77273 140.636479 
L 179.412399 140.831387 
L 181.052069 140.992511 
L 182.691738 141.118155 
L 184.331408 141.207209 
L 185.971077 141.259147 
L 187.610746 141.274027 
L 189.250416 141.252473 
L 190.890085 141.195655 
L 192.529755 141.105259 
L 194.169424 140.983451 
L 195.809093 140.832833 
L 197.448763 140.656397 
L 199.088432 140.457467 
L 200.728102 140.239645 
L 202.367771 140.00675 
L 204.007441 139.762753 
L 205.64711 139.511719 
L 207.286779 139.257735 
L 208.926449 139.004855 
" style="fill:none;stroke:#d9d9d9;stroke-linecap:square;stroke-width:2;"/>
   </g>
   <g id="patch_3">
    <path d="M 38.482813 173.52 
L 38.482813 7.2 
" style="fill:none;stroke:#d9d9d9;stroke-linecap:square;stroke-linejoin:miter;stroke-width:0.8;"/>
   </g>
   <g id="patch_4">
    <path d="M 217.042813 173.52 
L 217.042813 7.2 
" style="fill:none;stroke:#d9d9d9;stroke-linecap:square;stroke-linejoin:miter;stroke-width:0.8;"/>
   </g>
   <g id="patch_5">
    <path d="M 38.482813 173.52 
L 217.042813 173.52 
" style="fill:none;stroke:#d9d9d9;stroke-linecap:square;stroke-linejoin:miter;stroke-width:0.8;"/>
   </g>
   <g id="patch_6">
    <path d="M 38.482813 7.2 
L 217.042813 7.2 
" style="fill:none;stroke:#d9d9d9;stroke-linecap:square;stroke-linejoin:miter;stroke-width:0.8;"/>
   </g>
   <g id="legend_1">
    <g id="line2d_18">
     <path d="M 226.042813 103.458438 
L 246.042813 103.458438 
" style="fill:none;stroke:#04d9d9;stroke-linecap:square;stroke-width:2;"/>
    </g>
    <g id="line2d_19"/>
    <g id="text_13">
     <!-- 0 -->
     <g style="fill:#d9d9d9;" transform="translate(254.042813 106.958438)scale(0.1 -0.1)">
      <use xlink:href="#DejaVuSans-48"/>
     </g>
    </g>
    <g id="line2d_20">
     <path d="M 226.042813 118.136563 
L 246.042813 118.136563 
" style="fill:none;stroke:#f241a3;stroke-linecap:square;stroke-width:2;"/>
    </g>
    <g id="line2d_21"/>
    <g id="text_14">
     <!-- 1 -->
     <g style="fill:#d9d9d9;" transform="translate(254.042813 121.636563)scale(0.1 -0.1)">
      <use xlink:href="#DejaVuSans-49"/>
     </g>
    </g>
    <g id="line2d_22">
     <path d="M 226.042813 132.814688 
L 246.042813 132.814688 
" style="fill:none;stroke:#fa851e;stroke-linecap:square;stroke-width:2;"/>
    </g>
    <g id="line2d_23"/>
    <g id="text_15">
     <!-- 2 -->
     <g style="fill:#d9d9d9;" transform="translate(254.042813 136.314688)scale(0.1 -0.1)">
      <use xlink:href="#DejaVuSans-50"/>
     </g>
    </g>
    <g id="line2d_24">
     <path d="M 226.042813 147.492813 
L 246.042813 147.492813 
" style="fill:none;stroke:#bfd91a;stroke-linecap:square;stroke-width:2;"/>
    </g>
    <g id="line2d_25"/>
    <g id="text_16">
     <!-- 3 -->
     <g style="fill:#d9d9d9;" transform="translate(254.042813 150.992813)scale(0.1 -0.1)">
      <use xlink:href="#DejaVuSans-51"/>
     </g>
    </g>
    <g id="line2d_26">
     <path d="M 226.042813 162.170938 
L 246.042813 162.170938 
" style="fill:none;stroke:#d9d9d9;stroke-linecap:square;stroke-width:2;"/>
    </g>
    <g id="line2d_27"/>
    <g id="text_17">
     <!-- 4 -->
     <g style="fill:#d9d9d9;" transform="translate(254.042813 165.670938)scale(0.1 -0.1)">
      <use xlink:href="#DejaVuSans-52"/>
     </g>
    </g>
   </g>
  </g>
 </g>
 <defs>
  <clipPath id="p1517375d68">
   <rect height="166.32" width="178.56" x="38.482813" y="7.2"/>
  </clipPath>
 </defs>
</svg>
