<?xml version="1.0" encoding="utf-8" standalone="no"?>
<!DOCTYPE svg PUBLIC "-//W3C//DTD SVG 1.1//EN"
  "http://www.w3.org/Graphics/SVG/1.1/DTD/svg11.dtd">
<!-- Created with matplotlib (https://matplotlib.org/) -->
<svg height="344.16pt" version="1.1" viewBox="0 0 544.995 344.16" width="544.995pt" xmlns="http://www.w3.org/2000/svg" xmlns:xlink="http://www.w3.org/1999/xlink">
 <defs>
  <style type="text/css">
*{stroke-linecap:butt;stroke-linejoin:round;white-space:pre;}
  </style>
 </defs>
 <g id="figure_1">
  <g id="patch_1">
   <path d="M 0 344.16 
L 544.995 344.16 
L 544.995 0 
L 0 0 
z
" style="fill:#ffffff;"/>
  </g>
  <g id="axes_1">
   <g id="patch_2">
    <path d="M 44.695938 319.910625 
L 480.96 319.910625 
L 480.96 7.2 
L 44.695938 7.2 
z
" style="fill:#e5e5e5;"/>
   </g>
   <g id="matplotlib.axis_1">
    <g id="xtick_1">
     <g id="line2d_1">
      <defs>
       <path d="M 0 0 
L 0 -3.5 
" id="m4742c6ffec" style="stroke:#000000;stroke-width:0.8;"/>
      </defs>
      <g>
       <use style="stroke:#000000;stroke-width:0.8;" x="64.526122" xlink:href="#m4742c6ffec" y="319.910625"/>
      </g>
     </g>
     <g id="text_1">
      <!-- 0.0 -->
      <defs>
       <path d="M 31.78125 3.421875 
Q 39.265625 3.421875 42.96875 11.625 
Q 46.6875 19.828125 46.6875 36.375 
Q 46.6875 52.984375 42.96875 61.1875 
Q 39.265625 69.390625 31.78125 69.390625 
Q 24.3125 69.390625 20.59375 61.1875 
Q 16.890625 52.984375 16.890625 36.375 
Q 16.890625 19.828125 20.59375 11.625 
Q 24.3125 3.421875 31.78125 3.421875 
z
M 31.78125 -1.421875 
Q 19.921875 -1.421875 13.25 8.53125 
Q 6.59375 18.5 6.59375 36.375 
Q 6.59375 54.296875 13.25 64.25 
Q 19.921875 74.21875 31.78125 74.21875 
Q 43.703125 74.21875 50.34375 64.25 
Q 56.984375 54.296875 56.984375 36.375 
Q 56.984375 18.5 50.34375 8.53125 
Q 43.703125 -1.421875 31.78125 -1.421875 
z
" id="DejaVuSerif-48"/>
       <path d="M 9.421875 5.078125 
Q 9.421875 7.8125 11.28125 9.71875 
Q 13.140625 11.625 15.921875 11.625 
Q 18.609375 11.625 20.5 9.71875 
Q 22.40625 7.8125 22.40625 5.078125 
Q 22.40625 2.390625 20.5 0.484375 
Q 18.609375 -1.421875 15.921875 -1.421875 
Q 13.140625 -1.421875 11.28125 0.453125 
Q 9.421875 2.34375 9.421875 5.078125 
z
" id="DejaVuSerif-46"/>
      </defs>
      <g transform="translate(53.393935 334.048437)scale(0.14 -0.14)">
       <use xlink:href="#DejaVuSerif-48"/>
       <use x="63.623047" xlink:href="#DejaVuSerif-46"/>
       <use x="95.410156" xlink:href="#DejaVuSerif-48"/>
      </g>
     </g>
    </g>
    <g id="xtick_2">
     <g id="line2d_2">
      <g>
       <use style="stroke:#000000;stroke-width:0.8;" x="114.101584" xlink:href="#m4742c6ffec" y="319.910625"/>
      </g>
     </g>
     <g id="text_2">
      <!-- 0.5 -->
      <defs>
       <path d="M 50.296875 72.90625 
L 50.296875 64.890625 
L 16.890625 64.890625 
L 16.890625 44 
Q 19.4375 45.75 22.828125 46.625 
Q 26.21875 47.515625 30.421875 47.515625 
Q 42.234375 47.515625 49.0625 40.96875 
Q 55.90625 34.421875 55.90625 23.09375 
Q 55.90625 11.53125 49 5.046875 
Q 42.09375 -1.421875 29.59375 -1.421875 
Q 24.5625 -1.421875 19.28125 -0.1875 
Q 14.015625 1.03125 8.5 3.515625 
L 8.5 17.671875 
L 14.015625 17.671875 
Q 14.453125 10.75 18.421875 7.078125 
Q 22.40625 3.421875 29.59375 3.421875 
Q 37.3125 3.421875 41.453125 8.5 
Q 45.609375 13.578125 45.609375 23.09375 
Q 45.609375 32.5625 41.484375 37.609375 
Q 37.359375 42.671875 29.59375 42.671875 
Q 25.203125 42.671875 21.84375 41.109375 
Q 18.5 39.546875 15.921875 36.28125 
L 11.71875 36.28125 
L 11.71875 72.90625 
z
" id="DejaVuSerif-53"/>
      </defs>
      <g transform="translate(102.969396 334.048437)scale(0.14 -0.14)">
       <use xlink:href="#DejaVuSerif-48"/>
       <use x="63.623047" xlink:href="#DejaVuSerif-46"/>
       <use x="95.410156" xlink:href="#DejaVuSerif-53"/>
      </g>
     </g>
    </g>
    <g id="xtick_3">
     <g id="line2d_3">
      <g>
       <use style="stroke:#000000;stroke-width:0.8;" x="163.677045" xlink:href="#m4742c6ffec" y="319.910625"/>
      </g>
     </g>
     <g id="text_3">
      <!-- 1.0 -->
      <defs>
       <path d="M 14.203125 0 
L 14.203125 5.171875 
L 26.90625 5.171875 
L 26.90625 65.828125 
L 12.203125 56.296875 
L 12.203125 62.703125 
L 29.984375 74.21875 
L 36.71875 74.21875 
L 36.71875 5.171875 
L 49.421875 5.171875 
L 49.421875 0 
z
" id="DejaVuSerif-49"/>
      </defs>
      <g transform="translate(152.544858 334.048437)scale(0.14 -0.14)">
       <use xlink:href="#DejaVuSerif-49"/>
       <use x="63.623047" xlink:href="#DejaVuSerif-46"/>
       <use x="95.410156" xlink:href="#DejaVuSerif-48"/>
      </g>
     </g>
    </g>
    <g id="xtick_4">
     <g id="line2d_4">
      <g>
       <use style="stroke:#000000;stroke-width:0.8;" x="213.252507" xlink:href="#m4742c6ffec" y="319.910625"/>
      </g>
     </g>
     <g id="text_4">
      <!-- 1.5 -->
      <g transform="translate(202.12032 334.048437)scale(0.14 -0.14)">
       <use xlink:href="#DejaVuSerif-49"/>
       <use x="63.623047" xlink:href="#DejaVuSerif-46"/>
       <use x="95.410156" xlink:href="#DejaVuSerif-53"/>
      </g>
     </g>
    </g>
    <g id="xtick_5">
     <g id="line2d_5">
      <g>
       <use style="stroke:#000000;stroke-width:0.8;" x="262.827969" xlink:href="#m4742c6ffec" y="319.910625"/>
      </g>
     </g>
     <g id="text_5">
      <!-- 2.0 -->
      <defs>
       <path d="M 12.796875 55.515625 
L 7.328125 55.515625 
L 7.328125 68.5 
Q 12.546875 71.296875 17.84375 72.75 
Q 23.140625 74.21875 28.21875 74.21875 
Q 39.59375 74.21875 46.1875 68.703125 
Q 52.78125 63.1875 52.78125 53.71875 
Q 52.78125 43.015625 37.84375 28.125 
Q 36.671875 27 36.078125 26.421875 
L 17.671875 8.015625 
L 48.09375 8.015625 
L 48.09375 17 
L 53.8125 17 
L 53.8125 0 
L 6.78125 0 
L 6.78125 5.328125 
L 28.90625 27.390625 
Q 36.234375 34.71875 39.359375 40.84375 
Q 42.484375 46.96875 42.484375 53.71875 
Q 42.484375 61.078125 38.640625 65.234375 
Q 34.8125 69.390625 28.078125 69.390625 
Q 21.09375 69.390625 17.28125 65.921875 
Q 13.484375 62.453125 12.796875 55.515625 
z
" id="DejaVuSerif-50"/>
      </defs>
      <g transform="translate(251.695781 334.048437)scale(0.14 -0.14)">
       <use xlink:href="#DejaVuSerif-50"/>
       <use x="63.623047" xlink:href="#DejaVuSerif-46"/>
       <use x="95.410156" xlink:href="#DejaVuSerif-48"/>
      </g>
     </g>
    </g>
    <g id="xtick_6">
     <g id="line2d_6">
      <g>
       <use style="stroke:#000000;stroke-width:0.8;" x="312.40343" xlink:href="#m4742c6ffec" y="319.910625"/>
      </g>
     </g>
     <g id="text_6">
      <!-- 2.5 -->
      <g transform="translate(301.271243 334.048437)scale(0.14 -0.14)">
       <use xlink:href="#DejaVuSerif-50"/>
       <use x="63.623047" xlink:href="#DejaVuSerif-46"/>
       <use x="95.410156" xlink:href="#DejaVuSerif-53"/>
      </g>
     </g>
    </g>
    <g id="xtick_7">
     <g id="line2d_7">
      <g>
       <use style="stroke:#000000;stroke-width:0.8;" x="361.978892" xlink:href="#m4742c6ffec" y="319.910625"/>
      </g>
     </g>
     <g id="text_7">
      <!-- 3.0 -->
      <defs>
       <path d="M 9.71875 69.828125 
Q 15.4375 71.96875 20.671875 73.09375 
Q 25.921875 74.21875 30.515625 74.21875 
Q 41.21875 74.21875 47.21875 69.59375 
Q 53.21875 64.984375 53.21875 56.78125 
Q 53.21875 50.203125 49.0625 45.78125 
Q 44.921875 41.359375 37.3125 39.796875 
Q 46.296875 38.53125 51.25 33.28125 
Q 56.203125 28.03125 56.203125 19.671875 
Q 56.203125 9.46875 49.34375 4.015625 
Q 42.484375 -1.421875 29.59375 -1.421875 
Q 23.875 -1.421875 18.421875 -0.1875 
Q 12.984375 1.03125 7.625 3.515625 
L 7.625 17.671875 
L 13.09375 17.671875 
Q 13.578125 10.640625 17.828125 7.03125 
Q 22.078125 3.421875 29.78125 3.421875 
Q 37.25 3.421875 41.578125 7.734375 
Q 45.90625 12.0625 45.90625 19.578125 
Q 45.90625 28.171875 41.453125 32.59375 
Q 37.015625 37.015625 28.421875 37.015625 
L 23.78125 37.015625 
L 23.78125 42 
L 26.21875 42 
Q 34.765625 42 39.03125 45.53125 
Q 43.3125 49.078125 43.3125 56.203125 
Q 43.3125 62.59375 39.796875 65.984375 
Q 36.28125 69.390625 29.6875 69.390625 
Q 23.09375 69.390625 19.453125 66.265625 
Q 15.828125 63.140625 15.1875 56.984375 
L 9.71875 56.984375 
z
" id="DejaVuSerif-51"/>
      </defs>
      <g transform="translate(350.846705 334.048437)scale(0.14 -0.14)">
       <use xlink:href="#DejaVuSerif-51"/>
       <use x="63.623047" xlink:href="#DejaVuSerif-46"/>
       <use x="95.410156" xlink:href="#DejaVuSerif-48"/>
      </g>
     </g>
    </g>
    <g id="xtick_8">
     <g id="line2d_8">
      <g>
       <use style="stroke:#000000;stroke-width:0.8;" x="411.554354" xlink:href="#m4742c6ffec" y="319.910625"/>
      </g>
     </g>
     <g id="text_8">
      <!-- 3.5 -->
      <g transform="translate(400.422166 334.048437)scale(0.14 -0.14)">
       <use xlink:href="#DejaVuSerif-51"/>
       <use x="63.623047" xlink:href="#DejaVuSerif-46"/>
       <use x="95.410156" xlink:href="#DejaVuSerif-53"/>
      </g>
     </g>
    </g>
    <g id="xtick_9">
     <g id="line2d_9">
      <g>
       <use style="stroke:#000000;stroke-width:0.8;" x="461.129815" xlink:href="#m4742c6ffec" y="319.910625"/>
      </g>
     </g>
     <g id="text_9">
      <!-- 4.0 -->
      <defs>
       <path d="M 34.90625 24.703125 
L 34.90625 63.484375 
L 10.015625 24.703125 
z
M 56.390625 0 
L 23.1875 0 
L 23.1875 5.171875 
L 34.90625 5.171875 
L 34.90625 19.484375 
L 3.078125 19.484375 
L 3.078125 24.8125 
L 35.015625 74.21875 
L 44.671875 74.21875 
L 44.671875 24.703125 
L 58.59375 24.703125 
L 58.59375 19.484375 
L 44.671875 19.484375 
L 44.671875 5.171875 
L 56.390625 5.171875 
z
" id="DejaVuSerif-52"/>
      </defs>
      <g transform="translate(449.997628 334.048437)scale(0.14 -0.14)">
       <use xlink:href="#DejaVuSerif-52"/>
       <use x="63.623047" xlink:href="#DejaVuSerif-46"/>
       <use x="95.410156" xlink:href="#DejaVuSerif-48"/>
      </g>
     </g>
    </g>
   </g>
   <g id="matplotlib.axis_2">
    <g id="ytick_1">
     <g id="line2d_10">
      <defs>
       <path d="M 0 0 
L 3.5 0 
" id="m3d2881605d" style="stroke:#000000;stroke-width:0.8;"/>
      </defs>
      <g>
       <use style="stroke:#000000;stroke-width:0.8;" x="44.695938" xlink:href="#m3d2881605d" y="301.736535"/>
      </g>
     </g>
     <g id="text_10">
      <!-- −0.2 -->
      <defs>
       <path d="M 10.59375 35.296875 
L 73.1875 35.296875 
L 73.1875 27.390625 
L 10.59375 27.390625 
z
" id="DejaVuSerif-8722"/>
      </defs>
      <g transform="translate(7.2 307.055441)scale(0.14 -0.14)">
       <use xlink:href="#DejaVuSerif-8722"/>
       <use x="83.789062" xlink:href="#DejaVuSerif-48"/>
       <use x="147.412109" xlink:href="#DejaVuSerif-46"/>
       <use x="179.199219" xlink:href="#DejaVuSerif-50"/>
      </g>
     </g>
    </g>
    <g id="ytick_2">
     <g id="line2d_11">
      <g>
       <use style="stroke:#000000;stroke-width:0.8;" x="44.695938" xlink:href="#m3d2881605d" y="255.016132"/>
      </g>
     </g>
     <g id="text_11">
      <!-- 0.0 -->
      <g transform="translate(18.931563 260.335038)scale(0.14 -0.14)">
       <use xlink:href="#DejaVuSerif-48"/>
       <use x="63.623047" xlink:href="#DejaVuSerif-46"/>
       <use x="95.410156" xlink:href="#DejaVuSerif-48"/>
      </g>
     </g>
    </g>
    <g id="ytick_3">
     <g id="line2d_12">
      <g>
       <use style="stroke:#000000;stroke-width:0.8;" x="44.695938" xlink:href="#m3d2881605d" y="208.29573"/>
      </g>
     </g>
     <g id="text_12">
      <!-- 0.2 -->
      <g transform="translate(18.931563 213.614636)scale(0.14 -0.14)">
       <use xlink:href="#DejaVuSerif-48"/>
       <use x="63.623047" xlink:href="#DejaVuSerif-46"/>
       <use x="95.410156" xlink:href="#DejaVuSerif-50"/>
      </g>
     </g>
    </g>
    <g id="ytick_4">
     <g id="line2d_13">
      <g>
       <use style="stroke:#000000;stroke-width:0.8;" x="44.695938" xlink:href="#m3d2881605d" y="161.575327"/>
      </g>
     </g>
     <g id="text_13">
      <!-- 0.4 -->
      <g transform="translate(18.931563 166.894233)scale(0.14 -0.14)">
       <use xlink:href="#DejaVuSerif-48"/>
       <use x="63.623047" xlink:href="#DejaVuSerif-46"/>
       <use x="95.410156" xlink:href="#DejaVuSerif-52"/>
      </g>
     </g>
    </g>
    <g id="ytick_5">
     <g id="line2d_14">
      <g>
       <use style="stroke:#000000;stroke-width:0.8;" x="44.695938" xlink:href="#m3d2881605d" y="114.854924"/>
      </g>
     </g>
     <g id="text_14">
      <!-- 0.6 -->
      <defs>
       <path d="M 32.71875 3.421875 
Q 39.59375 3.421875 43.296875 8.46875 
Q 47.015625 13.53125 47.015625 23 
Q 47.015625 32.46875 43.296875 37.515625 
Q 39.59375 42.578125 32.71875 42.578125 
Q 25.734375 42.578125 22.0625 37.6875 
Q 18.40625 32.8125 18.40625 23.578125 
Q 18.40625 13.875 22.109375 8.640625 
Q 25.828125 3.421875 32.71875 3.421875 
z
M 16.796875 40.140625 
Q 20.125 43.796875 24.3125 45.59375 
Q 28.515625 47.40625 33.796875 47.40625 
Q 44.671875 47.40625 51 40.859375 
Q 57.328125 34.328125 57.328125 23 
Q 57.328125 11.921875 50.515625 5.25 
Q 43.703125 -1.421875 32.328125 -1.421875 
Q 19.96875 -1.421875 13.328125 7.78125 
Q 6.6875 17 6.6875 34.078125 
Q 6.6875 53.21875 14.546875 63.71875 
Q 22.40625 74.21875 36.71875 74.21875 
Q 40.578125 74.21875 44.828125 73.484375 
Q 49.078125 72.75 53.515625 71.296875 
L 53.515625 59.28125 
L 48 59.28125 
Q 47.40625 64.203125 44.234375 66.796875 
Q 41.0625 69.390625 35.6875 69.390625 
Q 26.21875 69.390625 21.578125 62.203125 
Q 16.9375 55.03125 16.796875 40.140625 
z
" id="DejaVuSerif-54"/>
      </defs>
      <g transform="translate(18.931563 120.173831)scale(0.14 -0.14)">
       <use xlink:href="#DejaVuSerif-48"/>
       <use x="63.623047" xlink:href="#DejaVuSerif-46"/>
       <use x="95.410156" xlink:href="#DejaVuSerif-54"/>
      </g>
     </g>
    </g>
    <g id="ytick_6">
     <g id="line2d_15">
      <g>
       <use style="stroke:#000000;stroke-width:0.8;" x="44.695938" xlink:href="#m3d2881605d" y="68.134522"/>
      </g>
     </g>
     <g id="text_15">
      <!-- 0.8 -->
      <defs>
       <path d="M 46.578125 19.921875 
Q 46.578125 27.734375 42.6875 32.046875 
Q 38.8125 36.375 31.78125 36.375 
Q 24.75 36.375 20.875 32.046875 
Q 17 27.734375 17 19.921875 
Q 17 12.0625 20.875 7.734375 
Q 24.75 3.421875 31.78125 3.421875 
Q 38.8125 3.421875 42.6875 7.734375 
Q 46.578125 12.0625 46.578125 19.921875 
z
M 44.578125 55.328125 
Q 44.578125 61.96875 41.203125 65.671875 
Q 37.84375 69.390625 31.78125 69.390625 
Q 25.78125 69.390625 22.390625 65.671875 
Q 19 61.96875 19 55.328125 
Q 19 48.640625 22.390625 44.921875 
Q 25.78125 41.21875 31.78125 41.21875 
Q 37.84375 41.21875 41.203125 44.921875 
Q 44.578125 48.640625 44.578125 55.328125 
z
M 39.3125 38.8125 
Q 47.609375 37.703125 52.25 32.6875 
Q 56.890625 27.6875 56.890625 19.921875 
Q 56.890625 9.671875 50.390625 4.125 
Q 43.890625 -1.421875 31.78125 -1.421875 
Q 19.734375 -1.421875 13.203125 4.125 
Q 6.6875 9.671875 6.6875 19.921875 
Q 6.6875 27.6875 11.328125 32.6875 
Q 15.96875 37.703125 24.3125 38.8125 
Q 16.9375 40.140625 13 44.40625 
Q 9.078125 48.6875 9.078125 55.328125 
Q 9.078125 64.109375 15.125 69.15625 
Q 21.1875 74.21875 31.78125 74.21875 
Q 42.390625 74.21875 48.4375 69.15625 
Q 54.5 64.109375 54.5 55.328125 
Q 54.5 48.6875 50.5625 44.40625 
Q 46.625 40.140625 39.3125 38.8125 
z
" id="DejaVuSerif-56"/>
      </defs>
      <g transform="translate(18.931563 73.453428)scale(0.14 -0.14)">
       <use xlink:href="#DejaVuSerif-48"/>
       <use x="63.623047" xlink:href="#DejaVuSerif-46"/>
       <use x="95.410156" xlink:href="#DejaVuSerif-56"/>
      </g>
     </g>
    </g>
    <g id="ytick_7">
     <g id="line2d_16">
      <g>
       <use style="stroke:#000000;stroke-width:0.8;" x="44.695938" xlink:href="#m3d2881605d" y="21.414119"/>
      </g>
     </g>
     <g id="text_16">
      <!-- 1.0 -->
      <g transform="translate(18.931563 26.733026)scale(0.14 -0.14)">
       <use xlink:href="#DejaVuSerif-49"/>
       <use x="63.623047" xlink:href="#DejaVuSerif-46"/>
       <use x="95.410156" xlink:href="#DejaVuSerif-48"/>
      </g>
     </g>
    </g>
   </g>
   <g id="line2d_17">
    <path clip-path="url(#p61164116d5)" d="M 64.526122 21.414119 
L 68.53222 22.040923 
L 72.538318 23.915262 
L 76.544416 27.019048 
L 80.550514 31.322365 
L 84.556612 36.783812 
L 88.56271 43.350979 
L 92.568808 50.961049 
L 96.574905 59.54151 
L 100.581003 69.010991 
L 104.587101 79.280181 
L 108.593199 90.252844 
L 112.599297 101.826909 
L 116.605395 113.895616 
L 120.611493 126.348714 
L 124.617591 139.073686 
L 128.623689 151.956998 
L 132.629787 164.885341 
L 136.635885 177.746873 
L 140.641982 190.432414 
L 144.64808 202.836619 
L 148.654178 214.859079 
L 152.660276 226.405361 
L 156.666374 237.387961 
L 160.672472 247.72717 
L 164.67857 257.351833 
L 168.684668 266.200001 
L 172.690766 274.219462 
L 176.696864 281.36815 
L 180.702962 287.614434 
L 184.709059 292.937263 
L 188.715157 297.326202 
L 192.721255 300.781322 
L 196.727353 303.312976 
L 200.733451 304.941451 
L 204.739549 305.696506 
L 208.745647 305.616798 
L 212.751745 304.749221 
L 216.757843 303.14814 
L 220.763941 300.874561 
L 224.770039 297.99523 
L 228.776137 294.58167 
L 232.782234 290.709195 
L 236.788332 286.455876 
L 240.79443 281.901509 
L 244.800528 277.126577 
L 248.806626 272.211219 
L 252.812724 267.234236 
L 256.818822 262.272129 
L 260.82492 257.398188 
L 264.831018 252.681644 
L 268.837116 248.186888 
L 272.843214 243.972779 
L 276.849311 240.092032 
L 280.855409 236.590704 
L 284.861507 233.507778 
L 288.867605 230.874855 
L 292.873703 228.715942 
L 296.879801 227.047358 
L 300.885899 225.877737 
L 304.891997 225.208137 
L 308.898095 225.032249 
L 312.904193 225.336707 
L 316.910291 226.101471 
L 320.916388 227.300315 
L 324.922486 228.901369 
L 328.928584 230.867735 
L 332.934682 233.158162 
L 336.94078 235.727753 
L 340.946878 238.528723 
L 344.952976 241.511164 
L 348.959074 244.623833 
L 352.965172 247.814931 
L 356.97127 251.032885 
L 360.977368 254.227094 
L 364.983465 257.348649 
L 368.989563 260.351022 
L 372.995661 263.190685 
L 377.001759 265.827691 
L 381.007857 268.226178 
L 385.013955 270.354804 
L 389.020053 272.187114 
L 393.026151 273.701816 
L 397.032249 274.882981 
L 401.038347 275.720164 
L 405.044445 276.208432 
L 409.050542 276.348317 
L 413.05664 276.14569 
L 417.062738 275.611549 
L 421.068836 274.761746 
L 425.074934 273.616644 
L 429.081032 272.200708 
L 433.08713 270.542053 
L 437.093228 268.671937 
L 441.099326 266.62422 
L 445.105424 264.434801 
L 449.111522 262.141024 
L 453.11762 259.78108 
L 457.123717 257.393411 
L 461.129815 255.016114 
" style="fill:none;stroke:#348abd;stroke-linecap:square;"/>
   </g>
   <g id="line2d_18">
    <path clip-path="url(#p61164116d5)" d="M 64.526122 138.215126 
L 68.53222 138.528528 
L 72.538318 139.465697 
L 76.544416 141.01759 
L 80.550514 143.169248 
L 84.556612 145.899972 
L 88.56271 149.183556 
L 92.568808 152.98859 
L 96.574905 157.278821 
L 100.581003 162.013562 
L 104.587101 167.148156 
L 108.593199 172.634488 
L 112.599297 178.421521 
L 116.605395 184.455874 
L 120.611493 190.682423 
L 124.617591 197.044909 
L 128.623689 203.486565 
L 132.629787 209.950737 
L 136.635885 216.381502 
L 140.641982 222.724273 
L 144.64808 228.926376 
L 148.654178 234.937606 
L 152.660276 240.710746 
L 156.666374 246.202046 
L 160.672472 251.371651 
L 164.67857 256.183983 
L 168.684668 260.608067 
L 172.690766 264.617797 
L 176.696864 268.192141 
L 180.702962 271.315283 
L 184.709059 273.976698 
L 188.715157 276.171167 
L 192.721255 277.898727 
L 196.727353 279.164554 
L 200.733451 279.978792 
L 204.739549 280.356319 
L 208.745647 280.316465 
L 212.751745 279.882676 
L 216.757843 279.082136 
L 220.763941 277.945347 
L 224.770039 276.505681 
L 228.776137 274.798901 
L 232.782234 272.862663 
L 236.788332 270.736004 
L 240.79443 268.458821 
L 244.800528 266.071354 
L 248.806626 263.613675 
L 252.812724 261.125184 
L 256.818822 258.644131 
L 260.82492 256.20716 
L 264.831018 253.848888 
L 268.837116 251.60151 
L 272.843214 249.494455 
L 276.849311 247.554082 
L 280.855409 245.803418 
L 284.861507 244.261955 
L 288.867605 242.945493 
L 292.873703 241.866037 
L 296.879801 241.031745 
L 300.885899 240.446934 
L 304.891997 240.112134 
L 308.898095 240.024191 
L 312.904193 240.176419 
L 316.910291 240.558802 
L 320.916388 241.158224 
L 324.922486 241.95875 
L 328.928584 242.941934 
L 332.934682 244.087147 
L 336.94078 245.371943 
L 340.946878 246.772428 
L 344.952976 248.263648 
L 348.959074 249.819982 
L 352.965172 251.415532 
L 356.97127 253.024509 
L 360.977368 254.621613 
L 364.983465 256.182391 
L 368.989563 257.683577 
L 372.995661 259.103409 
L 377.001759 260.421912 
L 381.007857 261.621155 
L 385.013955 262.685468 
L 389.020053 263.601623 
L 393.026151 264.358974 
L 397.032249 264.949556 
L 401.038347 265.368148 
L 405.044445 265.612282 
L 409.050542 265.682225 
L 413.05664 265.580911 
L 417.062738 265.31384 
L 421.068836 264.888939 
L 425.074934 264.316388 
L 429.081032 263.60842 
L 433.08713 262.779093 
L 437.093228 261.844034 
L 441.099326 260.820176 
L 445.105424 259.725467 
L 449.111522 258.578578 
L 453.11762 257.398606 
L 457.123717 256.204772 
L 461.129815 255.016123 
" style="fill:none;stroke:#7a68a6;stroke-linecap:square;"/>
   </g>
   <g id="line2d_19">
    <path clip-path="url(#p61164116d5)" d="M 64.526122 177.148795 
L 68.53222 177.357729 
L 72.538318 177.982509 
L 76.544416 179.017104 
L 80.550514 180.451543 
L 84.556612 182.272025 
L 88.56271 184.461081 
L 92.568808 186.997771 
L 96.574905 189.857925 
L 100.581003 193.014418 
L 104.587101 196.437482 
L 108.593199 200.095036 
L 112.599297 203.953058 
L 116.605395 207.97596 
L 120.611493 212.126993 
L 124.617591 216.36865 
L 128.623689 220.663087 
L 132.629787 224.972535 
L 136.635885 229.259712 
L 140.641982 233.488226 
L 144.64808 237.622961 
L 148.654178 241.630448 
L 152.660276 245.479208 
L 156.666374 249.140075 
L 160.672472 252.586478 
L 164.67857 255.794699 
L 168.684668 258.744088 
L 172.690766 261.417242 
L 176.696864 263.800138 
L 180.702962 265.882233 
L 184.709059 267.656509 
L 188.715157 269.119489 
L 192.721255 270.271195 
L 196.727353 271.11508 
L 200.733451 271.657905 
L 204.739549 271.90959 
L 208.745647 271.883021 
L 212.751745 271.593828 
L 216.757843 271.060135 
L 220.763941 270.302275 
L 224.770039 269.342498 
L 228.776137 268.204645 
L 232.782234 266.91382 
L 236.788332 265.496047 
L 240.79443 263.977925 
L 244.800528 262.38628 
L 248.806626 260.747828 
L 252.812724 259.088833 
L 256.818822 257.434798 
L 260.82492 255.810151 
L 264.831018 254.237969 
L 268.837116 252.739717 
L 272.843214 251.335014 
L 276.849311 250.041432 
L 280.855409 248.874323 
L 284.861507 247.846681 
L 288.867605 246.96904 
L 292.873703 246.249402 
L 296.879801 245.693207 
L 300.885899 245.303334 
L 304.891997 245.080134 
L 308.898095 245.021505 
L 312.904193 245.12299 
L 316.910291 245.377912 
L 320.916388 245.777527 
L 324.922486 246.311211 
L 328.928584 246.966666 
L 332.934682 247.730142 
L 336.94078 248.586672 
L 340.946878 249.520329 
L 344.952976 250.514476 
L 348.959074 251.552032 
L 352.965172 252.615732 
L 356.97127 253.688383 
L 360.977368 254.753119 
L 364.983465 255.793638 
L 368.989563 256.794429 
L 372.995661 257.740983 
L 377.001759 258.619985 
L 381.007857 259.419481 
L 385.013955 260.129023 
L 389.020053 260.739793 
L 393.026151 261.244693 
L 397.032249 261.638415 
L 401.038347 261.917476 
L 405.044445 262.080232 
L 409.050542 262.126861 
L 413.05664 262.059318 
L 417.062738 261.881271 
L 421.068836 261.598003 
L 425.074934 261.216303 
L 429.081032 260.744324 
L 433.08713 260.191439 
L 437.093228 259.568067 
L 441.099326 258.885495 
L 445.105424 258.155688 
L 449.111522 257.391096 
L 453.11762 256.604448 
L 457.123717 255.808559 
L 461.129815 255.016126 
" style="fill:none;stroke:#a60628;stroke-linecap:square;"/>
   </g>
   <g id="line2d_20">
    <path clip-path="url(#p61164116d5)" d="M 64.526122 196.615629 
L 68.53222 196.77233 
L 72.538318 197.240915 
L 76.544416 198.016861 
L 80.550514 199.09269 
L 84.556612 200.458052 
L 88.56271 202.099844 
L 92.568808 204.002361 
L 96.574905 206.147477 
L 100.581003 208.514847 
L 104.587101 211.082144 
L 108.593199 213.82531 
L 112.599297 216.718826 
L 116.605395 219.736003 
L 120.611493 222.849278 
L 124.617591 226.030521 
L 128.623689 229.251348 
L 132.629787 232.483434 
L 136.635885 235.698817 
L 140.641982 238.870203 
L 144.64808 241.971254 
L 148.654178 244.976869 
L 152.660276 247.863439 
L 156.666374 250.609089 
L 160.672472 253.193892 
L 164.67857 255.600057 
L 168.684668 257.812099 
L 172.690766 259.816965 
L 176.696864 261.604137 
L 180.702962 263.165707 
L 184.709059 264.496415 
L 188.715157 265.59365 
L 192.721255 266.45743 
L 196.727353 267.090343 
L 200.733451 267.497462 
L 204.739549 267.686226 
L 208.745647 267.666299 
L 212.751745 267.449404 
L 216.757843 267.049134 
L 220.763941 266.480739 
L 224.770039 265.760906 
L 228.776137 264.907517 
L 232.782234 263.939398 
L 236.788332 262.876068 
L 240.79443 261.737476 
L 244.800528 260.543743 
L 248.806626 259.314904 
L 252.812724 258.070658 
L 256.818822 256.830131 
L 260.82492 255.611646 
L 264.831018 254.43251 
L 268.837116 253.308821 
L 272.843214 252.255294 
L 276.849311 251.285107 
L 280.855409 250.409775 
L 284.861507 249.639044 
L 288.867605 248.980813 
L 292.873703 248.441085 
L 296.879801 248.023939 
L 300.885899 247.731533 
L 304.891997 247.564133 
L 308.898095 247.520161 
L 312.904193 247.596276 
L 316.910291 247.787467 
L 320.916388 248.087178 
L 324.922486 248.487441 
L 328.928584 248.979033 
L 332.934682 249.551639 
L 336.94078 250.194037 
L 340.946878 250.89428 
L 344.952976 251.63989 
L 348.959074 252.418057 
L 352.965172 253.215832 
L 356.97127 254.02032 
L 360.977368 254.818872 
L 364.983465 255.599261 
L 368.989563 256.349855 
L 372.995661 257.05977 
L 377.001759 257.719022 
L 381.007857 258.318644 
L 385.013955 258.8508 
L 389.020053 259.308878 
L 393.026151 259.687553 
L 397.032249 259.982844 
L 401.038347 260.19214 
L 405.044445 260.314207 
L 409.050542 260.349178 
L 413.05664 260.298522 
L 417.062738 260.164986 
L 421.068836 259.952536 
L 425.074934 259.66626 
L 429.081032 259.312276 
L 433.08713 258.897612 
L 437.093228 258.430083 
L 441.099326 257.918154 
L 445.105424 257.370799 
L 449.111522 256.797355 
L 453.11762 256.207369 
L 457.123717 255.610452 
L 461.129815 255.016127 
" style="fill:none;stroke:#467821;stroke-linecap:square;"/>
   </g>
   <g id="line2d_21">
    <path clip-path="url(#p61164116d5)" d="M 64.526122 208.29573 
L 68.53222 208.42109 
L 72.538318 208.795958 
L 76.544416 209.416715 
L 80.550514 210.277379 
L 84.556612 211.369668 
L 88.56271 212.683102 
L 92.568808 214.205115 
L 96.574905 215.921208 
L 100.581003 217.815104 
L 104.587101 219.868942 
L 108.593199 222.063474 
L 112.599297 224.378288 
L 116.605395 226.792029 
L 120.611493 229.282648 
L 124.617591 231.827643 
L 128.623689 234.404305 
L 132.629787 236.989974 
L 136.635885 239.56228 
L 140.641982 242.099388 
L 144.64808 244.580229 
L 148.654178 246.984722 
L 152.660276 249.293978 
L 156.666374 251.490498 
L 160.672472 253.55834 
L 164.67857 255.483272 
L 168.684668 257.252906 
L 172.690766 258.856798 
L 176.696864 260.286536 
L 180.702962 261.535792 
L 184.709059 262.600358 
L 188.715157 263.478146 
L 192.721255 264.16917 
L 196.727353 264.675501 
L 200.733451 265.001196 
L 204.739549 265.152207 
L 208.745647 265.136265 
L 212.751745 264.96275 
L 216.757843 264.642534 
L 220.763941 264.187818 
L 224.770039 263.611952 
L 228.776137 262.92924 
L 232.782234 262.154745 
L 236.788332 261.304081 
L 240.79443 260.393208 
L 244.800528 259.438221 
L 248.806626 258.455149 
L 252.812724 257.459753 
L 256.818822 256.467332 
L 260.82492 255.492543 
L 264.831018 254.549234 
L 268.837116 253.650283 
L 272.843214 252.807461 
L 276.849311 252.031312 
L 280.855409 251.331046 
L 284.861507 250.714461 
L 288.867605 250.187877 
L 292.873703 249.756094 
L 296.879801 249.422377 
L 300.885899 249.188453 
L 304.891997 249.054533 
L 308.898095 249.019356 
L 312.904193 249.080247 
L 316.910291 249.2332 
L 320.916388 249.472969 
L 324.922486 249.793179 
L 328.928584 250.186453 
L 332.934682 250.644538 
L 336.94078 251.158456 
L 340.946878 251.71865 
L 344.952976 252.315139 
L 348.959074 252.937672 
L 352.965172 253.575892 
L 356.97127 254.219483 
L 360.977368 254.858324 
L 364.983465 255.482636 
L 368.989563 256.08311 
L 372.995661 256.651043 
L 377.001759 257.178444 
L 381.007857 257.658141 
L 385.013955 258.083867 
L 389.020053 258.450329 
L 393.026151 258.753269 
L 397.032249 258.989502 
L 401.038347 259.156938 
L 405.044445 259.254592 
L 409.050542 259.282569 
L 413.05664 259.242044 
L 417.062738 259.135215 
L 421.068836 258.965255 
L 425.074934 258.736234 
L 429.081032 258.453047 
L 433.08713 258.121316 
L 437.093228 257.747293 
L 441.099326 257.33775 
L 445.105424 256.899866 
L 449.111522 256.44111 
L 453.11762 255.969122 
L 457.123717 255.491588 
L 461.129815 255.016128 
" style="fill:none;stroke:#cf4457;stroke-linecap:square;"/>
   </g>
   <g id="patch_3">
    <path d="M 44.695938 319.910625 
L 44.695938 7.2 
" style="fill:none;"/>
   </g>
   <g id="patch_4">
    <path d="M 480.96 319.910625 
L 480.96 7.2 
" style="fill:none;"/>
   </g>
   <g id="patch_5">
    <path d="M 44.695938 319.910625 
L 480.96 319.910625 
" style="fill:none;"/>
   </g>
   <g id="patch_6">
    <path d="M 44.695938 7.2 
L 480.96 7.2 
" style="fill:none;"/>
   </g>
   <g id="legend_1">
    <g id="patch_7">
     <path d="M 489.36 261.224062 
L 535.395 261.224062 
Q 537.795 261.224062 537.795 258.824062 
L 537.795 171.955312 
Q 537.795 169.555312 535.395 169.555312 
L 489.36 169.555312 
Q 486.96 169.555312 486.96 171.955312 
L 486.96 258.824062 
Q 486.96 261.224062 489.36 261.224062 
z
" style="fill:#e5e5e5;opacity:0.8;stroke:#cccccc;stroke-linejoin:miter;"/>
    </g>
    <g id="line2d_22">
     <path d="M 491.76 179.273437 
L 515.76 179.273437 
" style="fill:none;stroke:#348abd;stroke-linecap:square;"/>
    </g>
    <g id="line2d_23"/>
    <g id="text_17">
     <!-- 0 -->
     <g transform="translate(525.36 183.473437)scale(0.12 -0.12)">
      <use xlink:href="#DejaVuSerif-48"/>
     </g>
    </g>
    <g id="line2d_24">
     <path d="M 491.76 196.887187 
L 515.76 196.887187 
" style="fill:none;stroke:#7a68a6;stroke-linecap:square;"/>
    </g>
    <g id="line2d_25"/>
    <g id="text_18">
     <!-- 1 -->
     <g transform="translate(525.36 201.087187)scale(0.12 -0.12)">
      <use xlink:href="#DejaVuSerif-49"/>
     </g>
    </g>
    <g id="line2d_26">
     <path d="M 491.76 214.500937 
L 515.76 214.500937 
" style="fill:none;stroke:#a60628;stroke-linecap:square;"/>
    </g>
    <g id="line2d_27"/>
    <g id="text_19">
     <!-- 2 -->
     <g transform="translate(525.36 218.700937)scale(0.12 -0.12)">
      <use xlink:href="#DejaVuSerif-50"/>
     </g>
    </g>
    <g id="line2d_28">
     <path d="M 491.76 232.114687 
L 515.76 232.114687 
" style="fill:none;stroke:#467821;stroke-linecap:square;"/>
    </g>
    <g id="line2d_29"/>
    <g id="text_20">
     <!-- 3 -->
     <g transform="translate(525.36 236.314687)scale(0.12 -0.12)">
      <use xlink:href="#DejaVuSerif-51"/>
     </g>
    </g>
    <g id="line2d_30">
     <path d="M 491.76 249.728437 
L 515.76 249.728437 
" style="fill:none;stroke:#cf4457;stroke-linecap:square;"/>
    </g>
    <g id="line2d_31"/>
    <g id="text_21">
     <!-- 4 -->
     <g transform="translate(525.36 253.928437)scale(0.12 -0.12)">
      <use xlink:href="#DejaVuSerif-52"/>
     </g>
    </g>
   </g>
  </g>
 </g>
 <defs>
  <clipPath id="p61164116d5">
   <rect height="312.710625" width="436.264062" x="44.695938" y="7.2"/>
  </clipPath>
 </defs>
</svg>
