<?xml version="1.0" encoding="utf-8" standalone="no"?>
<!DOCTYPE svg PUBLIC "-//W3C//DTD SVG 1.1//EN"
  "http://www.w3.org/Graphics/SVG/1.1/DTD/svg11.dtd">
<svg xmlns:xlink="http://www.w3.org/1999/xlink" width="544.995pt" height="344.16pt" viewBox="0 0 544.995 344.16" xmlns="http://www.w3.org/2000/svg" version="1.1">
 <metadata>
  <rdf:RDF xmlns:dc="http://purl.org/dc/elements/1.1/" xmlns:cc="http://creativecommons.org/ns#" xmlns:rdf="http://www.w3.org/1999/02/22-rdf-syntax-ns#">
   <cc:Work>
    <dc:type rdf:resource="http://purl.org/dc/dcmitype/StillImage"/>
    <dc:date>2024-06-09T21:44:32.533525</dc:date>
    <dc:format>image/svg+xml</dc:format>
    <dc:creator>
     <cc:Agent>
      <dc:title>Matplotlib v3.8.0, https://matplotlib.org/</dc:title>
     </cc:Agent>
    </dc:creator>
   </cc:Work>
  </rdf:RDF>
 </metadata>
 <defs>
  <style type="text/css">*{stroke-linejoin: round; stroke-linecap: butt}</style>
 </defs>
 <g id="figure_1">
  <g id="patch_1">
   <path d="M 0 344.16 
L 544.995 344.16 
L 544.995 0 
L 0 0 
z
" style="fill: #ffffff"/>
  </g>
  <g id="axes_1">
   <g id="patch_2">
    <path d="M 44.695938 319.910625 
L 480.96 319.910625 
L 480.96 7.2 
L 44.695938 7.2 
z
" style="fill: #e5e5e5"/>
   </g>
   <g id="matplotlib.axis_1">
    <g id="xtick_1">
     <g id="line2d_1">
      <defs>
       <path id="mf688e20e03" d="M 0 0 
L 0 -3.5 
" style="stroke: #000000; stroke-width: 0.8"/>
      </defs>
      <g>
       <use xlink:href="#mf688e20e03" x="64.526122" y="319.910625" style="stroke: #000000; stroke-width: 0.8"/>
      </g>
     </g>
     <g id="text_1">
      <!-- 0.0 -->
      <g transform="translate(53.393935 334.048437) scale(0.14 -0.14)">
       <defs>
        <path id="DejaVuSerif-30" d="M 2034 219 
Q 2513 219 2750 744 
Q 2988 1269 2988 2328 
Q 2988 3391 2750 3916 
Q 2513 4441 2034 4441 
Q 1556 4441 1318 3916 
Q 1081 3391 1081 2328 
Q 1081 1269 1318 744 
Q 1556 219 2034 219 
z
M 2034 -91 
Q 1275 -91 848 546 
Q 422 1184 422 2328 
Q 422 3475 848 4112 
Q 1275 4750 2034 4750 
Q 2797 4750 3222 4112 
Q 3647 3475 3647 2328 
Q 3647 1184 3222 546 
Q 2797 -91 2034 -91 
z
" transform="scale(0.015625)"/>
        <path id="DejaVuSerif-2e" d="M 603 325 
Q 603 500 722 622 
Q 841 744 1019 744 
Q 1191 744 1312 622 
Q 1434 500 1434 325 
Q 1434 153 1312 31 
Q 1191 -91 1019 -91 
Q 841 -91 722 29 
Q 603 150 603 325 
z
" transform="scale(0.015625)"/>
       </defs>
       <use xlink:href="#DejaVuSerif-30"/>
       <use xlink:href="#DejaVuSerif-2e" x="63.623047"/>
       <use xlink:href="#DejaVuSerif-30" x="95.410156"/>
      </g>
     </g>
    </g>
    <g id="xtick_2">
     <g id="line2d_2">
      <g>
       <use xlink:href="#mf688e20e03" x="114.101584" y="319.910625" style="stroke: #000000; stroke-width: 0.8"/>
      </g>
     </g>
     <g id="text_2">
      <!-- 0.5 -->
      <g transform="translate(102.969396 334.048437) scale(0.14 -0.14)">
       <defs>
        <path id="DejaVuSerif-35" d="M 3219 4666 
L 3219 4153 
L 1081 4153 
L 1081 2816 
Q 1244 2928 1461 2984 
Q 1678 3041 1947 3041 
Q 2703 3041 3140 2622 
Q 3578 2203 3578 1478 
Q 3578 738 3136 323 
Q 2694 -91 1894 -91 
Q 1572 -91 1234 -12 
Q 897 66 544 225 
L 544 1131 
L 897 1131 
Q 925 688 1179 453 
Q 1434 219 1894 219 
Q 2388 219 2653 544 
Q 2919 869 2919 1478 
Q 2919 2084 2655 2407 
Q 2391 2731 1894 2731 
Q 1613 2731 1398 2631 
Q 1184 2531 1019 2322 
L 750 2322 
L 750 4666 
L 3219 4666 
z
" transform="scale(0.015625)"/>
       </defs>
       <use xlink:href="#DejaVuSerif-30"/>
       <use xlink:href="#DejaVuSerif-2e" x="63.623047"/>
       <use xlink:href="#DejaVuSerif-35" x="95.410156"/>
      </g>
     </g>
    </g>
    <g id="xtick_3">
     <g id="line2d_3">
      <g>
       <use xlink:href="#mf688e20e03" x="163.677045" y="319.910625" style="stroke: #000000; stroke-width: 0.8"/>
      </g>
     </g>
     <g id="text_3">
      <!-- 1.0 -->
      <g transform="translate(152.544858 334.048437) scale(0.14 -0.14)">
       <defs>
        <path id="DejaVuSerif-31" d="M 909 0 
L 909 331 
L 1722 331 
L 1722 4213 
L 781 3603 
L 781 4013 
L 1919 4750 
L 2350 4750 
L 2350 331 
L 3163 331 
L 3163 0 
L 909 0 
z
" transform="scale(0.015625)"/>
       </defs>
       <use xlink:href="#DejaVuSerif-31"/>
       <use xlink:href="#DejaVuSerif-2e" x="63.623047"/>
       <use xlink:href="#DejaVuSerif-30" x="95.410156"/>
      </g>
     </g>
    </g>
    <g id="xtick_4">
     <g id="line2d_4">
      <g>
       <use xlink:href="#mf688e20e03" x="213.252507" y="319.910625" style="stroke: #000000; stroke-width: 0.8"/>
      </g>
     </g>
     <g id="text_4">
      <!-- 1.5 -->
      <g transform="translate(202.12032 334.048437) scale(0.14 -0.14)">
       <use xlink:href="#DejaVuSerif-31"/>
       <use xlink:href="#DejaVuSerif-2e" x="63.623047"/>
       <use xlink:href="#DejaVuSerif-35" x="95.410156"/>
      </g>
     </g>
    </g>
    <g id="xtick_5">
     <g id="line2d_5">
      <g>
       <use xlink:href="#mf688e20e03" x="262.827969" y="319.910625" style="stroke: #000000; stroke-width: 0.8"/>
      </g>
     </g>
     <g id="text_5">
      <!-- 2.0 -->
      <g transform="translate(251.695781 334.048437) scale(0.14 -0.14)">
       <defs>
        <path id="DejaVuSerif-32" d="M 819 3553 
L 469 3553 
L 469 4384 
Q 803 4563 1142 4656 
Q 1481 4750 1806 4750 
Q 2534 4750 2956 4397 
Q 3378 4044 3378 3438 
Q 3378 2753 2422 1800 
Q 2347 1728 2309 1691 
L 1131 513 
L 3078 513 
L 3078 1088 
L 3444 1088 
L 3444 0 
L 434 0 
L 434 341 
L 1850 1753 
Q 2319 2222 2519 2614 
Q 2719 3006 2719 3438 
Q 2719 3909 2473 4175 
Q 2228 4441 1797 4441 
Q 1350 4441 1106 4219 
Q 863 3997 819 3553 
z
" transform="scale(0.015625)"/>
       </defs>
       <use xlink:href="#DejaVuSerif-32"/>
       <use xlink:href="#DejaVuSerif-2e" x="63.623047"/>
       <use xlink:href="#DejaVuSerif-30" x="95.410156"/>
      </g>
     </g>
    </g>
    <g id="xtick_6">
     <g id="line2d_6">
      <g>
       <use xlink:href="#mf688e20e03" x="312.40343" y="319.910625" style="stroke: #000000; stroke-width: 0.8"/>
      </g>
     </g>
     <g id="text_6">
      <!-- 2.5 -->
      <g transform="translate(301.271243 334.048437) scale(0.14 -0.14)">
       <use xlink:href="#DejaVuSerif-32"/>
       <use xlink:href="#DejaVuSerif-2e" x="63.623047"/>
       <use xlink:href="#DejaVuSerif-35" x="95.410156"/>
      </g>
     </g>
    </g>
    <g id="xtick_7">
     <g id="line2d_7">
      <g>
       <use xlink:href="#mf688e20e03" x="361.978892" y="319.910625" style="stroke: #000000; stroke-width: 0.8"/>
      </g>
     </g>
     <g id="text_7">
      <!-- 3.0 -->
      <g transform="translate(350.846705 334.048437) scale(0.14 -0.14)">
       <defs>
        <path id="DejaVuSerif-33" d="M 622 4469 
Q 988 4606 1323 4678 
Q 1659 4750 1953 4750 
Q 2638 4750 3022 4454 
Q 3406 4159 3406 3634 
Q 3406 3213 3140 2930 
Q 2875 2647 2388 2547 
Q 2963 2466 3280 2130 
Q 3597 1794 3597 1259 
Q 3597 606 3158 257 
Q 2719 -91 1894 -91 
Q 1528 -91 1179 -12 
Q 831 66 488 225 
L 488 1131 
L 838 1131 
Q 869 681 1141 450 
Q 1413 219 1906 219 
Q 2384 219 2661 495 
Q 2938 772 2938 1253 
Q 2938 1803 2653 2086 
Q 2369 2369 1819 2369 
L 1522 2369 
L 1522 2688 
L 1678 2688 
Q 2225 2688 2498 2914 
Q 2772 3141 2772 3597 
Q 2772 4006 2547 4223 
Q 2322 4441 1900 4441 
Q 1478 4441 1245 4241 
Q 1013 4041 972 3647 
L 622 3647 
L 622 4469 
z
" transform="scale(0.015625)"/>
       </defs>
       <use xlink:href="#DejaVuSerif-33"/>
       <use xlink:href="#DejaVuSerif-2e" x="63.623047"/>
       <use xlink:href="#DejaVuSerif-30" x="95.410156"/>
      </g>
     </g>
    </g>
    <g id="xtick_8">
     <g id="line2d_8">
      <g>
       <use xlink:href="#mf688e20e03" x="411.554354" y="319.910625" style="stroke: #000000; stroke-width: 0.8"/>
      </g>
     </g>
     <g id="text_8">
      <!-- 3.5 -->
      <g transform="translate(400.422166 334.048437) scale(0.14 -0.14)">
       <use xlink:href="#DejaVuSerif-33"/>
       <use xlink:href="#DejaVuSerif-2e" x="63.623047"/>
       <use xlink:href="#DejaVuSerif-35" x="95.410156"/>
      </g>
     </g>
    </g>
    <g id="xtick_9">
     <g id="line2d_9">
      <g>
       <use xlink:href="#mf688e20e03" x="461.129815" y="319.910625" style="stroke: #000000; stroke-width: 0.8"/>
      </g>
     </g>
     <g id="text_9">
      <!-- 4.0 -->
      <g transform="translate(449.997628 334.048437) scale(0.14 -0.14)">
       <defs>
        <path id="DejaVuSerif-34" d="M 2234 1581 
L 2234 4063 
L 641 1581 
L 2234 1581 
z
M 3609 0 
L 1484 0 
L 1484 331 
L 2234 331 
L 2234 1247 
L 197 1247 
L 197 1588 
L 2241 4750 
L 2859 4750 
L 2859 1581 
L 3750 1581 
L 3750 1247 
L 2859 1247 
L 2859 331 
L 3609 331 
L 3609 0 
z
" transform="scale(0.015625)"/>
       </defs>
       <use xlink:href="#DejaVuSerif-34"/>
       <use xlink:href="#DejaVuSerif-2e" x="63.623047"/>
       <use xlink:href="#DejaVuSerif-30" x="95.410156"/>
      </g>
     </g>
    </g>
   </g>
   <g id="matplotlib.axis_2">
    <g id="ytick_1">
     <g id="line2d_10">
      <defs>
       <path id="m07fbdd37b0" d="M 0 0 
L 3.5 0 
" style="stroke: #000000; stroke-width: 0.8"/>
      </defs>
      <g>
       <use xlink:href="#m07fbdd37b0" x="44.695938" y="301.736535" style="stroke: #000000; stroke-width: 0.8"/>
      </g>
     </g>
     <g id="text_10">
      <!-- −0.2 -->
      <g transform="translate(7.2 307.055441) scale(0.14 -0.14)">
       <defs>
        <path id="DejaVuSerif-2212" d="M 678 2259 
L 4684 2259 
L 4684 1753 
L 678 1753 
L 678 2259 
z
" transform="scale(0.015625)"/>
       </defs>
       <use xlink:href="#DejaVuSerif-2212"/>
       <use xlink:href="#DejaVuSerif-30" x="83.789062"/>
       <use xlink:href="#DejaVuSerif-2e" x="147.412109"/>
       <use xlink:href="#DejaVuSerif-32" x="179.199219"/>
      </g>
     </g>
    </g>
    <g id="ytick_2">
     <g id="line2d_11">
      <g>
       <use xlink:href="#m07fbdd37b0" x="44.695938" y="255.016132" style="stroke: #000000; stroke-width: 0.8"/>
      </g>
     </g>
     <g id="text_11">
      <!-- 0.0 -->
      <g transform="translate(18.931563 260.335038) scale(0.14 -0.14)">
       <use xlink:href="#DejaVuSerif-30"/>
       <use xlink:href="#DejaVuSerif-2e" x="63.623047"/>
       <use xlink:href="#DejaVuSerif-30" x="95.410156"/>
      </g>
     </g>
    </g>
    <g id="ytick_3">
     <g id="line2d_12">
      <g>
       <use xlink:href="#m07fbdd37b0" x="44.695938" y="208.29573" style="stroke: #000000; stroke-width: 0.8"/>
      </g>
     </g>
     <g id="text_12">
      <!-- 0.2 -->
      <g transform="translate(18.931563 213.614636) scale(0.14 -0.14)">
       <use xlink:href="#DejaVuSerif-30"/>
       <use xlink:href="#DejaVuSerif-2e" x="63.623047"/>
       <use xlink:href="#DejaVuSerif-32" x="95.410156"/>
      </g>
     </g>
    </g>
    <g id="ytick_4">
     <g id="line2d_13">
      <g>
       <use xlink:href="#m07fbdd37b0" x="44.695938" y="161.575327" style="stroke: #000000; stroke-width: 0.8"/>
      </g>
     </g>
     <g id="text_13">
      <!-- 0.4 -->
      <g transform="translate(18.931563 166.894233) scale(0.14 -0.14)">
       <use xlink:href="#DejaVuSerif-30"/>
       <use xlink:href="#DejaVuSerif-2e" x="63.623047"/>
       <use xlink:href="#DejaVuSerif-34" x="95.410156"/>
      </g>
     </g>
    </g>
    <g id="ytick_5">
     <g id="line2d_14">
      <g>
       <use xlink:href="#m07fbdd37b0" x="44.695938" y="114.854924" style="stroke: #000000; stroke-width: 0.8"/>
      </g>
     </g>
     <g id="text_14">
      <!-- 0.6 -->
      <g transform="translate(18.931563 120.173831) scale(0.14 -0.14)">
       <defs>
        <path id="DejaVuSerif-36" d="M 2094 219 
Q 2534 219 2771 542 
Q 3009 866 3009 1472 
Q 3009 2078 2771 2401 
Q 2534 2725 2094 2725 
Q 1647 2725 1412 2412 
Q 1178 2100 1178 1509 
Q 1178 888 1415 553 
Q 1653 219 2094 219 
z
M 1075 2569 
Q 1288 2803 1556 2918 
Q 1825 3034 2163 3034 
Q 2859 3034 3264 2615 
Q 3669 2197 3669 1472 
Q 3669 763 3233 336 
Q 2797 -91 2069 -91 
Q 1278 -91 853 498 
Q 428 1088 428 2181 
Q 428 3406 931 4078 
Q 1434 4750 2350 4750 
Q 2597 4750 2869 4703 
Q 3141 4656 3425 4563 
L 3425 3794 
L 3072 3794 
Q 3034 4109 2831 4275 
Q 2628 4441 2284 4441 
Q 1678 4441 1381 3981 
Q 1084 3522 1075 2569 
z
" transform="scale(0.015625)"/>
       </defs>
       <use xlink:href="#DejaVuSerif-30"/>
       <use xlink:href="#DejaVuSerif-2e" x="63.623047"/>
       <use xlink:href="#DejaVuSerif-36" x="95.410156"/>
      </g>
     </g>
    </g>
    <g id="ytick_6">
     <g id="line2d_15">
      <g>
       <use xlink:href="#m07fbdd37b0" x="44.695938" y="68.134522" style="stroke: #000000; stroke-width: 0.8"/>
      </g>
     </g>
     <g id="text_15">
      <!-- 0.8 -->
      <g transform="translate(18.931563 73.453428) scale(0.14 -0.14)">
       <defs>
        <path id="DejaVuSerif-38" d="M 2981 1275 
Q 2981 1775 2732 2051 
Q 2484 2328 2034 2328 
Q 1584 2328 1336 2051 
Q 1088 1775 1088 1275 
Q 1088 772 1336 495 
Q 1584 219 2034 219 
Q 2484 219 2732 495 
Q 2981 772 2981 1275 
z
M 2853 3541 
Q 2853 3966 2637 4203 
Q 2422 4441 2034 4441 
Q 1650 4441 1433 4203 
Q 1216 3966 1216 3541 
Q 1216 3113 1433 2875 
Q 1650 2638 2034 2638 
Q 2422 2638 2637 2875 
Q 2853 3113 2853 3541 
z
M 2516 2484 
Q 3047 2413 3344 2092 
Q 3641 1772 3641 1275 
Q 3641 619 3225 264 
Q 2809 -91 2034 -91 
Q 1263 -91 845 264 
Q 428 619 428 1275 
Q 428 1772 725 2092 
Q 1022 2413 1556 2484 
Q 1084 2569 832 2842 
Q 581 3116 581 3541 
Q 581 4103 968 4426 
Q 1356 4750 2034 4750 
Q 2713 4750 3100 4426 
Q 3488 4103 3488 3541 
Q 3488 3116 3236 2842 
Q 2984 2569 2516 2484 
z
" transform="scale(0.015625)"/>
       </defs>
       <use xlink:href="#DejaVuSerif-30"/>
       <use xlink:href="#DejaVuSerif-2e" x="63.623047"/>
       <use xlink:href="#DejaVuSerif-38" x="95.410156"/>
      </g>
     </g>
    </g>
    <g id="ytick_7">
     <g id="line2d_16">
      <g>
       <use xlink:href="#m07fbdd37b0" x="44.695938" y="21.414119" style="stroke: #000000; stroke-width: 0.8"/>
      </g>
     </g>
     <g id="text_16">
      <!-- 1.0 -->
      <g transform="translate(18.931563 26.733026) scale(0.14 -0.14)">
       <use xlink:href="#DejaVuSerif-31"/>
       <use xlink:href="#DejaVuSerif-2e" x="63.623047"/>
       <use xlink:href="#DejaVuSerif-30" x="95.410156"/>
      </g>
     </g>
    </g>
   </g>
   <g id="line2d_17">
    <path d="M 64.526122 21.414119 
L 68.53222 22.040923 
L 72.538318 23.915262 
L 76.544416 27.019048 
L 80.550514 31.322365 
L 84.556612 36.783812 
L 88.56271 43.350979 
L 92.568808 50.961049 
L 96.574905 59.54151 
L 100.581003 69.010991 
L 104.587101 79.280181 
L 108.593199 90.252844 
L 112.599297 101.826909 
L 116.605395 113.895616 
L 120.611493 126.348714 
L 124.617591 139.073686 
L 128.623689 151.956998 
L 132.629787 164.885341 
L 136.635885 177.746873 
L 140.641982 190.432414 
L 144.64808 202.836619 
L 148.654178 214.859079 
L 152.660276 226.405361 
L 156.666374 237.387961 
L 160.672472 247.72717 
L 164.67857 257.351833 
L 168.684668 266.200001 
L 172.690766 274.219462 
L 176.696864 281.36815 
L 180.702962 287.614434 
L 184.709059 292.937263 
L 188.715157 297.326202 
L 192.721255 300.781322 
L 196.727353 303.312976 
L 200.733451 304.941451 
L 204.739549 305.696506 
L 208.745647 305.616798 
L 212.751745 304.749221 
L 216.757843 303.14814 
L 220.763941 300.874561 
L 224.770039 297.99523 
L 228.776137 294.58167 
L 232.782234 290.709195 
L 236.788332 286.455876 
L 240.79443 281.901509 
L 244.800528 277.126577 
L 248.806626 272.211219 
L 252.812724 267.234236 
L 256.818822 262.272129 
L 260.82492 257.398188 
L 264.831018 252.681644 
L 268.837116 248.186888 
L 272.843214 243.972779 
L 276.849311 240.092032 
L 280.855409 236.590704 
L 284.861507 233.507778 
L 288.867605 230.874855 
L 292.873703 228.715942 
L 296.879801 227.047358 
L 300.885899 225.877737 
L 304.891997 225.208137 
L 308.898095 225.032249 
L 312.904193 225.336707 
L 316.910291 226.101471 
L 320.916388 227.300315 
L 324.922486 228.901369 
L 328.928584 230.867735 
L 332.934682 233.158162 
L 336.94078 235.727753 
L 340.946878 238.528723 
L 344.952976 241.511164 
L 348.959074 244.623833 
L 352.965172 247.814931 
L 356.97127 251.032885 
L 360.977368 254.227094 
L 364.983465 257.348649 
L 368.989563 260.351022 
L 372.995661 263.190685 
L 377.001759 265.827691 
L 381.007857 268.226178 
L 385.013955 270.354804 
L 389.020053 272.187114 
L 393.026151 273.701816 
L 397.032249 274.882981 
L 401.038347 275.720164 
L 405.044445 276.208432 
L 409.050542 276.348317 
L 413.05664 276.14569 
L 417.062738 275.611549 
L 421.068836 274.761746 
L 425.074934 273.616644 
L 429.081032 272.200708 
L 433.08713 270.542053 
L 437.093228 268.671937 
L 441.099326 266.62422 
L 445.105424 264.434801 
L 449.111522 262.141024 
L 453.11762 259.78108 
L 457.123717 257.393411 
L 461.129815 255.016114 
" clip-path="url(#p97b244cd5b)" style="fill: none; stroke: #348abd; stroke-linecap: square"/>
   </g>
   <g id="line2d_18">
    <path d="M 64.526122 138.215126 
L 68.53222 138.528528 
L 72.538318 139.465697 
L 76.544416 141.01759 
L 80.550514 143.169248 
L 84.556612 145.899972 
L 88.56271 149.183556 
L 92.568808 152.98859 
L 96.574905 157.278821 
L 100.581003 162.013562 
L 104.587101 167.148156 
L 108.593199 172.634488 
L 112.599297 178.421521 
L 116.605395 184.455874 
L 120.611493 190.682423 
L 124.617591 197.044909 
L 128.623689 203.486565 
L 132.629787 209.950737 
L 136.635885 216.381502 
L 140.641982 222.724273 
L 144.64808 228.926376 
L 148.654178 234.937606 
L 152.660276 240.710746 
L 156.666374 246.202046 
L 160.672472 251.371651 
L 164.67857 256.183983 
L 168.684668 260.608067 
L 172.690766 264.617797 
L 176.696864 268.192141 
L 180.702962 271.315283 
L 184.709059 273.976698 
L 188.715157 276.171167 
L 192.721255 277.898727 
L 196.727353 279.164554 
L 200.733451 279.978792 
L 204.739549 280.356319 
L 208.745647 280.316465 
L 212.751745 279.882676 
L 216.757843 279.082136 
L 220.763941 277.945347 
L 224.770039 276.505681 
L 228.776137 274.798901 
L 232.782234 272.862663 
L 236.788332 270.736004 
L 240.79443 268.458821 
L 244.800528 266.071354 
L 248.806626 263.613675 
L 252.812724 261.125184 
L 256.818822 258.644131 
L 260.82492 256.20716 
L 264.831018 253.848888 
L 268.837116 251.60151 
L 272.843214 249.494455 
L 276.849311 247.554082 
L 280.855409 245.803418 
L 284.861507 244.261955 
L 288.867605 242.945493 
L 292.873703 241.866037 
L 296.879801 241.031745 
L 300.885899 240.446934 
L 304.891997 240.112134 
L 308.898095 240.024191 
L 312.904193 240.176419 
L 316.910291 240.558802 
L 320.916388 241.158224 
L 324.922486 241.95875 
L 328.928584 242.941934 
L 332.934682 244.087147 
L 336.94078 245.371943 
L 340.946878 246.772428 
L 344.952976 248.263648 
L 348.959074 249.819982 
L 352.965172 251.415532 
L 356.97127 253.024509 
L 360.977368 254.621613 
L 364.983465 256.182391 
L 368.989563 257.683577 
L 372.995661 259.103409 
L 377.001759 260.421912 
L 381.007857 261.621155 
L 385.013955 262.685468 
L 389.020053 263.601623 
L 393.026151 264.358974 
L 397.032249 264.949556 
L 401.038347 265.368148 
L 405.044445 265.612282 
L 409.050542 265.682225 
L 413.05664 265.580911 
L 417.062738 265.31384 
L 421.068836 264.888939 
L 425.074934 264.316388 
L 429.081032 263.60842 
L 433.08713 262.779093 
L 437.093228 261.844034 
L 441.099326 260.820176 
L 445.105424 259.725467 
L 449.111522 258.578578 
L 453.11762 257.398606 
L 457.123717 256.204772 
L 461.129815 255.016123 
" clip-path="url(#p97b244cd5b)" style="fill: none; stroke: #7a68a6; stroke-linecap: square"/>
   </g>
   <g id="line2d_19">
    <path d="M 64.526122 177.148795 
L 68.53222 177.357729 
L 72.538318 177.982509 
L 76.544416 179.017104 
L 80.550514 180.451543 
L 84.556612 182.272025 
L 88.56271 184.461081 
L 92.568808 186.997771 
L 96.574905 189.857925 
L 100.581003 193.014418 
L 104.587101 196.437482 
L 108.593199 200.095036 
L 112.599297 203.953058 
L 116.605395 207.97596 
L 120.611493 212.126993 
L 124.617591 216.36865 
L 128.623689 220.663087 
L 132.629787 224.972535 
L 136.635885 229.259712 
L 140.641982 233.488226 
L 144.64808 237.622961 
L 148.654178 241.630448 
L 152.660276 245.479208 
L 156.666374 249.140075 
L 160.672472 252.586478 
L 164.67857 255.794699 
L 168.684668 258.744088 
L 172.690766 261.417242 
L 176.696864 263.800138 
L 180.702962 265.882233 
L 184.709059 267.656509 
L 188.715157 269.119489 
L 192.721255 270.271195 
L 196.727353 271.11508 
L 200.733451 271.657905 
L 204.739549 271.90959 
L 208.745647 271.883021 
L 212.751745 271.593828 
L 216.757843 271.060135 
L 220.763941 270.302275 
L 224.770039 269.342498 
L 228.776137 268.204645 
L 232.782234 266.91382 
L 236.788332 265.496047 
L 240.79443 263.977925 
L 244.800528 262.38628 
L 248.806626 260.747828 
L 252.812724 259.088833 
L 256.818822 257.434798 
L 260.82492 255.810151 
L 264.831018 254.237969 
L 268.837116 252.739717 
L 272.843214 251.335014 
L 276.849311 250.041432 
L 280.855409 248.874323 
L 284.861507 247.846681 
L 288.867605 246.96904 
L 292.873703 246.249402 
L 296.879801 245.693207 
L 300.885899 245.303334 
L 304.891997 245.080134 
L 308.898095 245.021505 
L 312.904193 245.12299 
L 316.910291 245.377912 
L 320.916388 245.777527 
L 324.922486 246.311211 
L 328.928584 246.966666 
L 332.934682 247.730142 
L 336.94078 248.586672 
L 340.946878 249.520329 
L 344.952976 250.514476 
L 348.959074 251.552032 
L 352.965172 252.615732 
L 356.97127 253.688383 
L 360.977368 254.753119 
L 364.983465 255.793638 
L 368.989563 256.794429 
L 372.995661 257.740983 
L 377.001759 258.619985 
L 381.007857 259.419481 
L 385.013955 260.129023 
L 389.020053 260.739793 
L 393.026151 261.244693 
L 397.032249 261.638415 
L 401.038347 261.917476 
L 405.044445 262.080232 
L 409.050542 262.126861 
L 413.05664 262.059318 
L 417.062738 261.881271 
L 421.068836 261.598003 
L 425.074934 261.216303 
L 429.081032 260.744324 
L 433.08713 260.191439 
L 437.093228 259.568067 
L 441.099326 258.885495 
L 445.105424 258.155688 
L 449.111522 257.391096 
L 453.11762 256.604448 
L 457.123717 255.808559 
L 461.129815 255.016126 
" clip-path="url(#p97b244cd5b)" style="fill: none; stroke: #a60628; stroke-linecap: square"/>
   </g>
   <g id="line2d_20">
    <path d="M 64.526122 196.615629 
L 68.53222 196.77233 
L 72.538318 197.240915 
L 76.544416 198.016861 
L 80.550514 199.09269 
L 84.556612 200.458052 
L 88.56271 202.099844 
L 92.568808 204.002361 
L 96.574905 206.147477 
L 100.581003 208.514847 
L 104.587101 211.082144 
L 108.593199 213.82531 
L 112.599297 216.718826 
L 116.605395 219.736003 
L 120.611493 222.849278 
L 124.617591 226.030521 
L 128.623689 229.251348 
L 132.629787 232.483434 
L 136.635885 235.698817 
L 140.641982 238.870203 
L 144.64808 241.971254 
L 148.654178 244.976869 
L 152.660276 247.863439 
L 156.666374 250.609089 
L 160.672472 253.193892 
L 164.67857 255.600057 
L 168.684668 257.812099 
L 172.690766 259.816965 
L 176.696864 261.604137 
L 180.702962 263.165707 
L 184.709059 264.496415 
L 188.715157 265.59365 
L 192.721255 266.45743 
L 196.727353 267.090343 
L 200.733451 267.497462 
L 204.739549 267.686226 
L 208.745647 267.666299 
L 212.751745 267.449404 
L 216.757843 267.049134 
L 220.763941 266.480739 
L 224.770039 265.760906 
L 228.776137 264.907517 
L 232.782234 263.939398 
L 236.788332 262.876068 
L 240.79443 261.737476 
L 244.800528 260.543743 
L 248.806626 259.314904 
L 252.812724 258.070658 
L 256.818822 256.830131 
L 260.82492 255.611646 
L 264.831018 254.43251 
L 268.837116 253.308821 
L 272.843214 252.255294 
L 276.849311 251.285107 
L 280.855409 250.409775 
L 284.861507 249.639044 
L 288.867605 248.980813 
L 292.873703 248.441085 
L 296.879801 248.023939 
L 300.885899 247.731533 
L 304.891997 247.564133 
L 308.898095 247.520161 
L 312.904193 247.596276 
L 316.910291 247.787467 
L 320.916388 248.087178 
L 324.922486 248.487441 
L 328.928584 248.979033 
L 332.934682 249.551639 
L 336.94078 250.194037 
L 340.946878 250.89428 
L 344.952976 251.63989 
L 348.959074 252.418057 
L 352.965172 253.215832 
L 356.97127 254.02032 
L 360.977368 254.818872 
L 364.983465 255.599261 
L 368.989563 256.349855 
L 372.995661 257.05977 
L 377.001759 257.719022 
L 381.007857 258.318644 
L 385.013955 258.8508 
L 389.020053 259.308878 
L 393.026151 259.687553 
L 397.032249 259.982844 
L 401.038347 260.19214 
L 405.044445 260.314207 
L 409.050542 260.349178 
L 413.05664 260.298522 
L 417.062738 260.164986 
L 421.068836 259.952536 
L 425.074934 259.66626 
L 429.081032 259.312276 
L 433.08713 258.897612 
L 437.093228 258.430083 
L 441.099326 257.918154 
L 445.105424 257.370799 
L 449.111522 256.797355 
L 453.11762 256.207369 
L 457.123717 255.610452 
L 461.129815 255.016127 
" clip-path="url(#p97b244cd5b)" style="fill: none; stroke: #467821; stroke-linecap: square"/>
   </g>
   <g id="line2d_21">
    <path d="M 64.526122 208.29573 
L 68.53222 208.42109 
L 72.538318 208.795958 
L 76.544416 209.416715 
L 80.550514 210.277379 
L 84.556612 211.369668 
L 88.56271 212.683102 
L 92.568808 214.205115 
L 96.574905 215.921208 
L 100.581003 217.815104 
L 104.587101 219.868942 
L 108.593199 222.063474 
L 112.599297 224.378288 
L 116.605395 226.792029 
L 120.611493 229.282648 
L 124.617591 231.827643 
L 128.623689 234.404305 
L 132.629787 236.989974 
L 136.635885 239.56228 
L 140.641982 242.099388 
L 144.64808 244.580229 
L 148.654178 246.984722 
L 152.660276 249.293978 
L 156.666374 251.490498 
L 160.672472 253.55834 
L 164.67857 255.483272 
L 168.684668 257.252906 
L 172.690766 258.856798 
L 176.696864 260.286536 
L 180.702962 261.535792 
L 184.709059 262.600358 
L 188.715157 263.478146 
L 192.721255 264.16917 
L 196.727353 264.675501 
L 200.733451 265.001196 
L 204.739549 265.152207 
L 208.745647 265.136265 
L 212.751745 264.96275 
L 216.757843 264.642534 
L 220.763941 264.187818 
L 224.770039 263.611952 
L 228.776137 262.92924 
L 232.782234 262.154745 
L 236.788332 261.304081 
L 240.79443 260.393208 
L 244.800528 259.438221 
L 248.806626 258.455149 
L 252.812724 257.459753 
L 256.818822 256.467332 
L 260.82492 255.492543 
L 264.831018 254.549234 
L 268.837116 253.650283 
L 272.843214 252.807461 
L 276.849311 252.031312 
L 280.855409 251.331046 
L 284.861507 250.714461 
L 288.867605 250.187877 
L 292.873703 249.756094 
L 296.879801 249.422377 
L 300.885899 249.188453 
L 304.891997 249.054533 
L 308.898095 249.019356 
L 312.904193 249.080247 
L 316.910291 249.2332 
L 320.916388 249.472969 
L 324.922486 249.793179 
L 328.928584 250.186453 
L 332.934682 250.644538 
L 336.94078 251.158456 
L 340.946878 251.71865 
L 344.952976 252.315139 
L 348.959074 252.937672 
L 352.965172 253.575892 
L 356.97127 254.219483 
L 360.977368 254.858324 
L 364.983465 255.482636 
L 368.989563 256.08311 
L 372.995661 256.651043 
L 377.001759 257.178444 
L 381.007857 257.658141 
L 385.013955 258.083867 
L 389.020053 258.450329 
L 393.026151 258.753269 
L 397.032249 258.989502 
L 401.038347 259.156938 
L 405.044445 259.254592 
L 409.050542 259.282569 
L 413.05664 259.242044 
L 417.062738 259.135215 
L 421.068836 258.965255 
L 425.074934 258.736234 
L 429.081032 258.453047 
L 433.08713 258.121316 
L 437.093228 257.747293 
L 441.099326 257.33775 
L 445.105424 256.899866 
L 449.111522 256.44111 
L 453.11762 255.969122 
L 457.123717 255.491588 
L 461.129815 255.016128 
" clip-path="url(#p97b244cd5b)" style="fill: none; stroke: #cf4457; stroke-linecap: square"/>
   </g>
   <g id="patch_3">
    <path d="M 44.695938 319.910625 
L 44.695938 7.2 
" style="fill: none"/>
   </g>
   <g id="patch_4">
    <path d="M 480.96 319.910625 
L 480.96 7.2 
" style="fill: none"/>
   </g>
   <g id="patch_5">
    <path d="M 44.695938 319.910625 
L 480.96 319.910625 
" style="fill: none"/>
   </g>
   <g id="patch_6">
    <path d="M 44.695938 7.2 
L 480.96 7.2 
" style="fill: none"/>
   </g>
   <g id="legend_1">
    <g id="patch_7">
     <path d="M 489.36 261.224062 
L 535.395 261.224062 
Q 537.795 261.224062 537.795 258.824062 
L 537.795 171.955312 
Q 537.795 169.555312 535.395 169.555312 
L 489.36 169.555312 
Q 486.96 169.555312 486.96 171.955312 
L 486.96 258.824062 
Q 486.96 261.224062 489.36 261.224062 
z
" style="fill: #e5e5e5; opacity: 0.8; stroke: #cccccc; stroke-linejoin: miter"/>
    </g>
    <g id="line2d_22">
     <path d="M 491.76 179.273437 
L 503.76 179.273437 
L 515.76 179.273437 
" style="fill: none; stroke: #348abd; stroke-linecap: square"/>
    </g>
    <g id="text_17">
     <!-- 0 -->
     <g transform="translate(525.36 183.473437) scale(0.12 -0.12)">
      <use xlink:href="#DejaVuSerif-30"/>
     </g>
    </g>
    <g id="line2d_23">
     <path d="M 491.76 196.887187 
L 503.76 196.887187 
L 515.76 196.887187 
" style="fill: none; stroke: #7a68a6; stroke-linecap: square"/>
    </g>
    <g id="text_18">
     <!-- 1 -->
     <g transform="translate(525.36 201.087187) scale(0.12 -0.12)">
      <use xlink:href="#DejaVuSerif-31"/>
     </g>
    </g>
    <g id="line2d_24">
     <path d="M 491.76 214.500937 
L 503.76 214.500937 
L 515.76 214.500937 
" style="fill: none; stroke: #a60628; stroke-linecap: square"/>
    </g>
    <g id="text_19">
     <!-- 2 -->
     <g transform="translate(525.36 218.700937) scale(0.12 -0.12)">
      <use xlink:href="#DejaVuSerif-32"/>
     </g>
    </g>
    <g id="line2d_25">
     <path d="M 491.76 232.114687 
L 503.76 232.114687 
L 515.76 232.114687 
" style="fill: none; stroke: #467821; stroke-linecap: square"/>
    </g>
    <g id="text_20">
     <!-- 3 -->
     <g transform="translate(525.36 236.314687) scale(0.12 -0.12)">
      <use xlink:href="#DejaVuSerif-33"/>
     </g>
    </g>
    <g id="line2d_26">
     <path d="M 491.76 249.728437 
L 503.76 249.728437 
L 515.76 249.728437 
" style="fill: none; stroke: #cf4457; stroke-linecap: square"/>
    </g>
    <g id="text_21">
     <!-- 4 -->
     <g transform="translate(525.36 253.928437) scale(0.12 -0.12)">
      <use xlink:href="#DejaVuSerif-34"/>
     </g>
    </g>
   </g>
  </g>
 </g>
 <defs>
  <clipPath id="p97b244cd5b">
   <rect x="44.695938" y="7.2" width="436.264062" height="312.710625"/>
  </clipPath>
 </defs>
</svg>
