<?xml version="1.0" encoding="utf-8" standalone="no"?>
<!DOCTYPE svg PUBLIC "-//W3C//DTD SVG 1.1//EN"
  "http://www.w3.org/Graphics/SVG/1.1/DTD/svg11.dtd">
<svg xmlns:xlink="http://www.w3.org/1999/xlink" width="435.517188pt" height="244.8pt" viewBox="0 0 435.517188 244.8" xmlns="http://www.w3.org/2000/svg" version="1.1">
 <metadata>
  <rdf:RDF xmlns:dc="http://purl.org/dc/elements/1.1/" xmlns:cc="http://creativecommons.org/ns#" xmlns:rdf="http://www.w3.org/1999/02/22-rdf-syntax-ns#">
   <cc:Work>
    <dc:type rdf:resource="http://purl.org/dc/dcmitype/StillImage"/>
    <dc:date>2024-06-09T22:02:28.976786</dc:date>
    <dc:format>image/svg+xml</dc:format>
    <dc:creator>
     <cc:Agent>
      <dc:title>Matplotlib v3.8.0, https://matplotlib.org/</dc:title>
     </cc:Agent>
    </dc:creator>
   </cc:Work>
  </rdf:RDF>
 </metadata>
 <defs>
  <style type="text/css">*{stroke-linejoin: round; stroke-linecap: butt}</style>
 </defs>
 <g id="figure_1">
  <g id="patch_1">
   <path d="M 0 244.8 
L 435.517187 244.8 
L 435.517187 0 
L 0 0 
z
" style="fill: #ffffff"/>
  </g>
  <g id="axes_1">
   <g id="patch_2">
    <path d="M 34.0125 220.598437 
L 381.6 220.598437 
L 381.6 7.2 
L 34.0125 7.2 
z
" style="fill: #ffffff"/>
   </g>
   <g id="matplotlib.axis_1">
    <g id="xtick_1">
     <g id="line2d_1">
      <defs>
       <path id="me0b4d8a9db" d="M 0 0 
L 0 3.5 
" style="stroke: #757575; stroke-width: 0.8"/>
      </defs>
      <g>
       <use xlink:href="#me0b4d8a9db" x="49.811932" y="220.598437" style="fill: #757575; stroke: #757575; stroke-width: 0.8"/>
      </g>
     </g>
     <g id="text_1">
      <!-- 0.0 -->
      <g style="fill: #757575" transform="translate(42.764276 235.196875) scale(0.1 -0.1)">
       <defs>
        <path id="OpenSans-30" d="M 3341 2291 
Q 3341 1106 2967 521 
Q 2594 -63 1825 -63 
Q 1088 -63 703 535 
Q 319 1134 319 2291 
Q 319 3484 691 4062 
Q 1063 4641 1825 4641 
Q 2569 4641 2955 4037 
Q 3341 3434 3341 2291 
z
M 844 2291 
Q 844 1294 1078 839 
Q 1313 384 1825 384 
Q 2344 384 2576 845 
Q 2809 1306 2809 2291 
Q 2809 3275 2576 3733 
Q 2344 4191 1825 4191 
Q 1313 4191 1078 3739 
Q 844 3288 844 2291 
z
" transform="scale(0.015625)"/>
        <path id="OpenSans-2e" d="M 475 331 
Q 475 541 570 648 
Q 666 756 844 756 
Q 1025 756 1126 648 
Q 1228 541 1228 331 
Q 1228 128 1125 18 
Q 1022 -91 844 -91 
Q 684 -91 579 7 
Q 475 106 475 331 
z
" transform="scale(0.015625)"/>
       </defs>
       <use xlink:href="#OpenSans-30"/>
       <use xlink:href="#OpenSans-2e" x="57.177734"/>
       <use xlink:href="#OpenSans-30" x="83.789062"/>
      </g>
     </g>
    </g>
    <g id="xtick_2">
     <g id="line2d_2">
      <g>
       <use xlink:href="#me0b4d8a9db" x="89.310511" y="220.598437" style="fill: #757575; stroke: #757575; stroke-width: 0.8"/>
      </g>
     </g>
     <g id="text_2">
      <!-- 0.5 -->
      <g style="fill: #757575" transform="translate(82.262855 235.196875) scale(0.1 -0.1)">
       <defs>
        <path id="OpenSans-35" d="M 1741 2791 
Q 2463 2791 2877 2433 
Q 3291 2075 3291 1453 
Q 3291 744 2839 340 
Q 2388 -63 1594 -63 
Q 822 -63 416 184 
L 416 684 
Q 634 544 959 464 
Q 1284 384 1600 384 
Q 2150 384 2454 643 
Q 2759 903 2759 1394 
Q 2759 2350 1588 2350 
Q 1291 2350 794 2259 
L 525 2431 
L 697 4569 
L 2969 4569 
L 2969 4091 
L 1141 4091 
L 1025 2719 
Q 1384 2791 1741 2791 
z
" transform="scale(0.015625)"/>
       </defs>
       <use xlink:href="#OpenSans-30"/>
       <use xlink:href="#OpenSans-2e" x="57.177734"/>
       <use xlink:href="#OpenSans-35" x="83.789062"/>
      </g>
     </g>
    </g>
    <g id="xtick_3">
     <g id="line2d_3">
      <g>
       <use xlink:href="#me0b4d8a9db" x="128.809091" y="220.598437" style="fill: #757575; stroke: #757575; stroke-width: 0.8"/>
      </g>
     </g>
     <g id="text_3">
      <!-- 1.0 -->
      <g style="fill: #757575" transform="translate(121.761435 235.196875) scale(0.1 -0.1)">
       <defs>
        <path id="OpenSans-31" d="M 2234 0 
L 1728 0 
L 1728 3256 
Q 1728 3663 1753 4025 
Q 1688 3959 1606 3887 
Q 1525 3816 863 3278 
L 588 3634 
L 1797 4569 
L 2234 4569 
L 2234 0 
z
" transform="scale(0.015625)"/>
       </defs>
       <use xlink:href="#OpenSans-31"/>
       <use xlink:href="#OpenSans-2e" x="57.177734"/>
       <use xlink:href="#OpenSans-30" x="83.789062"/>
      </g>
     </g>
    </g>
    <g id="xtick_4">
     <g id="line2d_4">
      <g>
       <use xlink:href="#me0b4d8a9db" x="168.30767" y="220.598437" style="fill: #757575; stroke: #757575; stroke-width: 0.8"/>
      </g>
     </g>
     <g id="text_4">
      <!-- 1.5 -->
      <g style="fill: #757575" transform="translate(161.260014 235.196875) scale(0.1 -0.1)">
       <use xlink:href="#OpenSans-31"/>
       <use xlink:href="#OpenSans-2e" x="57.177734"/>
       <use xlink:href="#OpenSans-35" x="83.789062"/>
      </g>
     </g>
    </g>
    <g id="xtick_5">
     <g id="line2d_5">
      <g>
       <use xlink:href="#me0b4d8a9db" x="207.80625" y="220.598437" style="fill: #757575; stroke: #757575; stroke-width: 0.8"/>
      </g>
     </g>
     <g id="text_5">
      <!-- 2.0 -->
      <g style="fill: #757575" transform="translate(200.758594 235.196875) scale(0.1 -0.1)">
       <defs>
        <path id="OpenSans-32" d="M 3316 0 
L 313 0 
L 313 447 
L 1516 1656 
Q 2066 2213 2241 2450 
Q 2416 2688 2503 2913 
Q 2591 3138 2591 3397 
Q 2591 3763 2369 3977 
Q 2147 4191 1753 4191 
Q 1469 4191 1214 4097 
Q 959 4003 647 3756 
L 372 4109 
Q 1003 4634 1747 4634 
Q 2391 4634 2756 4304 
Q 3122 3975 3122 3419 
Q 3122 2984 2878 2559 
Q 2634 2134 1966 1484 
L 966 506 
L 966 481 
L 3316 481 
L 3316 0 
z
" transform="scale(0.015625)"/>
       </defs>
       <use xlink:href="#OpenSans-32"/>
       <use xlink:href="#OpenSans-2e" x="57.177734"/>
       <use xlink:href="#OpenSans-30" x="83.789062"/>
      </g>
     </g>
    </g>
    <g id="xtick_6">
     <g id="line2d_6">
      <g>
       <use xlink:href="#me0b4d8a9db" x="247.30483" y="220.598437" style="fill: #757575; stroke: #757575; stroke-width: 0.8"/>
      </g>
     </g>
     <g id="text_6">
      <!-- 2.5 -->
      <g style="fill: #757575" transform="translate(240.257173 235.196875) scale(0.1 -0.1)">
       <use xlink:href="#OpenSans-32"/>
       <use xlink:href="#OpenSans-2e" x="57.177734"/>
       <use xlink:href="#OpenSans-35" x="83.789062"/>
      </g>
     </g>
    </g>
    <g id="xtick_7">
     <g id="line2d_7">
      <g>
       <use xlink:href="#me0b4d8a9db" x="286.803409" y="220.598437" style="fill: #757575; stroke: #757575; stroke-width: 0.8"/>
      </g>
     </g>
     <g id="text_7">
      <!-- 3.0 -->
      <g style="fill: #757575" transform="translate(279.755753 235.196875) scale(0.1 -0.1)">
       <defs>
        <path id="OpenSans-33" d="M 3144 3494 
Q 3144 3056 2898 2778 
Q 2653 2500 2203 2406 
L 2203 2381 
Q 2753 2313 3018 2031 
Q 3284 1750 3284 1294 
Q 3284 641 2831 289 
Q 2378 -63 1544 -63 
Q 1181 -63 879 -8 
Q 578 47 294 184 
L 294 678 
Q 591 531 927 454 
Q 1263 378 1563 378 
Q 2747 378 2747 1306 
Q 2747 2138 1441 2138 
L 991 2138 
L 991 2584 
L 1447 2584 
Q 1981 2584 2293 2820 
Q 2606 3056 2606 3475 
Q 2606 3809 2376 4000 
Q 2147 4191 1753 4191 
Q 1453 4191 1187 4109 
Q 922 4028 581 3809 
L 319 4159 
Q 600 4381 967 4507 
Q 1334 4634 1741 4634 
Q 2406 4634 2775 4329 
Q 3144 4025 3144 3494 
z
" transform="scale(0.015625)"/>
       </defs>
       <use xlink:href="#OpenSans-33"/>
       <use xlink:href="#OpenSans-2e" x="57.177734"/>
       <use xlink:href="#OpenSans-30" x="83.789062"/>
      </g>
     </g>
    </g>
    <g id="xtick_8">
     <g id="line2d_8">
      <g>
       <use xlink:href="#me0b4d8a9db" x="326.301989" y="220.598437" style="fill: #757575; stroke: #757575; stroke-width: 0.8"/>
      </g>
     </g>
     <g id="text_8">
      <!-- 3.5 -->
      <g style="fill: #757575" transform="translate(319.254332 235.196875) scale(0.1 -0.1)">
       <use xlink:href="#OpenSans-33"/>
       <use xlink:href="#OpenSans-2e" x="57.177734"/>
       <use xlink:href="#OpenSans-35" x="83.789062"/>
      </g>
     </g>
    </g>
    <g id="xtick_9">
     <g id="line2d_9">
      <g>
       <use xlink:href="#me0b4d8a9db" x="365.800568" y="220.598437" style="fill: #757575; stroke: #757575; stroke-width: 0.8"/>
      </g>
     </g>
     <g id="text_9">
      <!-- 4.0 -->
      <g style="fill: #757575" transform="translate(358.752912 235.196875) scale(0.1 -0.1)">
       <defs>
        <path id="OpenSans-34" d="M 3531 1050 
L 2853 1050 
L 2853 0 
L 2356 0 
L 2356 1050 
L 134 1050 
L 134 1503 
L 2303 4594 
L 2853 4594 
L 2853 1522 
L 3531 1522 
L 3531 1050 
z
M 2356 1522 
L 2356 3041 
Q 2356 3488 2388 4050 
L 2363 4050 
Q 2213 3750 2081 3553 
L 653 1522 
L 2356 1522 
z
" transform="scale(0.015625)"/>
       </defs>
       <use xlink:href="#OpenSans-34"/>
       <use xlink:href="#OpenSans-2e" x="57.177734"/>
       <use xlink:href="#OpenSans-30" x="83.789062"/>
      </g>
     </g>
    </g>
   </g>
   <g id="matplotlib.axis_2">
    <g id="ytick_1">
     <g id="line2d_10">
      <defs>
       <path id="m4936827ad6" d="M 0 0 
L -3.5 0 
" style="stroke: #757575; stroke-width: 0.8"/>
      </defs>
      <g>
       <use xlink:href="#m4936827ad6" x="34.0125" y="208.196165" style="fill: #757575; stroke: #757575; stroke-width: 0.8"/>
      </g>
     </g>
     <g id="text_10">
      <!-- −0.2 -->
      <g style="fill: #757575" transform="translate(7.2 211.995383) scale(0.1 -0.1)">
       <defs>
        <path id="OpenSans-2212" d="M 325 2041 
L 325 2472 
L 3328 2472 
L 3328 2041 
L 325 2041 
z
" transform="scale(0.015625)"/>
       </defs>
       <use xlink:href="#OpenSans-2212"/>
       <use xlink:href="#OpenSans-30" x="57.177734"/>
       <use xlink:href="#OpenSans-2e" x="114.355469"/>
       <use xlink:href="#OpenSans-32" x="140.966797"/>
      </g>
     </g>
    </g>
    <g id="ytick_2">
     <g id="line2d_11">
      <g>
       <use xlink:href="#m4936827ad6" x="34.0125" y="176.313459" style="fill: #757575; stroke: #757575; stroke-width: 0.8"/>
      </g>
     </g>
     <g id="text_11">
      <!-- 0.0 -->
      <g style="fill: #757575" transform="translate(12.917188 180.112677) scale(0.1 -0.1)">
       <use xlink:href="#OpenSans-30"/>
       <use xlink:href="#OpenSans-2e" x="57.177734"/>
       <use xlink:href="#OpenSans-30" x="83.789062"/>
      </g>
     </g>
    </g>
    <g id="ytick_3">
     <g id="line2d_12">
      <g>
       <use xlink:href="#m4936827ad6" x="34.0125" y="144.430753" style="fill: #757575; stroke: #757575; stroke-width: 0.8"/>
      </g>
     </g>
     <g id="text_12">
      <!-- 0.2 -->
      <g style="fill: #757575" transform="translate(12.917188 148.229972) scale(0.1 -0.1)">
       <use xlink:href="#OpenSans-30"/>
       <use xlink:href="#OpenSans-2e" x="57.177734"/>
       <use xlink:href="#OpenSans-32" x="83.789062"/>
      </g>
     </g>
    </g>
    <g id="ytick_4">
     <g id="line2d_13">
      <g>
       <use xlink:href="#m4936827ad6" x="34.0125" y="112.548047" style="fill: #757575; stroke: #757575; stroke-width: 0.8"/>
      </g>
     </g>
     <g id="text_13">
      <!-- 0.4 -->
      <g style="fill: #757575" transform="translate(12.917188 116.347266) scale(0.1 -0.1)">
       <use xlink:href="#OpenSans-30"/>
       <use xlink:href="#OpenSans-2e" x="57.177734"/>
       <use xlink:href="#OpenSans-34" x="83.789062"/>
      </g>
     </g>
    </g>
    <g id="ytick_5">
     <g id="line2d_14">
      <g>
       <use xlink:href="#m4936827ad6" x="34.0125" y="80.665341" style="fill: #757575; stroke: #757575; stroke-width: 0.8"/>
      </g>
     </g>
     <g id="text_14">
      <!-- 0.6 -->
      <g style="fill: #757575" transform="translate(12.917188 84.46456) scale(0.1 -0.1)">
       <defs>
        <path id="OpenSans-36" d="M 366 1953 
Q 366 3300 889 3967 
Q 1413 4634 2438 4634 
Q 2791 4634 2994 4575 
L 2994 4128 
Q 2753 4206 2444 4206 
Q 1709 4206 1321 3748 
Q 934 3291 897 2309 
L 934 2309 
Q 1278 2847 2022 2847 
Q 2638 2847 2992 2475 
Q 3347 2103 3347 1466 
Q 3347 753 2958 345 
Q 2569 -63 1906 -63 
Q 1197 -63 781 470 
Q 366 1003 366 1953 
z
M 1900 378 
Q 2344 378 2589 658 
Q 2834 938 2834 1466 
Q 2834 1919 2606 2178 
Q 2378 2438 1925 2438 
Q 1644 2438 1409 2322 
Q 1175 2206 1036 2003 
Q 897 1800 897 1581 
Q 897 1259 1022 981 
Q 1147 703 1376 540 
Q 1606 378 1900 378 
z
" transform="scale(0.015625)"/>
       </defs>
       <use xlink:href="#OpenSans-30"/>
       <use xlink:href="#OpenSans-2e" x="57.177734"/>
       <use xlink:href="#OpenSans-36" x="83.789062"/>
      </g>
     </g>
    </g>
    <g id="ytick_6">
     <g id="line2d_15">
      <g>
       <use xlink:href="#m4936827ad6" x="34.0125" y="48.782635" style="fill: #757575; stroke: #757575; stroke-width: 0.8"/>
      </g>
     </g>
     <g id="text_15">
      <!-- 0.8 -->
      <g style="fill: #757575" transform="translate(12.917188 52.581854) scale(0.1 -0.1)">
       <defs>
        <path id="OpenSans-38" d="M 1825 4634 
Q 2450 4634 2815 4343 
Q 3181 4053 3181 3541 
Q 3181 3203 2972 2925 
Q 2763 2647 2303 2419 
Q 2859 2153 3093 1861 
Q 3328 1569 3328 1184 
Q 3328 616 2931 276 
Q 2534 -63 1844 -63 
Q 1113 -63 719 257 
Q 325 578 325 1166 
Q 325 1950 1281 2388 
Q 850 2631 662 2914 
Q 475 3197 475 3547 
Q 475 4044 842 4339 
Q 1209 4634 1825 4634 
z
M 838 1153 
Q 838 778 1098 568 
Q 1359 359 1831 359 
Q 2297 359 2556 578 
Q 2816 797 2816 1178 
Q 2816 1481 2572 1717 
Q 2328 1953 1722 2175 
Q 1256 1975 1047 1733 
Q 838 1491 838 1153 
z
M 1819 4213 
Q 1428 4213 1206 4025 
Q 984 3838 984 3525 
Q 984 3238 1168 3031 
Q 1353 2825 1850 2619 
Q 2297 2806 2483 3022 
Q 2669 3238 2669 3525 
Q 2669 3841 2442 4027 
Q 2216 4213 1819 4213 
z
" transform="scale(0.015625)"/>
       </defs>
       <use xlink:href="#OpenSans-30"/>
       <use xlink:href="#OpenSans-2e" x="57.177734"/>
       <use xlink:href="#OpenSans-38" x="83.789062"/>
      </g>
     </g>
    </g>
    <g id="ytick_7">
     <g id="line2d_16">
      <g>
       <use xlink:href="#m4936827ad6" x="34.0125" y="16.899929" style="fill: #757575; stroke: #757575; stroke-width: 0.8"/>
      </g>
     </g>
     <g id="text_16">
      <!-- 1.0 -->
      <g style="fill: #757575" transform="translate(12.917188 20.699148) scale(0.1 -0.1)">
       <use xlink:href="#OpenSans-31"/>
       <use xlink:href="#OpenSans-2e" x="57.177734"/>
       <use xlink:href="#OpenSans-30" x="83.789062"/>
      </g>
     </g>
    </g>
   </g>
   <g id="line2d_17">
    <path d="M 49.811932 16.899929 
L 53.003736 17.327669 
L 56.195541 18.606746 
L 59.387345 20.724817 
L 62.579149 23.661465 
L 65.770954 27.388438 
L 68.962758 31.869972 
L 72.154563 37.063198 
L 75.346367 42.918634 
L 78.538171 49.380751 
L 81.729976 56.3886 
L 84.92178 63.876511 
L 88.113585 71.774827 
L 91.305389 80.010695 
L 94.497194 88.508876 
L 97.688998 97.192588 
L 100.880802 105.984354 
L 104.072607 114.80685 
L 107.264411 123.583753 
L 110.456216 132.240557 
L 113.64802 140.705374 
L 116.839824 148.909681 
L 120.031629 156.789038 
L 123.223433 164.283729 
L 126.415238 171.339361 
L 129.607042 177.907376 
L 132.798846 183.945499 
L 135.990651 189.4181 
L 139.182455 194.296473 
L 142.37426 198.55903 
L 145.566064 202.191409 
L 148.757868 205.186487 
L 151.949673 207.544313 
L 155.141477 209.271952 
L 158.333282 210.383248 
L 161.525086 210.898509 
L 164.71689 210.844115 
L 167.908695 210.252067 
L 171.100499 209.159465 
L 174.292304 207.607941 
L 177.484108 205.643042 
L 180.675913 203.313578 
L 183.867717 200.670942 
L 187.059521 197.768413 
L 190.251326 194.660445 
L 193.44313 191.401959 
L 196.634935 188.047645 
L 199.826739 184.651277 
L 203.018543 181.26506 
L 206.210348 177.93901 
L 209.402152 174.720369 
L 212.593957 171.653079 
L 215.785761 168.777308 
L 218.977565 166.129028 
L 222.16937 163.739669 
L 225.361174 161.635834 
L 228.552979 159.839088 
L 231.744783 158.365813 
L 234.936587 157.227146 
L 238.128392 156.428979 
L 241.320196 155.972034 
L 244.512001 155.852006 
L 247.703805 156.059772 
L 250.89561 156.581659 
L 254.087414 157.399768 
L 257.279218 158.492351 
L 260.471023 159.834229 
L 263.662827 161.397251 
L 266.854632 163.150779 
L 270.046436 165.062203 
L 273.23824 167.097466 
L 276.430045 169.221597 
L 279.621849 171.399251 
L 282.813654 173.595231 
L 286.005458 175.775007 
L 289.197262 177.905204 
L 292.389067 179.954068 
L 295.580871 181.891897 
L 298.772676 183.691429 
L 301.96448 185.328193 
L 305.156284 186.7808 
L 308.348089 188.031195 
L 311.539893 189.06485 
L 314.731698 189.870895 
L 317.923502 190.442201 
L 321.115306 190.775403 
L 324.307111 190.870863 
L 327.498915 190.732587 
L 330.69072 190.368081 
L 333.882524 189.788163 
L 337.074329 189.006728 
L 340.266133 188.040472 
L 343.457937 186.908581 
L 346.649742 185.632385 
L 349.841546 184.234993 
L 353.033351 182.7409 
L 356.225155 181.175592 
L 359.416959 179.565131 
L 362.608764 177.93575 
L 365.800568 176.313446 
" clip-path="url(#p4ac1552b20)" style="fill: none; stroke: #e574bc; stroke-width: 2; stroke-linecap: square"/>
   </g>
   <g id="line2d_18">
    <path d="M 49.811932 96.606694 
L 53.003736 96.820564 
L 56.195541 97.460103 
L 59.387345 98.519138 
L 62.579149 99.987462 
L 65.770954 101.850949 
L 68.962758 104.091716 
L 72.154563 106.688329 
L 75.346367 109.616047 
L 78.538171 112.847105 
L 81.729976 116.35103 
L 84.92178 120.094985 
L 88.113585 124.044143 
L 91.305389 128.162077 
L 94.497194 132.411167 
L 97.688998 136.753024 
L 100.880802 141.148906 
L 104.072607 145.560155 
L 107.264411 149.948606 
L 110.456216 154.277008 
L 113.64802 158.509416 
L 116.839824 162.61157 
L 120.031629 166.551248 
L 123.223433 170.298594 
L 126.415238 173.82641 
L 129.607042 177.110417 
L 132.798846 180.129479 
L 135.990651 182.865779 
L 139.182455 185.304966 
L 142.37426 187.436245 
L 145.566064 189.252434 
L 148.757868 190.749973 
L 151.949673 191.928886 
L 155.141477 192.792705 
L 158.333282 193.348353 
L 161.525086 193.605984 
L 164.71689 193.578787 
L 167.908695 193.282763 
L 171.100499 192.736462 
L 174.292304 191.9607 
L 177.484108 190.97825 
L 180.675913 189.813518 
L 183.867717 188.4922 
L 187.059521 187.040936 
L 190.251326 185.486952 
L 193.44313 183.857709 
L 196.634935 182.180552 
L 199.826739 180.482368 
L 203.018543 178.78926 
L 206.210348 177.126234 
L 209.402152 175.516914 
L 212.593957 173.983269 
L 215.785761 172.545383 
L 218.977565 171.221243 
L 222.16937 170.026564 
L 225.361174 168.974647 
L 228.552979 168.076273 
L 231.744783 167.339636 
L 234.936587 166.770303 
L 238.128392 166.371219 
L 241.320196 166.142746 
L 244.512001 166.082732 
L 247.703805 166.186615 
L 250.89561 166.447559 
L 254.087414 166.856613 
L 257.279218 167.402905 
L 260.471023 168.073844 
L 263.662827 168.855355 
L 266.854632 169.732119 
L 270.046436 170.687831 
L 273.23824 171.705462 
L 276.430045 172.767528 
L 279.621849 173.856355 
L 282.813654 174.954345 
L 286.005458 176.044233 
L 289.197262 177.109331 
L 292.389067 178.133763 
L 295.580871 179.102678 
L 298.772676 180.002444 
L 301.96448 180.820826 
L 305.156284 181.547129 
L 308.348089 182.172327 
L 311.539893 182.689155 
L 314.731698 183.092177 
L 317.923502 183.37783 
L 321.115306 183.544431 
L 324.307111 183.592161 
L 327.498915 183.523023 
L 330.69072 183.34077 
L 333.882524 183.050811 
L 337.074329 182.660093 
L 340.266133 182.176965 
L 343.457937 181.61102 
L 346.649742 180.972922 
L 349.841546 180.274226 
L 353.033351 179.527179 
L 356.225155 178.744525 
L 359.416959 177.939295 
L 362.608764 177.124604 
L 365.800568 176.313452 
" clip-path="url(#p4ac1552b20)" style="fill: none; stroke: #028090; stroke-width: 2; stroke-linecap: square"/>
   </g>
   <g id="line2d_19">
    <path d="M 49.811932 123.175615 
L 53.003736 123.318196 
L 56.195541 123.744555 
L 59.387345 124.450578 
L 62.579149 125.429461 
L 65.770954 126.671785 
L 68.962758 128.16563 
L 72.154563 129.896705 
L 75.346367 131.848517 
L 78.538171 134.002556 
L 81.729976 136.338506 
L 84.92178 138.834476 
L 88.113585 141.467248 
L 91.305389 144.212537 
L 94.497194 147.045264 
L 97.688998 149.939835 
L 100.880802 152.870424 
L 104.072607 155.811256 
L 107.264411 158.73689 
L 110.456216 161.622492 
L 113.64802 164.444097 
L 116.839824 167.178866 
L 120.031629 169.805318 
L 123.223433 172.303549 
L 126.415238 174.655426 
L 129.607042 176.844765 
L 132.798846 178.857472 
L 135.990651 180.681672 
L 139.182455 182.307797 
L 142.37426 183.728649 
L 145.566064 184.939442 
L 148.757868 185.937802 
L 151.949673 186.723743 
L 155.141477 187.299623 
L 158.333282 187.670055 
L 161.525086 187.841809 
L 164.71689 187.823678 
L 167.908695 187.626328 
L 171.100499 187.262128 
L 174.292304 186.744953 
L 177.484108 186.089986 
L 180.675913 185.313498 
L 183.867717 184.43262 
L 187.059521 183.46511 
L 190.251326 182.429121 
L 193.44313 181.342959 
L 196.634935 180.224854 
L 199.826739 179.092731 
L 203.018543 177.963993 
L 206.210348 176.855309 
L 209.402152 175.782429 
L 212.593957 174.759999 
L 215.785761 173.801409 
L 218.977565 172.918649 
L 222.16937 172.122196 
L 225.361174 171.420917 
L 228.552979 170.822002 
L 231.744783 170.33091 
L 234.936587 169.951355 
L 238.128392 169.685299 
L 241.320196 169.532984 
L 244.512001 169.492974 
L 247.703805 169.56223 
L 250.89561 169.736192 
L 254.087414 170.008895 
L 257.279218 170.37309 
L 260.471023 170.820382 
L 263.662827 171.341389 
L 266.854632 171.925899 
L 270.046436 172.56304 
L 273.23824 173.241461 
L 276.430045 173.949505 
L 279.621849 174.675389 
L 282.813654 175.407383 
L 286.005458 176.133975 
L 289.197262 176.84404 
L 292.389067 177.526995 
L 295.580871 178.172938 
L 298.772676 178.772782 
L 301.96448 179.31837 
L 305.156284 179.802572 
L 308.348089 180.219371 
L 311.539893 180.563923 
L 314.731698 180.832604 
L 317.923502 181.02304 
L 321.115306 181.134107 
L 324.307111 181.165927 
L 327.498915 181.119835 
L 330.69072 180.998333 
L 333.882524 180.805027 
L 337.074329 180.544548 
L 340.266133 180.222463 
L 343.457937 179.845166 
L 346.649742 179.419768 
L 349.841546 178.95397 
L 353.033351 178.455939 
L 356.225155 177.93417 
L 359.416959 177.397349 
L 362.608764 176.854222 
L 365.800568 176.313455 
" clip-path="url(#p4ac1552b20)" style="fill: none; stroke: #fe5d26; stroke-width: 2; stroke-linecap: square"/>
   </g>
   <g id="line2d_20">
    <path d="M 49.811932 136.460076 
L 53.003736 136.567011 
L 56.195541 136.886781 
L 59.387345 137.416298 
L 62.579149 138.15046 
L 65.770954 139.082204 
L 68.962758 140.202587 
L 72.154563 141.500894 
L 75.346367 142.964753 
L 78.538171 144.580282 
L 81.729976 146.332244 
L 84.92178 148.204222 
L 88.113585 150.178801 
L 91.305389 152.237768 
L 94.497194 154.362313 
L 97.688998 156.533241 
L 100.880802 158.731183 
L 104.072607 160.936807 
L 107.264411 163.131032 
L 110.456216 165.295233 
L 113.64802 167.411437 
L 116.839824 169.462514 
L 120.031629 171.432353 
L 123.223433 173.306026 
L 126.415238 175.069934 
L 129.607042 176.711938 
L 132.798846 178.221469 
L 135.990651 179.589619 
L 139.182455 180.809212 
L 142.37426 181.874852 
L 145.566064 182.782946 
L 148.757868 183.531716 
L 151.949673 184.121172 
L 155.141477 184.553082 
L 158.333282 184.830906 
L 161.525086 184.959721 
L 164.71689 184.946123 
L 167.908695 184.798111 
L 171.100499 184.52496 
L 174.292304 184.137079 
L 177.484108 183.645855 
L 180.675913 183.063488 
L 183.867717 182.40283 
L 187.059521 181.677197 
L 190.251326 180.900205 
L 193.44313 180.085584 
L 196.634935 179.247005 
L 199.826739 178.397913 
L 203.018543 177.551359 
L 206.210348 176.719846 
L 209.402152 175.915186 
L 212.593957 175.148364 
L 215.785761 174.429421 
L 218.977565 173.767351 
L 222.16937 173.170011 
L 225.361174 172.644053 
L 228.552979 172.194866 
L 231.744783 171.826547 
L 234.936587 171.541881 
L 238.128392 171.342339 
L 241.320196 171.228103 
L 244.512001 171.198096 
L 247.703805 171.250037 
L 250.89561 171.380509 
L 254.087414 171.585036 
L 257.279218 171.858182 
L 260.471023 172.193651 
L 263.662827 172.584407 
L 266.854632 173.022789 
L 270.046436 173.500645 
L 273.23824 174.00946 
L 276.430045 174.540493 
L 279.621849 175.084907 
L 282.813654 175.633902 
L 286.005458 176.178846 
L 289.197262 176.711395 
L 292.389067 177.223611 
L 295.580871 177.708068 
L 298.772676 178.157951 
L 301.96448 178.567142 
L 305.156284 178.930294 
L 308.348089 179.242893 
L 311.539893 179.501307 
L 314.731698 179.702818 
L 317.923502 179.845644 
L 321.115306 179.928945 
L 324.307111 179.95281 
L 327.498915 179.918241 
L 330.69072 179.827114 
L 333.882524 179.682135 
L 337.074329 179.486776 
L 340.266133 179.245212 
L 343.457937 178.962239 
L 346.649742 178.64319 
L 349.841546 178.293842 
L 353.033351 177.920319 
L 356.225155 177.528992 
L 359.416959 177.126377 
L 362.608764 176.719032 
L 365.800568 176.313456 
" clip-path="url(#p4ac1552b20)" style="fill: none; stroke: #1c1f33; stroke-width: 2; stroke-linecap: square"/>
   </g>
   <g id="line2d_21">
    <path d="M 49.811932 144.430753 
L 53.003736 144.516301 
L 56.195541 144.772116 
L 59.387345 145.19573 
L 62.579149 145.78306 
L 65.770954 146.528455 
L 68.962758 147.424761 
L 72.154563 148.463407 
L 75.346367 149.634494 
L 78.538171 150.926917 
L 81.729976 152.328487 
L 84.92178 153.826069 
L 88.113585 155.405732 
L 91.305389 157.052906 
L 94.497194 158.752542 
L 97.688998 160.489285 
L 100.880802 162.247638 
L 104.072607 164.012137 
L 107.264411 165.767518 
L 110.456216 167.498878 
L 113.64802 169.191842 
L 116.839824 170.832703 
L 120.031629 172.408575 
L 123.223433 173.907513 
L 126.415238 175.318639 
L 129.607042 176.632242 
L 132.798846 177.839867 
L 135.990651 178.934387 
L 139.182455 179.910062 
L 142.37426 180.762573 
L 145.566064 181.489049 
L 148.757868 182.088064 
L 151.949673 182.55963 
L 155.141477 182.905157 
L 158.333282 183.127417 
L 161.525086 183.230469 
L 164.71689 183.21959 
L 167.908695 183.10118 
L 171.100499 182.88266 
L 174.292304 182.572355 
L 177.484108 182.179375 
L 180.675913 181.713483 
L 183.867717 181.184955 
L 187.059521 180.60445 
L 190.251326 179.982856 
L 193.44313 179.331159 
L 196.634935 178.660296 
L 199.826739 177.981022 
L 203.018543 177.303779 
L 206.210348 176.638569 
L 209.402152 175.994841 
L 212.593957 175.381383 
L 215.785761 174.806229 
L 218.977565 174.276573 
L 222.16937 173.798701 
L 225.361174 173.377934 
L 228.552979 173.018585 
L 231.744783 172.72393 
L 234.936587 172.496196 
L 238.128392 172.336563 
L 241.320196 172.245174 
L 244.512001 172.221168 
L 247.703805 172.262721 
L 250.89561 172.367099 
L 254.087414 172.530721 
L 257.279218 172.749237 
L 260.471023 173.017613 
L 263.662827 173.330217 
L 266.854632 173.680923 
L 270.046436 174.063208 
L 273.23824 174.47026 
L 276.430045 174.895086 
L 279.621849 175.330617 
L 282.813654 175.769813 
L 286.005458 176.205768 
L 289.197262 176.631808 
L 292.389067 177.041581 
L 295.580871 177.429146 
L 298.772676 177.789053 
L 301.96448 178.116406 
L 305.156284 178.406927 
L 308.348089 178.657006 
L 311.539893 178.863737 
L 314.731698 179.024946 
L 317.923502 179.139207 
L 321.115306 179.205848 
L 324.307111 179.22494 
L 327.498915 179.197284 
L 330.69072 179.124383 
L 333.882524 179.0084 
L 337.074329 178.852113 
L 340.266133 178.658861 
L 343.457937 178.432483 
L 346.649742 178.177244 
L 349.841546 177.897766 
L 353.033351 177.598947 
L 356.225155 177.285885 
L 359.416959 176.963793 
L 362.608764 176.637917 
L 365.800568 176.313456 
" clip-path="url(#p4ac1552b20)" style="fill: none; stroke: #c1f7dc; stroke-width: 2; stroke-linecap: square"/>
   </g>
   <g id="patch_3">
    <path d="M 34.0125 220.598437 
L 34.0125 7.2 
" style="fill: none; stroke: #757575; stroke-linejoin: miter; stroke-linecap: square"/>
   </g>
   <g id="patch_4">
    <path d="M 34.0125 220.598437 
L 381.6 220.598437 
" style="fill: none; stroke: #757575; stroke-linejoin: miter; stroke-linecap: square"/>
   </g>
   <g id="legend_1">
    <g id="line2d_22">
     <path d="M 390.6 126.997656 
L 400.6 126.997656 
L 410.6 126.997656 
" style="fill: none; stroke: #e574bc; stroke-width: 2; stroke-linecap: square"/>
    </g>
    <g id="text_17">
     <!-- 0 -->
     <g style="fill: #757575" transform="translate(418.6 130.497656) scale(0.1 -0.1)">
      <use xlink:href="#OpenSans-30"/>
     </g>
    </g>
    <g id="line2d_23">
     <path d="M 390.6 141.999219 
L 400.6 141.999219 
L 410.6 141.999219 
" style="fill: none; stroke: #028090; stroke-width: 2; stroke-linecap: square"/>
    </g>
    <g id="text_18">
     <!-- 1 -->
     <g style="fill: #757575" transform="translate(418.6 145.499219) scale(0.1 -0.1)">
      <use xlink:href="#OpenSans-31"/>
     </g>
    </g>
    <g id="line2d_24">
     <path d="M 390.6 157.000781 
L 400.6 157.000781 
L 410.6 157.000781 
" style="fill: none; stroke: #fe5d26; stroke-width: 2; stroke-linecap: square"/>
    </g>
    <g id="text_19">
     <!-- 2 -->
     <g style="fill: #757575" transform="translate(418.6 160.500781) scale(0.1 -0.1)">
      <use xlink:href="#OpenSans-32"/>
     </g>
    </g>
    <g id="line2d_25">
     <path d="M 390.6 172.002344 
L 400.6 172.002344 
L 410.6 172.002344 
" style="fill: none; stroke: #1c1f33; stroke-width: 2; stroke-linecap: square"/>
    </g>
    <g id="text_20">
     <!-- 3 -->
     <g style="fill: #757575" transform="translate(418.6 175.502344) scale(0.1 -0.1)">
      <use xlink:href="#OpenSans-33"/>
     </g>
    </g>
    <g id="line2d_26">
     <path d="M 390.6 187.003906 
L 400.6 187.003906 
L 410.6 187.003906 
" style="fill: none; stroke: #c1f7dc; stroke-width: 2; stroke-linecap: square"/>
    </g>
    <g id="text_21">
     <!-- 4 -->
     <g style="fill: #757575" transform="translate(418.6 190.503906) scale(0.1 -0.1)">
      <use xlink:href="#OpenSans-34"/>
     </g>
    </g>
   </g>
  </g>
 </g>
 <defs>
  <clipPath id="p4ac1552b20">
   <rect x="34.0125" y="7.2" width="347.5875" height="213.398438"/>
  </clipPath>
 </defs>
</svg>
