<?xml version="1.0" encoding="utf-8" standalone="no"?>
<!DOCTYPE svg PUBLIC "-//W3C//DTD SVG 1.1//EN"
  "http://www.w3.org/Graphics/SVG/1.1/DTD/svg11.dtd">
<svg xmlns:xlink="http://www.w3.org/1999/xlink" width="464.494375pt" height="314.772812pt" viewBox="0 0 464.494375 314.772812" xmlns="http://www.w3.org/2000/svg" version="1.1">
 <metadata>
  <rdf:RDF xmlns:dc="http://purl.org/dc/elements/1.1/" xmlns:cc="http://creativecommons.org/ns#" xmlns:rdf="http://www.w3.org/1999/02/22-rdf-syntax-ns#">
   <cc:Work>
    <dc:type rdf:resource="http://purl.org/dc/dcmitype/StillImage"/>
    <dc:date>2024-06-09T22:02:29.436188</dc:date>
    <dc:format>image/svg+xml</dc:format>
    <dc:creator>
     <cc:Agent>
      <dc:title>Matplotlib v3.8.0, https://matplotlib.org/</dc:title>
     </cc:Agent>
    </dc:creator>
   </cc:Work>
  </rdf:RDF>
 </metadata>
 <defs>
  <style type="text/css">*{stroke-linejoin: round; stroke-linecap: butt}</style>
 </defs>
 <g id="figure_1">
  <g id="patch_1">
   <path d="M 0 314.772812 
L 464.494375 314.772812 
L 464.494375 0 
L 0 0 
z
" style="fill: #fdf4d9"/>
  </g>
  <g id="axes_1">
   <g id="patch_2">
    <path d="M 43.339375 288.959062 
L 400.459375 288.959062 
L 400.459375 11.759062 
L 43.339375 11.759062 
z
" style="fill: #fdf4d9"/>
   </g>
   <g id="matplotlib.axis_1">
    <g id="xtick_1">
     <g id="line2d_1">
      <path d="M 43.339375 288.959062 
L 43.339375 11.759062 
" clip-path="url(#pd82737b4cf)" style="fill: none; stroke: #bdcbc8; stroke-width: 0.5; stroke-linecap: square"/>
     </g>
     <g id="line2d_2">
      <defs>
       <path id="m161fbc8df4" d="M 0 0 
L 0 3.5 
" style="stroke: #1a1a1a; stroke-width: 0.8"/>
      </defs>
      <g>
       <use xlink:href="#m161fbc8df4" x="43.339375" y="288.959062" style="fill: #1a1a1a; stroke: #1a1a1a; stroke-width: 0.8"/>
      </g>
     </g>
     <g id="text_1">
      <!-- 0.0 -->
      <g style="fill: #1a1a1a" transform="translate(33.7975 305.077187) scale(0.12 -0.12)">
       <defs>
        <path id="DejaVuSans-30" d="M 2034 4250 
Q 1547 4250 1301 3770 
Q 1056 3291 1056 2328 
Q 1056 1369 1301 889 
Q 1547 409 2034 409 
Q 2525 409 2770 889 
Q 3016 1369 3016 2328 
Q 3016 3291 2770 3770 
Q 2525 4250 2034 4250 
z
M 2034 4750 
Q 2819 4750 3233 4129 
Q 3647 3509 3647 2328 
Q 3647 1150 3233 529 
Q 2819 -91 2034 -91 
Q 1250 -91 836 529 
Q 422 1150 422 2328 
Q 422 3509 836 4129 
Q 1250 4750 2034 4750 
z
" transform="scale(0.015625)"/>
        <path id="DejaVuSans-2e" d="M 684 794 
L 1344 794 
L 1344 0 
L 684 0 
L 684 794 
z
" transform="scale(0.015625)"/>
       </defs>
       <use xlink:href="#DejaVuSans-30"/>
       <use xlink:href="#DejaVuSans-2e" x="63.623047"/>
       <use xlink:href="#DejaVuSans-30" x="95.410156"/>
      </g>
     </g>
    </g>
    <g id="xtick_2">
     <g id="line2d_3">
      <path d="M 87.979375 288.959062 
L 87.979375 11.759062 
" clip-path="url(#pd82737b4cf)" style="fill: none; stroke: #bdcbc8; stroke-width: 0.5; stroke-linecap: square"/>
     </g>
     <g id="line2d_4">
      <g>
       <use xlink:href="#m161fbc8df4" x="87.979375" y="288.959062" style="fill: #1a1a1a; stroke: #1a1a1a; stroke-width: 0.8"/>
      </g>
     </g>
     <g id="text_2">
      <!-- 0.5 -->
      <g style="fill: #1a1a1a" transform="translate(78.4375 305.077187) scale(0.12 -0.12)">
       <defs>
        <path id="DejaVuSans-35" d="M 691 4666 
L 3169 4666 
L 3169 4134 
L 1269 4134 
L 1269 2991 
Q 1406 3038 1543 3061 
Q 1681 3084 1819 3084 
Q 2600 3084 3056 2656 
Q 3513 2228 3513 1497 
Q 3513 744 3044 326 
Q 2575 -91 1722 -91 
Q 1428 -91 1123 -41 
Q 819 9 494 109 
L 494 744 
Q 775 591 1075 516 
Q 1375 441 1709 441 
Q 2250 441 2565 725 
Q 2881 1009 2881 1497 
Q 2881 1984 2565 2268 
Q 2250 2553 1709 2553 
Q 1456 2553 1204 2497 
Q 953 2441 691 2322 
L 691 4666 
z
" transform="scale(0.015625)"/>
       </defs>
       <use xlink:href="#DejaVuSans-30"/>
       <use xlink:href="#DejaVuSans-2e" x="63.623047"/>
       <use xlink:href="#DejaVuSans-35" x="95.410156"/>
      </g>
     </g>
    </g>
    <g id="xtick_3">
     <g id="line2d_5">
      <path d="M 132.619375 288.959062 
L 132.619375 11.759062 
" clip-path="url(#pd82737b4cf)" style="fill: none; stroke: #bdcbc8; stroke-width: 0.5; stroke-linecap: square"/>
     </g>
     <g id="line2d_6">
      <g>
       <use xlink:href="#m161fbc8df4" x="132.619375" y="288.959062" style="fill: #1a1a1a; stroke: #1a1a1a; stroke-width: 0.8"/>
      </g>
     </g>
     <g id="text_3">
      <!-- 1.0 -->
      <g style="fill: #1a1a1a" transform="translate(123.0775 305.077187) scale(0.12 -0.12)">
       <defs>
        <path id="DejaVuSans-31" d="M 794 531 
L 1825 531 
L 1825 4091 
L 703 3866 
L 703 4441 
L 1819 4666 
L 2450 4666 
L 2450 531 
L 3481 531 
L 3481 0 
L 794 0 
L 794 531 
z
" transform="scale(0.015625)"/>
       </defs>
       <use xlink:href="#DejaVuSans-31"/>
       <use xlink:href="#DejaVuSans-2e" x="63.623047"/>
       <use xlink:href="#DejaVuSans-30" x="95.410156"/>
      </g>
     </g>
    </g>
    <g id="xtick_4">
     <g id="line2d_7">
      <path d="M 177.259375 288.959062 
L 177.259375 11.759062 
" clip-path="url(#pd82737b4cf)" style="fill: none; stroke: #bdcbc8; stroke-width: 0.5; stroke-linecap: square"/>
     </g>
     <g id="line2d_8">
      <g>
       <use xlink:href="#m161fbc8df4" x="177.259375" y="288.959062" style="fill: #1a1a1a; stroke: #1a1a1a; stroke-width: 0.8"/>
      </g>
     </g>
     <g id="text_4">
      <!-- 1.5 -->
      <g style="fill: #1a1a1a" transform="translate(167.7175 305.077187) scale(0.12 -0.12)">
       <use xlink:href="#DejaVuSans-31"/>
       <use xlink:href="#DejaVuSans-2e" x="63.623047"/>
       <use xlink:href="#DejaVuSans-35" x="95.410156"/>
      </g>
     </g>
    </g>
    <g id="xtick_5">
     <g id="line2d_9">
      <path d="M 221.899375 288.959062 
L 221.899375 11.759062 
" clip-path="url(#pd82737b4cf)" style="fill: none; stroke: #bdcbc8; stroke-width: 0.5; stroke-linecap: square"/>
     </g>
     <g id="line2d_10">
      <g>
       <use xlink:href="#m161fbc8df4" x="221.899375" y="288.959062" style="fill: #1a1a1a; stroke: #1a1a1a; stroke-width: 0.8"/>
      </g>
     </g>
     <g id="text_5">
      <!-- 2.0 -->
      <g style="fill: #1a1a1a" transform="translate(212.3575 305.077187) scale(0.12 -0.12)">
       <defs>
        <path id="DejaVuSans-32" d="M 1228 531 
L 3431 531 
L 3431 0 
L 469 0 
L 469 531 
Q 828 903 1448 1529 
Q 2069 2156 2228 2338 
Q 2531 2678 2651 2914 
Q 2772 3150 2772 3378 
Q 2772 3750 2511 3984 
Q 2250 4219 1831 4219 
Q 1534 4219 1204 4116 
Q 875 4013 500 3803 
L 500 4441 
Q 881 4594 1212 4672 
Q 1544 4750 1819 4750 
Q 2544 4750 2975 4387 
Q 3406 4025 3406 3419 
Q 3406 3131 3298 2873 
Q 3191 2616 2906 2266 
Q 2828 2175 2409 1742 
Q 1991 1309 1228 531 
z
" transform="scale(0.015625)"/>
       </defs>
       <use xlink:href="#DejaVuSans-32"/>
       <use xlink:href="#DejaVuSans-2e" x="63.623047"/>
       <use xlink:href="#DejaVuSans-30" x="95.410156"/>
      </g>
     </g>
    </g>
    <g id="xtick_6">
     <g id="line2d_11">
      <path d="M 266.539375 288.959062 
L 266.539375 11.759062 
" clip-path="url(#pd82737b4cf)" style="fill: none; stroke: #bdcbc8; stroke-width: 0.5; stroke-linecap: square"/>
     </g>
     <g id="line2d_12">
      <g>
       <use xlink:href="#m161fbc8df4" x="266.539375" y="288.959062" style="fill: #1a1a1a; stroke: #1a1a1a; stroke-width: 0.8"/>
      </g>
     </g>
     <g id="text_6">
      <!-- 2.5 -->
      <g style="fill: #1a1a1a" transform="translate(256.9975 305.077187) scale(0.12 -0.12)">
       <use xlink:href="#DejaVuSans-32"/>
       <use xlink:href="#DejaVuSans-2e" x="63.623047"/>
       <use xlink:href="#DejaVuSans-35" x="95.410156"/>
      </g>
     </g>
    </g>
    <g id="xtick_7">
     <g id="line2d_13">
      <path d="M 311.179375 288.959062 
L 311.179375 11.759062 
" clip-path="url(#pd82737b4cf)" style="fill: none; stroke: #bdcbc8; stroke-width: 0.5; stroke-linecap: square"/>
     </g>
     <g id="line2d_14">
      <g>
       <use xlink:href="#m161fbc8df4" x="311.179375" y="288.959062" style="fill: #1a1a1a; stroke: #1a1a1a; stroke-width: 0.8"/>
      </g>
     </g>
     <g id="text_7">
      <!-- 3.0 -->
      <g style="fill: #1a1a1a" transform="translate(301.6375 305.077187) scale(0.12 -0.12)">
       <defs>
        <path id="DejaVuSans-33" d="M 2597 2516 
Q 3050 2419 3304 2112 
Q 3559 1806 3559 1356 
Q 3559 666 3084 287 
Q 2609 -91 1734 -91 
Q 1441 -91 1130 -33 
Q 819 25 488 141 
L 488 750 
Q 750 597 1062 519 
Q 1375 441 1716 441 
Q 2309 441 2620 675 
Q 2931 909 2931 1356 
Q 2931 1769 2642 2001 
Q 2353 2234 1838 2234 
L 1294 2234 
L 1294 2753 
L 1863 2753 
Q 2328 2753 2575 2939 
Q 2822 3125 2822 3475 
Q 2822 3834 2567 4026 
Q 2313 4219 1838 4219 
Q 1578 4219 1281 4162 
Q 984 4106 628 3988 
L 628 4550 
Q 988 4650 1302 4700 
Q 1616 4750 1894 4750 
Q 2613 4750 3031 4423 
Q 3450 4097 3450 3541 
Q 3450 3153 3228 2886 
Q 3006 2619 2597 2516 
z
" transform="scale(0.015625)"/>
       </defs>
       <use xlink:href="#DejaVuSans-33"/>
       <use xlink:href="#DejaVuSans-2e" x="63.623047"/>
       <use xlink:href="#DejaVuSans-30" x="95.410156"/>
      </g>
     </g>
    </g>
    <g id="xtick_8">
     <g id="line2d_15">
      <path d="M 355.819375 288.959062 
L 355.819375 11.759062 
" clip-path="url(#pd82737b4cf)" style="fill: none; stroke: #bdcbc8; stroke-width: 0.5; stroke-linecap: square"/>
     </g>
     <g id="line2d_16">
      <g>
       <use xlink:href="#m161fbc8df4" x="355.819375" y="288.959062" style="fill: #1a1a1a; stroke: #1a1a1a; stroke-width: 0.8"/>
      </g>
     </g>
     <g id="text_8">
      <!-- 3.5 -->
      <g style="fill: #1a1a1a" transform="translate(346.2775 305.077187) scale(0.12 -0.12)">
       <use xlink:href="#DejaVuSans-33"/>
       <use xlink:href="#DejaVuSans-2e" x="63.623047"/>
       <use xlink:href="#DejaVuSans-35" x="95.410156"/>
      </g>
     </g>
    </g>
    <g id="xtick_9">
     <g id="line2d_17">
      <path d="M 400.459375 288.959062 
L 400.459375 11.759062 
" clip-path="url(#pd82737b4cf)" style="fill: none; stroke: #bdcbc8; stroke-width: 0.5; stroke-linecap: square"/>
     </g>
     <g id="line2d_18">
      <g>
       <use xlink:href="#m161fbc8df4" x="400.459375" y="288.959062" style="fill: #1a1a1a; stroke: #1a1a1a; stroke-width: 0.8"/>
      </g>
     </g>
     <g id="text_9">
      <!-- 4.0 -->
      <g style="fill: #1a1a1a" transform="translate(390.9175 305.077187) scale(0.12 -0.12)">
       <defs>
        <path id="DejaVuSans-34" d="M 2419 4116 
L 825 1625 
L 2419 1625 
L 2419 4116 
z
M 2253 4666 
L 3047 4666 
L 3047 1625 
L 3713 1625 
L 3713 1100 
L 3047 1100 
L 3047 0 
L 2419 0 
L 2419 1100 
L 313 1100 
L 313 1709 
L 2253 4666 
z
" transform="scale(0.015625)"/>
       </defs>
       <use xlink:href="#DejaVuSans-34"/>
       <use xlink:href="#DejaVuSans-2e" x="63.623047"/>
       <use xlink:href="#DejaVuSans-30" x="95.410156"/>
      </g>
     </g>
    </g>
   </g>
   <g id="matplotlib.axis_2">
    <g id="ytick_1">
     <g id="line2d_19">
      <path d="M 43.339375 288.959062 
L 400.459375 288.959062 
" clip-path="url(#pd82737b4cf)" style="fill: none; stroke: #bdcbc8; stroke-width: 0.5; stroke-linecap: square"/>
     </g>
     <g id="line2d_20">
      <defs>
       <path id="meab9199598" d="M 0 0 
L -3.5 0 
" style="stroke: #1a1a1a; stroke-width: 0.8"/>
      </defs>
      <g>
       <use xlink:href="#meab9199598" x="43.339375" y="288.959062" style="fill: #1a1a1a; stroke: #1a1a1a; stroke-width: 0.8"/>
      </g>
     </g>
     <g id="text_10">
      <!-- −0.4 -->
      <g style="fill: #1a1a1a" transform="translate(7.2 293.518125) scale(0.12 -0.12)">
       <defs>
        <path id="DejaVuSans-2212" d="M 678 2272 
L 4684 2272 
L 4684 1741 
L 678 1741 
L 678 2272 
z
" transform="scale(0.015625)"/>
       </defs>
       <use xlink:href="#DejaVuSans-2212"/>
       <use xlink:href="#DejaVuSans-30" x="83.789062"/>
       <use xlink:href="#DejaVuSans-2e" x="147.412109"/>
       <use xlink:href="#DejaVuSans-34" x="179.199219"/>
      </g>
     </g>
    </g>
    <g id="ytick_2">
     <g id="line2d_21">
      <path d="M 43.339375 249.359062 
L 400.459375 249.359062 
" clip-path="url(#pd82737b4cf)" style="fill: none; stroke: #bdcbc8; stroke-width: 0.5; stroke-linecap: square"/>
     </g>
     <g id="line2d_22">
      <g>
       <use xlink:href="#meab9199598" x="43.339375" y="249.359062" style="fill: #1a1a1a; stroke: #1a1a1a; stroke-width: 0.8"/>
      </g>
     </g>
     <g id="text_11">
      <!-- −0.2 -->
      <g style="fill: #1a1a1a" transform="translate(7.2 253.918125) scale(0.12 -0.12)">
       <use xlink:href="#DejaVuSans-2212"/>
       <use xlink:href="#DejaVuSans-30" x="83.789062"/>
       <use xlink:href="#DejaVuSans-2e" x="147.412109"/>
       <use xlink:href="#DejaVuSans-32" x="179.199219"/>
      </g>
     </g>
    </g>
    <g id="ytick_3">
     <g id="line2d_23">
      <path d="M 43.339375 209.759062 
L 400.459375 209.759062 
" clip-path="url(#pd82737b4cf)" style="fill: none; stroke: #bdcbc8; stroke-width: 0.5; stroke-linecap: square"/>
     </g>
     <g id="line2d_24">
      <g>
       <use xlink:href="#meab9199598" x="43.339375" y="209.759062" style="fill: #1a1a1a; stroke: #1a1a1a; stroke-width: 0.8"/>
      </g>
     </g>
     <g id="text_12">
      <!-- 0.0 -->
      <g style="fill: #1a1a1a" transform="translate(17.255625 214.318125) scale(0.12 -0.12)">
       <use xlink:href="#DejaVuSans-30"/>
       <use xlink:href="#DejaVuSans-2e" x="63.623047"/>
       <use xlink:href="#DejaVuSans-30" x="95.410156"/>
      </g>
     </g>
    </g>
    <g id="ytick_4">
     <g id="line2d_25">
      <path d="M 43.339375 170.159062 
L 400.459375 170.159062 
" clip-path="url(#pd82737b4cf)" style="fill: none; stroke: #bdcbc8; stroke-width: 0.5; stroke-linecap: square"/>
     </g>
     <g id="line2d_26">
      <g>
       <use xlink:href="#meab9199598" x="43.339375" y="170.159062" style="fill: #1a1a1a; stroke: #1a1a1a; stroke-width: 0.8"/>
      </g>
     </g>
     <g id="text_13">
      <!-- 0.2 -->
      <g style="fill: #1a1a1a" transform="translate(17.255625 174.718125) scale(0.12 -0.12)">
       <use xlink:href="#DejaVuSans-30"/>
       <use xlink:href="#DejaVuSans-2e" x="63.623047"/>
       <use xlink:href="#DejaVuSans-32" x="95.410156"/>
      </g>
     </g>
    </g>
    <g id="ytick_5">
     <g id="line2d_27">
      <path d="M 43.339375 130.559062 
L 400.459375 130.559062 
" clip-path="url(#pd82737b4cf)" style="fill: none; stroke: #bdcbc8; stroke-width: 0.5; stroke-linecap: square"/>
     </g>
     <g id="line2d_28">
      <g>
       <use xlink:href="#meab9199598" x="43.339375" y="130.559062" style="fill: #1a1a1a; stroke: #1a1a1a; stroke-width: 0.8"/>
      </g>
     </g>
     <g id="text_14">
      <!-- 0.4 -->
      <g style="fill: #1a1a1a" transform="translate(17.255625 135.118125) scale(0.12 -0.12)">
       <use xlink:href="#DejaVuSans-30"/>
       <use xlink:href="#DejaVuSans-2e" x="63.623047"/>
       <use xlink:href="#DejaVuSans-34" x="95.410156"/>
      </g>
     </g>
    </g>
    <g id="ytick_6">
     <g id="line2d_29">
      <path d="M 43.339375 90.959062 
L 400.459375 90.959062 
" clip-path="url(#pd82737b4cf)" style="fill: none; stroke: #bdcbc8; stroke-width: 0.5; stroke-linecap: square"/>
     </g>
     <g id="line2d_30">
      <g>
       <use xlink:href="#meab9199598" x="43.339375" y="90.959062" style="fill: #1a1a1a; stroke: #1a1a1a; stroke-width: 0.8"/>
      </g>
     </g>
     <g id="text_15">
      <!-- 0.6 -->
      <g style="fill: #1a1a1a" transform="translate(17.255625 95.518125) scale(0.12 -0.12)">
       <defs>
        <path id="DejaVuSans-36" d="M 2113 2584 
Q 1688 2584 1439 2293 
Q 1191 2003 1191 1497 
Q 1191 994 1439 701 
Q 1688 409 2113 409 
Q 2538 409 2786 701 
Q 3034 994 3034 1497 
Q 3034 2003 2786 2293 
Q 2538 2584 2113 2584 
z
M 3366 4563 
L 3366 3988 
Q 3128 4100 2886 4159 
Q 2644 4219 2406 4219 
Q 1781 4219 1451 3797 
Q 1122 3375 1075 2522 
Q 1259 2794 1537 2939 
Q 1816 3084 2150 3084 
Q 2853 3084 3261 2657 
Q 3669 2231 3669 1497 
Q 3669 778 3244 343 
Q 2819 -91 2113 -91 
Q 1303 -91 875 529 
Q 447 1150 447 2328 
Q 447 3434 972 4092 
Q 1497 4750 2381 4750 
Q 2619 4750 2861 4703 
Q 3103 4656 3366 4563 
z
" transform="scale(0.015625)"/>
       </defs>
       <use xlink:href="#DejaVuSans-30"/>
       <use xlink:href="#DejaVuSans-2e" x="63.623047"/>
       <use xlink:href="#DejaVuSans-36" x="95.410156"/>
      </g>
     </g>
    </g>
    <g id="ytick_7">
     <g id="line2d_31">
      <path d="M 43.339375 51.359062 
L 400.459375 51.359062 
" clip-path="url(#pd82737b4cf)" style="fill: none; stroke: #bdcbc8; stroke-width: 0.5; stroke-linecap: square"/>
     </g>
     <g id="line2d_32">
      <g>
       <use xlink:href="#meab9199598" x="43.339375" y="51.359062" style="fill: #1a1a1a; stroke: #1a1a1a; stroke-width: 0.8"/>
      </g>
     </g>
     <g id="text_16">
      <!-- 0.8 -->
      <g style="fill: #1a1a1a" transform="translate(17.255625 55.918125) scale(0.12 -0.12)">
       <defs>
        <path id="DejaVuSans-38" d="M 2034 2216 
Q 1584 2216 1326 1975 
Q 1069 1734 1069 1313 
Q 1069 891 1326 650 
Q 1584 409 2034 409 
Q 2484 409 2743 651 
Q 3003 894 3003 1313 
Q 3003 1734 2745 1975 
Q 2488 2216 2034 2216 
z
M 1403 2484 
Q 997 2584 770 2862 
Q 544 3141 544 3541 
Q 544 4100 942 4425 
Q 1341 4750 2034 4750 
Q 2731 4750 3128 4425 
Q 3525 4100 3525 3541 
Q 3525 3141 3298 2862 
Q 3072 2584 2669 2484 
Q 3125 2378 3379 2068 
Q 3634 1759 3634 1313 
Q 3634 634 3220 271 
Q 2806 -91 2034 -91 
Q 1263 -91 848 271 
Q 434 634 434 1313 
Q 434 1759 690 2068 
Q 947 2378 1403 2484 
z
M 1172 3481 
Q 1172 3119 1398 2916 
Q 1625 2713 2034 2713 
Q 2441 2713 2670 2916 
Q 2900 3119 2900 3481 
Q 2900 3844 2670 4047 
Q 2441 4250 2034 4250 
Q 1625 4250 1398 4047 
Q 1172 3844 1172 3481 
z
" transform="scale(0.015625)"/>
       </defs>
       <use xlink:href="#DejaVuSans-30"/>
       <use xlink:href="#DejaVuSans-2e" x="63.623047"/>
       <use xlink:href="#DejaVuSans-38" x="95.410156"/>
      </g>
     </g>
    </g>
    <g id="ytick_8">
     <g id="line2d_33">
      <path d="M 43.339375 11.759062 
L 400.459375 11.759062 
" clip-path="url(#pd82737b4cf)" style="fill: none; stroke: #bdcbc8; stroke-width: 0.5; stroke-linecap: square"/>
     </g>
     <g id="line2d_34">
      <g>
       <use xlink:href="#meab9199598" x="43.339375" y="11.759062" style="fill: #1a1a1a; stroke: #1a1a1a; stroke-width: 0.8"/>
      </g>
     </g>
     <g id="text_17">
      <!-- 1.0 -->
      <g style="fill: #1a1a1a" transform="translate(17.255625 16.318125) scale(0.12 -0.12)">
       <use xlink:href="#DejaVuSans-31"/>
       <use xlink:href="#DejaVuSans-2e" x="63.623047"/>
       <use xlink:href="#DejaVuSans-30" x="95.410156"/>
      </g>
     </g>
    </g>
   </g>
   <g id="line2d_35">
    <path d="M 43.339375 11.759063 
L 46.946648 12.290339 
L 50.55392 13.87902 
L 54.161193 16.509774 
L 57.768466 20.157246 
L 61.375739 24.786344 
L 64.983011 30.352645 
L 68.590284 36.802905 
L 72.197557 44.075665 
L 75.80483 52.101954 
L 79.412102 60.806072 
L 83.019375 70.106451 
L 86.626648 79.916576 
L 90.23392 90.145957 
L 93.841193 100.701146 
L 97.448466 111.486774 
L 101.055739 122.40661 
L 104.663011 133.364616 
L 108.270284 144.265991 
L 111.877557 155.018198 
L 115.48483 165.531945 
L 119.092102 175.722128 
L 122.699375 185.508703 
L 126.306648 194.817505 
L 129.91392 203.580971 
L 133.521193 211.738792 
L 137.128466 219.238459 
L 140.735739 226.035717 
L 144.343011 232.094913 
L 147.950284 237.389234 
L 151.557557 241.90084 
L 155.16483 245.620885 
L 158.772102 248.549428 
L 162.379375 250.695247 
L 165.986648 252.075535 
L 169.59392 252.715516 
L 173.201193 252.647956 
L 176.808466 251.912602 
L 180.415739 250.555533 
L 184.023011 248.628458 
L 187.630284 246.187949 
L 191.237557 243.294632 
L 194.84483 240.01234 
L 198.452102 236.407246 
L 202.059375 232.546986 
L 205.666648 228.499774 
L 209.27392 224.333539 
L 212.881193 220.115071 
L 216.488466 215.909212 
L 220.095739 211.778082 
L 223.703011 207.780361 
L 227.310284 203.970626 
L 230.917557 200.398767 
L 234.52483 197.109463 
L 238.132102 194.141753 
L 241.739375 191.52868 
L 245.346648 189.297026 
L 248.95392 187.467141 
L 252.561193 186.052857 
L 256.168466 185.061492 
L 259.775739 184.493941 
L 263.383011 184.34486 
L 266.990284 184.602917 
L 270.597557 185.251128 
L 274.20483 186.267263 
L 277.812102 187.624308 
L 281.419375 189.290992 
L 285.026648 191.232346 
L 288.63392 193.410321 
L 292.241193 195.78441 
L 295.848466 198.312314 
L 299.455739 200.950597 
L 303.063011 203.655358 
L 306.670284 206.382881 
L 310.277557 209.090277 
L 313.88483 211.736094 
L 317.492102 214.280891 
L 321.099375 216.687776 
L 324.706648 218.922891 
L 328.31392 220.955837 
L 331.921193 222.760051 
L 335.528466 224.313109 
L 339.135739 225.596963 
L 342.743011 226.598113 
L 346.350284 227.307705 
L 349.957557 227.721559 
L 353.56483 227.840125 
L 357.172102 227.668379 
L 360.779375 227.215644 
L 364.386648 226.495355 
L 367.99392 225.524771 
L 371.601193 224.324631 
L 375.208466 222.918762 
L 378.815739 221.33366 
L 382.423011 219.598025 
L 386.030284 217.742283 
L 389.637557 215.798088 
L 393.24483 213.797811 
L 396.852102 211.774034 
L 400.459375 209.759047 
" clip-path="url(#pd82737b4cf)" style="fill: none; stroke: #b12d44; stroke-width: 2; stroke-linecap: square"/>
   </g>
   <g id="line2d_36">
    <path d="M 43.339375 110.759063 
L 46.946648 111.024701 
L 50.55392 111.819041 
L 54.161193 113.134418 
L 57.768466 114.958154 
L 61.375739 117.272703 
L 64.983011 120.055854 
L 68.590284 123.280984 
L 72.197557 126.917364 
L 75.80483 130.930508 
L 79.412102 135.282567 
L 83.019375 139.932757 
L 86.626648 144.837819 
L 90.23392 149.95251 
L 93.841193 155.230104 
L 97.448466 160.622918 
L 101.055739 166.082836 
L 104.663011 171.561839 
L 108.270284 177.012527 
L 111.877557 182.38863 
L 115.48483 187.645504 
L 119.092102 192.740595 
L 122.699375 197.633883 
L 126.306648 202.288284 
L 129.91392 206.670017 
L 133.521193 210.748927 
L 137.128466 214.498761 
L 140.735739 217.89739 
L 144.343011 220.926988 
L 147.950284 223.574148 
L 151.557557 225.829951 
L 155.16483 227.689974 
L 158.772102 229.154245 
L 162.379375 230.227155 
L 165.986648 230.917299 
L 169.59392 231.237289 
L 173.201193 231.203509 
L 176.808466 230.835832 
L 180.415739 230.157298 
L 184.023011 229.19376 
L 187.630284 227.973506 
L 191.237557 226.526847 
L 194.84483 224.885701 
L 198.452102 223.083154 
L 202.059375 221.153024 
L 205.666648 219.129418 
L 209.27392 217.046301 
L 212.881193 214.937067 
L 216.488466 212.834137 
L 220.095739 210.768572 
L 223.703011 208.769712 
L 227.310284 206.864844 
L 230.917557 205.078915 
L 234.52483 203.434263 
L 238.132102 201.950408 
L 241.739375 200.643871 
L 245.346648 199.528044 
L 248.95392 198.613102 
L 252.561193 197.90596 
L 256.168466 197.410277 
L 259.775739 197.126502 
L 263.383011 197.051961 
L 266.990284 197.18099 
L 270.597557 197.505095 
L 274.20483 198.013163 
L 277.812102 198.691685 
L 281.419375 199.525027 
L 285.026648 200.495704 
L 288.63392 201.584692 
L 292.241193 202.771736 
L 295.848466 204.035688 
L 299.455739 205.35483 
L 303.063011 206.70721 
L 306.670284 208.070972 
L 310.277557 209.42467 
L 313.88483 210.747578 
L 317.492102 212.019977 
L 321.099375 213.223419 
L 324.706648 214.340977 
L 328.31392 215.35745 
L 331.921193 216.259557 
L 335.528466 217.036086 
L 339.135739 217.678013 
L 342.743011 218.178588 
L 346.350284 218.533384 
L 349.957557 218.740311 
L 353.56483 218.799594 
L 357.172102 218.713721 
L 360.779375 218.487353 
L 364.386648 218.127209 
L 367.99392 217.641917 
L 371.601193 217.041847 
L 375.208466 216.338912 
L 378.815739 215.546361 
L 382.423011 214.678544 
L 386.030284 213.750673 
L 389.637557 212.778575 
L 393.24483 211.778437 
L 396.852102 210.766548 
L 400.459375 209.759055 
" clip-path="url(#pd82737b4cf)" style="fill: none; stroke: #4c5684; stroke-width: 2; stroke-linecap: square"/>
   </g>
   <g id="line2d_37">
    <path d="M 43.339375 143.759063 
L 46.946648 143.936155 
L 50.55392 144.465715 
L 54.161193 145.342633 
L 57.768466 146.558457 
L 61.375739 148.10149 
L 64.983011 149.956923 
L 68.590284 152.10701 
L 72.197557 154.531263 
L 75.80483 157.206693 
L 79.412102 160.108066 
L 83.019375 163.208192 
L 86.626648 166.478234 
L 90.23392 169.888027 
L 93.841193 173.406424 
L 97.448466 177.001633 
L 101.055739 180.641578 
L 104.663011 184.294247 
L 108.270284 187.928039 
L 111.877557 191.512108 
L 115.48483 195.01669 
L 119.092102 198.413418 
L 122.699375 201.675609 
L 126.306648 204.778543 
L 129.91392 207.699699 
L 133.521193 210.418972 
L 137.128466 212.918861 
L 140.735739 215.184614 
L 144.343011 217.204346 
L 147.950284 218.96912 
L 151.557557 220.472988 
L 155.16483 221.713003 
L 158.772102 222.689184 
L 162.379375 223.404457 
L 165.986648 223.864553 
L 169.59392 224.07788 
L 173.201193 224.05536 
L 176.808466 223.810242 
L 180.415739 223.357886 
L 184.023011 222.715528 
L 187.630284 221.902025 
L 191.237557 220.937586 
L 194.84483 219.843488 
L 198.452102 218.64179 
L 202.059375 217.355037 
L 205.666648 216.005966 
L 209.27392 214.617221 
L 212.881193 213.211065 
L 216.488466 211.809112 
L 220.095739 210.432069 
L 223.703011 209.099495 
L 227.310284 207.829584 
L 230.917557 206.638964 
L 234.52483 205.542529 
L 238.132102 204.553293 
L 241.739375 203.682268 
L 245.346648 202.938384 
L 248.95392 202.328422 
L 252.561193 201.856994 
L 256.168466 201.526539 
L 259.775739 201.337355 
L 263.383011 201.287662 
L 266.990284 201.373681 
L 270.597557 201.589751 
L 274.20483 201.928463 
L 277.812102 202.380811 
L 281.419375 202.936372 
L 285.026648 203.58349 
L 288.63392 204.309482 
L 292.241193 205.100845 
L 295.848466 205.94348 
L 299.455739 206.822907 
L 303.063011 207.724494 
L 306.670284 208.633669 
L 310.277557 209.536134 
L 313.88483 210.418073 
L 317.492102 211.266339 
L 321.099375 212.068634 
L 324.706648 212.813672 
L 328.31392 213.491321 
L 331.921193 214.092725 
L 335.528466 214.610411 
L 339.135739 215.038363 
L 342.743011 215.372079 
L 346.350284 215.60861 
L 349.957557 215.746561 
L 353.56483 215.786083 
L 357.172102 215.728835 
L 360.779375 215.577923 
L 364.386648 215.337827 
L 367.99392 215.014299 
L 371.601193 214.614252 
L 375.208466 214.145629 
L 378.815739 213.617262 
L 382.423011 213.038717 
L 386.030284 212.420136 
L 389.637557 211.772071 
L 393.24483 211.105312 
L 396.852102 210.43072 
L 400.459375 209.759057 
" clip-path="url(#pd82737b4cf)" style="fill: none; stroke: #137e93; stroke-width: 2; stroke-linecap: square"/>
   </g>
   <g id="line2d_38">
    <path d="M 43.339375 160.259063 
L 46.946648 160.391882 
L 50.55392 160.789052 
L 54.161193 161.44674 
L 57.768466 162.358608 
L 61.375739 163.515883 
L 64.983011 164.907458 
L 68.590284 166.520023 
L 72.197557 168.338213 
L 75.80483 170.344785 
L 79.412102 172.520815 
L 83.019375 174.84591 
L 86.626648 177.298441 
L 90.23392 179.855786 
L 93.841193 182.494583 
L 97.448466 185.19099 
L 101.055739 187.920949 
L 104.663011 190.660451 
L 108.270284 193.385795 
L 111.877557 196.073846 
L 115.48483 198.702283 
L 119.092102 201.249829 
L 122.699375 203.696473 
L 126.306648 206.023673 
L 129.91392 208.21454 
L 133.521193 210.253995 
L 137.128466 212.128912 
L 140.735739 213.828226 
L 144.343011 215.343025 
L 147.950284 216.666605 
L 151.557557 217.794507 
L 155.16483 218.724518 
L 158.772102 219.456654 
L 162.379375 219.993109 
L 165.986648 220.338181 
L 169.59392 220.498176 
L 173.201193 220.481286 
L 176.808466 220.297447 
L 180.415739 219.95818 
L 184.023011 219.476411 
L 187.630284 218.866284 
L 191.237557 218.142955 
L 194.84483 217.322382 
L 198.452102 216.421108 
L 202.059375 215.456043 
L 205.666648 214.44424 
L 209.27392 213.402682 
L 212.881193 212.348065 
L 216.488466 211.2966 
L 220.095739 210.263817 
L 223.703011 209.264387 
L 227.310284 208.311953 
L 230.917557 207.418989 
L 234.52483 206.596663 
L 238.132102 205.854735 
L 241.739375 205.201467 
L 245.346648 204.643553 
L 248.95392 204.186082 
L 252.561193 203.832511 
L 256.168466 203.58467 
L 259.775739 203.442782 
L 263.383011 203.405512 
L 266.990284 203.470026 
L 270.597557 203.632079 
L 274.20483 203.886113 
L 277.812102 204.225374 
L 281.419375 204.642045 
L 285.026648 205.127383 
L 288.63392 205.671877 
L 292.241193 206.265399 
L 295.848466 206.897375 
L 299.455739 207.556946 
L 303.063011 208.233136 
L 306.670284 208.915017 
L 310.277557 209.591866 
L 313.88483 210.25332 
L 317.492102 210.88952 
L 321.099375 211.491241 
L 324.706648 212.05002 
L 328.31392 212.558256 
L 331.921193 213.00931 
L 335.528466 213.397574 
L 339.135739 213.718538 
L 342.743011 213.968825 
L 346.350284 214.146223 
L 349.957557 214.249687 
L 353.56483 214.279328 
L 357.172102 214.236392 
L 360.779375 214.123208 
L 364.386648 213.943136 
L 367.99392 213.70049 
L 371.601193 213.400455 
L 375.208466 213.048987 
L 378.815739 212.652712 
L 382.423011 212.218803 
L 386.030284 211.754868 
L 389.637557 211.268819 
L 393.24483 210.76875 
L 396.852102 210.262805 
L 400.459375 209.759059 
" clip-path="url(#pd82737b4cf)" style="fill: none; stroke: #b2b745; stroke-width: 2; stroke-linecap: square"/>
   </g>
   <g id="line2d_39">
    <path d="M 43.339375 170.159063 
L 46.946648 170.265318 
L 50.55392 170.583054 
L 54.161193 171.109205 
L 57.768466 171.838699 
L 61.375739 172.764519 
L 64.983011 173.877779 
L 68.590284 175.167831 
L 72.197557 176.622383 
L 75.80483 178.227641 
L 79.412102 179.968464 
L 83.019375 181.82854 
L 86.626648 183.790565 
L 90.23392 185.836441 
L 93.841193 187.947479 
L 97.448466 190.104605 
L 101.055739 192.288572 
L 104.663011 194.480173 
L 108.270284 196.660448 
L 111.877557 198.81089 
L 115.48483 200.913639 
L 119.092102 202.951676 
L 122.699375 204.908991 
L 126.306648 206.770751 
L 129.91392 208.523444 
L 133.521193 210.155008 
L 137.128466 211.654942 
L 140.735739 213.014393 
L 144.343011 214.226233 
L 147.950284 215.285097 
L 151.557557 216.187418 
L 155.16483 216.931427 
L 158.772102 217.517136 
L 162.379375 217.946299 
L 165.986648 218.222357 
L 169.59392 218.350353 
L 173.201193 218.336841 
L 176.808466 218.18977 
L 180.415739 217.918357 
L 184.023011 217.532942 
L 187.630284 217.04484 
L 191.237557 216.466176 
L 194.84483 215.809718 
L 198.452102 215.088699 
L 202.059375 214.316647 
L 205.666648 213.507205 
L 209.27392 212.673958 
L 212.881193 211.830264 
L 216.488466 210.989092 
L 220.095739 210.162866 
L 223.703011 209.363322 
L 227.310284 208.601375 
L 230.917557 207.887003 
L 234.52483 207.229143 
L 238.132102 206.635601 
L 241.739375 206.112986 
L 245.346648 205.666655 
L 248.95392 205.300678 
L 252.561193 205.017821 
L 256.168466 204.819548 
L 259.775739 204.706038 
L 263.383011 204.676222 
L 266.990284 204.727833 
L 270.597557 204.857476 
L 274.20483 205.060703 
L 277.812102 205.332112 
L 281.419375 205.665448 
L 285.026648 206.053719 
L 288.63392 206.489314 
L 292.241193 206.964132 
L 295.848466 207.469713 
L 299.455739 207.997369 
L 303.063011 208.538322 
L 306.670284 209.083826 
L 310.277557 209.625305 
L 313.88483 210.154469 
L 317.492102 210.663428 
L 321.099375 211.144805 
L 324.706648 211.591828 
L 328.31392 211.998417 
L 331.921193 212.35926 
L 335.528466 212.669872 
L 339.135739 212.926643 
L 342.743011 213.126873 
L 346.350284 213.268791 
L 349.957557 213.351562 
L 353.56483 213.375275 
L 357.172102 213.340926 
L 360.779375 213.250379 
L 364.386648 213.106321 
L 367.99392 212.912204 
L 371.601193 212.672176 
L 375.208466 212.391002 
L 378.815739 212.073982 
L 382.423011 211.726855 
L 386.030284 211.355707 
L 389.637557 210.966868 
L 393.24483 210.566812 
L 396.852102 210.162057 
L 400.459375 209.759059 
" clip-path="url(#pd82737b4cf)" style="fill: none; stroke: #eb5f32; stroke-width: 2; stroke-linecap: square"/>
   </g>
   <g id="patch_3">
    <path d="M 43.339375 288.959062 
L 43.339375 11.759062 
" style="fill: none; stroke: #1a1a1a; stroke-linejoin: miter; stroke-linecap: square"/>
   </g>
   <g id="patch_4">
    <path d="M 43.339375 288.959062 
L 400.459375 288.959062 
" style="fill: none; stroke: #1a1a1a; stroke-linejoin: miter; stroke-linecap: square"/>
   </g>
   <g id="legend_1">
    <g id="patch_5">
     <path d="M 408.859375 248.027812 
L 454.894375 248.027812 
Q 457.294375 248.027812 457.294375 245.627812 
L 457.294375 158.759062 
Q 457.294375 156.359062 454.894375 156.359062 
L 408.859375 156.359062 
Q 406.459375 156.359062 406.459375 158.759062 
L 406.459375 245.627812 
Q 406.459375 248.027812 408.859375 248.027812 
z
" style="fill: #ffffff; opacity: 0.8; stroke: #bdcbc8; stroke-linejoin: miter"/>
    </g>
    <g id="line2d_40">
     <path d="M 411.259375 166.077187 
L 423.259375 166.077187 
L 435.259375 166.077187 
" style="fill: none; stroke: #b12d44; stroke-width: 2; stroke-linecap: square"/>
    </g>
    <g id="text_18">
     <!-- 0 -->
     <g style="fill: #1a1a1a" transform="translate(444.859375 170.277187) scale(0.12 -0.12)">
      <use xlink:href="#DejaVuSans-30"/>
     </g>
    </g>
    <g id="line2d_41">
     <path d="M 411.259375 183.690937 
L 423.259375 183.690937 
L 435.259375 183.690937 
" style="fill: none; stroke: #4c5684; stroke-width: 2; stroke-linecap: square"/>
    </g>
    <g id="text_19">
     <!-- 1 -->
     <g style="fill: #1a1a1a" transform="translate(444.859375 187.890937) scale(0.12 -0.12)">
      <use xlink:href="#DejaVuSans-31"/>
     </g>
    </g>
    <g id="line2d_42">
     <path d="M 411.259375 201.304688 
L 423.259375 201.304688 
L 435.259375 201.304688 
" style="fill: none; stroke: #137e93; stroke-width: 2; stroke-linecap: square"/>
    </g>
    <g id="text_20">
     <!-- 2 -->
     <g style="fill: #1a1a1a" transform="translate(444.859375 205.504687) scale(0.12 -0.12)">
      <use xlink:href="#DejaVuSans-32"/>
     </g>
    </g>
    <g id="line2d_43">
     <path d="M 411.259375 218.918437 
L 423.259375 218.918437 
L 435.259375 218.918437 
" style="fill: none; stroke: #b2b745; stroke-width: 2; stroke-linecap: square"/>
    </g>
    <g id="text_21">
     <!-- 3 -->
     <g style="fill: #1a1a1a" transform="translate(444.859375 223.118437) scale(0.12 -0.12)">
      <use xlink:href="#DejaVuSans-33"/>
     </g>
    </g>
    <g id="line2d_44">
     <path d="M 411.259375 236.532187 
L 423.259375 236.532187 
L 435.259375 236.532187 
" style="fill: none; stroke: #eb5f32; stroke-width: 2; stroke-linecap: square"/>
    </g>
    <g id="text_22">
     <!-- 4 -->
     <g style="fill: #1a1a1a" transform="translate(444.859375 240.732187) scale(0.12 -0.12)">
      <use xlink:href="#DejaVuSans-34"/>
     </g>
    </g>
   </g>
  </g>
 </g>
 <defs>
  <clipPath id="pd82737b4cf">
   <rect x="43.339375" y="11.759062" width="357.12" height="277.2"/>
  </clipPath>
 </defs>
</svg>
