<?xml version="1.0" encoding="utf-8" standalone="no"?>
<!DOCTYPE svg PUBLIC "-//W3C//DTD SVG 1.1//EN"
  "http://www.w3.org/Graphics/SVG/1.1/DTD/svg11.dtd">
<!-- Created with matplotlib (https://matplotlib.org/) -->
<svg height="288pt" version="1.1" viewBox="0 0 432 288" width="432pt" xmlns="http://www.w3.org/2000/svg" xmlns:xlink="http://www.w3.org/1999/xlink">
 <defs>
  <style type="text/css">
*{stroke-linecap:butt;stroke-linejoin:round;}
  </style>
 </defs>
 <g id="figure_1">
  <g id="patch_1">
   <path d="M 0 288 
L 432 288 
L 432 0 
L 0 0 
z
" style="fill:#ffffff;"/>
  </g>
  <g id="axes_1">
   <g id="patch_2">
    <path d="M 54 256.32 
L 388.8 256.32 
L 388.8 34.56 
L 54 34.56 
z
" style="fill:#ffffff;"/>
   </g>
   <g id="matplotlib.axis_1">
    <g id="xtick_1">
     <g id="line2d_1">
      <path clip-path="url(#pf6f4700104)" d="M 69.218182 256.32 
L 69.218182 34.56 
" style="fill:none;stroke:#c7dedf;stroke-linecap:square;stroke-width:0.3;"/>
     </g>
     <g id="line2d_2">
      <defs>
       <path d="M 0 0 
L 0 -3.5 
" id="m0990547291" style="stroke:#000000;stroke-width:0.8;"/>
      </defs>
      <g>
       <use style="stroke:#000000;stroke-width:0.8;" x="69.218182" xlink:href="#m0990547291" y="256.32"/>
      </g>
     </g>
     <g id="text_1">
      <!-- 0.0 -->
      <defs>
       <path d="M 31.78125 66.40625 
Q 24.171875 66.40625 20.328125 58.90625 
Q 16.5 51.421875 16.5 36.375 
Q 16.5 21.390625 20.328125 13.890625 
Q 24.171875 6.390625 31.78125 6.390625 
Q 39.453125 6.390625 43.28125 13.890625 
Q 47.125 21.390625 47.125 36.375 
Q 47.125 51.421875 43.28125 58.90625 
Q 39.453125 66.40625 31.78125 66.40625 
z
M 31.78125 74.21875 
Q 44.046875 74.21875 50.515625 64.515625 
Q 56.984375 54.828125 56.984375 36.375 
Q 56.984375 17.96875 50.515625 8.265625 
Q 44.046875 -1.421875 31.78125 -1.421875 
Q 19.53125 -1.421875 13.0625 8.265625 
Q 6.59375 17.96875 6.59375 36.375 
Q 6.59375 54.828125 13.0625 64.515625 
Q 19.53125 74.21875 31.78125 74.21875 
z
" id="DejaVuSans-48"/>
       <path d="M 10.6875 12.40625 
L 21 12.40625 
L 21 0 
L 10.6875 0 
z
" id="DejaVuSans-46"/>
      </defs>
      <g transform="translate(61.266619 267.418437)scale(0.1 -0.1)">
       <use xlink:href="#DejaVuSans-48"/>
       <use x="63.623047" xlink:href="#DejaVuSans-46"/>
       <use x="95.410156" xlink:href="#DejaVuSans-48"/>
      </g>
     </g>
    </g>
    <g id="xtick_2">
     <g id="line2d_3">
      <path clip-path="url(#pf6f4700104)" d="M 107.263636 256.32 
L 107.263636 34.56 
" style="fill:none;stroke:#c7dedf;stroke-linecap:square;stroke-width:0.3;"/>
     </g>
     <g id="line2d_4">
      <g>
       <use style="stroke:#000000;stroke-width:0.8;" x="107.263636" xlink:href="#m0990547291" y="256.32"/>
      </g>
     </g>
     <g id="text_2">
      <!-- 0.5 -->
      <defs>
       <path d="M 10.796875 72.90625 
L 49.515625 72.90625 
L 49.515625 64.59375 
L 19.828125 64.59375 
L 19.828125 46.734375 
Q 21.96875 47.46875 24.109375 47.828125 
Q 26.265625 48.1875 28.421875 48.1875 
Q 40.625 48.1875 47.75 41.5 
Q 54.890625 34.8125 54.890625 23.390625 
Q 54.890625 11.625 47.5625 5.09375 
Q 40.234375 -1.421875 26.90625 -1.421875 
Q 22.3125 -1.421875 17.546875 -0.640625 
Q 12.796875 0.140625 7.71875 1.703125 
L 7.71875 11.625 
Q 12.109375 9.234375 16.796875 8.0625 
Q 21.484375 6.890625 26.703125 6.890625 
Q 35.15625 6.890625 40.078125 11.328125 
Q 45.015625 15.765625 45.015625 23.390625 
Q 45.015625 31 40.078125 35.4375 
Q 35.15625 39.890625 26.703125 39.890625 
Q 22.75 39.890625 18.8125 39.015625 
Q 14.890625 38.140625 10.796875 36.28125 
z
" id="DejaVuSans-53"/>
      </defs>
      <g transform="translate(99.312074 267.418437)scale(0.1 -0.1)">
       <use xlink:href="#DejaVuSans-48"/>
       <use x="63.623047" xlink:href="#DejaVuSans-46"/>
       <use x="95.410156" xlink:href="#DejaVuSans-53"/>
      </g>
     </g>
    </g>
    <g id="xtick_3">
     <g id="line2d_5">
      <path clip-path="url(#pf6f4700104)" d="M 145.309091 256.32 
L 145.309091 34.56 
" style="fill:none;stroke:#c7dedf;stroke-linecap:square;stroke-width:0.3;"/>
     </g>
     <g id="line2d_6">
      <g>
       <use style="stroke:#000000;stroke-width:0.8;" x="145.309091" xlink:href="#m0990547291" y="256.32"/>
      </g>
     </g>
     <g id="text_3">
      <!-- 1.0 -->
      <defs>
       <path d="M 12.40625 8.296875 
L 28.515625 8.296875 
L 28.515625 63.921875 
L 10.984375 60.40625 
L 10.984375 69.390625 
L 28.421875 72.90625 
L 38.28125 72.90625 
L 38.28125 8.296875 
L 54.390625 8.296875 
L 54.390625 0 
L 12.40625 0 
z
" id="DejaVuSans-49"/>
      </defs>
      <g transform="translate(137.357528 267.418437)scale(0.1 -0.1)">
       <use xlink:href="#DejaVuSans-49"/>
       <use x="63.623047" xlink:href="#DejaVuSans-46"/>
       <use x="95.410156" xlink:href="#DejaVuSans-48"/>
      </g>
     </g>
    </g>
    <g id="xtick_4">
     <g id="line2d_7">
      <path clip-path="url(#pf6f4700104)" d="M 183.354545 256.32 
L 183.354545 34.56 
" style="fill:none;stroke:#c7dedf;stroke-linecap:square;stroke-width:0.3;"/>
     </g>
     <g id="line2d_8">
      <g>
       <use style="stroke:#000000;stroke-width:0.8;" x="183.354545" xlink:href="#m0990547291" y="256.32"/>
      </g>
     </g>
     <g id="text_4">
      <!-- 1.5 -->
      <g transform="translate(175.402983 267.418437)scale(0.1 -0.1)">
       <use xlink:href="#DejaVuSans-49"/>
       <use x="63.623047" xlink:href="#DejaVuSans-46"/>
       <use x="95.410156" xlink:href="#DejaVuSans-53"/>
      </g>
     </g>
    </g>
    <g id="xtick_5">
     <g id="line2d_9">
      <path clip-path="url(#pf6f4700104)" d="M 221.4 256.32 
L 221.4 34.56 
" style="fill:none;stroke:#c7dedf;stroke-linecap:square;stroke-width:0.3;"/>
     </g>
     <g id="line2d_10">
      <g>
       <use style="stroke:#000000;stroke-width:0.8;" x="221.4" xlink:href="#m0990547291" y="256.32"/>
      </g>
     </g>
     <g id="text_5">
      <!-- 2.0 -->
      <defs>
       <path d="M 19.1875 8.296875 
L 53.609375 8.296875 
L 53.609375 0 
L 7.328125 0 
L 7.328125 8.296875 
Q 12.9375 14.109375 22.625 23.890625 
Q 32.328125 33.6875 34.8125 36.53125 
Q 39.546875 41.84375 41.421875 45.53125 
Q 43.3125 49.21875 43.3125 52.78125 
Q 43.3125 58.59375 39.234375 62.25 
Q 35.15625 65.921875 28.609375 65.921875 
Q 23.96875 65.921875 18.8125 64.3125 
Q 13.671875 62.703125 7.8125 59.421875 
L 7.8125 69.390625 
Q 13.765625 71.78125 18.9375 73 
Q 24.125 74.21875 28.421875 74.21875 
Q 39.75 74.21875 46.484375 68.546875 
Q 53.21875 62.890625 53.21875 53.421875 
Q 53.21875 48.921875 51.53125 44.890625 
Q 49.859375 40.875 45.40625 35.40625 
Q 44.1875 33.984375 37.640625 27.21875 
Q 31.109375 20.453125 19.1875 8.296875 
z
" id="DejaVuSans-50"/>
      </defs>
      <g transform="translate(213.448438 267.418437)scale(0.1 -0.1)">
       <use xlink:href="#DejaVuSans-50"/>
       <use x="63.623047" xlink:href="#DejaVuSans-46"/>
       <use x="95.410156" xlink:href="#DejaVuSans-48"/>
      </g>
     </g>
    </g>
    <g id="xtick_6">
     <g id="line2d_11">
      <path clip-path="url(#pf6f4700104)" d="M 259.445455 256.32 
L 259.445455 34.56 
" style="fill:none;stroke:#c7dedf;stroke-linecap:square;stroke-width:0.3;"/>
     </g>
     <g id="line2d_12">
      <g>
       <use style="stroke:#000000;stroke-width:0.8;" x="259.445455" xlink:href="#m0990547291" y="256.32"/>
      </g>
     </g>
     <g id="text_6">
      <!-- 2.5 -->
      <g transform="translate(251.493892 267.418437)scale(0.1 -0.1)">
       <use xlink:href="#DejaVuSans-50"/>
       <use x="63.623047" xlink:href="#DejaVuSans-46"/>
       <use x="95.410156" xlink:href="#DejaVuSans-53"/>
      </g>
     </g>
    </g>
    <g id="xtick_7">
     <g id="line2d_13">
      <path clip-path="url(#pf6f4700104)" d="M 297.490909 256.32 
L 297.490909 34.56 
" style="fill:none;stroke:#c7dedf;stroke-linecap:square;stroke-width:0.3;"/>
     </g>
     <g id="line2d_14">
      <g>
       <use style="stroke:#000000;stroke-width:0.8;" x="297.490909" xlink:href="#m0990547291" y="256.32"/>
      </g>
     </g>
     <g id="text_7">
      <!-- 3.0 -->
      <defs>
       <path d="M 40.578125 39.3125 
Q 47.65625 37.796875 51.625 33 
Q 55.609375 28.21875 55.609375 21.1875 
Q 55.609375 10.40625 48.1875 4.484375 
Q 40.765625 -1.421875 27.09375 -1.421875 
Q 22.515625 -1.421875 17.65625 -0.515625 
Q 12.796875 0.390625 7.625 2.203125 
L 7.625 11.71875 
Q 11.71875 9.328125 16.59375 8.109375 
Q 21.484375 6.890625 26.8125 6.890625 
Q 36.078125 6.890625 40.9375 10.546875 
Q 45.796875 14.203125 45.796875 21.1875 
Q 45.796875 27.640625 41.28125 31.265625 
Q 36.765625 34.90625 28.71875 34.90625 
L 20.21875 34.90625 
L 20.21875 43.015625 
L 29.109375 43.015625 
Q 36.375 43.015625 40.234375 45.921875 
Q 44.09375 48.828125 44.09375 54.296875 
Q 44.09375 59.90625 40.109375 62.90625 
Q 36.140625 65.921875 28.71875 65.921875 
Q 24.65625 65.921875 20.015625 65.03125 
Q 15.375 64.15625 9.8125 62.3125 
L 9.8125 71.09375 
Q 15.4375 72.65625 20.34375 73.4375 
Q 25.25 74.21875 29.59375 74.21875 
Q 40.828125 74.21875 47.359375 69.109375 
Q 53.90625 64.015625 53.90625 55.328125 
Q 53.90625 49.265625 50.4375 45.09375 
Q 46.96875 40.921875 40.578125 39.3125 
z
" id="DejaVuSans-51"/>
      </defs>
      <g transform="translate(289.539347 267.418437)scale(0.1 -0.1)">
       <use xlink:href="#DejaVuSans-51"/>
       <use x="63.623047" xlink:href="#DejaVuSans-46"/>
       <use x="95.410156" xlink:href="#DejaVuSans-48"/>
      </g>
     </g>
    </g>
    <g id="xtick_8">
     <g id="line2d_15">
      <path clip-path="url(#pf6f4700104)" d="M 335.536364 256.32 
L 335.536364 34.56 
" style="fill:none;stroke:#c7dedf;stroke-linecap:square;stroke-width:0.3;"/>
     </g>
     <g id="line2d_16">
      <g>
       <use style="stroke:#000000;stroke-width:0.8;" x="335.536364" xlink:href="#m0990547291" y="256.32"/>
      </g>
     </g>
     <g id="text_8">
      <!-- 3.5 -->
      <g transform="translate(327.584801 267.418437)scale(0.1 -0.1)">
       <use xlink:href="#DejaVuSans-51"/>
       <use x="63.623047" xlink:href="#DejaVuSans-46"/>
       <use x="95.410156" xlink:href="#DejaVuSans-53"/>
      </g>
     </g>
    </g>
    <g id="xtick_9">
     <g id="line2d_17">
      <path clip-path="url(#pf6f4700104)" d="M 373.581818 256.32 
L 373.581818 34.56 
" style="fill:none;stroke:#c7dedf;stroke-linecap:square;stroke-width:0.3;"/>
     </g>
     <g id="line2d_18">
      <g>
       <use style="stroke:#000000;stroke-width:0.8;" x="373.581818" xlink:href="#m0990547291" y="256.32"/>
      </g>
     </g>
     <g id="text_9">
      <!-- 4.0 -->
      <defs>
       <path d="M 37.796875 64.3125 
L 12.890625 25.390625 
L 37.796875 25.390625 
z
M 35.203125 72.90625 
L 47.609375 72.90625 
L 47.609375 25.390625 
L 58.015625 25.390625 
L 58.015625 17.1875 
L 47.609375 17.1875 
L 47.609375 0 
L 37.796875 0 
L 37.796875 17.1875 
L 4.890625 17.1875 
L 4.890625 26.703125 
z
" id="DejaVuSans-52"/>
      </defs>
      <g transform="translate(365.630256 267.418437)scale(0.1 -0.1)">
       <use xlink:href="#DejaVuSans-52"/>
       <use x="63.623047" xlink:href="#DejaVuSans-46"/>
       <use x="95.410156" xlink:href="#DejaVuSans-48"/>
      </g>
     </g>
    </g>
    <g id="text_10">
     <!-- x -->
     <defs>
      <path d="M 54.890625 54.6875 
L 35.109375 28.078125 
L 55.90625 0 
L 45.3125 0 
L 29.390625 21.484375 
L 13.484375 0 
L 2.875 0 
L 24.125 28.609375 
L 4.6875 54.6875 
L 15.28125 54.6875 
L 29.78125 35.203125 
L 44.28125 54.6875 
z
" id="DejaVuSans-120"/>
     </defs>
     <g transform="translate(218.440625 281.096563)scale(0.1 -0.1)">
      <use xlink:href="#DejaVuSans-120"/>
     </g>
    </g>
   </g>
   <g id="matplotlib.axis_2">
    <g id="ytick_1">
     <g id="line2d_19">
      <path clip-path="url(#pf6f4700104)" d="M 54 246.24 
L 388.8 246.24 
" style="fill:none;stroke:#c7dedf;stroke-linecap:square;stroke-width:0.3;"/>
     </g>
     <g id="line2d_20">
      <defs>
       <path d="M 0 0 
L 3.5 0 
" id="ma74798df72" style="stroke:#000000;stroke-width:0.8;"/>
      </defs>
      <g>
       <use style="stroke:#000000;stroke-width:0.8;" x="54" xlink:href="#ma74798df72" y="246.24"/>
      </g>
     </g>
     <g id="text_11">
      <!-- −1.00 -->
      <defs>
       <path d="M 10.59375 35.5 
L 73.1875 35.5 
L 73.1875 27.203125 
L 10.59375 27.203125 
z
" id="DejaVuSans-8722"/>
      </defs>
      <g transform="translate(19.854687 250.039219)scale(0.1 -0.1)">
       <use xlink:href="#DejaVuSans-8722"/>
       <use x="83.789062" xlink:href="#DejaVuSans-49"/>
       <use x="147.412109" xlink:href="#DejaVuSans-46"/>
       <use x="179.199219" xlink:href="#DejaVuSans-48"/>
       <use x="242.822266" xlink:href="#DejaVuSans-48"/>
      </g>
     </g>
    </g>
    <g id="ytick_2">
     <g id="line2d_21">
      <path clip-path="url(#pf6f4700104)" d="M 54 221.04 
L 388.8 221.04 
" style="fill:none;stroke:#c7dedf;stroke-linecap:square;stroke-width:0.3;"/>
     </g>
     <g id="line2d_22">
      <g>
       <use style="stroke:#000000;stroke-width:0.8;" x="54" xlink:href="#ma74798df72" y="221.04"/>
      </g>
     </g>
     <g id="text_12">
      <!-- −0.75 -->
      <defs>
       <path d="M 8.203125 72.90625 
L 55.078125 72.90625 
L 55.078125 68.703125 
L 28.609375 0 
L 18.3125 0 
L 43.21875 64.59375 
L 8.203125 64.59375 
z
" id="DejaVuSans-55"/>
      </defs>
      <g transform="translate(19.854687 224.839219)scale(0.1 -0.1)">
       <use xlink:href="#DejaVuSans-8722"/>
       <use x="83.789062" xlink:href="#DejaVuSans-48"/>
       <use x="147.412109" xlink:href="#DejaVuSans-46"/>
       <use x="179.199219" xlink:href="#DejaVuSans-55"/>
       <use x="242.822266" xlink:href="#DejaVuSans-53"/>
      </g>
     </g>
    </g>
    <g id="ytick_3">
     <g id="line2d_23">
      <path clip-path="url(#pf6f4700104)" d="M 54 195.84 
L 388.8 195.84 
" style="fill:none;stroke:#c7dedf;stroke-linecap:square;stroke-width:0.3;"/>
     </g>
     <g id="line2d_24">
      <g>
       <use style="stroke:#000000;stroke-width:0.8;" x="54" xlink:href="#ma74798df72" y="195.84"/>
      </g>
     </g>
     <g id="text_13">
      <!-- −0.50 -->
      <g transform="translate(19.854687 199.639219)scale(0.1 -0.1)">
       <use xlink:href="#DejaVuSans-8722"/>
       <use x="83.789062" xlink:href="#DejaVuSans-48"/>
       <use x="147.412109" xlink:href="#DejaVuSans-46"/>
       <use x="179.199219" xlink:href="#DejaVuSans-53"/>
       <use x="242.822266" xlink:href="#DejaVuSans-48"/>
      </g>
     </g>
    </g>
    <g id="ytick_4">
     <g id="line2d_25">
      <path clip-path="url(#pf6f4700104)" d="M 54 170.64 
L 388.8 170.64 
" style="fill:none;stroke:#c7dedf;stroke-linecap:square;stroke-width:0.3;"/>
     </g>
     <g id="line2d_26">
      <g>
       <use style="stroke:#000000;stroke-width:0.8;" x="54" xlink:href="#ma74798df72" y="170.64"/>
      </g>
     </g>
     <g id="text_14">
      <!-- −0.25 -->
      <g transform="translate(19.854687 174.439219)scale(0.1 -0.1)">
       <use xlink:href="#DejaVuSans-8722"/>
       <use x="83.789062" xlink:href="#DejaVuSans-48"/>
       <use x="147.412109" xlink:href="#DejaVuSans-46"/>
       <use x="179.199219" xlink:href="#DejaVuSans-50"/>
       <use x="242.822266" xlink:href="#DejaVuSans-53"/>
      </g>
     </g>
    </g>
    <g id="ytick_5">
     <g id="line2d_27">
      <path clip-path="url(#pf6f4700104)" d="M 54 145.44 
L 388.8 145.44 
" style="fill:none;stroke:#c7dedf;stroke-linecap:square;stroke-width:0.3;"/>
     </g>
     <g id="line2d_28">
      <g>
       <use style="stroke:#000000;stroke-width:0.8;" x="54" xlink:href="#ma74798df72" y="145.44"/>
      </g>
     </g>
     <g id="text_15">
      <!-- 0.00 -->
      <g transform="translate(28.234375 149.239219)scale(0.1 -0.1)">
       <use xlink:href="#DejaVuSans-48"/>
       <use x="63.623047" xlink:href="#DejaVuSans-46"/>
       <use x="95.410156" xlink:href="#DejaVuSans-48"/>
       <use x="159.033203" xlink:href="#DejaVuSans-48"/>
      </g>
     </g>
    </g>
    <g id="ytick_6">
     <g id="line2d_29">
      <path clip-path="url(#pf6f4700104)" d="M 54 120.24 
L 388.8 120.24 
" style="fill:none;stroke:#c7dedf;stroke-linecap:square;stroke-width:0.3;"/>
     </g>
     <g id="line2d_30">
      <g>
       <use style="stroke:#000000;stroke-width:0.8;" x="54" xlink:href="#ma74798df72" y="120.24"/>
      </g>
     </g>
     <g id="text_16">
      <!-- 0.25 -->
      <g transform="translate(28.234375 124.039219)scale(0.1 -0.1)">
       <use xlink:href="#DejaVuSans-48"/>
       <use x="63.623047" xlink:href="#DejaVuSans-46"/>
       <use x="95.410156" xlink:href="#DejaVuSans-50"/>
       <use x="159.033203" xlink:href="#DejaVuSans-53"/>
      </g>
     </g>
    </g>
    <g id="ytick_7">
     <g id="line2d_31">
      <path clip-path="url(#pf6f4700104)" d="M 54 95.04 
L 388.8 95.04 
" style="fill:none;stroke:#c7dedf;stroke-linecap:square;stroke-width:0.3;"/>
     </g>
     <g id="line2d_32">
      <g>
       <use style="stroke:#000000;stroke-width:0.8;" x="54" xlink:href="#ma74798df72" y="95.04"/>
      </g>
     </g>
     <g id="text_17">
      <!-- 0.50 -->
      <g transform="translate(28.234375 98.839219)scale(0.1 -0.1)">
       <use xlink:href="#DejaVuSans-48"/>
       <use x="63.623047" xlink:href="#DejaVuSans-46"/>
       <use x="95.410156" xlink:href="#DejaVuSans-53"/>
       <use x="159.033203" xlink:href="#DejaVuSans-48"/>
      </g>
     </g>
    </g>
    <g id="ytick_8">
     <g id="line2d_33">
      <path clip-path="url(#pf6f4700104)" d="M 54 69.84 
L 388.8 69.84 
" style="fill:none;stroke:#c7dedf;stroke-linecap:square;stroke-width:0.3;"/>
     </g>
     <g id="line2d_34">
      <g>
       <use style="stroke:#000000;stroke-width:0.8;" x="54" xlink:href="#ma74798df72" y="69.84"/>
      </g>
     </g>
     <g id="text_18">
      <!-- 0.75 -->
      <g transform="translate(28.234375 73.639219)scale(0.1 -0.1)">
       <use xlink:href="#DejaVuSans-48"/>
       <use x="63.623047" xlink:href="#DejaVuSans-46"/>
       <use x="95.410156" xlink:href="#DejaVuSans-55"/>
       <use x="159.033203" xlink:href="#DejaVuSans-53"/>
      </g>
     </g>
    </g>
    <g id="ytick_9">
     <g id="line2d_35">
      <path clip-path="url(#pf6f4700104)" d="M 54 44.64 
L 388.8 44.64 
" style="fill:none;stroke:#c7dedf;stroke-linecap:square;stroke-width:0.3;"/>
     </g>
     <g id="line2d_36">
      <g>
       <use style="stroke:#000000;stroke-width:0.8;" x="54" xlink:href="#ma74798df72" y="44.64"/>
      </g>
     </g>
     <g id="text_19">
      <!-- 1.00 -->
      <g transform="translate(28.234375 48.439219)scale(0.1 -0.1)">
       <use xlink:href="#DejaVuSans-49"/>
       <use x="63.623047" xlink:href="#DejaVuSans-46"/>
       <use x="95.410156" xlink:href="#DejaVuSans-48"/>
       <use x="159.033203" xlink:href="#DejaVuSans-48"/>
      </g>
     </g>
    </g>
    <g id="text_20">
     <!-- y -->
     <defs>
      <path d="M 32.171875 -5.078125 
Q 28.375 -14.84375 24.75 -17.8125 
Q 21.140625 -20.796875 15.09375 -20.796875 
L 7.90625 -20.796875 
L 7.90625 -13.28125 
L 13.1875 -13.28125 
Q 16.890625 -13.28125 18.9375 -11.515625 
Q 21 -9.765625 23.484375 -3.21875 
L 25.09375 0.875 
L 2.984375 54.6875 
L 12.5 54.6875 
L 29.59375 11.921875 
L 46.6875 54.6875 
L 56.203125 54.6875 
z
" id="DejaVuSans-121"/>
     </defs>
     <g transform="translate(13.775 148.399375)rotate(-90)scale(0.1 -0.1)">
      <use xlink:href="#DejaVuSans-121"/>
     </g>
    </g>
   </g>
   <g id="line2d_37">
    <path clip-path="url(#pf6f4700104)" d="M 69.218182 145.44 
L 75.305455 120.372059 
L 79.870909 102.521447 
L 82.914545 91.428659 
L 85.958182 81.187662 
L 89.001818 71.959962 
L 92.045455 63.891087 
L 93.567273 60.331745 
L 95.089091 57.108287 
L 96.610909 54.233433 
L 98.132727 51.71853 
L 99.654545 49.573503 
L 101.176364 47.806817 
L 102.698182 46.425445 
L 104.22 45.434838 
L 105.741818 44.838906 
L 107.263636 44.64 
L 108.785455 44.838906 
L 110.307273 45.434838 
L 111.829091 46.425445 
L 113.350909 47.806817 
L 114.872727 49.573503 
L 116.394545 51.71853 
L 117.916364 54.233433 
L 119.438182 57.108287 
L 120.96 60.331745 
L 122.481818 63.891087 
L 124.003636 67.772265 
L 127.047273 76.437652 
L 130.090909 86.191247 
L 133.134545 96.87923 
L 136.178182 108.333045 
L 140.743636 126.551963 
L 154.44 182.546955 
L 157.483636 194.00077 
L 160.527273 204.688753 
L 163.570909 214.442348 
L 166.614545 223.107735 
L 168.136364 226.988913 
L 169.658182 230.548255 
L 171.18 233.771713 
L 172.701818 236.646567 
L 174.223636 239.16147 
L 175.745455 241.306497 
L 177.267273 243.073183 
L 178.789091 244.454555 
L 180.310909 245.445162 
L 181.832727 246.041094 
L 183.354545 246.24 
L 184.876364 246.041094 
L 186.398182 245.445162 
L 187.92 244.454555 
L 189.441818 243.073183 
L 190.963636 241.306497 
L 192.485455 239.16147 
L 194.007273 236.646567 
L 195.529091 233.771713 
L 197.050909 230.548255 
L 198.572727 226.988913 
L 200.094545 223.107735 
L 203.138182 214.442348 
L 206.181818 204.688753 
L 209.225455 194.00077 
L 212.269091 182.546955 
L 216.834545 164.328037 
L 230.530909 108.333045 
L 233.574545 96.87923 
L 236.618182 86.191247 
L 239.661818 76.437652 
L 242.705455 67.772265 
L 244.227273 63.891087 
L 245.749091 60.331745 
L 247.270909 57.108287 
L 248.792727 54.233433 
L 250.314545 51.71853 
L 251.836364 49.573503 
L 253.358182 47.806817 
L 254.88 46.425445 
L 256.401818 45.434838 
L 257.923636 44.838906 
L 259.445455 44.64 
L 260.967273 44.838906 
L 262.489091 45.434838 
L 264.010909 46.425445 
L 265.532727 47.806817 
L 267.054545 49.573503 
L 268.576364 51.71853 
L 270.098182 54.233433 
L 271.62 57.108287 
L 273.141818 60.331745 
L 274.663636 63.891087 
L 276.185455 67.772265 
L 279.229091 76.437652 
L 282.272727 86.191247 
L 285.316364 96.87923 
L 288.36 108.333045 
L 292.925455 126.551963 
L 306.621818 182.546955 
L 309.665455 194.00077 
L 312.709091 204.688753 
L 315.752727 214.442348 
L 318.796364 223.107735 
L 320.318182 226.988913 
L 321.84 230.548255 
L 323.361818 233.771713 
L 324.883636 236.646567 
L 326.405455 239.16147 
L 327.927273 241.306497 
L 329.449091 243.073183 
L 330.970909 244.454555 
L 332.492727 245.445162 
L 334.014545 246.041094 
L 335.536364 246.24 
L 337.058182 246.041094 
L 338.58 245.445162 
L 340.101818 244.454555 
L 341.623636 243.073183 
L 343.145455 241.306497 
L 344.667273 239.16147 
L 346.189091 236.646567 
L 347.710909 233.771713 
L 349.232727 230.548255 
L 350.754545 226.988913 
L 352.276364 223.107735 
L 355.32 214.442348 
L 358.363636 204.688753 
L 361.407273 194.00077 
L 364.450909 182.546955 
L 369.016364 164.328037 
L 373.581818 145.44 
L 373.581818 145.44 
" style="fill:none;stroke:#e41a1c;stroke-linecap:square;stroke-width:1.5;"/>
   </g>
   <g id="line2d_38">
    <path clip-path="url(#pf6f4700104)" d="M 69.218182 44.64 
L 70.74 44.838906 
L 72.261818 45.434838 
L 73.783636 46.425445 
L 75.305455 47.806817 
L 76.827273 49.573503 
L 78.349091 51.71853 
L 79.870909 54.233433 
L 81.392727 57.108287 
L 82.914545 60.331745 
L 84.436364 63.891087 
L 85.958182 67.772265 
L 89.001818 76.437652 
L 92.045455 86.191247 
L 95.089091 96.87923 
L 98.132727 108.333045 
L 102.698182 126.551963 
L 116.394545 182.546955 
L 119.438182 194.00077 
L 122.481818 204.688753 
L 125.525455 214.442348 
L 128.569091 223.107735 
L 130.090909 226.988913 
L 131.612727 230.548255 
L 133.134545 233.771713 
L 134.656364 236.646567 
L 136.178182 239.16147 
L 137.7 241.306497 
L 139.221818 243.073183 
L 140.743636 244.454555 
L 142.265455 245.445162 
L 143.787273 246.041094 
L 145.309091 246.24 
L 146.830909 246.041094 
L 148.352727 245.445162 
L 149.874545 244.454555 
L 151.396364 243.073183 
L 152.918182 241.306497 
L 154.44 239.16147 
L 155.961818 236.646567 
L 157.483636 233.771713 
L 159.005455 230.548255 
L 160.527273 226.988913 
L 162.049091 223.107735 
L 165.092727 214.442348 
L 168.136364 204.688753 
L 171.18 194.00077 
L 174.223636 182.546955 
L 178.789091 164.328037 
L 192.485455 108.333045 
L 195.529091 96.87923 
L 198.572727 86.191247 
L 201.616364 76.437652 
L 204.66 67.772265 
L 206.181818 63.891087 
L 207.703636 60.331745 
L 209.225455 57.108287 
L 210.747273 54.233433 
L 212.269091 51.71853 
L 213.790909 49.573503 
L 215.312727 47.806817 
L 216.834545 46.425445 
L 218.356364 45.434838 
L 219.878182 44.838906 
L 221.4 44.64 
L 222.921818 44.838906 
L 224.443636 45.434838 
L 225.965455 46.425445 
L 227.487273 47.806817 
L 229.009091 49.573503 
L 230.530909 51.71853 
L 232.052727 54.233433 
L 233.574545 57.108287 
L 235.096364 60.331745 
L 236.618182 63.891087 
L 238.14 67.772265 
L 241.183636 76.437652 
L 244.227273 86.191247 
L 247.270909 96.87923 
L 250.314545 108.333045 
L 254.88 126.551963 
L 268.576364 182.546955 
L 271.62 194.00077 
L 274.663636 204.688753 
L 277.707273 214.442348 
L 280.750909 223.107735 
L 282.272727 226.988913 
L 283.794545 230.548255 
L 285.316364 233.771713 
L 286.838182 236.646567 
L 288.36 239.16147 
L 289.881818 241.306497 
L 291.403636 243.073183 
L 292.925455 244.454555 
L 294.447273 245.445162 
L 295.969091 246.041094 
L 297.490909 246.24 
L 299.012727 246.041094 
L 300.534545 245.445162 
L 302.056364 244.454555 
L 303.578182 243.073183 
L 305.1 241.306497 
L 306.621818 239.16147 
L 308.143636 236.646567 
L 309.665455 233.771713 
L 311.187273 230.548255 
L 312.709091 226.988913 
L 314.230909 223.107735 
L 317.274545 214.442348 
L 320.318182 204.688753 
L 323.361818 194.00077 
L 326.405455 182.546955 
L 330.970909 164.328037 
L 344.667273 108.333045 
L 347.710909 96.87923 
L 350.754545 86.191247 
L 353.798182 76.437652 
L 356.841818 67.772265 
L 358.363636 63.891087 
L 359.885455 60.331745 
L 361.407273 57.108287 
L 362.929091 54.233433 
L 364.450909 51.71853 
L 365.972727 49.573503 
L 367.494545 47.806817 
L 369.016364 46.425445 
L 370.538182 45.434838 
L 372.06 44.838906 
L 373.581818 44.64 
L 373.581818 44.64 
" style="fill:none;stroke:#377eb8;stroke-linecap:square;stroke-width:1.5;"/>
   </g>
   <g id="patch_3">
    <path d="M 54 256.32 
L 54 34.56 
" style="fill:none;"/>
   </g>
   <g id="patch_4">
    <path d="M 388.8 256.32 
L 388.8 34.56 
" style="fill:none;"/>
   </g>
   <g id="patch_5">
    <path d="M 54 256.32 
L 388.8 256.32 
" style="fill:none;"/>
   </g>
   <g id="patch_6">
    <path d="M 54 34.56 
L 388.8 34.56 
" style="fill:none;"/>
   </g>
  </g>
 </g>
 <defs>
  <clipPath id="pf6f4700104">
   <rect height="221.76" width="334.8" x="54" y="34.56"/>
  </clipPath>
 </defs>
</svg>
